<svg width="2501" height="2500" viewBox="0 0 2501 2500" fill="none" xmlns="http://www.w3.org/2000/svg">
	<path d="M226.5 760V1740C226.5 1803 259.5 1860 314.5 1892L1163.5 2382C1217.5 2413 1284.5 2413 1338.5 2382L2187.5 1892C2241.5 1861 2275.5 1803 2275.5 1740V760C2275.5 697 2242.5 640 2187.5 608L1338.5 118C1284.5 87 1217.5 87 1163.5 118L314.5 608C260.5 639 227.5 697 227.5 760H226.5Z" fill="#213147"/>
	<path d="M1435.5 1440L1314.5 1772C1311.5 1781 1311.5 1791 1314.5 1801L1522.5 2372L1763.5 2233L1474.5 1440C1467.5 1422 1442.5 1422 1435.5 1440Z" fill="#12AAFF"/>
	<path d="M1678.5 882C1671.5 864 1646.5 864 1639.5 882L1518.5 1214C1515.5 1223 1515.5 1233 1518.5 1243L1859.5 2178L2100.5 2039L1678.5 883V882Z" fill="#12AAFF"/>
	<path d="M1250.5 155C1256.5 155 1262.5 157 1267.5 160L2185.5 690C2196.5 696 2202.5 708 2202.5 720V1780C2202.5 1792 2195.5 1804 2185.5 1810L1267.5 2340C1262.5 2343 1256.5 2345 1250.5 2345C1244.5 2345 1238.5 2343 1233.5 2340L315.5 1810C304.5 1804 298.5 1792 298.5 1780V719C298.5 707 305.5 695 315.5 689L1233.5 159C1238.5 156 1244.5 154 1250.5 154V155ZM1250.5 0C1217.5 0 1185.5 8 1155.5 25L237.5 555C178.5 589 142.5 651 142.5 719V1779C142.5 1847 178.5 1909 237.5 1943L1155.5 2473C1184.5 2490 1217.5 2498 1250.5 2498C1283.5 2498 1315.5 2490 1345.5 2473L2263.5 1943C2322.5 1909 2358.5 1847 2358.5 1779V719C2358.5 651 2322.5 589 2263.5 555L1344.5 25C1315.5 8 1282.5 0 1249.5 0H1250.5Z" fill="#9DCCED"/>
	<path d="M642.5 2179L727.5 1947L897.5 2088L738.5 2234L642.5 2179Z" fill="#213147"/>
	<path d="M1172.5 644H939.5C922.5 644 906.5 655 900.5 671L401.5 2039L642.5 2178L1192.5 671C1197.5 657 1187.5 643 1173.5 643L1172.5 644Z" fill="white"/>
	<path d="M1580.5 644H1347.5C1330.5 644 1314.5 655 1308.5 671L738.5 2233L979.5 2372L1599.5 671C1604.5 657 1594.5 643 1580.5 643V644Z" fill="white"/>
</svg>
