<svg width="72" height="62" viewBox="0 0 72 62" fill="none" xmlns="http://www.w3.org/2000/svg">
	<path d="M71.3 52.2C68.7 47.8 66 43.4 63.4 39C56.7 27.7 50 16.3 43.4 5C42 2.6 40.4 0.4 36.9 0.1C36.6 0 36.3 0 36 0C35.7 0 35.4 0 35 0.1C31.5 0.4 30 2.6 28.5 5C21.8 16.3 15.2 27.7 8.5 39C6 43.4 3.3 47.8 0.699998 52.2C-1.3 55.7 1.2 60.7 5.2 61C9 61.3 12.8 61.2 16.7 61.2C23.1 61.2 29.5 61.2 36 61.2C42.5 61.2 48.8 61.2 55.3 61.2C59.1 61.2 62.9 61.3 66.8 61C70.8 60.8 73.3 55.8 71.3 52.2ZM36 49.3H15.8C22.5 37.8 29.1 26.6 36 14.9C42.8 26.5 49.5 37.9 56.2 49.3H36Z" fill="url(#paint0_linear_16_38)"/>
	<defs>
	<linearGradient id="paint0_linear_16_38" x1="9.3108" y1="45.2798" x2="53.5808" y2="29.5698" gradientUnits="userSpaceOnUse">
	<stop stop-color="#0177D3"/>
	<stop offset="1" stop-color="#01D5BE"/>
	</linearGradient>
	</defs>
</svg>
