<svg width="51" height="51" viewBox="0 0 51 51" fill="none" xmlns="http://www.w3.org/2000/svg">
	<path d="M11.7 0C5.2 0 0 5.3 0 11.8V39.3C0 45.8 5.3 51.1 11.8 51.1H39C45.5 51.1 50.8 45.8 50.8 39.3V11.8C50.8 5.3 45.5 0 39 0H11.7ZM33.6 19C31.7 17.4 29.2 16.5 26.7 16.5C24.6 16.5 22.5 17.2 22.5 19.1C22.5 20.9 24.4 21.5 26.6 22.4L27.3 22.6C31.8 24.1 35.6 26 35.6 30.4C35.6 35.2 31.9 38.5 25.7 38.9L25.1 41.5C25 42 24.6 42.3 24.1 42.3H20.2C19.6 42.3 19.2 41.8 19.2 41.2C19.2 41.1 19.2 41.1 19.2 41L19.8 38.3C17.5 37.7 15.4 36.5 13.6 34.9C13.2 34.5 13.2 33.9 13.5 33.5L13.6 33.4L15.7 31.3C16.1 30.9 16.7 30.9 17.1 31.3C19.1 33.2 21.7 34.2 24.4 34.1C27.2 34.1 29.1 32.9 29.1 31C29.1 29.3 27.6 28.7 24.6 27.7L23.6 27.3C19.8 26 16.2 24 16.2 19.5C16.2 14.3 20.5 11.8 25.6 11.5L26.1 8.9C26.2 8.4 26.6 8.1 27.1 8.1H30.9C31.5 8.1 31.9 8.5 31.9 9.1C31.9 9.2 31.9 9.3 31.9 9.4L31.3 12.3C33.3 12.9 35.1 14 36.6 15.3C37 15.7 37.1 16.3 36.7 16.7L36.6 16.8L34.6 18.8C34.6 19.3 34 19.3 33.6 19Z" fill="#00D54B"/>
</svg>

