<svg width="492" height="324" viewBox="0 0 492 324" fill="none" xmlns="http://www.w3.org/2000/svg">
  <mask id="mask0_17_114" style="mask-type:luminance" maskUnits="userSpaceOnUse" x="0" y="0" width="492" height="324">
    <path d="M491.6 0.5H0.700195V323.4H491.6V0.5Z" fill="white"/>
  </mask>
  <g mask="url(#mask0_17_114)">
    <path d="M97.8002 323.5C151.4 323.5 194.9 278.2 194.9 222.4C194.9 166.6 151.4 121.3 97.8002 121.3C44.2002 121.3 0.700195 166.6 0.700195 222.4C0.700195 278.2 44.2002 323.5 97.8002 323.5Z" fill="#4D4D4D"/>
    <path d="M394.5 323.5C448.1 323.5 491.6 278.2 491.6 222.4C491.6 166.6 448.1 121.3 394.5 121.3C340.9 121.3 297.4 166.6 297.4 222.4C297.4 278.2 340.9 323.5 394.5 323.5Z" fill="#E2E1E1"/>
    <path d="M248.4 29.3C352.2 29.3 436.7 115.2 440 222.4H467.6C464.2 99.3 367.4 0.5 248.4 0.5C129.4 0.5 32.6002 99.2 29.2002 222.3H56.8002C60.1002 115.1 144.6 29.3 248.4 29.3Z" fill="#D7A9FC"/>
    <path d="M248.4 29.2998C144.6 29.2998 60.1003 115.2 56.8003 222.4H86.4003C89.7003 132.2 161 60.0998 248.4 60.0998C335.8 60.0998 407.1 132.2 410.4 222.4H440C436.6 115.1 352.2 29.2998 248.4 29.2998Z" fill="#449DEF"/>
    <path d="M248.4 95.8C316.9 95.8 372.6 151.9 375.9 222.3H410.4C407.1 132.1 335.9 60 248.4 60C160.9 60 89.8004 132.1 86.4004 222.3H120.9C124.2 151.9 179.9 95.8 248.4 95.8Z" fill="#80CD80"/>
    <path d="M248.4 95.7998C179.9 95.7998 124.2 151.9 120.9 222.3H155.7C159 171.9 199.2 132 248.4 132C297.6 132 337.9 171.9 341.1 222.3H375.9C372.6 151.9 316.8 95.7998 248.4 95.7998Z" fill="#F9D34C"/>
  </g>
</svg>
