<?xml version="1.0" encoding="UTF-8"?>
<svg id="Layer_2" data-name="Layer 2" xmlns="http://www.w3.org/2000/svg" xmlns:xlink="http://www.w3.org/1999/xlink" viewBox="0 0 249.34 204.47">
  <defs>
    <style>
      .cls-1 {
        fill: url(#linear-gradient);
      }

      .cls-2 {
        fill: url(#linear-gradient-2);
      }
    </style>
    <linearGradient id="linear-gradient" x1="13.89" y1="54.09" x2="99.86" y2="112.26" gradientUnits="userSpaceOnUse">
      <stop offset="0" stop-color="#3ca5fc"/>
      <stop offset="1" stop-color="#9324fe"/>
    </linearGradient>
    <linearGradient id="linear-gradient-2" x1="142.39" y1="85.98" x2="221.15" y2="142.61" gradientUnits="userSpaceOnUse">
      <stop offset="0" stop-color="#a011ff"/>
      <stop offset="1" stop-color="#ec8f60"/>
    </linearGradient>
  </defs>
  <g id="Layer_1-2" data-name="Layer 1">
    <g>
      <path class="cls-1" d="m133.16,55.75l-37.43-39.36-11.7-11.71c-6.25-6.25-16.38-6.25-22.63,0-6.25,6.25-6.25,16.38,0,22.63l.23.23L11.92,77.77c-14.7,14.85-15.97,37.46-2.91,51.47l52.96,54.2c3.13,3.21,7.29,4.82,11.44,4.82s8.07-1.52,11.18-4.56c6.32-6.18,6.44-16.31.26-22.63l-52.49-53.71c-.85-1.06-.19-4.57,2.3-7.08l49.31-49.82,26,27.34c3.15,3.31,7.37,4.97,11.6,4.97,3.96,0,7.93-1.46,11.02-4.41,6.4-6.09,6.66-16.22.57-22.62Z"/>
      <path class="cls-2" d="m116.18,148.72l37.43,39.36,11.7,11.71c6.25,6.25,16.38,6.25,22.63,0,6.25-6.25,6.25-16.38,0-22.63l-.23-.23,49.71-50.23c14.7-14.85,15.97-37.46,2.91-51.47l-52.96-54.2c-3.13-3.21-7.29-4.82-11.44-4.82s-8.07,1.52-11.18,4.56c-6.32,6.18-6.44,16.31-.26,22.63l52.49,53.71c.85,1.06.19,4.57-2.3,7.08l-49.31,49.82-26-27.34c-3.15-3.31-7.37-4.97-11.6-4.97-3.96,0-7.93,1.46-11.02,4.41-6.4,6.09-6.66,16.22-.57,22.62Z"/>
    </g>
  </g>
</svg>