<svg width="51" height="51" viewBox="0 0 51 51" fill="none" xmlns="http://www.w3.org/2000/svg">
  <path d="M25.5 50.7002C11.7 50.7002 0.5 39.5002 0.5 25.7002C0.5 11.9002 11.7 0.700195 25.5 0.700195C39.3 0.700195 50.5 11.9002 50.5 25.7002C50.5 39.5002 39.3 50.7002 25.5 50.7002Z" fill="url(#paint0_linear_17_94)"/>
  <path d="M38.0997 21.4L32.6997 13.6C31.8997 12.3 29.9997 13 29.9997 14.5C30.0997 15.8 30.5997 17.3 31.7997 19C31.2997 18.7 23.7997 13 14.8997 16C13.8997 16.3 13.3997 17.2 13.6997 18.1C13.8997 19 14.8997 19.5 15.6997 19.3C17.6997 19 19.4997 18.8 21.3997 19C23.1997 19.2 24.9997 19.7 26.7997 20.5C28.4997 21.3 29.9997 22.5 31.3997 23.8C32.9997 25.3 34.8997 28.5 34.8997 28.5C34.9997 28.7 35.1997 28.8 35.3997 28.9C35.5997 29 35.8997 29 36.0997 28.9C36.5997 28.7 36.7997 28.1 36.6997 27.6C36.2997 26.5 35.7997 25.5 35.1997 24.5C35.8997 24.7 36.3997 25.1 37.1997 24.9C37.7997 24.7 38.2997 24.3 38.4997 23.8C38.6997 23.4 38.6997 23 38.6997 22.6C38.4997 22.1 38.2997 21.7 38.0997 21.4Z" fill="white"/>
  <path d="M13.2998 29.9998L18.6998 37.7998C19.4998 38.9998 21.3998 38.3998 21.3998 36.8998C21.2998 35.5998 20.7998 34.0998 19.5998 32.3998C20.0998 32.6998 27.5998 38.3998 36.4998 35.3998C37.4998 35.0998 37.9998 34.1998 37.6998 33.2998C37.4998 32.3998 36.4998 31.8998 35.6998 32.0998C33.7998 32.3998 31.8998 32.5998 30.0998 32.3998C28.2998 32.1998 26.4998 31.6998 24.6998 30.8998C22.9998 30.0998 21.4998 28.8998 20.0998 27.5998C18.4998 26.0998 16.5998 22.8998 16.5998 22.8998C16.4998 22.6998 16.2998 22.5998 16.0998 22.4998C15.8998 22.3998 15.5998 22.3998 15.3998 22.4998C14.8998 22.6998 14.6998 23.2998 14.7998 23.7998C15.1998 24.8998 15.6998 25.8998 16.2998 26.8998C15.5998 26.6998 15.0998 26.2998 14.2998 26.4998C13.6998 26.6998 13.1998 27.0998 12.9998 27.5998C12.7998 27.9998 12.7998 28.3998 12.7998 28.7998C12.8998 29.1998 13.0998 29.6998 13.2998 29.9998Z" fill="white"/>
  <defs>
  <linearGradient id="paint0_linear_17_94" x1="0.5315" y1="25.6948" x2="50.4685" y2="25.6948" gradientUnits="userSpaceOnUse">
  <stop offset="0.15" stop-color="#B32EFF"/>
  <stop offset="0.42" stop-color="#CE60D3"/>
  <stop offset="0.65" stop-color="#E185B3"/>
  <stop offset="0.84" stop-color="#EE9C9F"/>
  <stop offset="0.96" stop-color="#F2A498"/>
  </linearGradient>
  </defs>
</svg>