<svg width="501" height="500" viewBox="0 0 501 500" fill="none" xmlns="http://www.w3.org/2000/svg">
	<path d="M250.5 500C388.571 500 500.5 388.071 500.5 250C500.5 111.929 388.571 0 250.5 0C112.429 0 0.5 111.929 0.5 250C0.5 388.071 112.429 500 250.5 500Z" fill="#FF0420"/>
	<path d="M177.6 316.4C162.7 316.4 150.5 312.9 141 305.9C131.6 298.8 126.9 288.6 126.9 275.5C126.9 272.7 127.2 269.4 127.8 265.4C129.4 256.4 131.7 245.6 134.7 232.9C143.2 198.5 165.2 181.3 200.6 181.3C210.2 181.3 218.9 182.9 226.5 186.2C234.1 189.3 240.1 194.1 244.5 200.5C248.9 206.8 251.1 214.3 251.1 223C251.1 225.6 250.8 228.9 250.2 232.9C248.3 244 246.1 254.9 243.4 265.4C239 282.5 231.5 295.4 220.7 303.9C210 312.3 195.6 316.4 177.6 316.4ZM180.3 289.4C187.3 289.4 193.2 287.3 198.1 283.2C203.1 279.1 206.7 272.8 208.8 264.2C211.7 252.4 213.9 242.2 215.4 233.4C215.9 230.8 216.2 228.1 216.2 225.3C216.2 213.9 210.3 208.2 198.4 208.2C191.4 208.2 185.4 210.3 180.4 214.4C175.5 218.5 172 224.8 169.9 233.4C167.6 241.8 165.4 252 163.1 264.2C162.6 266.7 162.3 269.3 162.3 272.1C162.2 283.7 168.3 289.4 180.3 289.4Z" fill="white"/>
	<path d="M259.8 314.6C258.4 314.6 257.4 314.2 256.6 313.3C256 312.3 255.8 311.2 256 309.9L281.9 187.9C282.1 186.5 282.8 185.4 284 184.5C285.1 183.6 286.3 183.2 287.6 183.2H337.5C351.4 183.2 362.5 186.1 370.9 191.8C379.4 197.6 383.7 205.9 383.7 216.8C383.7 219.9 383.3 223.2 382.6 226.6C379.5 241 373.2 251.6 363.6 258.5C354.2 265.4 341.3 268.8 324.9 268.8H299.6L291 309.9C290.7 311.3 290.1 312.4 288.9 313.3C287.8 314.2 286.6 314.6 285.3 314.6H259.8ZM326.2 242.9C331.5 242.9 336 241.5 339.9 238.6C343.9 235.7 346.5 231.6 347.8 226.2C348.2 224.1 348.4 222.2 348.4 220.6C348.4 217 347.3 214.2 345.2 212.3C343.1 210.3 339.4 209.3 334.3 209.3H311.8L304.7 242.9H326.2Z" fill="white"/>
</svg>
