<svg width="276" height="340" viewBox="0 0 276 340" fill="none" xmlns="http://www.w3.org/2000/svg">
  <path d="M107.822 67.8616C105.493 67.8635 103.24 68.6961 101.47 70.2098C99.6991 71.7235 98.5261 73.819 98.1618 76.1198L82.1104 177.925C82.8587 173.17 86.9556 169.667 91.7707 169.667H138.807C186.145 169.667 226.314 135.133 233.654 88.3353C234.2 84.8414 234.51 81.3146 234.58 77.779C222.55 71.471 208.418 67.8616 192.933 67.8616H107.822Z" fill="#001C64"/>
  <path d="M234.58 77.783C234.51 81.3185 234.2 84.8453 233.654 88.3392C226.314 135.137 186.142 169.671 138.807 169.671H91.7706C86.9593 169.671 82.8586 173.171 82.1103 177.929L67.3511 271.48L58.1065 330.168C57.926 331.302 57.9936 332.462 58.3048 333.567C58.616 334.672 59.1635 335.696 59.909 336.57C60.6546 337.443 61.5807 338.144 62.6235 338.624C63.6663 339.105 64.8009 339.353 65.949 339.352H117.003C119.332 339.351 121.585 338.518 123.355 337.004C125.126 335.491 126.299 333.395 126.663 331.094L140.111 245.802C140.475 243.5 141.649 241.403 143.421 239.889C145.194 238.375 147.448 237.544 149.779 237.543H179.837C227.176 237.543 267.345 203.01 274.684 156.212C279.896 122.997 263.168 92.7726 234.58 77.783Z" fill="#0070E0"/>
  <path d="M49.8218 0.000244141C45.0105 0.000244141 40.9098 3.50009 40.1614 8.25095L0.0983569 262.295C-0.661327 267.118 3.06538 271.48 7.94853 271.48H67.3588L82.1104 177.929L98.1618 76.1236C98.5261 73.8228 99.6991 71.7273 101.47 70.2136C103.241 68.6999 105.493 67.8673 107.822 67.8654H192.933C208.422 67.8654 222.55 71.4786 234.58 77.7829C235.404 35.1763 200.247 0.000244141 151.91 0.000244141H49.8218Z" fill="#003087"/>
</svg>
