<svg width="142" height="112" viewBox="0 0 142 112" fill="none" xmlns="http://www.w3.org/2000/svg">
<path d="M140.3 58.0001L88 110.3C86.9 111.4 85 111.4 83.9 110.3L48.9 75.3001C47.3 73.7001 46.4 71.5001 46.4 69.2001C46.4 66.9001 47.3 64.7001 48.9 63.1001L50.4 61.6001C50.5 61.5001 50.7 61.4001 50.8 61.4001C51 61.4001 51.1 61.5001 51.2 61.6001L84.3 94.7001C85.2 95.5001 86.6 95.5001 87.5 94.7001L124.7 57.5001C125.6 56.6001 125.6 55.2001 124.7 54.3001L87.5 17.1001C86.6 16.3001 85.2 16.2001 84.3 17.1001L4.39998 97.0001C3.79998 97.6001 2.89999 97.8001 2.09999 97.5001C1.29999 97.2001 0.799988 96.4001 0.799988 95.5001V16.3001C0.799988 15.4001 1.29999 14.7001 2.09999 14.4001C2.89999 14.1001 3.79998 14.2001 4.39998 14.9001L26.1 36.6001C27.7 38.2001 28.6 40.4001 28.6 42.7001C28.6 45.0001 27.7 47.2001 26.1 48.8001L24.6 50.3001C24.4 50.5001 24 50.5001 23.7 50.3001L14.2 40.8001C13.8 40.4001 13.2 40.4001 12.9 40.5001C12.5 40.7001 12.1 41.0001 12.1 41.6001V70.4001C12.1 71.0001 12.5 71.4001 12.9 71.5001C13.3 71.6001 13.8 71.7001 14.2 71.2001L83.8 1.6001C84.8 0.600098 86.8 0.600098 87.9 1.6001L140.2 53.9001C141.4 55.1001 141.4 56.9001 140.3 58.0001Z" fill="#0A0D14"/>
</svg>

