<svg width="430" height="430" viewBox="0 0 430 430" fill="none" xmlns="http://www.w3.org/2000/svg">
	<path d="M214.6 429.2C333.12 429.2 429.2 333.12 429.2 214.6C429.2 96.0797 333.12 0 214.6 0C96.0797 0 0 96.0797 0 214.6C0 333.12 96.0797 429.2 214.6 429.2Z" fill="url(#paint0_linear_16_42)"/>
	<path d="M350.1 201.5L289.5 140.9L289.4 140.8L289.2 140.6C288.8 140.2 288.4 139.9 288 139.6C287.7 139.4 287.4 139.1 287.1 138.9C287 138.8 286.8 138.7 286.7 138.6C279.5 133.9 270 135.5 264.7 142.2L170.4 236.5V152.5C170.4 143.3 162.9 135.9 153.7 135.9C144.5 135.9 137.1 143.4 137.1 152.5V236.5L102.7 202.1C96 195.8 85.5 196 79.2 202.7C73.1 209.1 73.1 219.2 79.2 225.7L142 288.5C142.4 288.9 142.8 289.3 143.2 289.6C143.6 289.9 144.1 290.3 144.5 290.6C146.8 292.1 149.4 293 152.1 293.2H152.2C152.7 293.2 153.3 293.3 153.8 293.3H154C154.5 293.3 154.9 293.3 155.4 293.2H155.7C156.1 293.2 156.6 293.1 157 293H157.2C157.7 292.9 158.1 292.8 158.6 292.7H158.7C159.2 292.5 159.7 292.4 160.2 292.2C160.9 291.9 161.6 291.6 162.2 291.2L162.6 291C163.2 290.6 163.8 290.2 164.4 289.7L164.6 289.5C165 289.2 165.3 288.9 165.6 288.6L261.2 192.9V276.6C261.2 285.8 268.7 293.2 277.9 293.2C287.1 293.2 294.5 285.7 294.5 276.6V192.6L326.8 225C333.4 231.4 343.9 231.3 350.3 224.7C356.5 218.3 356.5 208 350.1 201.5Z" fill="white"/>
	<defs>
	<linearGradient id="paint0_linear_16_42" x1="28.7207" y1="107.295" x2="400.519" y2="321.945" gradientUnits="userSpaceOnUse">
	<stop offset="0.13" stop-color="#348BED"/>
	<stop offset="0.31" stop-color="#2B80E8"/>
	<stop offset="0.64" stop-color="#1461DB"/>
	<stop offset="0.72" stop-color="#0E57D7"/>
	</linearGradient>
	</defs>
</svg>
