<svg width="82" height="82" viewBox="0 0 82 82" fill="none" xmlns="http://www.w3.org/2000/svg">
<circle cx="41" cy="41" r="41" fill="white"/>
<path d="M62.6259 19L43.8748 32.8507L47.3616 24.688L62.6259 19Z" fill="#6D95F9"/>
<path d="M19.3741 19L37.9583 32.98L34.6384 24.688L19.3741 19Z" fill="#6D95F9"/>
<path d="M55.8748 51.1155L50.8856 58.7242L61.5688 61.6605L64.629 51.2817L55.8748 51.1155Z" fill="#6D95F9"/>
<path d="M17.3895 51.2817L20.4313 61.6605L31.0958 58.7242L26.1252 51.1155L17.3895 51.2817Z" fill="#6D95F9"/>
<path d="M30.521 38.2615L27.5535 42.7307L38.1253 43.2109L37.7729 31.8533L30.521 38.2615Z" fill="#6D95F9"/>
<path d="M51.4791 38.2614L44.1159 31.7239L43.8748 43.2108L54.4466 42.7306L51.4791 38.2614Z" fill="#6D95F9"/>
<path d="M31.0957 58.7238L37.4945 55.6397L31.986 51.3552L31.0957 58.7238Z" fill="#6D95F9"/>
<path d="M44.5055 55.6397L50.8857 58.7238L50.014 51.3552L44.5055 55.6397Z" fill="#6D95F9"/>
<path d="M50.8857 58.724L44.5055 55.6399L45.0248 59.7766L44.9692 61.5311L50.8857 58.724Z" fill="#D7C1B3"/>
<path d="M31.0959 58.725L37.031 61.5321L36.9939 59.7776L37.4947 55.6409L31.0959 58.725Z" fill="#D7C1B3"/>
<path d="M37.1421 48.6218L31.8376 47.0705L35.5842 45.353L37.1421 48.6218Z" fill="#2F343B"/>
<path d="M44.8575 48.6218L46.4155 45.353L50.1806 47.0705L44.8575 48.6218Z" fill="#2F343B"/>
<path d="M31.0959 58.7239L32.0232 51.1152L26.1252 51.2814L31.0959 58.7239Z" fill="#497BF8"/>
<path d="M49.9767 51.1152L50.8855 58.7239L55.8747 51.2814L49.9767 51.1152Z" fill="#497BF8"/>
<path d="M54.4466 42.7307L43.8748 43.2109L44.8578 48.6219L46.4157 45.3531L50.1808 47.0706L54.4466 42.7307Z" fill="#497BF8"/>
<path d="M31.8377 47.0706L35.5842 45.3531L37.1422 48.6219L38.1252 43.2109L27.5533 42.7307L31.8377 47.0706Z" fill="#497BF8"/>
<path d="M27.5535 42.7324L31.9862 51.3568L31.8378 47.0723L27.5535 42.7324Z" fill="#6D95F9"/>
<path d="M50.181 47.0706L50.014 51.3551L54.4468 42.7307L50.181 47.0706Z" fill="#6D95F9"/>
<path d="M38.1252 43.2107L37.1422 48.6217L38.3849 55.0115L38.6631 46.5903L38.1252 43.2107Z" fill="#6D95F9"/>
<path d="M43.8748 43.2107L43.3555 46.5718L43.6151 55.0115L44.8578 48.6217L43.8748 43.2107Z" fill="#6D95F9"/>
<path d="M44.8579 48.6226L43.6152 55.0124L44.5055 55.6403L50.014 51.3558L50.1809 47.0713L44.8579 48.6226Z" fill="#B6CAFC"/>
<path d="M31.8376 47.0713L31.986 51.3558L37.4945 55.6403L38.3848 55.0124L37.1421 48.6226L31.8376 47.0713Z" fill="#B6CAFC"/>
<path d="M44.9692 61.531L45.0248 59.7765L44.5426 59.3702H37.4576L36.9939 59.7765L37.031 61.531L31.0959 58.7239L33.1732 60.4229L37.3834 63.3223H44.5982L48.827 60.4229L50.8857 58.7239L44.9692 61.531Z" fill="#C0AD9E"/>
<path d="M44.5054 55.6396L43.6151 55.0117H38.3848L37.4945 55.6396L36.9938 59.7764L37.4575 59.3701H44.5424L45.0247 59.7764L44.5054 55.6396Z" fill="#2F343B"/>
<path d="M63.4235 33.7557L65 26.11L62.626 19L44.5055 32.3891L51.4792 38.2618L61.3277 41.1243L63.4977 38.5942L62.5518 37.9109L64.0541 36.5443L62.9042 35.6578L64.4065 34.5128L63.4235 33.7557Z" fill="#2C56DD"/>
<path d="M17 26.1115L18.5951 33.7571L17.575 34.5143L19.0958 35.6593L17.9459 36.5457L19.4482 37.9123L18.5023 38.5956L20.6723 41.1257L30.5208 38.2632L37.4946 32.3905L19.374 19.0015L17 26.1115Z" fill="#2C56DD"/>
<path d="M61.3275 41.1244L51.479 38.262L54.4466 42.7311L50.0138 51.3555L55.8747 51.2817H64.6289L61.3275 41.1244Z" fill="#B6CAFC"/>
<path d="M30.5209 38.262L20.6724 41.1244L17.3895 51.2817H26.1252L31.9861 51.3555L27.5533 42.7311L30.5209 38.262Z" fill="#B6CAFC"/>
<path d="M43.8746 43.2108L44.5052 32.3888L47.3615 24.6877H34.6382L37.4944 32.3888L38.125 43.2108L38.3662 46.6089L38.3847 55.0116H43.615L43.6335 46.6089L43.8746 43.2108Z" fill="#B6CAFC"/>
</svg>
