<svg width="82" height="82" viewBox="0 0 82 82" fill="none" xmlns="http://www.w3.org/2000/svg">
<path d="M79.1172 26.4258C78.3164 25.7852 61.1797 12.0117 57.4961 8.96875C53.9727 6.24609 47.8867 0 41 0C33.9531 0 28.0273 6.08594 24.3438 8.96875C20.5 12.1719 3.36328 25.9453 2.72266 26.4258C0.960938 27.8672 0 29.9492 0 32.3516V74.3125C0 78.6367 3.36328 82 7.6875 82H74.3125C78.4766 82 82 78.6367 82 74.3125V32.3516C82 29.9492 80.8789 27.8672 79.1172 26.4258ZM74.3125 73.3516C74.3125 73.9922 73.832 74.3125 73.3516 74.3125H8.64844C8.00781 74.3125 7.6875 73.9922 7.6875 73.3516V32.832C7.6875 32.5117 7.6875 32.1914 8.00781 32.0312C10.5703 29.9492 25.4648 18.0977 29.1484 15.0547C32.0312 12.6523 37.1562 7.6875 41 7.6875C44.6836 7.6875 49.8086 12.8125 52.6914 15.0547C56.375 18.0977 71.2695 29.9492 73.832 32.0312C74.1523 32.1914 74.3125 32.5117 74.3125 32.832V73.3516ZM69.1875 43.4023L66.625 40.3594C65.9844 39.5586 64.8633 39.3984 63.9023 40.1992C59.418 43.8828 54.6133 47.7266 52.6914 49.168C49.8086 51.5703 44.6836 56.375 41 56.375C37.1562 56.375 32.0312 51.4102 29.1484 49.168C27.2266 47.7266 22.4219 43.8828 17.9375 40.1992C16.9766 39.3984 15.8555 39.5586 15.2148 40.3594L12.6523 43.4023C12.0117 44.2031 12.1719 45.4844 12.9727 46.125C17.6172 49.8086 22.582 53.8125 24.3438 55.2539C27.8672 57.9766 33.9531 64.0625 41 64.0625C47.8867 64.0625 53.8125 58.1367 57.4961 55.2539C59.2578 53.6523 64.2227 49.8086 68.8672 46.125C69.668 45.4844 69.8281 44.2031 69.1875 43.4023Z" fill="url(#paint0_linear)"/>
<defs>
<linearGradient id="paint0_linear" x1="0.012517" y1="41.018" x2="82.0032" y2="41.018" gradientUnits="userSpaceOnUse">
<stop stop-color="#FFE566"/>
<stop offset="1" stop-color="#FFB0EB"/>
<stop offset="1" stop-color="#FFB0EB"/>
</linearGradient>
</defs>
</svg>
