<svg width="203" height="253" viewBox="0 0 203 253" fill="none" xmlns="http://www.w3.org/2000/svg">
<path d="M97.9924 227.139C100.187 228.345 102.813 228.345 105.008 227.139C120.736 218.49 184 180.355 184 126.5V60.3058C184 56.9652 181.924 53.9763 178.794 52.8096L104.294 25.0414C102.492 24.3697 100.508 24.3697 98.706 25.0414L24.2059 52.8096C21.0757 53.9763 19 56.9652 19 60.3058V126.5C19 180.355 82.2638 218.49 97.9924 227.139Z" stroke="url(#paint0_linear)" stroke-width="4" stroke-linecap="round" stroke-linejoin="round"/>
<path d="M98.0202 249.153C100.23 250.364 102.77 250.364 104.98 249.153C122.585 239.506 201 192.815 201 126.5V44.892C201 41.5583 198.933 38.5739 195.811 37.4023L104.311 3.05536C102.499 2.37496 100.501 2.37496 98.6885 3.05536L7.18853 37.4023C4.0674 38.5739 2 41.5583 2 44.892V126.5C2 192.815 80.4155 239.506 98.0202 249.153Z" stroke="url(#paint1_linear)" stroke-width="4" stroke-linecap="round" stroke-linejoin="round"/>
<path d="M97.9518 207.042C100.18 208.324 102.82 208.324 105.048 207.042C118.555 199.272 166 168.954 166 126.5V74.249C166 70.9365 163.959 67.9667 160.866 66.78L104.366 45.0998C102.521 44.3918 100.479 44.3918 98.634 45.0997L42.134 66.78C39.0414 67.9667 37 70.9365 37 74.249V126.5C37 168.954 84.4454 199.272 97.9518 207.042Z" fill="url(#paint2_linear)"/>
<path d="M130.424 108.338C130.424 106.564 130.339 104.791 130.339 103.186C130.339 101.919 129.326 100.821 127.975 100.821C118.008 100.821 110.323 97.9494 103.988 91.7838C103.059 90.9392 101.623 90.9392 100.694 91.7838C94.3597 97.9494 86.7584 100.821 76.7077 100.821C75.4408 100.821 74.3428 101.835 74.3428 103.186C74.3428 104.791 74.3428 106.564 74.2583 108.338C73.9205 125.145 73.4982 148.118 101.454 157.831C101.708 157.916 101.961 158 102.214 158C102.468 158 102.902 157.915 103.146 157.831C131.271 148.118 130.677 125.145 130.424 108.338ZM113.701 119.74L100.779 132.662C100.356 133.085 99.7651 133.338 99.0894 133.338C98.4982 133.338 97.907 133.085 97.4002 132.662L90.9813 126.243C90.0523 125.314 90.0523 123.878 90.9813 122.949C91.9104 122.02 93.3462 122.02 94.2752 122.949L99.0894 127.764L110.407 116.446C111.336 115.517 112.772 115.517 113.701 116.446C114.63 117.375 114.63 118.811 113.701 119.74Z" fill="white"/>
<defs>
<linearGradient id="paint0_linear" x1="100.87" y1="5.13497" x2="68.2194" y2="807.532" gradientUnits="userSpaceOnUse">
<stop stop-color="#F5F8FF"/>
<stop offset="0.536458" stop-color="#2C56DD"/>
</linearGradient>
<linearGradient id="paint1_linear" x1="100.74" y1="-20.9141" x2="60.8006" y2="953.681" gradientUnits="userSpaceOnUse">
<stop stop-color="#F5F8FF"/>
<stop offset="0.536458" stop-color="#2C56DD"/>
</linearGradient>
<linearGradient id="paint2_linear" x1="-34" y1="241" x2="190.128" y2="13.126" gradientUnits="userSpaceOnUse">
<stop stop-color="white"/>
<stop offset="0.273584" stop-color="#F5841F"/>
<stop offset="0.947917" stop-color="#2C56DD"/>
</linearGradient>
</defs>
</svg>
