<svg width="32" height="32" viewBox="0 0 32 32" fill="none" xmlns="http://www.w3.org/2000/svg">
<path d="M27.4414 16.3018C27.4414 15.8184 27.2363 15.3203 26.8994 14.9834L19.458 7.57129C19.0771 7.19043 18.6377 7 18.2129 7C17.1582 7 16.4404 7.73242 16.4404 8.69922C16.4404 9.24121 16.6748 9.65137 17.0117 9.98828L19.3408 12.332L21.8896 14.6611L19.3848 14.5146H6.86035C5.74707 14.5146 5 15.2324 5 16.3018C5 17.3711 5.74707 18.1035 6.86035 18.1035H19.3848L21.8896 17.957L19.3408 20.2861L17.0117 22.6299C16.6748 22.9521 16.4404 23.377 16.4404 23.9043C16.4404 24.8711 17.1582 25.6035 18.2129 25.6035C18.6377 25.6035 19.0771 25.4131 19.458 25.0469L26.8994 17.6348C27.2363 17.2979 27.4414 16.7998 27.4414 16.3018Z" fill="black"/>
</svg>
