<svg fill="none" height="32" viewBox="0 0 171 32" width="171" xmlns="http://www.w3.org/2000/svg"><path d="m150.756 16.3148c-.884-.5831-1.858-.9977-2.78-1.516-.598-.3369-1.235-.635-1.754-1.0626-.884-.7256-.702-2.1509.221-2.7729 1.325-.8811 3.52-.3887 3.754 1.4124 0 .0389.039.0648.078.0648h2.001c.052 0 .091-.0389.078-.0907-.104-1.244-.585-2.2806-1.468-2.94145-.845-.63493-1.806-.97183-2.833-.97183-5.287 0-5.768 5.58478-2.923 7.34708.325.2073 3.118 1.6067 4.106 2.2157.987.6091 1.299 1.7234.87 2.6045-.39.8034-1.403 1.3606-2.416 1.2958-1.105-.0648-1.962-.6608-2.261-1.5938-.052-.1684-.078-.4924-.078-.6349 0-.0389-.039-.0778-.078-.0778h-2.169c-.039 0-.078.0389-.078.0778 0 1.5679.39 2.436 1.455 3.2265 1 .7515 2.091 1.0625 3.222 1.0625 2.962 0 4.495-1.6715 4.806-3.4079.273-1.6974-.233-3.2265-1.753-4.2372z" fill="#161616"/><path d="m56.5569 8.72156h-.9613-1.0523c-.039 0-.065.02591-.078.05183l-1.7797 5.85691c-.026.0777-.1299.0777-.1559 0l-1.7798-5.85691c-.013-.03887-.039-.05183-.078-.05183h-1.0522-.9614-1.2991c-.039 0-.078.03887-.078.07774v14.9532c0 .0389.039.0778.078.0778h2.1695c.039 0 .078-.0389.078-.0778v-11.3639c0-.0907.1299-.1037.1559-.0259l1.7927 5.8958.1299.4146c.013.0389.039.0518.078.0518h1.6629c.0389 0 .0649-.0259.0779-.0518l.1299-.4146 1.7928-5.8958c.026-.0907.1559-.0648.1559.0259v11.3639c0 .0389.039.0778.0779.0778h2.1696c.0389 0 .0779-.0389.0779-.0778v-14.9532c0-.03887-.039-.07774-.0779-.07774z" fill="#161616"/><path d="m117.537 8.72156c-.039 0-.065.02591-.078.05183l-1.78 5.85691c-.026.0777-.129.0777-.155 0l-1.78-5.85691c-.013-.03887-.039-.05183-.078-.05183h-3.3c-.039 0-.078.03887-.078.07774v14.9532c0 .0389.039.0778.078.0778h2.17c.039 0 .078-.0389.078-.0778v-11.3639c0-.0907.129-.1037.155-.0259l1.793 5.8958.13.4146c.013.0389.039.0518.078.0518h1.663c.039 0 .065-.0259.078-.0518l.13-.4146 1.793-5.8958c.026-.0907.155-.0648.155.0259v11.3639c0 .0389.039.0778.078.0778h2.17c.039 0 .078-.0389.078-.0778v-14.9532c0-.03887-.039-.07774-.078-.07774z" fill="#161616"/><path d="m89.5545 8.72156h-4.0402-2.1695-4.0403c-.039 0-.0779.03887-.0779.07774v1.8659c0 .0389.0389.0778.0779.0778h3.9623v13.0095c0 .0389.039.0778.078.0778h2.1695c.039 0 .0779-.0389.0779-.0778v-13.0095h3.9623c.039 0 .078-.0389.078-.0778v-1.8659c0-.03887-.026-.07774-.078-.07774z" fill="#161616"/><path d="m102.351 23.8304h1.974c.052 0 .091-.0519.078-.1037l-4.079-15.00507c-.013-.03887-.039-.05183-.078-.05183h-.7533-1.3251-.7535c-.039 0-.065.02591-.078.05183l-4.0792 15.00507c-.013.0518.026.1037.078.1037h1.9746c.039 0 .065-.026.078-.0519l1.1822-4.3667c.0129-.0389.0389-.0519.0779-.0519h4.3654c.039 0 .065.026.078.0519l1.182 4.3667c.013.0259.052.0519.078.0519zm-5.1838-6.6085 1.585-5.8439c.0259-.0778.1299-.0778.1559 0l1.5849 5.8439c.013.0518-.026.1037-.078.1037h-3.1698c-.052 0-.0909-.0519-.078-.1037z" fill="#161616"/><path d="m136.024 23.8304h1.974c.052 0 .091-.0519.078-.1037l-4.079-15.00507c-.013-.03887-.039-.05183-.078-.05183h-.753-1.326-.753c-.039 0-.065.02591-.078.05183l-4.079 15.00507c-.013.0518.026.1037.078.1037h1.974c.039 0 .065-.026.078-.0519l1.183-4.3667c.013-.0389.038-.0519.077-.0519h4.365c.039 0 .065.026.078.0519l1.183 4.3667c.013.0259.039.0519.078.0519zm-5.184-6.6085 1.585-5.8439c.026-.0778.13-.0778.156 0l1.585 5.8439c.013.0518-.026.1037-.078.1037h-3.17c-.052 0-.091-.0519-.078-.1037z" fill="#161616"/><path d="m66.716 21.6145v-4.6389c0-.0388.039-.0777.078-.0777h5.781c.039 0 .078-.0389.078-.0778v-1.8659c0-.0389-.039-.0777-.078-.0777h-5.781c-.039 0-.078-.0389-.078-.0778v-3.965c0-.0389.039-.0778.078-.0778h6.5735c.039 0 .078-.0389.078-.0777v-1.86596c0-.03887-.039-.07774-.078-.07774h-6.6515-2.2474c-.039 0-.078.03887-.078.07774v1.94366 4.1335 2.0214 4.7944 2.0473c0 .0389.039.0778.078.0778h2.2474 6.9243c.039 0 .078-.0389.078-.0778v-1.9696c0-.0388-.039-.0777-.078-.0777h-6.8593c-.039-.013-.065-.0389-.065-.0907z" fill="#161616"/><path d="m170.58 23.7007-7.508-7.7358c-.026-.0259-.026-.0777 0-.1036l6.755-6.99723c.052-.05183.013-.12957-.052-.12957h-2.767c-.026 0-.039.01295-.052.02591l-5.729 5.93469c-.052.0518-.13.0129-.13-.0519v-5.83096c0-.03887-.039-.07774-.078-.07774h-2.17c-.039 0-.078.03887-.078.07774v14.95326c0 .0389.039.0777.078.0777h2.17c.039 0 .078-.0388.078-.0777v-6.5825c0-.0648.091-.1037.13-.0519l6.495 6.6862c.013.013.039.0259.052.0259h2.767c.052-.0129.091-.1036.039-.1425z" fill="#161616"/><g stroke-linecap="round" stroke-linejoin="round" stroke-width=".25"><path d="m32.4583.674805-13.1341 9.718295 2.4424-5.72731z" fill="#e17726" stroke="#e17726"/><path d="m2.16309.674805 13.01711 9.808995-2.3254-5.81801z" fill="#e27625" stroke="#e27625"/><path d="m27.7295 23.2083-3.4946 5.3385 7.4829 2.0603 2.1435-7.2822z" fill="#e27625" stroke="#e27625"/><path d="m.772949 23.3249 2.130551 7.2822 7.4699-2.0603-3.48162-5.3385z" fill="#e27625" stroke="#e27625"/><path d="m9.97067 14.1897-2.07858 3.1358 7.40491.3369-.2468-7.96904z" fill="#e27625" stroke="#e27625"/><path d="m24.6506 14.1897-5.1575-4.58704-.1689 8.05974 7.405-.3369z" fill="#e27625" stroke="#e27625"/><path d="m10.3735 28.547 4.482-2.164-3.8584-3.0062z" fill="#e27625" stroke="#e27625"/><path d="m19.7661 26.383 4.469 2.164-.6106-5.1702z" fill="#e27625" stroke="#e27625"/><path d="m24.2346 28.547-4.469-2.1639.3638 2.9025-.039 1.231z" fill="#d5bfb2" stroke="#d5bfb2"/><path d="m10.373 28.547 4.1572 1.9696-.026-1.231.3508-2.9025z" fill="#d5bfb2" stroke="#d5bfb2"/><path d="m14.6085 21.459-3.7154-1.0884 2.6242-1.2051z" fill="#233447" stroke="#233447"/><path d="m20.0127 21.459 1.0913-2.2935 2.6372 1.2051z" fill="#233447" stroke="#233447"/><path d="m10.3732 28.547.6496-5.3386-4.1312.1166z" fill="#cc6228" stroke="#cc6228"/><path d="m23.5981 23.2084.6366 5.3386 3.4946-5.222z" fill="#cc6228" stroke="#cc6228"/><path d="m26.7292 17.3256-7.405.3369.6886 3.7966 1.0912-2.2935 2.6372 1.205z" fill="#cc6228" stroke="#cc6228"/><path d="m10.893 20.3706 2.6243-1.205 1.0912 2.2935.6885-3.7966-7.40491-.3369z" fill="#cc6228" stroke="#cc6228"/><path d="m7.89209 17.3256 3.10491 6.0512-.104-3.0062z" fill="#e27525" stroke="#e27525"/><path d="m23.7414 20.3706-.1169 3.0062 3.1049-6.0512z" fill="#e27525" stroke="#e27525"/><path d="m15.2969 17.6625-.6885 3.7966.8704 4.4834.1949-5.9088z" fill="#e27525" stroke="#e27525"/><path d="m19.3242 17.6625-.3638 2.3583.1819 5.9217.8704-4.4834z" fill="#e27525" stroke="#e27525"/><path d="m20.0125 21.4591-.8704 4.4833.6236.4406 3.8583-3.0062.117-3.0062z" fill="#f5841f" stroke="#f5841f"/><path d="m10.8931 20.3706.1039 3.0062 3.8584 3.0062.6235-.4406-.8704-4.4833z" fill="#f5841f" stroke="#f5841f"/><path d="m20.0904 30.5165.039-1.231-.3378-.2851h-4.9626l-.3248.2851.026 1.231-4.1572-1.9696 1.4551 1.1921 2.9489 2.0344h5.0536l2.962-2.0344 1.442-1.1921z" fill="#c0ac9d" stroke="#c0ac9d"/><path d="m19.7658 26.3829-.6236-.4405h-3.6635l-.6235.4405-.3508 2.9026.3248-.2851h4.9626l.3378.2851z" fill="#161616" stroke="#161616"/><path d="m33.0166 11.028 1.1042-5.36446-1.6628-4.988735-12.6924 9.394395 4.8847 4.1205 6.8983 2.0085 1.52-1.7752-.6626-.4795 1.0523-.9588-.8055-.622 1.0523-.8034z" fill="#763e1a" stroke="#763e1a"/><path d="m.5 5.66354 1.11724 5.36446-.714514.5313 1.065274.8034-.80545.622 1.05228.9588-.66255.4795 1.51997 1.7752 6.8983-2.0085 4.88465-4.1205-12.69233-9.394395z" fill="#763e1a" stroke="#763e1a"/><path d="m31.5486 16.1981-6.8983-2.0084 2.0786 3.1358-3.1049 6.0512 4.1052-.0518h6.1319z" fill="#f5841f" stroke="#f5841f"/><path d="m9.97069 14.1897-6.89831 2.0084-2.299431 7.1268h6.118831l4.10522.0518-3.1049-6.0512z" fill="#f5841f" stroke="#f5841f"/><path d="m19.3241 17.6624.4417-7.5932 2.0006-5.40343h-8.9119l2.0006 5.40343.4417 7.5932.1689 2.3842.013 5.8958h3.6635l.013-5.8958z" fill="#f5841f" stroke="#f5841f"/></g></svg>