<svg width="16" height="17" viewBox="0 0 16 17" fill="none" xmlns="http://www.w3.org/2000/svg">
<path d="M3.50001 14.0889C3.49878 14.4177 3.59955 14.7395 3.78953 15.0135C3.97951 15.2874 4.25015 15.5012 4.56715 15.6276C4.88415 15.7541 5.23322 15.7876 5.57013 15.7239C5.90703 15.6602 6.2166 15.5021 6.45957 15.2697L11.9918 9.96628C12.1537 9.81133 12.2818 9.62718 12.3689 9.42449C12.4559 9.2218 12.5001 9.0046 12.4989 8.78544C12.4989 8.76625 12.4989 8.74854 12.4989 8.73083C12.5073 8.50385 12.4667 8.27766 12.3797 8.06637C12.2927 7.85508 12.1612 7.66322 11.9933 7.50275L6.45803 2.21259C6.13015 1.91402 5.69339 1.74999 5.24097 1.75551C4.78854 1.76102 4.35628 1.93564 4.03644 2.24211C3.7166 2.54857 3.53452 2.9626 3.52904 3.39584C3.52357 3.82908 3.69514 4.2472 4.00714 4.56099L8.36942 8.73821L4.00714 12.9154C3.84621 13.0695 3.71858 13.2524 3.63156 13.4538C3.54455 13.6552 3.49984 13.871 3.50001 14.0889Z" fill="#2196f3"/>
</svg>
