<svg width="33" height="32" viewBox="0 0 33 32" fill="none" xmlns="http://www.w3.org/2000/svg">
<path d="M0.5 16C0.5 7.16344 7.66344 0 16.5 0V0C25.3366 0 32.5 7.16344 32.5 16V16C32.5 24.8366 25.3366 32 16.5 32V32C7.66344 32 0.5 24.8366 0.5 16V16Z" fill="#037DD6"/>
<path d="M19.2601 9.97336L13.2401 11.9734C9.19341 13.3267 9.19341 15.5334 13.2401 16.88L15.0267 17.4734L15.6201 19.26C16.9667 23.3067 19.1801 23.3067 20.5267 19.26L22.5334 13.2467C23.4267 10.5467 21.9601 9.07336 19.2601 9.97336ZM19.4734 13.56L16.9401 16.1067C16.8401 16.2067 16.7134 16.2534 16.5867 16.2534C16.4601 16.2534 16.3334 16.2067 16.2334 16.1067C16.0401 15.9134 16.0401 15.5934 16.2334 15.4L18.7667 12.8534C18.9601 12.66 19.2801 12.66 19.4734 12.8534C19.6667 13.0467 19.6667 13.3667 19.4734 13.56Z" fill="#FCFCFC"/>
</svg>
