<svg width="120" height="120" viewBox="0 0 120 120" fill="none" xmlns="http://www.w3.org/2000/svg">
<circle cx="60" cy="60" r="59.5" fill="white" stroke="#7E7E7E"/>
<mask id="mask0_1_11" style="mask-type:alpha" maskUnits="userSpaceOnUse" x="1" y="1" width="117" height="117">
<circle cx="59.5" cy="59.5" r="58" fill="white" stroke="#7E7E7E"/>
</mask>
<g mask="url(#mask0_1_11)">
<path d="M0.983811 40.3271V39.8271L0.983805 39.3435H2.95102V39.8435L2.95102 40.3271H0.983811ZM0.000198364 38.3599H-0.499802V39.3435V39.8271V39.8435V40.3271V41.3107H0.000198364V43.2779H-0.499802V45.2451H0.000198364V47.2123H-0.499802V49.1796H0.000198364V51.1468H-0.499802V53.114H0.000198364V55.0812H-0.499802V57.0484H0.000198364V59.0156H-0.499802V60.9828H0.000198364V62.95H-0.499802V64.9173H0.000198364V66.8845H-0.499802V68.8517H0.000198364V70.8189H-0.499802V72.7861H0.000198364V74.7533H-0.499802V76.7205H0.000198364V78.6877H-0.499802V79.6714V80.155V80.1714V80.655V81.6386H0.000198364V83.6058H-0.499802V85.573H0.000198364V87.5402H-0.499802V89.5074H0.000198364V91.4746H-0.499802V93.4418H0.000198364V95.4091H-0.499802V97.3763H0.000198364V99.3435H-0.499802V101.311H0.000198364V103.278H-0.499802V105.245H0.000198364V107.212H-0.499802V109.18H0.000198364V111.147H-0.499802V113.114H0.000198364V115.081H-0.499802V117.048H0.000198364V119.016H-0.499802V119.999V120.499H0.000198364H0.983805V119.999H2.95102V120.499H4.91823V119.999H6.88544V120.499H8.85266V119.999H10.8199V120.499H12.7871V119.999H14.7543V120.499H16.7215V119.999H18.6887V120.499H20.6559V119.999H22.6231V120.499H24.5904V119.999H26.5576V120.499H28.5248V119.999H30.492V120.499H32.4592V119.999H34.4264V120.499H36.3936V119.999H38.3608V120.499H39.3445H39.8281H39.8445H40.3281H41.3117V119.999H43.2789V120.499H45.2461V119.999H47.2133V120.499H49.1805V119.999H51.1477V120.499H53.115V119.999H55.0822V120.499H57.0494V119.999H59.0166V120.499H60.9838V119.999H62.951V120.499H64.9182V119.999H66.8854V120.499H68.8527V119.999H70.8199V120.499H72.7871V119.999H74.7543V120.499H76.7215V119.999H78.6887V120.499H79.6723H80.1559H80.1723H80.6559H81.6395V119.999H83.6068V120.499H85.574V119.999H87.5412V120.499H89.5084V119.999H91.4756V120.499H93.4428V119.999H95.41V120.499H97.3773V119.999H99.3445V120.499H101.312V119.999H103.279V120.499H105.246V119.999H107.213V120.499H109.181V119.999H111.148V120.499H113.115V119.999H115.082V120.499H117.049V119.999H119.017V120.499H120H120.5V119.999V119.016H120V117.048H120.5V115.081H120V113.114H120.5V111.147H120V109.18H120.5V107.212H120V105.245H120.5V103.278H120V101.311H120.5V99.3435H120V97.3763H120.5V95.4091H120V93.4418H120.5V91.4746H120V89.5074H120.5V87.5402H120V85.573H120.5V83.6058H120V81.6386H120.5V80.655V80.1714V80.155V79.6714V78.6877H120V76.7205H120.5V74.7533H120V72.7861H120.5V70.8189H120V68.8517H120.5V66.8845H120V64.9173H120.5V62.95H120V60.9828H120.5V59.0156H120V57.0484H120.5V55.0812H120V53.114H120.5V51.1468H120V49.1796H120.5V47.2123H120V45.2451H120.5V43.2779H120V41.3107H120.5V40.3271V39.8435V39.8271V39.3435V38.3599H120V36.3927H120.5V34.4254H120V32.4582H120.5V30.491H120V28.5238H120.5V26.5566H120V24.5894H120.5V22.6222H120V20.655H120.5V18.6877H120V16.7205H120.5V14.7533H120V12.7861H120.5V10.8189H120V8.85168H120.5V6.88447H120V4.91726H120.5V2.95005H120V0.982834H120.5V-0.000778198V-0.500778H120H119.017V-0.000778198H117.049V-0.500778H115.082V-0.000778198H113.115V-0.500778H111.148V-0.000778198H109.181V-0.500778H107.213V-0.000778198H105.246V-0.500778H103.279V-0.000778198H101.312V-0.500778H99.3445V-0.000778198H97.3773V-0.500778H95.41V-0.000778198H93.4428V-0.500778H91.4756V-0.000778198H89.5084V-0.500778H87.5412V-0.000778198H85.574V-0.500778H83.6068V-0.000778198H81.6395V-0.500778H80.6559H80.1723H80.1559H79.6723H78.6887V-0.000778198H76.7215V-0.500778H74.7543V-0.000778198H72.7871V-0.500778H70.8199V-0.000778198H68.8527V-0.500778H66.8854V-0.000778198H64.9182V-0.500778H62.951V-0.000778198H60.9838V-0.500778H59.0166V-0.000778198H57.0494V-0.500778H55.0822V-0.000778198H53.115V-0.500778H51.1477V-0.000778198H49.1805V-0.500778H47.2133V-0.000778198H45.2461V-0.500778H43.2789V-0.000778198H41.3117V-0.500778H40.3281H39.8445H39.8281H39.3445H38.3609V-0.000778198H36.3936V-0.500778H34.4264V-0.000778198H32.4592V-0.500778H30.492V-0.000778198H28.5248V-0.500778H26.5576V-0.000778198H24.5904V-0.500778H22.6231V-0.000778198H20.6559V-0.500778H18.6887V-0.000778198H16.7215V-0.500778H14.7543V-0.000778198H12.7871V-0.500778H10.8199V-0.000778198H8.85266V-0.500778H6.88545V-0.000778198H4.91824V-0.500778H2.95102V-0.000778198H0.983811V-0.500778H0.000198364H-0.499802V-0.000778198V0.982828H0.000198364V2.95004H-0.499802V4.91725H0.000198364V6.88447H-0.499802V8.85168H0.000198364V10.8189H-0.499802V12.7861H0.000198364V14.7533H-0.499802V16.7205H0.000198364V18.6877H-0.499802V20.655H0.000198364V22.6222H-0.499802V24.5894H0.000198364V26.5566H-0.499802V28.5238H0.000198364V30.491H-0.499802V32.4582H0.000198364V34.4254H-0.499802V36.3927H0.000198364V38.3599ZM39.3445 2.95005V0.982834H39.8445L40.3281 0.982828V2.95004H39.8281L39.3445 2.95005ZM39.8445 4.91726L40.3281 4.91725V6.88447H39.8281L39.3445 6.88447V4.91726H39.8445ZM39.8445 8.85168L40.3281 8.85168V10.8189H39.8281L39.3445 10.8189V8.85168H39.8445ZM39.8445 12.7861L40.3281 12.7861V14.7533H39.8281L39.3445 14.7533V12.7861H39.8445ZM39.8445 16.7205L40.3281 16.7205V18.6877L39.8445 18.6877L39.8281 18.6877L39.3445 18.6877V16.7205H39.8445ZM39.8445 20.655L40.3281 20.655V22.6222H39.8281L39.3445 22.6222V20.655L39.8281 20.655L39.8445 20.655ZM39.8445 24.5894L40.3281 24.5894V26.5566H39.8281L39.3445 26.5566V24.5894H39.8445ZM39.8445 28.5238L40.3281 28.5238V30.491H39.8281L39.3445 30.491V28.5238H39.8445ZM39.8445 32.4582L40.3281 32.4582V34.4254L39.8445 34.4254L39.8281 34.4254L39.3445 34.4254V32.4582L39.8281 32.4582L39.8445 32.4582ZM39.8445 36.3927L40.3281 36.3927V38.3599L39.8445 38.3599L39.8281 38.3599L39.3445 38.3599V36.3927L39.8281 36.3927L39.8445 36.3927ZM41.3117 39.8271L41.3117 39.3435H43.2789L43.2789 39.8271L43.2789 39.8435L43.2789 40.3271H41.3117V39.8271ZM45.2461 39.8271L45.2461 39.3435H47.2133L47.2133 39.8271L47.2133 39.8435L47.2133 40.3271H45.2461L45.2461 39.8435L45.2461 39.8271ZM49.1805 39.8271V39.3435H51.1477V39.8271V39.8435V40.3271H49.1805V39.8435V39.8271ZM53.115 39.8271V39.3435H55.0822L55.0822 39.8271L55.0822 39.8435L55.0822 40.3271H53.115V39.8435V39.8271ZM57.0494 39.8271V39.3435H59.0166V39.8271V39.8435V40.3271H57.0494V39.8435V39.8271ZM60.9838 39.8271V39.3435H62.951V39.8271V39.8435V40.3271H60.9838V39.8435V39.8271ZM64.9182 39.8271V39.3435H66.8854V39.8271V39.8435V40.3271H64.9182V39.8435V39.8271ZM68.8527 39.8271V39.3435H70.8199V39.8271V39.8435V40.3271H68.8527V39.8435V39.8271ZM72.7871 39.8271L72.7871 39.3435H74.7543V39.8271V39.8435V40.3271H72.7871L72.7871 39.8435L72.7871 39.8271ZM76.7215 39.8271L76.7215 39.3435H78.6887L78.6887 39.8271L78.6887 39.8435L78.6887 40.3271H76.7215L76.7215 39.8435L76.7215 39.8271ZM80.1559 38.3599L79.6723 38.3599V36.3927L80.1559 36.3927L80.1723 36.3927L80.6559 36.3927V38.3599L80.1723 38.3599L80.1559 38.3599ZM80.1559 34.4254L79.6723 34.4254V32.4582L80.1559 32.4582L80.1723 32.4582L80.6559 32.4582V34.4254L80.1723 34.4254L80.1559 34.4254ZM80.1559 30.491L79.6723 30.491V28.5238H80.1723L80.6559 28.5238V30.491H80.1559ZM80.1559 26.5566L79.6723 26.5566V24.5894H80.1723L80.6559 24.5894V26.5566H80.1559ZM80.1559 22.6222L79.6723 22.6222V20.655L80.1559 20.655L80.1723 20.655L80.6559 20.655V22.6222H80.1559ZM80.1559 18.6877L79.6723 18.6877V16.7205H80.1723L80.6559 16.7205V18.6877L80.1723 18.6877L80.1559 18.6877ZM80.1559 14.7533L79.6723 14.7533V12.7861H80.1723L80.6559 12.7861V14.7533H80.1559ZM80.1559 10.8189L79.6723 10.8189V8.85168H80.1723L80.6559 8.85168V10.8189H80.1559ZM80.1559 6.88447L79.6723 6.88447V4.91726H80.1723L80.6559 4.91725V6.88447H80.1559ZM80.1559 2.95004L79.6723 2.95005V0.982834H80.1723L80.6559 0.982828V2.95004H80.1559ZM81.6395 39.8271L81.6395 39.3435H83.6068L83.6068 39.8271L83.6068 39.8435L83.6068 40.3271H81.6395L81.6395 39.8435L81.6395 39.8271ZM85.574 39.8271V39.3435H87.5412L87.5412 39.8271L87.5412 39.8435L87.5412 40.3271H85.574V39.8435V39.8271ZM89.5084 39.8271V39.3435H91.4756L91.4756 39.8271L91.4756 39.8435L91.4756 40.3271H89.5084V39.8435V39.8271ZM93.4428 39.8271V39.3435H95.41L95.41 39.8271L95.41 39.8435L95.41 40.3271H93.4428V39.8435V39.8271ZM97.3773 39.8271V39.3435H99.3445L99.3445 39.8271L99.3445 39.8435L99.3445 40.3271H97.3773V39.8435V39.8271ZM101.312 39.8271V39.3435H103.279L103.279 39.8271L103.279 39.8435L103.279 40.3271H101.312V39.8435V39.8271ZM105.246 39.8271V39.3435H107.213L107.213 39.8271L107.213 39.8435L107.213 40.3271H105.246V39.8435V39.8271ZM109.181 39.8271V39.3435H111.148L111.148 39.8271L111.148 39.8435L111.148 40.3271H109.181V39.8435V39.8271ZM113.115 39.8271V39.3435H115.082L115.082 39.8271L115.082 39.8435L115.082 40.3271H113.115V39.8435V39.8271ZM117.049 39.8271V39.3435H119.017L119.017 39.8271L119.017 39.8435L119.017 40.3271H117.049V39.8435V39.8271ZM80.1723 41.3107L80.6559 41.3107V43.2779L80.1723 43.2779L80.1559 43.2779L79.6723 43.2779V41.3107H80.1723ZM80.1723 45.2451L80.6559 45.2451V47.2123L80.1723 47.2123L80.1559 47.2123L79.6723 47.2123V45.2451L80.1559 45.2451L80.1723 45.2451ZM80.1723 49.1796H80.6559V51.1468H80.1723H80.1559H79.6723V49.1796H80.1559H80.1723ZM80.1723 53.114H80.6559V55.0812L80.1723 55.0812L80.1559 55.0812L79.6723 55.0812V53.114H80.1559H80.1723ZM80.1723 57.0484H80.6559V59.0156H80.1723H80.1559H79.6723V57.0484H80.1559H80.1723ZM80.1723 60.9828H80.6559V62.95H80.1723H80.1559H79.6723V60.9828H80.1559H80.1723ZM80.1723 64.9173H80.6559V66.8845H80.1723H80.1559H79.6723V64.9173H80.1559H80.1723ZM80.1723 68.8517H80.6559V70.8189H80.1723H80.1559H79.6723V68.8517H80.1559H80.1723ZM80.1723 72.7861L80.6559 72.7861V74.7533H80.1723H80.1559H79.6723V72.7861L80.1559 72.7861L80.1723 72.7861ZM80.1723 76.7205L80.6559 76.7205V78.6877L80.1723 78.6877L80.1559 78.6877L79.6723 78.6877V76.7205L80.1559 76.7205L80.1723 76.7205ZM81.6395 80.155L81.6395 79.6714H83.6068L83.6068 80.155L83.6068 80.1714L83.6068 80.655H81.6395L81.6395 80.1714L81.6395 80.155ZM85.574 80.155V79.6714H87.5412L87.5412 80.155L87.5412 80.1714L87.5412 80.655H85.574V80.1714V80.155ZM89.5084 80.155V79.6714H91.4756L91.4756 80.155L91.4756 80.1714L91.4756 80.655H89.5084V80.1714V80.155ZM93.4428 80.155V79.6714H95.41L95.41 80.155L95.41 80.1714L95.41 80.655H93.4428V80.1714V80.155ZM97.3773 80.155V79.6714H99.3445L99.3445 80.155L99.3445 80.1714L99.3445 80.655H97.3773V80.1714V80.155ZM101.312 80.155V79.6714H103.279L103.279 80.155L103.279 80.1714L103.279 80.655H101.312V80.1714V80.155ZM105.246 80.155V79.6714H107.213L107.213 80.155L107.213 80.1714L107.213 80.655H105.246V80.1714V80.155ZM109.181 80.155V79.6714H111.148L111.148 80.155L111.148 80.1714L111.148 80.655H109.181V80.1714V80.155ZM113.115 80.155V79.6714H115.082L115.082 80.155L115.082 80.1714L115.082 80.655H113.115V80.1714V80.155ZM117.049 80.155V79.6714H119.017L119.017 80.155L119.017 80.1714L119.017 80.655H117.049V80.1714V80.155ZM80.1723 81.6386L80.6559 81.6386V83.6058L80.1723 83.6058L80.1559 83.6058L79.6723 83.6058V81.6386L80.1559 81.6386L80.1723 81.6386ZM80.1723 85.573H80.6559V87.5402L80.1723 87.5402L80.1559 87.5402L79.6723 87.5402V85.573H80.1559H80.1723ZM80.1723 89.5074H80.6559V91.4746L80.1723 91.4746L80.1559 91.4746L79.6723 91.4746V89.5074H80.1559H80.1723ZM80.1723 93.4418H80.6559V95.4091L80.1723 95.4091L80.1559 95.4091L79.6723 95.4091V93.4418H80.1559H80.1723ZM80.1723 97.3763H80.6559V99.3435L80.1723 99.3435L80.1559 99.3435L79.6723 99.3435V97.3763H80.1559H80.1723ZM80.1723 101.311H80.6559V103.278L80.1723 103.278L80.1559 103.278L79.6723 103.278V101.311H80.1559H80.1723ZM80.1723 105.245H80.6559V107.212L80.1723 107.212L80.1559 107.212L79.6723 107.212V105.245H80.1559H80.1723ZM80.1723 109.18H80.6559V111.147L80.1723 111.147L80.1559 111.147L79.6723 111.147V109.18H80.1559H80.1723ZM80.1723 113.114H80.6559V115.081L80.1723 115.081L80.1559 115.081L79.6723 115.081V113.114H80.1559H80.1723ZM80.1723 117.048H80.6559V119.016L80.1723 119.016L80.1559 119.016L79.6723 119.016V117.048H80.1559H80.1723ZM78.6887 80.1714L78.6887 80.655H76.7215L76.7215 80.1714L76.7215 80.155L76.7215 79.6714H78.6887L78.6887 80.155L78.6887 80.1714ZM74.7543 80.1714V80.655H72.7871L72.7871 80.1714L72.7871 80.155L72.7871 79.6714H74.7543V80.155V80.1714ZM70.8199 80.1714V80.655H68.8527V80.1714V80.155V79.6714H70.8199V80.155V80.1714ZM66.8854 80.1714V80.655H64.9182V80.1714V80.155V79.6714H66.8854V80.155V80.1714ZM62.951 80.1714V80.655H60.9838V80.1714V80.155V79.6714H62.951V80.155V80.1714ZM59.0166 80.1714V80.655H57.0494V80.1714V80.155V79.6714H59.0166V80.155V80.1714ZM55.0822 80.1714L55.0822 80.655H53.115V80.1714V80.155V79.6714H55.0822L55.0822 80.155L55.0822 80.1714ZM51.1477 80.1714V80.655H49.1805V80.1714V80.155V79.6714H51.1477V80.155V80.1714ZM47.2133 80.1714L47.2133 80.655H45.2461L45.2461 80.1714L45.2461 80.155L45.2461 79.6714H47.2133L47.2133 80.155L47.2133 80.1714ZM43.2789 80.1714L43.2789 80.655H41.3117V80.155L41.3117 79.6714H43.2789L43.2789 80.155L43.2789 80.1714ZM39.8445 81.6386L40.3281 81.6386V83.6058L39.8445 83.6058L39.8281 83.6058L39.3445 83.6058V81.6386L39.8281 81.6386L39.8445 81.6386ZM39.8445 85.573H40.3281V87.5402L39.8445 87.5402L39.8281 87.5402L39.3445 87.5402V85.573H39.8281H39.8445ZM39.8445 89.5074H40.3281V91.4746L39.8445 91.4746L39.8281 91.4746L39.3445 91.4746V89.5074H39.8281H39.8445ZM39.8445 93.4418H40.3281V95.4091L39.8445 95.4091L39.8281 95.4091L39.3445 95.4091V93.4418H39.8281H39.8445ZM39.8445 97.3763H40.3281V99.3435L39.8445 99.3435L39.8281 99.3435L39.3445 99.3435V97.3763H39.8281H39.8445ZM39.8445 101.311H40.3281V103.278L39.8445 103.278L39.8281 103.278L39.3445 103.278V101.311H39.8281H39.8445ZM39.8445 105.245H40.3281V107.212L39.8445 107.212L39.8281 107.212L39.3445 107.212V105.245H39.8281H39.8445ZM39.8445 109.18H40.3281V111.147L39.8445 111.147L39.8281 111.147L39.3445 111.147V109.18H39.8281H39.8445ZM39.8445 113.114H40.3281V115.081L39.8445 115.081L39.8281 115.081L39.3445 115.081V113.114H39.8281H39.8445ZM39.8445 117.048H40.3281V119.016L39.8445 119.016L39.8281 119.016L39.3445 119.016V117.048H39.8281H39.8445ZM38.3608 80.1714L38.3609 80.655H36.3936L36.3936 80.1714L36.3936 80.155L36.3936 79.6714H38.3608L38.3609 80.155L38.3608 80.1714ZM34.4264 80.1714L34.4264 80.655H32.4592L32.4592 80.1714L32.4592 80.155L32.4592 79.6714H34.4264L34.4264 80.155L34.4264 80.1714ZM30.492 80.1714L30.492 80.655H28.5248V80.155L28.5248 79.6714H30.492V80.1714ZM26.5576 80.1714L26.5576 80.655H24.5904V80.155L24.5904 79.6714H26.5576V80.1714ZM22.6231 80.1714L22.6231 80.655H20.6559L20.6559 80.1714L20.6559 80.155L20.6559 79.6714H22.6231V80.1714ZM18.6887 80.1714L18.6887 80.655H16.7215V80.155L16.7215 79.6714H18.6887L18.6887 80.155L18.6887 80.1714ZM14.7543 80.1714L14.7543 80.655H12.7871V80.155L12.7871 79.6714H14.7543V80.1714ZM10.8199 80.1714L10.8199 80.655H8.85266V80.155L8.85266 79.6714H10.8199V80.1714ZM6.88544 80.1714L6.88545 80.655H4.91824V80.155L4.91823 79.6714H6.88544V80.1714ZM2.95102 80.1714L2.95102 80.655H0.983811V80.155L0.983805 79.6714H2.95102V80.1714ZM39.8281 78.6877L39.3445 78.6877V76.7205L39.8281 76.7205L39.8445 76.7205L40.3281 76.7205V78.6877L39.8445 78.6877L39.8281 78.6877ZM39.8281 74.7533H39.3445V72.7861L39.8281 72.7861L39.8445 72.7861L40.3281 72.7861V74.7533H39.8445H39.8281ZM39.8281 70.8189H39.3445V68.8517H39.8281H39.8445H40.3281V70.8189H39.8445H39.8281ZM39.8281 66.8845H39.3445V64.9173H39.8281H39.8445H40.3281V66.8845H39.8445H39.8281ZM39.8281 62.95H39.3445V60.9828H39.8281H39.8445H40.3281V62.95H39.8445H39.8281ZM39.8281 59.0156H39.3445V57.0484H39.8281H39.8445H40.3281V59.0156H39.8445H39.8281ZM39.8281 55.0812L39.3445 55.0812V53.114H39.8281H39.8445H40.3281V55.0812L39.8445 55.0812L39.8281 55.0812ZM39.8281 51.1468H39.3445V49.1796H39.8281H39.8445H40.3281V51.1468H39.8445H39.8281ZM39.8281 47.2123L39.3445 47.2123V45.2451L39.8281 45.2451L39.8445 45.2451L40.3281 45.2451V47.2123L39.8445 47.2123L39.8281 47.2123ZM39.8281 43.2779L39.3445 43.2779V41.3107H39.8445L40.3281 41.3107V43.2779L39.8445 43.2779L39.8281 43.2779ZM38.3608 39.8435L38.3609 40.3271H36.3936L36.3936 39.8435L36.3936 39.8271L36.3936 39.3435H38.3608L38.3609 39.8271L38.3608 39.8435ZM34.4264 39.8435L34.4264 40.3271H32.4592L32.4592 39.8435L32.4592 39.8271L32.4592 39.3435H34.4264L34.4264 39.8271L34.4264 39.8435ZM30.492 39.8435L30.492 40.3271H28.5248V39.8271L28.5248 39.3435H30.492V39.8435ZM26.5576 39.8435L26.5576 40.3271H24.5904V39.8271L24.5904 39.3435H26.5576V39.8435ZM22.6231 39.8435L22.6231 40.3271H20.6559L20.6559 39.8435L20.6559 39.8271L20.6559 39.3435H22.6231V39.8435ZM18.6887 39.8435L18.6887 40.3271H16.7215V39.8271L16.7215 39.3435H18.6887L18.6887 39.8271L18.6887 39.8435ZM14.7543 39.8435L14.7543 40.3271H12.7871V39.8271L12.7871 39.3435H14.7543V39.8435ZM10.8199 39.8435L10.8199 40.3271H8.85266V39.8271L8.85266 39.3435H10.8199V39.8435ZM6.88544 39.8435L6.88545 40.3271H4.91824V39.8271L4.91823 39.3435H6.88544V39.8435Z" fill="white" stroke="#D9D9D9" stroke-miterlimit="5.77019" stroke-dasharray="2 2"/>
</g>
<path d="M68.3521 50.2337C67.9919 50.2392 67.6344 50.2993 67.2913 50.412C67.1175 49.2484 65.8738 48.3663 64.3008 48.3663C63.8239 48.3501 63.3486 48.4298 62.9015 48.6009C62.6172 48.0872 62.1984 47.6654 61.6925 47.3834C61.1866 47.1015 60.6138 46.9706 60.0391 47.0055C59.5371 46.9826 59.037 47.0831 58.5804 47.2985C58.1239 47.514 57.7241 47.8382 57.4144 48.2443C56.8914 47.9262 56.2938 47.7607 55.6859 47.7657C54.9576 47.7162 54.2394 47.9617 53.6854 48.4494C53.1314 48.9372 52.7859 49.6283 52.7228 50.3745V51.2285C51.7534 51.6038 48.9641 52.9176 48.2325 55.7705C47.5009 58.6233 48.5434 63.2779 50.6926 66.8251C52.1373 69.1364 53.9632 71.1719 56.0883 72.8405C56.2294 72.9449 56.3991 73.0007 56.573 73H66.0292C66.2113 72.998 66.3878 72.9354 66.5322 72.8217C68.1745 71.2687 69.3621 69.2766 69.9617 67.0691C70.9988 64.1626 71.4831 61.0789 71.3884 57.9852V52.8238C71.3142 52.0698 70.9544 51.3759 70.3865 50.8915C69.8187 50.4071 69.0881 50.1709 68.3521 50.2337ZM69.7422 57.9852C69.842 60.9098 69.3854 63.8264 68.3979 66.5718C67.8804 68.3478 66.9588 69.9722 65.7091 71.3108H56.8108C54.9506 69.8001 53.3441 67.9868 52.0552 65.943C49.8878 62.3207 49.3116 58.2198 49.7872 56.1928C50.0365 55.4903 50.4266 54.8492 50.9322 54.311C51.4379 53.7727 52.0479 53.3492 52.7228 53.0678V60.2468C52.7228 60.4708 52.8096 60.6856 52.9639 60.844C53.1183 61.0024 53.3276 61.0913 53.5459 61.0913C53.7642 61.0913 53.9736 61.0024 54.1279 60.844C54.2823 60.6856 54.369 60.4708 54.369 60.2468V50.3745C54.369 49.9334 54.9086 49.4361 55.7042 49.4361C56.4998 49.4361 57.0668 49.9241 57.0668 50.3745V55.7423H58.713V49.361C58.713 49.0982 59.2434 48.6947 60.0482 48.6947C60.853 48.6947 61.4474 49.1452 61.4474 49.3985V55.8643H63.0936V50.4777L63.2491 50.3651C63.5718 50.1574 63.9474 50.0529 64.3282 50.0648C65.1787 50.0648 65.7 50.4777 65.7 50.703V56.8027H67.3553V52.2326C67.6568 52.0222 68.015 51.9139 68.3796 51.9229C69.1661 51.9229 69.7697 52.4015 69.7697 52.805L69.7422 57.9852Z" fill="black"/>
</svg>
