<svg width="120" height="120" viewBox="0 0 120 120" fill="none" xmlns="http://www.w3.org/2000/svg">
<circle cx="60" cy="60" r="59.5" fill="white" stroke="#7E7E7E"/>
<mask id="mask0_3_48" style="mask-type:alpha" maskUnits="userSpaceOnUse" x="1" y="1" width="118" height="118">
<circle cx="60" cy="60" r="58.5" fill="white" stroke="#7E7E7E"/>
</mask>
<g mask="url(#mask0_3_48)">
<path d="M0.982308 40.3279V39.8279L0.982302 39.3443H2.94951V39.8443L2.94952 40.3279H0.982308ZM-0.00130463 38.3606H-0.501305V39.3443V39.8279V39.8443V40.3279V41.3115H-0.00130463V43.2787H-0.501305V45.2459H-0.00130463V47.2131H-0.501305V49.1803H-0.00130463V51.1475H-0.501305V53.1148H-0.00130463V55.082H-0.501305V57.0492H-0.00130463V59.0164H-0.501305V60.9836H-0.00130463V62.9508H-0.501305V64.918H-0.00130463V66.8852H-0.501305V68.8525H-0.00130463V70.8197H-0.501305V72.7869H-0.00130463V74.7541H-0.501305V76.7213H-0.00130463V78.6885H-0.501305V79.6721V80.1557V80.1721V80.6557V81.6393H-0.00130463V83.6066H-0.501305V85.5738H-0.00130463V87.541H-0.501305V89.5082H-0.00130463V91.4754H-0.501305V93.4426H-0.00130463V95.4098H-0.501305V97.3771H-0.00130463V99.3443H-0.501305V101.311H-0.00130463V103.279H-0.501305V105.246H-0.00130463V107.213H-0.501305V109.18H-0.00130463V111.148H-0.501305V113.115H-0.00130463V115.082H-0.501305V117.049H-0.00130463V119.016H-0.501305V120V120.5H-0.00130463H0.982302V120H2.94951V120.5H4.91673V120H6.88394V120.5H8.85115V120H10.8184V120.5H12.7856V120H14.7528V120.5H16.72V120H18.6872V120.5H20.6544V120H22.6216V120.5H24.5889V120H26.5561V120.5H28.5233V120H30.4905V120.5H32.4577V120H34.4249V120.5H36.3921V120H38.3593V120.5H39.343H39.8266H39.843H40.3266H41.3102V120H43.2774V120.5H45.2446V120H47.2118V120.5H49.179V120H51.1462V120.5H53.1134V120H55.0807V120.5H57.0479V120H59.0151V120.5H60.9823V120H62.9495V120.5H64.9167V120H66.8839V120.5H68.8512V120H70.8184V120.5H72.7856V120H74.7528V120.5H76.72V120H78.6872V120.5H79.6708H80.1544H80.1708H80.6544H81.638V120H83.6053V120.5H85.5725V120H87.5397V120.5H89.5069V120H91.4741V120.5H93.4413V120H95.4085V120.5H97.3757V120H99.343V120.5H101.31V120H103.277V120.5H105.245V120H107.212V120.5H109.179V120H111.146V120.5H113.113V120H115.081V120.5H117.048V120H119.015V120.5H119.999H120.499V120V119.016H119.999V117.049H120.499V115.082H119.999V113.115H120.499V111.148H119.999V109.18H120.499V107.213H119.999V105.246H120.499V103.279H119.999V101.311H120.499V99.3443H119.999V97.3771H120.499V95.4098H119.999V93.4426H120.499V91.4754H119.999V89.5082H120.499V87.541H119.999V85.5738H120.499V83.6066H119.999V81.6394H120.499V80.6557V80.1721V80.1557V79.6721V78.6885H119.999V76.7213H120.499V74.7541H119.999V72.7869H120.499V70.8197H119.999V68.8525H120.499V66.8852H119.999V64.918H120.499V62.9508H119.999V60.9836H120.499V59.0164H119.999V57.0492H120.499V55.082H119.999V53.1148H120.499V51.1475H119.999V49.1803H120.499V47.2131H119.999V45.2459H120.499V43.2787H119.999V41.3115H120.499V40.3279V39.8443V39.8279V39.3443V38.3607H119.999V36.3934H120.499V34.4262H119.999V32.459H120.499V30.4918H119.999V28.5246H120.499V26.5574H119.999V24.5902H120.499V22.623H119.999V20.6557H120.499V18.6885H119.999V16.7213H120.499V14.7541H119.999V12.7869H120.499V10.8197H119.999V8.85246H120.499V6.88525H119.999V4.91804H120.499V2.95082H119.999V0.983613H120.499V0V-0.5H119.999H119.015V0H117.048V-0.5H115.081V0H113.113V-0.5H111.146V0H109.179V-0.5H107.212V0H105.245V-0.5H103.277V0H101.31V-0.5H99.343V0H97.3757V-0.5H95.4085V0H93.4413V-0.5H91.4741V0H89.5069V-0.5H87.5397V0H85.5725V-0.5H83.6053V0H81.638V-0.5H80.6544H80.1708H80.1544H79.6708H78.6872V0H76.72V-0.5H74.7528V0H72.7856V-0.5H70.8184V0H68.8512V-0.5H66.8839V0H64.9167V-0.5H62.9495V0H60.9823V-0.5H59.0151V0H57.0479V-0.5H55.0807V0H53.1134V-0.5H51.1462V0H49.179V-0.5H47.2118V0H45.2446V-0.5H43.2774V0H41.3102V-0.5H40.3266H39.843H39.8266H39.343H38.3593V0H36.3921V-0.5H34.4249V0H32.4577V-0.5H30.4905V0H28.5233V-0.5H26.5561V0H24.5889V-0.5H22.6216V0H20.6544V-0.5H18.6872V0H16.72V-0.5H14.7528V0H12.7856V-0.5H10.8184V0H8.85116V-0.5H6.88395V0H4.91673V-0.5H2.94952V0H0.982308V-0.5H-0.00130463H-0.501305V0V0.983607H-0.00130463V2.95082H-0.501305V4.91803H-0.00130463V6.88525H-0.501305V8.85246H-0.00130463V10.8197H-0.501305V12.7869H-0.00130463V14.7541H-0.501305V16.7213H-0.00130463V18.6885H-0.501305V20.6557H-0.00130463V22.6229H-0.501305V24.5902H-0.00130463V26.5574H-0.501305V28.5246H-0.00130463V30.4918H-0.501305V32.459H-0.00130463V34.4262H-0.501305V36.3934H-0.00130463V38.3606ZM39.343 2.95082V0.983613H39.843L40.3266 0.983607V2.95082H39.8266L39.343 2.95082ZM39.843 4.91804L40.3266 4.91803V6.88525H39.8266L39.343 6.88525V4.91804H39.843ZM39.843 8.85246L40.3266 8.85246V10.8197H39.8266L39.343 10.8197V8.85246H39.843ZM39.843 12.7869L40.3266 12.7869V14.7541H39.8266L39.343 14.7541V12.7869H39.843ZM39.843 16.7213L40.3266 16.7213V18.6885L39.843 18.6885L39.8266 18.6885L39.343 18.6885V16.7213H39.843ZM39.843 20.6557L40.3266 20.6557V22.6229H39.8266L39.343 22.623V20.6557L39.8266 20.6557L39.843 20.6557ZM39.843 24.5902L40.3266 24.5902V26.5574H39.8266L39.343 26.5574V24.5902H39.843ZM39.843 28.5246L40.3266 28.5246V30.4918H39.8266L39.343 30.4918V28.5246H39.843ZM39.843 32.459L40.3266 32.459V34.4262L39.843 34.4262L39.8266 34.4262L39.343 34.4262V32.459L39.8266 32.459L39.843 32.459ZM39.843 36.3934L40.3266 36.3934V38.3606L39.843 38.3607L39.8266 38.3606L39.343 38.3607V36.3934L39.8266 36.3934L39.843 36.3934ZM41.3102 39.8279L41.3102 39.3443H43.2774L43.2774 39.8279L43.2774 39.8443L43.2774 40.3279H41.3102V39.8279ZM45.2446 39.8279L45.2446 39.3443H47.2118L47.2118 39.8279L47.2118 39.8443L47.2118 40.3279H45.2446L45.2446 39.8443L45.2446 39.8279ZM49.179 39.8279V39.3443H51.1462V39.8279V39.8443V40.3279H49.179V39.8443V39.8279ZM53.1134 39.8279V39.3443H55.0807L55.0807 39.8279L55.0807 39.8443L55.0807 40.3279H53.1134V39.8443V39.8279ZM57.0479 39.8279V39.3443H59.0151V39.8279V39.8443V40.3279H57.0479V39.8443V39.8279ZM60.9823 39.8279V39.3443H62.9495V39.8279V39.8443V40.3279H60.9823V39.8443V39.8279ZM64.9167 39.8279V39.3443H66.8839V39.8279V39.8443V40.3279H64.9167V39.8443V39.8279ZM68.8512 39.8279V39.3443H70.8184V39.8279V39.8443V40.3279H68.8512V39.8443V39.8279ZM72.7856 39.8279L72.7856 39.3443H74.7528V39.8279V39.8443V40.3279H72.7856L72.7856 39.8443L72.7856 39.8279ZM76.72 39.8279L76.72 39.3443H78.6872L78.6872 39.8279L78.6872 39.8443L78.6872 40.3279H76.72L76.72 39.8443L76.72 39.8279ZM80.1544 38.3606L79.6708 38.3607V36.3934L80.1544 36.3934L80.1708 36.3934L80.6544 36.3934V38.3606L80.1708 38.3607L80.1544 38.3606ZM80.1544 34.4262L79.6708 34.4262V32.459L80.1544 32.459L80.1708 32.459L80.6544 32.459V34.4262L80.1708 34.4262L80.1544 34.4262ZM80.1544 30.4918L79.6708 30.4918V28.5246H80.1708L80.6544 28.5246V30.4918H80.1544ZM80.1544 26.5574L79.6708 26.5574V24.5902H80.1708L80.6544 24.5902V26.5574H80.1544ZM80.1544 22.6229L79.6708 22.623V20.6557L80.1544 20.6557L80.1708 20.6557L80.6544 20.6557V22.6229H80.1544ZM80.1544 18.6885L79.6708 18.6885V16.7213H80.1708L80.6544 16.7213V18.6885L80.1708 18.6885L80.1544 18.6885ZM80.1544 14.7541L79.6708 14.7541V12.7869H80.1708L80.6544 12.7869V14.7541H80.1544ZM80.1544 10.8197L79.6708 10.8197V8.85246H80.1708L80.6544 8.85246V10.8197H80.1544ZM80.1544 6.88525L79.6708 6.88525V4.91804H80.1708L80.6544 4.91803V6.88525H80.1544ZM80.1544 2.95082L79.6708 2.95082V0.983613H80.1708L80.6544 0.983607V2.95082H80.1544ZM81.638 39.8279L81.638 39.3443H83.6053L83.6053 39.8279L83.6053 39.8443L83.6053 40.3279H81.638L81.638 39.8443L81.638 39.8279ZM85.5725 39.8279V39.3443H87.5397L87.5397 39.8279L87.5397 39.8443L87.5397 40.3279H85.5725V39.8443V39.8279ZM89.5069 39.8279V39.3443H91.4741L91.4741 39.8279L91.4741 39.8443L91.4741 40.3279H89.5069V39.8443V39.8279ZM93.4413 39.8279V39.3443H95.4085L95.4085 39.8279L95.4085 39.8443L95.4085 40.3279H93.4413V39.8443V39.8279ZM97.3757 39.8279V39.3443H99.343L99.343 39.8279L99.343 39.8443L99.343 40.3279H97.3757V39.8443V39.8279ZM101.31 39.8279V39.3443H103.277L103.277 39.8279L103.277 39.8443L103.277 40.3279H101.31V39.8443V39.8279ZM105.245 39.8279V39.3443H107.212L107.212 39.8279L107.212 39.8443L107.212 40.3279H105.245V39.8443V39.8279ZM109.179 39.8279V39.3443H111.146L111.146 39.8279L111.146 39.8443L111.146 40.3279H109.179V39.8443V39.8279ZM113.113 39.8279V39.3443H115.081L115.081 39.8279L115.081 39.8443L115.081 40.3279H113.113V39.8443V39.8279ZM117.048 39.8279V39.3443H119.015L119.015 39.8279L119.015 39.8443L119.015 40.3279H117.048V39.8443V39.8279ZM80.1708 41.3115L80.6544 41.3115V43.2787L80.1708 43.2787L80.1544 43.2787L79.6708 43.2787V41.3115H80.1708ZM80.1708 45.2459L80.6544 45.2459V47.2131L80.1708 47.2131L80.1544 47.2131L79.6708 47.2131V45.2459L80.1544 45.2459L80.1708 45.2459ZM80.1708 49.1803H80.6544V51.1475H80.1708H80.1544H79.6708V49.1803H80.1544H80.1708ZM80.1708 53.1148H80.6544V55.082L80.1708 55.082L80.1544 55.082L79.6708 55.082V53.1148H80.1544H80.1708ZM80.1708 57.0492H80.6544V59.0164H80.1708H80.1544H79.6708V57.0492H80.1544H80.1708ZM80.1708 60.9836H80.6544V62.9508H80.1708H80.1544H79.6708V60.9836H80.1544H80.1708ZM80.1708 64.918H80.6544V66.8852H80.1708H80.1544H79.6708V64.918H80.1544H80.1708ZM80.1708 68.8525H80.6544V70.8197H80.1708H80.1544H79.6708V68.8525H80.1544H80.1708ZM80.1708 72.7869L80.6544 72.7869V74.7541H80.1708H80.1544H79.6708V72.7869L80.1544 72.7869L80.1708 72.7869ZM80.1708 76.7213L80.6544 76.7213V78.6885L80.1708 78.6885L80.1544 78.6885L79.6708 78.6885V76.7213L80.1544 76.7213L80.1708 76.7213ZM81.638 80.1557L81.638 79.6721H83.6053L83.6053 80.1557L83.6053 80.1721L83.6053 80.6557H81.638L81.638 80.1721L81.638 80.1557ZM85.5725 80.1557V79.6721H87.5397L87.5397 80.1557L87.5397 80.1721L87.5397 80.6557H85.5725V80.1721V80.1557ZM89.5069 80.1557V79.6721H91.4741L91.4741 80.1557L91.4741 80.1721L91.4741 80.6557H89.5069V80.1721V80.1557ZM93.4413 80.1557V79.6721H95.4085L95.4085 80.1557L95.4085 80.1721L95.4085 80.6557H93.4413V80.1721V80.1557ZM97.3757 80.1557V79.6721H99.343L99.343 80.1557L99.343 80.1721L99.343 80.6557H97.3757V80.1721V80.1557ZM101.31 80.1557V79.6721H103.277L103.277 80.1557L103.277 80.1721L103.277 80.6557H101.31V80.1721V80.1557ZM105.245 80.1557V79.6721H107.212L107.212 80.1557L107.212 80.1721L107.212 80.6557H105.245V80.1721V80.1557ZM109.179 80.1557V79.6721H111.146L111.146 80.1557L111.146 80.1721L111.146 80.6557H109.179V80.1721V80.1557ZM113.113 80.1557V79.6721H115.081L115.081 80.1557L115.081 80.1721L115.081 80.6557H113.113V80.1721V80.1557ZM117.048 80.1557V79.6721H119.015L119.015 80.1557L119.015 80.1721L119.015 80.6557H117.048V80.1721V80.1557ZM80.1708 81.6394L80.6544 81.6393V83.6066L80.1708 83.6066L80.1544 83.6066L79.6708 83.6066V81.6394L80.1544 81.6393L80.1708 81.6394ZM80.1708 85.5738H80.6544V87.541L80.1708 87.541L80.1544 87.541L79.6708 87.541V85.5738H80.1544H80.1708ZM80.1708 89.5082H80.6544V91.4754L80.1708 91.4754L80.1544 91.4754L79.6708 91.4754V89.5082H80.1544H80.1708ZM80.1708 93.4426H80.6544V95.4098L80.1708 95.4098L80.1544 95.4098L79.6708 95.4098V93.4426H80.1544H80.1708ZM80.1708 97.3771H80.6544V99.3443L80.1708 99.3443L80.1544 99.3443L79.6708 99.3443V97.3771H80.1544H80.1708ZM80.1708 101.311H80.6544V103.279L80.1708 103.279L80.1544 103.279L79.6708 103.279V101.311H80.1544H80.1708ZM80.1708 105.246H80.6544V107.213L80.1708 107.213L80.1544 107.213L79.6708 107.213V105.246H80.1544H80.1708ZM80.1708 109.18H80.6544V111.148L80.1708 111.148L80.1544 111.148L79.6708 111.148V109.18H80.1544H80.1708ZM80.1708 113.115H80.6544V115.082L80.1708 115.082L80.1544 115.082L79.6708 115.082V113.115H80.1544H80.1708ZM80.1708 117.049H80.6544V119.016L80.1708 119.016L80.1544 119.016L79.6708 119.016V117.049H80.1544H80.1708ZM78.6872 80.1721L78.6872 80.6557H76.72L76.72 80.1721L76.72 80.1557L76.72 79.6721H78.6872L78.6872 80.1557L78.6872 80.1721ZM74.7528 80.1721V80.6557H72.7856L72.7856 80.1721L72.7856 80.1557L72.7856 79.6721H74.7528V80.1557V80.1721ZM70.8184 80.1721V80.6557H68.8512V80.1721V80.1557V79.6721H70.8184V80.1557V80.1721ZM66.8839 80.1721V80.6557H64.9167V80.1721V80.1557V79.6721H66.8839V80.1557V80.1721ZM62.9495 80.1721V80.6557H60.9823V80.1721V80.1557V79.6721H62.9495V80.1557V80.1721ZM59.0151 80.1721V80.6557H57.0479V80.1721V80.1557V79.6721H59.0151V80.1557V80.1721ZM55.0807 80.1721L55.0807 80.6557H53.1134V80.1721V80.1557V79.6721H55.0807L55.0807 80.1557L55.0807 80.1721ZM51.1462 80.1721V80.6557H49.179V80.1721V80.1557V79.6721H51.1462V80.1557V80.1721ZM47.2118 80.1721L47.2118 80.6557H45.2446L45.2446 80.1721L45.2446 80.1557L45.2446 79.6721H47.2118L47.2118 80.1557L47.2118 80.1721ZM43.2774 80.1721L43.2774 80.6557H41.3102V80.1557L41.3102 79.6721H43.2774L43.2774 80.1557L43.2774 80.1721ZM39.843 81.6394L40.3266 81.6393V83.6066L39.843 83.6066L39.8266 83.6066L39.343 83.6066V81.6394L39.8266 81.6393L39.843 81.6394ZM39.843 85.5738H40.3266V87.541L39.843 87.541L39.8266 87.541L39.343 87.541V85.5738H39.8266H39.843ZM39.843 89.5082H40.3266V91.4754L39.843 91.4754L39.8266 91.4754L39.343 91.4754V89.5082H39.8266H39.843ZM39.843 93.4426H40.3266V95.4098L39.843 95.4098L39.8266 95.4098L39.343 95.4098V93.4426H39.8266H39.843ZM39.843 97.3771H40.3266V99.3443L39.843 99.3443L39.8266 99.3443L39.343 99.3443V97.3771H39.8266H39.843ZM39.843 101.311H40.3266V103.279L39.843 103.279L39.8266 103.279L39.343 103.279V101.311H39.8266H39.843ZM39.843 105.246H40.3266V107.213L39.843 107.213L39.8266 107.213L39.343 107.213V105.246H39.8266H39.843ZM39.843 109.18H40.3266V111.148L39.843 111.148L39.8266 111.148L39.343 111.148V109.18H39.8266H39.843ZM39.843 113.115H40.3266V115.082L39.843 115.082L39.8266 115.082L39.343 115.082V113.115H39.8266H39.843ZM39.843 117.049H40.3266V119.016L39.843 119.016L39.8266 119.016L39.343 119.016V117.049H39.8266H39.843ZM38.3593 80.1721L38.3593 80.6557H36.3921L36.3921 80.1721L36.3921 80.1557L36.3921 79.6721H38.3593L38.3593 80.1557L38.3593 80.1721ZM34.4249 80.1721L34.4249 80.6557H32.4577L32.4577 80.1721L32.4577 80.1557L32.4577 79.6721H34.4249L34.4249 80.1557L34.4249 80.1721ZM30.4905 80.1721L30.4905 80.6557H28.5233V80.1557L28.5233 79.6721H30.4905V80.1721ZM26.5561 80.1721L26.5561 80.6557H24.5889V80.1557L24.5889 79.6721H26.5561V80.1721ZM22.6216 80.1721L22.6216 80.6557H20.6544L20.6544 80.1721L20.6544 80.1557L20.6544 79.6721H22.6216V80.1721ZM18.6872 80.1721L18.6872 80.6557H16.72V80.1557L16.72 79.6721H18.6872L18.6872 80.1557L18.6872 80.1721ZM14.7528 80.1721L14.7528 80.6557H12.7856V80.1557L12.7856 79.6721H14.7528V80.1721ZM10.8184 80.1721L10.8184 80.6557H8.85116V80.1557L8.85115 79.6721H10.8184V80.1721ZM6.88394 80.1721L6.88395 80.6557H4.91673V80.1557L4.91673 79.6721H6.88394V80.1721ZM2.94951 80.1721L2.94952 80.6557H0.982308V80.1557L0.982302 79.6721H2.94951V80.1721ZM39.8266 78.6885L39.343 78.6885V76.7213L39.8266 76.7213L39.843 76.7213L40.3266 76.7213V78.6885L39.843 78.6885L39.8266 78.6885ZM39.8266 74.7541H39.343V72.7869L39.8266 72.7869L39.843 72.7869L40.3266 72.7869V74.7541H39.843H39.8266ZM39.8266 70.8197H39.343V68.8525H39.8266H39.843H40.3266V70.8197H39.843H39.8266ZM39.8266 66.8852H39.343V64.918H39.8266H39.843H40.3266V66.8852H39.843H39.8266ZM39.8266 62.9508H39.343V60.9836H39.8266H39.843H40.3266V62.9508H39.843H39.8266ZM39.8266 59.0164H39.343V57.0492H39.8266H39.843H40.3266V59.0164H39.843H39.8266ZM39.8266 55.082L39.343 55.082V53.1148H39.8266H39.843H40.3266V55.082L39.843 55.082L39.8266 55.082ZM39.8266 51.1475H39.343V49.1803H39.8266H39.843H40.3266V51.1475H39.843H39.8266ZM39.8266 47.2131L39.343 47.2131V45.2459L39.8266 45.2459L39.843 45.2459L40.3266 45.2459V47.2131L39.843 47.2131L39.8266 47.2131ZM39.8266 43.2787L39.343 43.2787V41.3115H39.843L40.3266 41.3115V43.2787L39.843 43.2787L39.8266 43.2787ZM38.3593 39.8443L38.3593 40.3279H36.3921L36.3921 39.8443L36.3921 39.8279L36.3921 39.3443H38.3593L38.3593 39.8279L38.3593 39.8443ZM34.4249 39.8443L34.4249 40.3279H32.4577L32.4577 39.8443L32.4577 39.8279L32.4577 39.3443H34.4249L34.4249 39.8279L34.4249 39.8443ZM30.4905 39.8443L30.4905 40.3279H28.5233V39.8279L28.5233 39.3443H30.4905V39.8443ZM26.5561 39.8443L26.5561 40.3279H24.5889V39.8279L24.5889 39.3443H26.5561V39.8443ZM22.6216 39.8443L22.6216 40.3279H20.6544L20.6544 39.8443L20.6544 39.8279L20.6544 39.3443H22.6216V39.8443ZM18.6872 39.8443L18.6872 40.3279H16.72V39.8279L16.72 39.3443H18.6872L18.6872 39.8279L18.6872 39.8443ZM14.7528 39.8443L14.7528 40.3279H12.7856V39.8279L12.7856 39.3443H14.7528V39.8443ZM10.8184 39.8443L10.8184 40.3279H8.85116V39.8279L8.85115 39.3443H10.8184V39.8443ZM6.88394 39.8443L6.88395 40.3279H4.91673V39.8279L4.91673 39.3443H6.88394V39.8443Z" fill="white" stroke="#D9D9D9" stroke-miterlimit="5.77019" stroke-dasharray="2 2"/>
</g>
<g opacity="0.15">
<circle cx="40.5" cy="39.5" r="12.2" fill="white" stroke="black" stroke-width="0.6"/>
</g>
<g opacity="0.5">
<circle cx="40.5" cy="39.5" r="7.2" fill="white" stroke="black" stroke-width="0.6"/>
</g>
<circle cx="40.5" cy="39.5" r="2.2" fill="black" stroke="black" stroke-width="0.6"/>
<g opacity="0.15">
<circle cx="80.5" cy="79.5" r="12.2" fill="white" stroke="black" stroke-width="0.6"/>
</g>
<g opacity="0.5">
<circle cx="80.5" cy="79.5" r="7.2" fill="white" stroke="black" stroke-width="0.6"/>
</g>
<circle cx="80.5" cy="79.5" r="2.2" fill="black" stroke="black" stroke-width="0.6"/>
</svg>
