<svg width="82" height="120" viewBox="0 0 82 120" fill="none" xmlns="http://www.w3.org/2000/svg">
<path d="M48.7375 5.49808L73.5049 59.6652L64.8219 63.1056L38.7445 73.4317L48.7375 5.49808Z" fill="#3A7CCF"/>
<path d="M72.1479 68.9029L32.8312 113.643L37.4029 82.5648L72.0819 68.8468L72.1479 68.9029Z" fill="#3A7CCF"/>
<path d="M72.0823 68.8449L37.4033 82.5629L8.1392 59.4388L16.7427 56.0332L38.7465 73.4321L64.8239 63.106L72.0823 68.8449Z" fill="#FFB64D"/>
<path d="M37.4025 82.5616L32.8309 113.64L8.059 59.4722L8.13841 59.4375L37.4025 82.5616Z" fill="#89C3F8"/>
<path d="M48.7372 5.49724L38.7442 73.4308L16.7404 56.032L9.41601 50.2369L48.7372 5.49724Z" fill="#89C3F8"/>
<path d="M38.6443 74.1116C38.5261 74.0942 38.4126 74.045 38.3168 73.9705L8.98862 50.7767C8.83904 50.6571 8.74814 50.4859 8.72944 50.2974C8.71073 50.1089 8.77517 49.9234 8.89856 49.779L48.2198 5.03934C48.3758 4.86263 48.6061 4.78043 48.8379 4.81453C49.0697 4.84862 49.2659 4.99821 49.3651 5.20782L74.1324 59.375C74.2097 59.5442 74.2173 59.745 74.1451 59.9201C74.0729 60.0952 73.9365 60.233 73.7589 60.3044L38.9985 74.0708C38.8853 74.1145 38.7624 74.129 38.6443 74.1116ZM10.414 50.1459L38.8609 72.639L72.5807 59.286L48.5531 6.75068L10.414 50.1459Z" fill="black"/>
<path d="M32.7294 114.321C32.4977 114.287 32.3014 114.137 32.2022 113.928L7.43105 59.7552C7.35313 59.5905 7.34872 59.3995 7.41116 59.2276C7.47359 59.0557 7.6054 58.9172 7.77009 58.8393L7.8495 58.8045L16.483 55.3848C16.8383 55.242 17.2352 55.4165 17.3779 55.7718C17.5161 56.1265 17.3462 56.524 16.9909 56.6668L8.97956 59.8344L33.0104 112.38L71.1501 68.9798L64.3903 63.6392C64.0905 63.4048 64.0429 62.9706 64.2774 62.6708C64.5119 62.3709 64.9461 62.3234 65.2459 62.5578L72.5865 68.3692C72.727 68.4874 72.8133 68.6579 72.8275 68.8457C72.8423 69.029 72.7785 69.21 72.6558 69.3498L33.3392 114.09C33.1831 114.267 32.9528 114.349 32.721 114.315L32.7294 114.321Z" fill="black"/>
<path d="M37.3011 83.2424C37.1829 83.225 37.0695 83.1758 36.9736 83.1014L7.70949 59.9773C7.40967 59.7428 7.3621 59.3086 7.59658 59.0088C7.83106 58.709 8.26524 58.6614 8.56506 58.8959L37.5171 81.7744L71.8264 68.2017C72.1811 68.0634 72.5832 68.234 72.7214 68.5887C72.8596 68.9433 72.6897 69.3409 72.3343 69.4836L37.6547 83.2062C37.5415 83.2499 37.4186 83.2644 37.3004 83.247L37.3011 83.2424Z" fill="black"/>
<path d="M38.6443 74.1116C38.267 74.0561 38.0073 73.7068 38.0628 73.3296L48.0559 5.39599C48.1114 5.01875 48.4607 4.75903 48.8379 4.81453C49.2151 4.87002 49.4749 5.21932 49.4194 5.59656L39.4263 73.5301C39.3708 73.9074 39.0215 74.1671 38.6443 74.1116Z" fill="black"/>
<path d="M32.7294 114.321C32.3522 114.265 32.0925 113.916 32.148 113.539L36.7196 82.4604C36.7751 82.0832 37.1244 81.8234 37.5017 81.8789C37.8789 81.9344 38.1386 82.2837 38.0831 82.661L33.5115 113.739C33.456 114.117 33.1067 114.376 32.7294 114.321Z" fill="black"/>
</svg>
