<svg width="73" height="104" viewBox="0 0 73 104" fill="none" xmlns="http://www.w3.org/2000/svg">
<path d="M27.9553 5.323L62.9072 42.8913L56.7409 48.0593L38.2199 63.5811L27.9553 5.323Z" fill="#E05F17"/>
<path d="M64.3009 50.8105L44.2941 98.0649L39.5983 71.4134L64.2291 50.784L64.3009 50.8105Z" fill="#E05F17"/>
<path d="M64.2316 50.7831L39.6008 71.4126L9.39995 60.444L15.5105 55.3251L38.2212 63.5822L56.7422 48.0604L64.2316 50.7831Z" fill="black"/>
<path d="M27.9544 5.32395L38.219 63.5821L15.5084 55.3249L7.94711 52.5757L27.9544 5.32395Z" fill="#ED7D32"/>
<path d="M9.39661 60.4436L39.5975 71.4121L44.2933 98.0636L9.34086 60.4926L9.39661 60.4436Z" fill="#ED7D32"/>
<path d="M38.2958 63.9876C38.2252 64 38.1513 63.9934 38.0826 63.9691L7.81069 52.9627C7.7029 52.923 7.61876 52.8426 7.57247 52.7388C7.52619 52.635 7.52782 52.5171 7.57081 52.4115L27.5781 5.15985C27.6868 4.90275 28.0696 4.8353 28.2623 5.03929L63.2142 42.6076C63.2902 42.6894 63.3325 42.8023 63.3245 42.9157C63.3165 43.0291 63.2649 43.1334 63.1772 43.2076L38.4899 63.8974C38.4337 63.9437 38.3664 63.9751 38.2958 63.9876ZM8.50334 52.334L38.1413 63.1106L62.3114 42.8535L28.0915 6.07158L8.50334 52.334Z" fill="black"/>
<path d="M44.371 98.4698C44.2325 98.4942 44.0924 98.4461 43.9963 98.3455L9.04344 60.7717C8.96744 60.6899 8.92882 60.582 8.93412 60.4691C8.93942 60.3562 8.99103 60.2519 9.0733 60.1786L9.12905 60.1296L15.2468 55.0038C15.4222 54.8553 15.6812 54.8796 15.8297 55.055C15.9755 55.2309 15.9538 55.4894 15.7785 55.6379L9.94631 60.5259L44.1699 97.3127L63.7575 51.0475L56.606 48.4472C56.3909 48.3703 56.2818 48.132 56.3586 47.9169C56.4355 47.7018 56.6738 47.5927 56.8889 47.6695L64.4502 50.4188C64.5553 50.4591 64.6421 50.539 64.6884 50.6428C64.7347 50.7466 64.7331 50.8645 64.6896 50.9673L44.6828 98.2217C44.6273 98.3519 44.5117 98.4422 44.3732 98.4666L44.371 98.4698Z" fill="black"/>
<path d="M39.6716 71.8182C39.6011 71.8306 39.5271 71.824 39.4584 71.7997L9.25757 60.8312C9.04247 60.7544 8.9333 60.5161 9.01017 60.3009C9.08705 60.0858 9.32536 59.9767 9.54046 60.0536L39.5171 70.9412L63.9648 50.4644C64.1407 50.3186 64.3992 50.3403 64.5477 50.5157C64.6935 50.6915 64.6719 50.9501 64.4965 51.0986L39.8657 71.728C39.8095 71.7743 39.7422 71.8057 39.6716 71.8182Z" fill="black"/>
<path d="M38.2941 63.9873C38.0688 64.027 37.8548 63.8771 37.8151 63.6518L27.5505 5.39369C27.5108 5.16833 27.6606 4.95437 27.886 4.91466C28.1113 4.87496 28.3253 5.02482 28.365 5.25017L38.6296 63.5083C38.6693 63.7336 38.5195 63.9476 38.2941 63.9873Z" fill="black"/>
<path d="M44.3698 98.4696C44.1444 98.5093 43.9305 98.3595 43.8908 98.1341L39.195 71.4826C39.1553 71.2572 39.3051 71.0433 39.5305 71.0036C39.7559 70.9639 39.9698 71.1137 40.0095 71.3391L44.7053 97.9906C44.745 98.2159 44.5952 98.4299 44.3698 98.4696Z" fill="black"/>
</svg>
