<svg width="120" height="120" viewBox="0 0 120 120" fill="none" xmlns="http://www.w3.org/2000/svg">
<circle cx="60" cy="60" r="59.5" fill="white" stroke="#7E7E7E"/>
<mask id="mask0_1_26" style="mask-type:alpha" maskUnits="userSpaceOnUse" x="1" y="1" width="118" height="118">
<circle cx="60" cy="60" r="58.5" fill="white" stroke="#7E7E7E"/>
</mask>
<g mask="url(#mask0_1_26)">
<path d="M-30.9998 29.991H-31.4998V30.491V31.4746H-30.9998V33.4418H-31.4998V35.4091H-30.9998V37.3763H-31.4998V39.3435H-30.9998V41.3107H-31.4998V43.2779H-30.9998V45.2451H-31.4998V47.2123H-30.9998V49.1795H-31.4998V51.1468H-30.9998V53.114H-31.4998V55.0812H-30.9998V57.0484H-31.4998V59.0156H-30.9998V60.9828H-31.4998V62.95H-30.9998V64.9172H-31.4998V66.8845H-30.9998V68.8517H-31.4998V70.8189H-30.9998V72.7861H-31.4998V74.7533H-30.9998V76.7205H-31.4998V78.6877H-30.9998V80.6549H-31.4998V82.6222H-30.9998V84.5894H-31.4998V86.5566H-30.9998V88.5238H-31.4998V89.5074V90.0074H-30.9998H-30.0053V89.5074H-28.0162V90.0074H-26.0271V89.5074H-24.0381V90.0074H-22.049V89.5074H-20.0599V90.0074H-18.0708V89.5074H-16.0818V90.0074H-14.0927V89.5074H-12.1036V90.0074H-10.1146V89.5074H-8.12549V90.0074H-6.13642V89.5074H-4.14734V90.0074H-2.15827V89.5074H-0.169203V90.0074H1.81987V89.5074H3.80894V90.0074H5.79801V89.5074H7.78708V90.0074H9.77615V89.5074H11.7652V90.0074H13.7543V89.5074H15.7434V90.0074H17.7324V89.5074H19.7215V90.0074H21.7106V89.5074H23.6996V90.0074H25.6887V89.5074H27.6778V90.0074H28.6723H29.1723V89.5074V88.5238H28.6723V86.5566H29.1723V84.5894H28.6723V82.6222H29.1723V80.655H28.6723V78.6877H29.1723V76.7205H28.6723V74.7533H29.1723V72.7861H28.6723V70.8189H29.1723V68.8517H28.6723V66.8845H29.1723V64.9173H28.6723V62.95H29.1723V60.9828H28.6723V59.0156H29.1723V57.0484H28.6723V55.0812H29.1723V53.114H28.6723V51.1468H29.1723V49.1796H28.6723V47.2123H29.1723V45.2451H28.6723V43.2779H29.1723V41.3107H28.6723V39.3435H29.1723V37.3763H28.6723V35.4091H29.1723V33.4419H28.6723V31.4746H29.1723V30.491V29.991H28.6723H27.6778V30.491H25.6887V29.991H23.6996V30.491H21.7106V29.991H19.7215V30.491H17.7324V29.991H15.7434V30.491H13.7543V29.991H11.7652V30.491H9.77615V29.991H7.78708V30.491H5.79801V29.991H3.80894V30.491H1.81987V29.991H-0.169201V30.491H-2.15827V29.991H-4.14734V30.491H-6.13642V29.991H-8.12549V30.491H-10.1146V29.991H-12.1036V30.491H-14.0927V29.991H-16.0818V30.491H-18.0708V29.991H-20.0599V30.491H-22.049V29.991H-24.0381V30.491H-26.0271V29.991H-28.0162V30.491H-30.0053V29.991H-30.9998ZM30.1641 29.991H29.6641V30.491V31.4746H30.1641V33.4418H29.6641V35.4091H30.1641V37.3763H29.6641V39.3435H30.1641V41.3107H29.6641V43.2779H30.1641V45.2451H29.6641V47.2123H30.1641V49.1795H29.6641V51.1468H30.1641V53.114H29.6641V55.0812H30.1641V57.0484H29.6641V59.0156H30.1641V60.9828H29.6641V62.95H30.1641V64.9172H29.6641V66.8845H30.1641V68.8517H29.6641V70.8189H30.1641V72.7861H29.6641V74.7533H30.1641V76.7205H29.6641V78.6877H30.1641V80.6549H29.6641V82.6222H30.1641V84.5894H29.6641V86.5566H30.1641V88.5238H29.6641V89.5074V90.0074H30.1641H31.1587V89.5074H33.1477V90.0074H35.1368V89.5074H37.1259V90.0074H39.1149V89.5074H41.104V90.0074H43.0931V89.5074H45.0822V90.0074H47.0712V89.5074H49.0603V90.0074H51.0494V89.5074H53.0384V90.0074H55.0275V89.5074H57.0166V90.0074H59.0057V89.5074H60.9947V90.0074H62.9838V89.5074H64.9729V90.0074H66.9619V89.5074H68.951V90.0074H70.9401V89.5074H72.9292V90.0074H74.9182V89.5074H76.9073V90.0074H78.8964V89.5074H80.8854V90.0074H82.8745V89.5074H84.8636V90.0074H86.8527V89.5074H88.8417V90.0074H89.8363H90.3363V89.5074V88.5238H89.8363V86.5566H90.3363V84.5894H89.8363V82.6222H90.3363V80.655H89.8363V78.6877H90.3363V76.7205H89.8363V74.7533H90.3363V72.7861H89.8363V70.8189H90.3363V68.8517H89.8363V66.8845H90.3363V64.9173H89.8363V62.95H90.3363V60.9828H89.8363V59.0156H90.3363V57.0484H89.8363V55.0812H90.3363V53.114H89.8363V51.1468H90.3363V49.1796H89.8363V47.2123H90.3363V45.2451H89.8363V43.2779H90.3363V41.3107H89.8363V39.3435H90.3363V37.3763H89.8363V35.4091H90.3363V33.4419H89.8363V31.4746H90.3363V30.491V29.991H89.8363H88.8417V30.491H86.8527V29.991H84.8636V30.491H82.8745V29.991H80.8854V30.491H78.8964V29.991H76.9073V30.491H74.9182V29.991H72.9292V30.491H70.9401V29.991H68.951V30.491H66.9619V29.991H64.9729V30.491H62.9838V29.991H60.9947V30.491H59.0057V29.991H57.0166V30.491H55.0275V29.991H53.0385V30.491H51.0494V29.991H49.0603V30.491H47.0712V29.991H45.0822V30.491H43.0931V29.991H41.104V30.491H39.115V29.991H37.1259V30.491H35.1368V29.991H33.1477V30.491H31.1587V29.991H30.1641ZM91.3281 29.991H90.8281V30.491V31.4746H91.3281V33.4418H90.8281V35.4091H91.3281V37.3763H90.8281V39.3435H91.3281V41.3107H90.8281V43.2779H91.3281V45.2451H90.8281V47.2123H91.3281V49.1795H90.8281V51.1468H91.3281V53.114H90.8281V55.0812H91.3281V57.0484H90.8281V59.0156H91.3281V60.9828H90.8281V62.95H91.3281V64.9172H90.8281V66.8845H91.3281V68.8517H90.8281V70.8189H91.3281V72.7861H90.8281V74.7533H91.3281V76.7205H90.8281V78.6877H91.3281V80.6549H90.8281V82.6222H91.3281V84.5894H90.8281V86.5566H91.3281V88.5238H90.8281V89.5074V90.0074H91.3281H92.3226V89.5074H94.3117V90.0074H96.3007V89.5074H98.2898V90.0074H100.279V89.5074H102.268V90.0074H104.257V89.5074H106.246V90.0074H108.235V89.5074H110.224V90.0074H112.213V89.5074H114.202V90.0074H116.191V89.5074H118.181V90.0074H120.17V89.5074H122.159V90.0074H124.148V89.5074H126.137V90.0074H128.126V89.5074H130.115V90.0074H132.104V89.5074H134.093V90.0074H136.082V89.5074H138.071V90.0074H140.06V89.5074H142.049V90.0074H144.038V89.5074H146.028V90.0074H148.017V89.5074H150.006V90.0074H151H151.5V89.5074V88.5238H151V86.5566H151.5V84.5894H151V82.6222H151.5V80.655H151V78.6877H151.5V76.7205H151V74.7533H151.5V72.7861H151V70.8189H151.5V68.8517H151V66.8845H151.5V64.9173H151V62.95H151.5V60.9828H151V59.0156H151.5V57.0484H151V55.0812H151.5V53.114H151V51.1468H151.5V49.1796H151V47.2123H151.5V45.2451H151V43.2779H151.5V41.3107H151V39.3435H151.5V37.3763H151V35.4091H151.5V33.4419H151V31.4746H151.5V30.491V29.991H151H150.006V30.491H148.017V29.991H146.028V30.491H144.038V29.991H142.049V30.491H140.06V29.991H138.071V30.491H136.082V29.991H134.093V30.491H132.104V29.991H130.115V30.491H128.126V29.991H126.137V30.491H124.148V29.991H122.159V30.491H120.17V29.991H118.181V30.491H116.191V29.991H114.202V30.491H112.213V29.991H110.224V30.491H108.235V29.991H106.246V30.491H104.257V29.991H102.268V30.491H100.279V29.991H98.2898V30.491H96.3007V29.991H94.3117V30.491H92.3226V29.991H91.3281ZM-30.9998 -30.5008H-31.4998V-30.0008V-29.0172H-30.9998V-27.05H-31.4998V-25.0827H-30.9998V-23.1155H-31.4998V-21.1483H-30.9998V-19.1811H-31.4998V-17.2139H-30.9998V-15.2467H-31.4998V-13.2795H-30.9998V-11.3123H-31.4998V-9.34504H-30.9998V-7.37783H-31.4998V-5.41062H-30.9998V-3.44341H-31.4998V-1.47619H-30.9998V0.49102H-31.4998V2.45823H-30.9998V4.42545H-31.4998V6.39266H-30.9998V8.35987H-31.4998V10.3271H-30.9998V12.2943H-31.4998V14.2615H-30.9998V16.2287H-31.4998V18.1959H-30.9998V20.1631H-31.4998V22.1304H-30.9998V24.0976H-31.4998V26.0648H-30.9998V28.032H-31.4998V29.0156V29.5156H-30.9998H-30.0053V29.0156H-28.0162V29.5156H-26.0271V29.0156H-24.0381V29.5156H-22.049V29.0156H-20.0599V29.5156H-18.0708V29.0156H-16.0818V29.5156H-14.0927V29.0156H-12.1036V29.5156H-10.1146V29.0156H-8.12549V29.5156H-6.13642V29.0156H-4.14734V29.5156H-2.15827V29.0156H-0.169203V29.5156H1.81987V29.0156H3.80894V29.5156H5.79801V29.0156H7.78708V29.5156H9.77615V29.0156H11.7652V29.5156H13.7543V29.0156H15.7434V29.5156H17.7324V29.0156H19.7215V29.5156H21.7106V29.0156H23.6996V29.5156H25.6887V29.0156H27.6778V29.5156H28.6723H29.1723V29.0156V28.032H28.6723V26.0648H29.1723V24.0976H28.6723V22.1304H29.1723V20.1632H28.6723V18.1959H29.1723V16.2287H28.6723V14.2615H29.1723V12.2943H28.6723V10.3271H29.1723V8.35988H28.6723V6.39267H29.1723V4.42545H28.6723V2.45824H29.1723V0.491028H28.6723V-1.47618H29.1723V-3.4434H28.6723V-5.41061H29.1723V-7.37782H28.6723V-9.34504H29.1723V-11.3122H28.6723V-13.2795H29.1723V-15.2467H28.6723V-17.2139H29.1723V-19.1811H28.6723V-21.1483H29.1723V-23.1155H28.6723V-25.0827H29.1723V-27.05H28.6723V-29.0172H29.1723V-30.0008V-30.5008H28.6723H27.6778V-30.0008H25.6887V-30.5008H23.6996V-30.0008H21.7106V-30.5008H19.7215V-30.0008H17.7324V-30.5008H15.7434V-30.0008H13.7543V-30.5008H11.7652V-30.0008H9.77615V-30.5008H7.78708V-30.0008H5.79801V-30.5008H3.80894V-30.0008H1.81987V-30.5008H-0.169201V-30.0008H-2.15827V-30.5008H-4.14734V-30.0008H-6.13642V-30.5008H-8.12549V-30.0008H-10.1146V-30.5008H-12.1036V-30.0008H-14.0927V-30.5008H-16.0818V-30.0008H-18.0708V-30.5008H-20.0599V-30.0008H-22.049V-30.5008H-24.0381V-30.0008H-26.0271V-30.5008H-28.0162V-30.0008H-30.0053V-30.5008H-30.9998ZM30.1641 -30.5008H29.6641V-30.0008V-29.0172H30.1641V-27.05H29.6641V-25.0827H30.1641V-23.1155H29.6641V-21.1483H30.1641V-19.1811H29.6641V-17.2139H30.1641V-15.2467H29.6641V-13.2795H30.1641V-11.3123H29.6641V-9.34504H30.1641V-7.37783H29.6641V-5.41062H30.1641V-3.44341H29.6641V-1.47619H30.1641V0.49102H29.6641V2.45823H30.1641V4.42545H29.6641V6.39266H30.1641V8.35987H29.6641V10.3271H30.1641V12.2943H29.6641V14.2615H30.1641V16.2287H29.6641V18.1959H30.1641V20.1631H29.6641V22.1304H30.1641V24.0976H29.6641V26.0648H30.1641V28.032H29.6641V29.0156V29.5156H30.1641H31.1587V29.0156H33.1477V29.5156H35.1368V29.0156H37.1259V29.5156H39.1149V29.0156H41.104V29.5156H43.0931V29.0156H45.0822V29.5156H47.0712V29.0156H49.0603V29.5156H51.0494V29.0156H53.0384V29.5156H55.0275V29.0156H57.0166V29.5156H59.0057V29.0156H60.9947V29.5156H62.9838V29.0156H64.9729V29.5156H66.9619V29.0156H68.951V29.5156H70.9401V29.0156H72.9292V29.5156H74.9182V29.0156H76.9073V29.5156H78.8964V29.0156H80.8854V29.5156H82.8745V29.0156H84.8636V29.5156H86.8527V29.0156H88.8417V29.5156H89.8363H90.3363V29.0156V28.032H89.8363V26.0648H90.3363V24.0976H89.8363V22.1304H90.3363V20.1632H89.8363V18.1959H90.3363V16.2287H89.8363V14.2615H90.3363V12.2943H89.8363V10.3271H90.3363V8.35988H89.8363V6.39267H90.3363V4.42545H89.8363V2.45824H90.3363V0.491028H89.8363V-1.47618H90.3363V-3.4434H89.8363V-5.41061H90.3363V-7.37782H89.8363V-9.34504H90.3363V-11.3122H89.8363V-13.2795H90.3363V-15.2467H89.8363V-17.2139H90.3363V-19.1811H89.8363V-21.1483H90.3363V-23.1155H89.8363V-25.0827H90.3363V-27.05H89.8363V-29.0172H90.3363V-30.0008V-30.5008H89.8363H88.8417V-30.0008H86.8527V-30.5008H84.8636V-30.0008H82.8745V-30.5008H80.8854V-30.0008H78.8964V-30.5008H76.9073V-30.0008H74.9182V-30.5008H72.9292V-30.0008H70.9401V-30.5008H68.951V-30.0008H66.9619V-30.5008H64.9729V-30.0008H62.9838V-30.5008H60.9947V-30.0008H59.0057V-30.5008H57.0166V-30.0008H55.0275V-30.5008H53.0385V-30.0008H51.0494V-30.5008H49.0603V-30.0008H47.0712V-30.5008H45.0822V-30.0008H43.0931V-30.5008H41.104V-30.0008H39.115V-30.5008H37.1259V-30.0008H35.1368V-30.5008H33.1477V-30.0008H31.1587V-30.5008H30.1641ZM91.3281 -30.5008H90.8281V-30.0008V-29.0172H91.3281V-27.05H90.8281V-25.0827H91.3281V-23.1155H90.8281V-21.1483H91.3281V-19.1811H90.8281V-17.2139H91.3281V-15.2467H90.8281V-13.2795H91.3281V-11.3123H90.8281V-9.34504H91.3281V-7.37783H90.8281V-5.41062H91.3281V-3.44341H90.8281V-1.47619H91.3281V0.49102H90.8281V2.45823H91.3281V4.42545H90.8281V6.39266H91.3281V8.35987H90.8281V10.3271H91.3281V12.2943H90.8281V14.2615H91.3281V16.2287H90.8281V18.1959H91.3281V20.1631H90.8281V22.1304H91.3281V24.0976H90.8281V26.0648H91.3281V28.032H90.8281V29.0156V29.5156H91.3281H92.3226V29.0156H94.3117V29.5156H96.3007V29.0156H98.2898V29.5156H100.279V29.0156H102.268V29.5156H104.257V29.0156H106.246V29.5156H108.235V29.0156H110.224V29.5156H112.213V29.0156H114.202V29.5156H116.191V29.0156H118.181V29.5156H120.17V29.0156H122.159V29.5156H124.148V29.0156H126.137V29.5156H128.126V29.0156H130.115V29.5156H132.104V29.0156H134.093V29.5156H136.082V29.0156H138.071V29.5156H140.06V29.0156H142.049V29.5156H144.038V29.0156H146.028V29.5156H148.017V29.0156H150.006V29.5156H151H151.5V29.0156V28.032H151V26.0648H151.5V24.0976H151V22.1304H151.5V20.1632H151V18.1959H151.5V16.2287H151V14.2615H151.5V12.2943H151V10.3271H151.5V8.35988H151V6.39267H151.5V4.42545H151V2.45824H151.5V0.491028H151V-1.47618H151.5V-3.4434H151V-5.41061H151.5V-7.37782H151V-9.34504H151.5V-11.3122H151V-13.2795H151.5V-15.2467H151V-17.2139H151.5V-19.1811H151V-21.1483H151.5V-23.1155H151V-25.0827H151.5V-27.05H151V-29.0172H151.5V-30.0008V-30.5008H151H150.006V-30.0008H148.017V-30.5008H146.028V-30.0008H144.038V-30.5008H142.049V-30.0008H140.06V-30.5008H138.071V-30.0008H136.082V-30.5008H134.093V-30.0008H132.104V-30.5008H130.115V-30.0008H128.126V-30.5008H126.137V-30.0008H124.148V-30.5008H122.159V-30.0008H120.17V-30.5008H118.181V-30.0008H116.191V-30.5008H114.202V-30.0008H112.213V-30.5008H110.224V-30.0008H108.235V-30.5008H106.246V-30.0008H104.257V-30.5008H102.268V-30.0008H100.279V-30.5008H98.2898V-30.0008H96.3007V-30.5008H94.3117V-30.0008H92.3226V-30.5008H91.3281ZM-30.9998 90.4828H-31.4998V90.9828V91.9664H-30.9998V93.9337H-31.4998V95.9009H-30.9998V97.8681H-31.4998V99.8353H-30.9998V101.803H-31.4998V103.77H-30.9998V105.737H-31.4998V107.704H-30.9998V109.671H-31.4998V111.639H-30.9998V113.606H-31.4998V115.573H-30.9998V117.54H-31.4998V119.507H-30.9998V121.475H-31.4998V123.442H-30.9998V125.409H-31.4998V127.376H-30.9998V129.343H-31.4998V131.311H-30.9998V133.278H-31.4998V135.245H-30.9998V137.212H-31.4998V139.18H-30.9998V141.147H-31.4998V143.114H-30.9998V145.081H-31.4998V147.048H-30.9998V149.016H-31.4998V149.999V150.499H-30.9998H-30.0053V149.999H-28.0162V150.499H-26.0271V149.999H-24.0381V150.499H-22.049V149.999H-20.0599V150.499H-18.0708V149.999H-16.0818V150.499H-14.0927V149.999H-12.1036V150.499H-10.1146V149.999H-8.12549V150.499H-6.13642V149.999H-4.14734V150.499H-2.15827V149.999H-0.169203V150.499H1.81987V149.999H3.80894V150.499H5.79801V149.999H7.78708V150.499H9.77615V149.999H11.7652V150.499H13.7543V149.999H15.7434V150.499H17.7324V149.999H19.7215V150.499H21.7106V149.999H23.6996V150.499H25.6887V149.999H27.6778V150.499H28.6723H29.1723V149.999V149.016H28.6723V147.048H29.1723V145.081H28.6723V143.114H29.1723V141.147H28.6723V139.18H29.1723V137.212H28.6723V135.245H29.1723V133.278H28.6723V131.311H29.1723V129.343H28.6723V127.376H29.1723V125.409H28.6723V123.442H29.1723V121.475H28.6723V119.507H29.1723V117.54H28.6723V115.573H29.1723V113.606H28.6723V111.639H29.1723V109.671H28.6723V107.704H29.1723V105.737H28.6723V103.77H29.1723V101.803H28.6723V99.8353H29.1723V97.8681H28.6723V95.9009H29.1723V93.9337H28.6723V91.9664H29.1723V90.9828V90.4828H28.6723H27.6778V90.9828H25.6887V90.4828H23.6996V90.9828H21.7106V90.4828H19.7215V90.9828H17.7324V90.4828H15.7434V90.9828H13.7543V90.4828H11.7652V90.9828H9.77615V90.4828H7.78708V90.9828H5.79801V90.4828H3.80894V90.9828H1.81987V90.4828H-0.169201V90.9828H-2.15827V90.4828H-4.14734V90.9828H-6.13642V90.4828H-8.12549V90.9828H-10.1146V90.4828H-12.1036V90.9828H-14.0927V90.4828H-16.0818V90.9828H-18.0708V90.4828H-20.0599V90.9828H-22.049V90.4828H-24.0381V90.9828H-26.0271V90.4828H-28.0162V90.9828H-30.0053V90.4828H-30.9998ZM30.1641 90.4828H29.6641V90.9828V91.9664H30.1641V93.9337H29.6641V95.9009H30.1641V97.8681H29.6641V99.8353H30.1641V101.803H29.6641V103.77H30.1641V105.737H29.6641V107.704H30.1641V109.671H29.6641V111.639H30.1641V113.606H29.6641V115.573H30.1641V117.54H29.6641V119.507H30.1641V121.475H29.6641V123.442H30.1641V125.409H29.6641V127.376H30.1641V129.343H29.6641V131.311H30.1641V133.278H29.6641V135.245H30.1641V137.212H29.6641V139.18H30.1641V141.147H29.6641V143.114H30.1641V145.081H29.6641V147.048H30.1641V149.016H29.6641V149.999V150.499H30.1641H31.1587V149.999H33.1477V150.499H35.1368V149.999H37.1259V150.499H39.1149V149.999H41.104V150.499H43.0931V149.999H45.0822V150.499H47.0712V149.999H49.0603V150.499H51.0494V149.999H53.0384V150.499H55.0275V149.999H57.0166V150.499H59.0057V149.999H60.9947V150.499H62.9838V149.999H64.9729V150.499H66.9619V149.999H68.951V150.499H70.9401V149.999H72.9292V150.499H74.9182V149.999H76.9073V150.499H78.8964V149.999H80.8854V150.499H82.8745V149.999H84.8636V150.499H86.8527V149.999H88.8417V150.499H89.8363H90.3363V149.999V149.016H89.8363V147.048H90.3363V145.081H89.8363V143.114H90.3363V141.147H89.8363V139.18H90.3363V137.212H89.8363V135.245H90.3363V133.278H89.8363V131.311H90.3363V129.343H89.8363V127.376H90.3363V125.409H89.8363V123.442H90.3363V121.475H89.8363V119.507H90.3363V117.54H89.8363V115.573H90.3363V113.606H89.8363V111.639H90.3363V109.671H89.8363V107.704H90.3363V105.737H89.8363V103.77H90.3363V101.803H89.8363V99.8353H90.3363V97.8681H89.8363V95.9009H90.3363V93.9337H89.8363V91.9664H90.3363V90.9828V90.4828H89.8363H88.8417V90.9828H86.8527V90.4828H84.8636V90.9828H82.8745V90.4828H80.8854V90.9828H78.8964V90.4828H76.9073V90.9828H74.9182V90.4828H72.9292V90.9828H70.9401V90.4828H68.951V90.9828H66.9619V90.4828H64.9729V90.9828H62.9838V90.4828H60.9947V90.9828H59.0057V90.4828H57.0166V90.9828H55.0275V90.4828H53.0385V90.9828H51.0494V90.4828H49.0603V90.9828H47.0712V90.4828H45.0822V90.9828H43.0931V90.4828H41.104V90.9828H39.115V90.4828H37.1259V90.9828H35.1368V90.4828H33.1477V90.9828H31.1587V90.4828H30.1641ZM91.3281 90.4828H90.8281V90.9828V91.9664H91.3281V93.9337H90.8281V95.9009H91.3281V97.8681H90.8281V99.8353H91.3281V101.803H90.8281V103.77H91.3281V105.737H90.8281V107.704H91.3281V109.671H90.8281V111.639H91.3281V113.606H90.8281V115.573H91.3281V117.54H90.8281V119.507H91.3281V121.475H90.8281V123.442H91.3281V125.409H90.8281V127.376H91.3281V129.343H90.8281V131.311H91.3281V133.278H90.8281V135.245H91.3281V137.212H90.8281V139.18H91.3281V141.147H90.8281V143.114H91.3281V145.081H90.8281V147.048H91.3281V149.016H90.8281V149.999V150.499H91.3281H92.3226V149.999H94.3117V150.499H96.3007V149.999H98.2898V150.499H100.279V149.999H102.268V150.499H104.257V149.999H106.246V150.499H108.235V149.999H110.224V150.499H112.213V149.999H114.202V150.499H116.191V149.999H118.181V150.499H120.17V149.999H122.159V150.499H124.148V149.999H126.137V150.499H128.126V149.999H130.115V150.499H132.104V149.999H134.093V150.499H136.082V149.999H138.071V150.499H140.06V149.999H142.049V150.499H144.038V149.999H146.028V150.499H148.017V149.999H150.006V150.499H151H151.5V149.999V149.016H151V147.048H151.5V145.081H151V143.114H151.5V141.147H151V139.18H151.5V137.212H151V135.245H151.5V133.278H151V131.311H151.5V129.343H151V127.376H151.5V125.409H151V123.442H151.5V121.475H151V119.507H151.5V117.54H151V115.573H151.5V113.606H151V111.639H151.5V109.671H151V107.704H151.5V105.737H151V103.77H151.5V101.803H151V99.8353H151.5V97.8681H151V95.9009H151.5V93.9337H151V91.9664H151.5V90.9828V90.4828H151H150.006V90.9828H148.017V90.4828H146.028V90.9828H144.038V90.4828H142.049V90.9828H140.06V90.4828H138.071V90.9828H136.082V90.4828H134.093V90.9828H132.104V90.4828H130.115V90.9828H128.126V90.4828H126.137V90.9828H124.148V90.4828H122.159V90.9828H120.17V90.4828H118.181V90.9828H116.191V90.4828H114.202V90.9828H112.213V90.4828H110.224V90.9828H108.235V90.4828H106.246V90.9828H104.257V90.4828H102.268V90.9828H100.279V90.4828H98.2898V90.9828H96.3007V90.4828H94.3117V90.9828H92.3226V90.4828H91.3281Z" fill="white" stroke="#D9D9D9" stroke-miterlimit="5.77019" stroke-dasharray="2 2"/>
</g>
<rect x="57" y="35" width="5" height="50" rx="2.5" fill="#D9D9D9"/>
<rect x="57" y="35" width="5" height="15" rx="2.5" fill="#1E1F25"/>
</svg>
