<?xml version="1.0" encoding="UTF-8"?> <svg xmlns="http://www.w3.org/2000/svg" width="200" height="200" viewBox="0 0 200 200" fill="none"><circle cx="100" cy="100" r="100" fill="#233447"></circle><path d="M154.907 46.7651L108.254 80.9891L116.928 60.8203L154.907 46.7651Z" fill="#E17726" stroke="#E17726" stroke-width="0.25" stroke-linecap="round" stroke-linejoin="round"></path><path d="M47.2968 46.7651L93.5348 81.3095L85.2761 60.8203L47.2968 46.7651ZM138.114 126.123L125.699 144.922L152.28 152.177L159.892 126.532L138.114 126.123ZM42.3594 126.532L49.9254 152.177L76.4598 144.922L64.0948 126.12L42.3594 126.532Z" fill="#E27625" stroke="#E27625" stroke-width="0.25" stroke-linecap="round" stroke-linejoin="round"></path><path d="M75.0242 94.3601L67.6465 105.401L93.95 106.587L93.0726 78.5195L75.0242 94.3601ZM127.169 94.3601L108.851 78.2061L108.251 106.591L134.554 105.404L127.169 94.3601ZM76.4558 144.921L92.3764 137.3L78.6723 126.714L76.4558 144.921ZM109.821 137.3L125.695 144.921L123.528 126.714L109.821 137.3Z" fill="#E27625" stroke="#E27625" stroke-width="0.25" stroke-linecap="round" stroke-linejoin="round"></path><path d="M125.699 144.922L109.821 137.301L111.117 147.525L110.975 151.856L125.699 144.922ZM76.459 144.922L91.2252 151.86L91.1328 147.525L92.3796 137.301L76.459 144.922Z" fill="#D5BFB2" stroke="#D5BFB2" stroke-width="0.25" stroke-linecap="round" stroke-linejoin="round"></path><path d="M91.4989 119.961L78.3027 116.129L87.6235 111.885L91.4989 119.961ZM110.698 119.961L114.57 111.885L123.94 116.129L110.698 119.961Z" fill="#233447" stroke="#233447" stroke-width="0.25" stroke-linecap="round" stroke-linejoin="round"></path><path d="M76.4587 144.922L78.7676 126.124L64.0938 126.532L76.4587 144.922ZM123.436 126.124L125.698 144.922L138.109 126.532L123.436 126.124ZM134.561 105.402L108.254 106.592L110.701 119.961L114.573 111.885L123.943 116.129L134.561 105.402ZM78.3058 116.129L87.6266 111.885L91.5019 119.961L93.9494 106.592L67.6459 105.405L78.3058 116.129Z" fill="#CC6228" stroke="#CC6228" stroke-width="0.25" stroke-linecap="round" stroke-linejoin="round"></path><path d="M67.6465 105.402L78.6758 126.715L78.3064 116.129L67.6465 105.402ZM123.944 116.129L123.529 126.715L134.558 105.405L123.944 116.129ZM93.95 106.592L91.5025 119.961L94.5929 135.752L95.2891 114.939L93.95 106.592ZM108.254 106.592L106.961 114.896L107.608 135.752L110.698 119.961L108.254 106.592Z" fill="#E27525" stroke="#E27525" stroke-width="0.25" stroke-linecap="round" stroke-linejoin="round"></path><path d="M110.698 119.962L107.608 135.753L109.821 137.302L123.525 126.716L123.94 116.13L110.698 119.962ZM78.3027 116.13L78.6722 126.716L92.3762 137.302L94.5928 135.753L91.5024 119.962L78.3027 116.13Z" fill="#F5841F" stroke="#F5841F" stroke-width="0.25" stroke-linecap="round" stroke-linejoin="round"></path><path d="M110.975 151.86L111.117 147.524L109.916 146.521H92.2872L91.1328 147.524L91.2252 151.856L76.459 144.922L81.6273 149.12L92.1061 156.286H110.055L120.576 149.12L125.699 144.922L110.975 151.86Z" fill="#C0AC9D" stroke="#C0AC9D" stroke-width="0.25" stroke-linecap="round" stroke-linejoin="round"></path><path d="M109.823 137.3L107.606 135.75H94.5984L92.3819 137.3L91.1387 147.523L92.2896 146.519H109.919L111.119 147.523L109.823 137.3Z" fill="#161616" stroke="#161616" stroke-width="0.25" stroke-linecap="round" stroke-linejoin="round"></path><path d="M156.893 83.2253L160.811 64.3384L154.907 46.7651L109.824 79.848L127.176 94.3574L151.679 101.436L157.078 95.1815L154.723 93.4911L158.463 90.1173L155.6 87.9268L159.337 85.0954L156.893 83.2253ZM41.3887 64.3349L45.3564 83.2253L42.8202 85.0989L46.6032 87.9268L43.7437 90.1173L47.4806 93.4946L45.1255 95.185L50.5247 101.433L75.0308 94.361L92.3794 79.8515L47.2959 46.7651L41.3887 64.3349Z" fill="#763E1A" stroke="#763E1A" stroke-width="0.25" stroke-linecap="round" stroke-linejoin="round"></path><path d="M151.677 101.434L127.175 94.362L134.556 105.406L123.527 126.716L138.112 126.533H159.89L151.677 101.434ZM75.0259 94.362L50.5234 101.434L42.3535 126.533H64.0925L78.674 126.716L67.6446 105.406L75.0259 94.362ZM108.253 106.593L109.823 79.8491L116.927 60.8213H85.2738L92.3781 79.8491L93.9481 106.593L94.5484 114.989L94.5946 135.753H107.606L107.652 114.989L108.253 106.593Z" fill="#F5841F" stroke="#F5841F" stroke-width="0.25" stroke-linecap="round" stroke-linejoin="round"></path></svg> 