<svg width="332" height="39" viewBox="0 0 332 39" fill="none" xmlns="http://www.w3.org/2000/svg">
  <g clip-path="url(#clip0_332_18656)">
    <path d="M246.796 16.0594C246.796 16.9342 246.642 17.7488 246.338 18.4967C246.03 19.2446 245.601 19.899 245.05 20.4532C244.499 21.0108 243.823 21.4448 243.029 21.752C242.231 22.0625 241.35 22.2161 240.389 22.2161H237.132V29.3076H234.688V9.8727H240.386C241.35 9.8727 242.228 10.033 243.026 10.3501C243.823 10.6707 244.496 11.1047 245.047 11.6523C245.598 12.1998 246.027 12.8509 246.335 13.6088C246.642 14.3667 246.793 15.1813 246.793 16.0594H246.796ZM244.381 16.0594C244.381 15.5119 244.294 15.011 244.118 14.5536C243.942 14.0962 243.686 13.6956 243.343 13.3483C243 13.0011 242.584 12.734 242.097 12.5404C241.607 12.3501 241.036 12.2532 240.389 12.2532H237.132V19.8656H240.389C241.036 19.8656 241.607 19.7688 242.097 19.5785C242.587 19.3882 243.003 19.1177 243.343 18.7705C243.686 18.4233 243.942 18.0226 244.118 17.5652C244.291 17.1078 244.381 16.607 244.381 16.0594Z" fill="black"/>
    <path d="M254.189 29.5847C253.189 29.5847 252.27 29.3977 251.431 29.0238C250.591 28.6499 249.864 28.1424 249.249 27.5047C248.637 26.867 248.16 26.1124 247.817 25.2477C247.474 24.3796 247.305 23.4548 247.305 22.4698C247.305 21.4849 247.474 20.5567 247.817 19.692C248.16 18.8239 248.634 18.0727 249.249 17.435C249.864 16.7973 250.588 16.2898 251.431 15.9158C252.27 15.5419 253.189 15.3549 254.189 15.3549C255.188 15.3549 256.079 15.5419 256.921 15.9158C257.76 16.2898 258.487 16.7973 259.102 17.435C259.714 18.0727 260.192 18.8272 260.534 19.692C260.877 20.5601 261.047 21.4849 261.047 22.4698C261.047 23.4548 260.877 24.3829 260.534 25.2477C260.192 26.1157 259.714 26.867 259.102 27.5047C258.491 28.1424 257.763 28.6499 256.921 29.0238C256.082 29.3977 255.169 29.5847 254.189 29.5847ZM254.189 27.3945C254.871 27.3945 255.492 27.2676 256.053 27.0105C256.613 26.7568 257.091 26.4029 257.485 25.9555C257.879 25.5081 258.186 24.9872 258.404 24.3963C258.622 23.802 258.734 23.1609 258.734 22.4665C258.734 21.772 258.625 21.151 258.404 20.55C258.186 19.9491 257.879 19.4249 257.485 18.9775C257.091 18.5301 256.613 18.1795 256.053 17.9224C255.492 17.6654 254.871 17.5385 254.189 17.5385C253.506 17.5385 252.885 17.6654 252.324 17.9224C251.764 18.1795 251.283 18.5301 250.88 18.9775C250.476 19.4249 250.165 19.9491 249.947 20.55C249.73 21.151 249.621 21.7921 249.621 22.4665C249.621 23.1409 249.73 23.8053 249.947 24.3963C250.165 24.9906 250.476 25.5081 250.88 25.9555C251.283 26.4029 251.764 26.7534 252.324 27.0105C252.885 27.2676 253.506 27.3945 254.189 27.3945Z" fill="black"/>
    <path d="M262.992 15.622H265.251V18.2764C265.372 17.839 265.564 17.445 265.827 17.0978C266.09 16.7505 266.388 16.4601 266.721 16.223C267.054 15.986 267.406 15.8023 267.784 15.6755C268.159 15.5486 268.54 15.4852 268.928 15.4852C269.277 15.4852 269.62 15.5219 269.953 15.5953V18.0326C269.742 17.9425 269.54 17.8824 269.348 17.8557C269.155 17.829 268.944 17.8156 268.716 17.8156C268.297 17.8156 267.88 17.9124 267.47 18.1027C267.057 18.293 266.692 18.5835 266.368 18.9641C266.045 19.3481 265.779 19.8356 265.568 20.4298C265.356 21.0241 265.254 21.7219 265.254 22.5232V29.3143H262.995V15.6254L262.992 15.622Z" fill="black"/>
    <path d="M278.019 29.4478C277.443 29.4478 276.908 29.361 276.418 29.1874C275.928 29.0138 275.502 28.76 275.143 28.4195C274.784 28.0823 274.502 27.6482 274.304 27.1207C274.102 26.5932 274.002 25.9722 274.002 25.2577V17.7822H271.219V15.6187H274.002V11.8125H276.261V15.6187H280.044V17.7822H276.261V24.9539C276.261 25.8286 276.443 26.4363 276.812 26.7735C277.18 27.1107 277.721 27.281 278.439 27.281C278.718 27.281 279.003 27.2576 279.294 27.2109C279.583 27.1641 279.832 27.0973 280.044 27.0038V29.1106C279.762 29.2008 279.458 29.2809 279.125 29.3443C278.791 29.4078 278.423 29.4411 278.023 29.4411L278.019 29.4478Z" fill="black"/>
    <path d="M284.041 17.7856H281.258V15.622H284.041V12.8576C284.041 12.1464 284.141 11.5254 284.343 10.9945C284.544 10.467 284.823 10.023 285.182 9.6657C285.541 9.30846 285.967 9.04469 286.457 8.87108C286.947 8.69746 287.482 8.61066 288.058 8.61066C288.462 8.61066 288.83 8.64404 289.16 8.70748C289.494 8.77092 289.807 8.85772 290.105 8.9679V11.0479C289.894 10.9578 289.638 10.8877 289.33 10.8409C289.023 10.7942 288.738 10.7708 288.475 10.7708C287.738 10.7708 287.19 10.9411 286.835 11.2783C286.476 11.6155 286.297 12.2232 286.297 13.0979V15.6154H290.105V17.7789H286.297V29.3043H284.038V17.7789L284.041 17.7856Z" fill="black"/>
    <path d="M298.064 29.5847C297.064 29.5847 296.145 29.3977 295.306 29.0238C294.466 28.6499 293.739 28.1424 293.124 27.5047C292.512 26.867 292.035 26.1124 291.692 25.2477C291.349 24.3796 291.18 23.4548 291.18 22.4698C291.18 21.4849 291.349 20.5567 291.692 19.692C292.035 18.8239 292.509 18.0727 293.124 17.435C293.739 16.7973 294.463 16.2898 295.306 15.9158C296.145 15.5419 297.064 15.3549 298.064 15.3549C299.063 15.3549 299.954 15.5419 300.796 15.9158C301.635 16.2898 302.362 16.7973 302.977 17.435C303.589 18.0727 304.067 18.8272 304.409 19.692C304.752 20.5601 304.922 21.4849 304.922 22.4698C304.922 23.4548 304.752 24.3829 304.409 25.2477C304.067 26.1157 303.589 26.867 302.977 27.5047C302.366 28.1424 301.638 28.6499 300.796 29.0238C299.957 29.3977 299.044 29.5847 298.064 29.5847ZM298.064 27.3945C298.746 27.3945 299.367 27.2676 299.928 27.0105C300.488 26.7568 300.966 26.4029 301.36 25.9555C301.754 25.5081 302.061 24.9872 302.279 24.3963C302.497 23.802 302.609 23.1609 302.609 22.4665C302.609 21.772 302.5 21.151 302.279 20.55C302.061 19.9491 301.754 19.4249 301.36 18.9775C300.966 18.5301 300.488 18.1795 299.928 17.9224C299.367 17.6654 298.746 17.5385 298.064 17.5385C297.381 17.5385 296.76 17.6654 296.199 17.9224C295.639 18.1795 295.158 18.5301 294.755 18.9775C294.351 19.4249 294.04 19.9491 293.822 20.55C293.605 21.151 293.496 21.7921 293.496 22.4665C293.496 23.1409 293.605 23.8053 293.822 24.3963C294.04 24.9906 294.351 25.5081 294.755 25.9555C295.158 26.4029 295.639 26.7534 296.199 27.0105C296.76 27.2676 297.381 27.3945 298.064 27.3945Z" fill="black"/>
    <path d="M307.508 8.77759H309.766V29.3109H307.508V8.77759Z" fill="black"/>
    <path d="M314.568 11.9527C314.113 11.9527 313.729 11.7925 313.412 11.472C313.098 11.1514 312.938 10.7575 312.938 10.28C312.938 9.80259 313.094 9.43199 313.412 9.10145C313.729 8.77091 314.113 8.60732 314.568 8.60732C315.023 8.60732 315.401 8.77091 315.699 9.10145C315.997 9.42865 316.144 9.82262 316.144 10.28C316.144 10.7374 315.997 11.1514 315.699 11.472C315.401 11.7925 315.023 11.9527 314.568 11.9527ZM313.412 15.622H315.67V29.3109H313.412V15.622Z" fill="black"/>
    <path d="M325.142 29.5847C324.142 29.5847 323.223 29.3977 322.384 29.0238C321.544 28.6499 320.817 28.1424 320.202 27.5047C319.59 26.867 319.113 26.1124 318.77 25.2477C318.428 24.3796 318.258 23.4548 318.258 22.4698C318.258 21.4849 318.428 20.5567 318.77 19.692C319.113 18.8239 319.587 18.0727 320.202 17.435C320.817 16.7973 321.541 16.2898 322.384 15.9158C323.223 15.5419 324.142 15.3549 325.142 15.3549C326.141 15.3549 327.032 15.5419 327.874 15.9158C328.713 16.2898 329.441 16.7973 330.056 17.435C330.667 18.0727 331.145 18.8272 331.487 19.692C331.83 20.5601 332 21.4849 332 22.4698C332 23.4548 331.83 24.3829 331.487 25.2477C331.145 26.1157 330.667 26.867 330.056 27.5047C329.444 28.1424 328.717 28.6499 327.874 29.0238C327.035 29.3977 326.122 29.5847 325.142 29.5847ZM325.142 27.3945C325.824 27.3945 326.445 27.2676 327.006 27.0105C327.567 26.7568 328.044 26.4029 328.438 25.9555C328.832 25.5081 329.139 24.9872 329.357 24.3963C329.575 23.802 329.687 23.1609 329.687 22.4665C329.687 21.772 329.578 21.151 329.357 20.55C329.139 19.9491 328.832 19.4249 328.438 18.9775C328.044 18.5301 327.567 18.1795 327.006 17.9224C326.445 17.6654 325.824 17.5385 325.142 17.5385C324.459 17.5385 323.838 17.6654 323.277 17.9224C322.717 18.1795 322.236 18.5301 321.833 18.9775C321.429 19.4249 321.118 19.9491 320.901 20.55C320.683 21.151 320.574 21.7921 320.574 22.4665C320.574 23.1409 320.683 23.8053 320.901 24.3963C321.118 24.9906 321.429 25.5081 321.833 25.9555C322.236 26.4029 322.717 26.7534 323.277 27.0105C323.838 27.2676 324.459 27.3945 325.142 27.3945Z" fill="black"/>
    <path fill-rule="evenodd" clip-rule="evenodd" d="M219.125 35.7547V3.39217H221.127V35.7547H219.125Z" fill="black"/>
    <path d="M181.552 19.6519C180.485 18.914 179.306 18.3899 178.192 17.7355C177.468 17.3114 176.699 16.9342 176.071 16.3933C175.004 15.4751 175.222 13.6755 176.337 12.8909C177.938 11.7791 180.594 12.4001 180.876 14.6738C180.876 14.7239 180.924 14.7573 180.969 14.7573H183.387C183.451 14.7573 183.496 14.7072 183.48 14.6438C183.355 13.0712 182.772 11.7624 181.706 10.9277C180.684 10.1264 179.521 9.69908 178.281 9.69908C171.887 9.69908 171.308 16.7539 174.748 18.9808C175.142 19.2412 178.518 21.0108 179.713 21.7787C180.908 22.5466 181.283 23.9556 180.767 25.0707C180.296 26.0857 179.069 26.7902 177.846 26.7067C176.51 26.6232 175.475 25.872 175.113 24.6934C175.049 24.4798 175.02 24.0724 175.02 23.8921C175.02 23.842 174.972 23.7953 174.927 23.7953H172.304C172.256 23.7953 172.211 23.8454 172.211 23.8921C172.211 25.872 172.682 26.9705 173.97 27.9688C175.18 28.917 176.497 29.3109 177.865 29.3109C181.446 29.3109 183.301 27.1975 183.676 25.0039C184.006 22.8605 183.394 20.9273 181.555 19.6519H181.552Z" fill="#161616"/>
    <path d="M141.394 10.053C141.346 10.053 141.314 10.0864 141.301 10.1198L139.148 17.5185C139.116 17.6153 138.991 17.6153 138.959 17.5185L136.807 10.1198C136.791 10.0697 136.759 10.053 136.714 10.053H132.726C132.678 10.053 132.633 10.1031 132.633 10.1498V29.0438C132.633 29.0939 132.681 29.1407 132.726 29.1407H135.349C135.397 29.1407 135.442 29.0906 135.442 29.0438V14.6872C135.442 14.5737 135.599 14.557 135.631 14.6538L137.8 22.1026L137.957 22.6267C137.973 22.6768 138.005 22.6935 138.05 22.6935H140.061C140.109 22.6935 140.141 22.6601 140.154 22.6267L140.311 22.1026L142.48 14.6538C142.512 14.5403 142.669 14.5703 142.669 14.6872V29.0438C142.669 29.0939 142.717 29.1407 142.762 29.1407H145.385C145.433 29.1407 145.478 29.0906 145.478 29.0438V10.1498C145.478 10.0997 145.43 10.053 145.385 10.053H141.397H141.394Z" fill="#161616"/>
    <path d="M107.557 10.053H95.1632C95.1152 10.053 95.0703 10.1031 95.0703 10.1498V12.507C95.0703 12.5571 95.1184 12.6038 95.1632 12.6038H99.9553V29.0405C99.9553 29.0906 100.003 29.1373 100.048 29.1373H102.672C102.72 29.1373 102.765 29.0872 102.765 29.0405V12.6038H107.557C107.605 12.6038 107.65 12.5537 107.65 12.507V10.1498C107.65 10.0997 107.618 10.053 107.557 10.053Z" fill="#161616"/>
    <path d="M116.758 20.7938L118.673 13.4118C118.705 13.315 118.83 13.315 118.862 13.4118L120.778 20.7938C120.794 20.8606 120.746 20.924 120.685 20.924H116.854C116.79 20.924 116.745 20.8572 116.761 20.7938H116.758ZM123.023 29.144H125.41C125.474 29.144 125.519 29.0772 125.503 29.0138L120.57 10.0563C120.554 10.0063 120.522 9.98956 120.477 9.98956H117.053C117.004 9.98956 116.972 10.023 116.96 10.0563L112.027 29.0138C112.011 29.0806 112.059 29.144 112.119 29.144H114.506C114.554 29.144 114.586 29.1106 114.599 29.0772L116.027 23.5616C116.043 23.5115 116.076 23.4948 116.12 23.4948H121.399C121.447 23.4948 121.48 23.5282 121.492 23.5616L122.921 29.0772C122.937 29.1106 122.985 29.144 123.014 29.144H123.023Z" fill="#161616"/>
    <path d="M157.469 20.7938L159.384 13.4118C159.416 13.315 159.541 13.315 159.573 13.4118L161.489 20.7938C161.505 20.8606 161.457 20.924 161.396 20.924H157.565C157.501 20.924 157.456 20.8572 157.472 20.7938H157.469ZM163.734 29.144H166.121C166.185 29.144 166.23 29.0772 166.214 29.0138L161.281 10.0563C161.265 10.0063 161.233 9.98956 161.188 9.98956H157.763C157.715 9.98956 157.683 10.023 157.671 10.0563L152.737 29.0138C152.721 29.0806 152.77 29.144 152.83 29.144H155.217C155.265 29.144 155.297 29.1106 155.31 29.0772L156.738 23.5616C156.754 23.5115 156.786 23.4948 156.831 23.4948H162.11C162.158 23.4948 162.19 23.5282 162.203 23.5616L163.632 29.0772C163.648 29.1106 163.68 29.144 163.725 29.144H163.734Z" fill="#161616"/>
    <path d="M79.9453 26.3528V20.4933C79.9453 20.4432 79.9934 20.3965 80.0382 20.3965H87.0278C87.0759 20.3965 87.1207 20.3464 87.1207 20.2996V17.9425C87.1207 17.8924 87.0727 17.8457 87.0278 17.8457H80.0382C79.9902 17.8457 79.9453 17.7956 79.9453 17.7488V12.7407C79.9453 12.6906 79.9934 12.6439 80.0382 12.6439H87.9856C88.0337 12.6439 88.0785 12.5938 88.0785 12.547V10.1899C88.0785 10.1398 88.0305 10.0931 87.9856 10.0931H77.2257C77.1777 10.0931 77.1328 10.1431 77.1328 10.1899V29.0672C77.1328 29.1173 77.1809 29.164 77.2257 29.164H88.3155C88.3636 29.164 88.4084 29.114 88.4084 29.0672V26.5798C88.4084 26.5298 88.3604 26.483 88.3155 26.483H80.0222C79.9741 26.4663 79.9421 26.4329 79.9421 26.3695L79.9453 26.3528Z" fill="#161616"/>
    <path d="M205.516 28.9871L196.438 19.2145C196.406 19.1811 196.406 19.1177 196.438 19.0843L204.606 10.2433C204.67 10.1765 204.622 10.0797 204.542 10.0797H201.198C201.166 10.0797 201.15 10.0964 201.134 10.1131L194.208 17.6119C194.144 17.6787 194.051 17.6286 194.051 17.5452V10.1765C194.051 10.1264 194.003 10.0797 193.959 10.0797H191.335C191.287 10.0797 191.242 10.1298 191.242 10.1765V29.0705C191.242 29.1206 191.29 29.1674 191.335 29.1674H193.959C194.007 29.1674 194.051 29.1173 194.051 29.0705V20.7537C194.051 20.6702 194.16 20.6235 194.208 20.6869L202.063 29.134C202.063 29.134 202.111 29.1674 202.127 29.1674H205.471C205.535 29.1507 205.58 29.0371 205.519 28.9871H205.516Z" fill="#161616"/>
    <path d="M69.1977 10.053H65.2224C65.1743 10.053 65.1423 10.0864 65.1295 10.1198L62.9768 17.5185C62.9448 17.6153 62.8199 17.6153 62.7879 17.5185L60.6352 10.1198C60.6192 10.0697 60.5872 10.053 60.5423 10.053H56.5382C56.4902 10.053 56.4453 10.1031 56.4453 10.1498V29.0438C56.4453 29.0939 56.4934 29.1407 56.5382 29.1407H59.1617C59.2098 29.1407 59.2546 29.0906 59.2546 29.0438V14.6872C59.2546 14.5737 59.4116 14.557 59.4436 14.6538L61.6122 22.1026L61.7692 22.6267C61.7852 22.6768 61.8173 22.6935 61.8621 22.6935H63.8738C63.9218 22.6935 63.9539 22.6601 63.9667 22.6267L64.1236 22.1026L66.2923 14.6538C66.3243 14.5403 66.4813 14.5703 66.4813 14.6872V29.0438C66.4813 29.0939 66.5293 29.1407 66.5742 29.1407H69.1977C69.2457 29.1407 69.2906 29.0906 69.2906 29.0438V10.1498C69.2906 10.0997 69.2425 10.053 69.1977 10.053Z" fill="#161616"/>
    <path d="M38.8843 0L22.9062 12.1865L25.8757 5.00479L38.8843 0Z" fill="#E27625"/>
    <path d="M2.02344 0L17.8606 12.3L15.0321 5.00479L2.02344 0Z" fill="#E27625"/>
    <path d="M33.1258 28.2592L28.875 34.9534L37.9788 37.5376L40.5863 28.4061L33.1258 28.2592Z" fill="#E27625"/>
    <path d="M0.335938 28.4061L2.92741 37.5376L12.0152 34.9534L7.78042 28.2592L0.335938 28.4061Z" fill="#E27625"/>
    <path d="M11.5196 16.9475L8.99219 20.8806L17.9999 21.3046L17.6988 11.3084L11.5196 16.9475Z" fill="#E27625"/>
    <path d="M29.3865 16.9475L23.1113 11.1949L22.9062 21.3046L31.9139 20.8806L29.3865 16.9475Z" fill="#E27625"/>
    <path d="M12.0156 34.9534L17.4676 32.239L12.7748 28.4696L12.0156 34.9534Z" fill="#E27625"/>
    <path d="M23.4453 32.239L28.8813 34.9534L28.1382 28.4696L23.4453 32.239Z" fill="#E27625"/>
    <path d="M28.8813 34.9534L23.4453 32.239L23.8874 35.8783L23.8393 37.4241L28.8813 34.9534Z" fill="#D7C1B3"/>
    <path d="M12.0156 34.9534L17.0736 37.4241L17.0416 35.8783L17.4676 32.239L12.0156 34.9534Z" fill="#D7C1B3"/>
    <path d="M17.1637 26.0657L12.6406 24.7001L15.8343 23.1877L17.1637 26.0657Z" fill="#2F343B"/>
    <path d="M23.7422 26.0657L25.0716 23.1877L28.2781 24.7001L23.7422 26.0657Z" fill="#2F343B"/>
    <path d="M12.016 34.9534L12.8072 28.2592L7.78125 28.4061L12.016 34.9534Z" fill="#CC6228"/>
    <path d="M28.1016 28.2592L28.8768 34.9534L33.1275 28.4061L28.1016 28.2592Z" fill="#CC6228"/>
    <path d="M31.9139 20.8806L22.9062 21.3046L23.7423 26.0657L25.0717 23.1877L28.2814 24.7001L31.9139 20.8806Z" fill="#CC6228"/>
    <path d="M12.6408 24.7001L15.8344 23.1877L17.1638 26.0657L17.9999 21.3046L8.99219 20.8806L12.6408 24.7001Z" fill="#CC6228"/>
    <path d="M8.99219 20.8806L12.7689 28.4696L12.644 24.7001L8.99219 20.8806Z" fill="#E27625"/>
    <path d="M28.277 24.7001L28.1328 28.4696L31.9095 20.8806L28.277 24.7001Z" fill="#E27625"/>
    <path d="M18.0001 21.3046L17.1641 26.0657L18.2212 31.6881L18.4582 24.2761L18.0001 21.3046Z" fill="#E27625"/>
    <path d="M22.903 21.3046L22.4609 24.2594L22.682 31.6881L23.7391 26.0657L22.903 21.3046Z" fill="#E27625"/>
    <path d="M23.7368 26.0657L22.6797 31.6881L23.4389 32.239L28.1317 28.4696L28.2759 24.7001L23.7368 26.0657Z" fill="#F5841F"/>
    <path d="M12.6406 24.7001L12.7688 28.4696L17.4616 32.239L18.2208 31.6881L17.1637 26.0657L12.6406 24.7001Z" fill="#F5841F"/>
    <path d="M23.839 37.4241L23.8871 35.8783L23.477 35.521H17.4388L17.0416 35.8783L17.0736 37.4241L12.0156 34.9534L13.7871 36.4492L17.3748 39H23.5219L27.1256 36.4492L28.881 34.9534L23.839 37.4241Z" fill="#C0AD9E"/>
    <path d="M23.4425 32.239L22.6833 31.6881H18.2243L17.4651 32.239L17.0391 35.8783L17.4363 35.521H23.4745L23.8845 35.8783L23.4425 32.239Z" fill="#2F343B"/>
    <path d="M39.5675 12.9844L40.9097 6.25683L38.8852 0L23.4453 11.7825L29.3874 16.9475L37.7801 19.4683L39.6284 17.2413L38.8244 16.6404L40.1025 15.4384L39.1255 14.6571L40.4036 13.6488L39.5675 12.9844Z" fill="#763E1A"/>
    <path d="M0 6.25683L1.3582 12.9844L0.490105 13.6522L1.78744 14.6571L0.807232 15.4384L2.08535 16.6404L1.28132 17.2413L3.12963 19.4683L11.5223 16.9509L17.4644 11.7825L2.02449 0L0 6.25683Z" fill="#763E1A"/>
    <path d="M37.7748 19.4683L29.3821 16.9475L31.9095 20.8806L28.1328 28.4696L33.1268 28.4061H40.5873L37.7748 19.4683Z" fill="#F5841F"/>
    <path d="M11.5251 16.9475L3.13242 19.4683L0.335938 28.4061H7.78042L12.7744 28.4696L8.99767 20.8806L11.5251 16.9475Z" fill="#F5841F"/>
    <path d="M22.9018 21.3046L23.4399 11.7791L25.8712 5.00479H15.0312L17.4626 11.7791L18.0007 21.3046L18.2057 24.2928L18.2217 31.6881H22.6807L22.6968 24.2928L22.9018 21.3046Z" fill="#F5841F"/>
  </g>
  <defs>
    <clipPath id="clip0_332_18656">
      <rect width="332" height="39" fill="white"/>
    </clipPath>
  </defs>
</svg>
