<svg width="55" height="50" viewBox="0 0 55 50" fill="none" xmlns="http://www.w3.org/2000/svg">
  <path d="M51.7373 0L30.5781 15.6237L34.5105 6.4164L51.7373 0Z" fill="#E27625"/>
  <path d="M2.92969 0L23.9022 15.7692L20.1565 6.4164L2.92969 0Z" fill="#E27625"/>
  <path d="M44.1194 36.2305L38.4902 44.8128L50.546 48.1259L53.999 36.4188L44.1194 36.2305Z" fill="#E27625"/>
  <path d="M0.689453 36.4188L4.12124 48.1259L16.1558 44.8128L10.5479 36.2305L0.689453 36.4188Z" fill="#E27625"/>
  <path d="M15.5052 21.7287L12.1582 26.7711L24.0867 27.3147L23.688 14.499L15.5052 21.7287Z" fill="#E27625"/>
  <path d="M39.1597 21.7278L30.8496 14.3525L30.5781 27.3138L42.5067 26.7701L39.1597 21.7278Z" fill="#E27625"/>
  <path d="M16.1543 44.8117L23.3742 41.3317L17.1597 36.499L16.1543 44.8117Z" fill="#E27625"/>
  <path d="M31.291 41.3317L38.4897 44.8117L37.5056 36.499L31.291 41.3317Z" fill="#E27625"/>
  <path d="M38.4897 44.813L31.291 41.333L31.8764 45.9987L31.8128 47.9806L38.4897 44.813Z" fill="#D7C1B3"/>
  <path d="M16.1543 44.813L22.8524 47.9806L22.81 45.9987L23.3742 41.333L16.1543 44.813Z" fill="#D7C1B3"/>
  <path d="M22.9819 33.4168L16.9922 31.6661L21.2215 29.7271L22.9819 33.4168Z" fill="#2F343B"/>
  <path d="M31.6856 33.4168L33.446 29.7271L37.6923 31.6661L31.6856 33.4168Z" fill="#2F343B"/>
  <path d="M16.1548 44.8128L17.2026 36.2305L10.5469 36.4188L16.1548 44.8128Z" fill="#CC6228"/>
  <path d="M37.4629 36.2305L38.4895 44.8128L44.1186 36.4188L37.4629 36.2305Z" fill="#CC6228"/>
  <path d="M42.5067 26.77L30.5781 27.3136L31.6853 33.4176L33.4457 29.7278L37.6962 31.6669L42.5067 26.77Z" fill="#CC6228"/>
  <path d="M16.9899 31.6669L21.2191 29.7278L22.9796 33.4176L24.0867 27.3136L12.1582 26.77L16.9899 31.6669Z" fill="#CC6228"/>
  <path d="M12.1582 26.77L17.1595 36.4995L16.9941 31.6669L12.1582 26.77Z" fill="#E27625"/>
  <path d="M37.6967 31.6669L37.5059 36.4995L42.5072 26.77L37.6967 31.6669Z" fill="#E27625"/>
  <path d="M24.0896 27.313L22.9824 33.4169L24.3823 40.6252L24.6962 31.1226L24.0896 27.313Z" fill="#E27625"/>
  <path d="M30.5795 27.313L29.9941 31.1012L30.2868 40.6252L31.6867 33.4169L30.5795 27.313Z" fill="#E27625"/>
  <path d="M31.687 33.4157L30.2871 40.624L31.2925 41.3303L37.507 36.4977L37.6979 31.665L31.687 33.4157Z" fill="#F5841F"/>
  <path d="M16.9922 31.665L17.1619 36.4977L23.3764 41.3303L24.3818 40.624L22.9819 33.4157L16.9922 31.665Z" fill="#F5841F"/>
  <path d="M31.8116 47.9795L31.8752 45.9977L31.3322 45.5397H23.336L22.81 45.9977L22.8524 47.9795L16.1543 44.812L18.5001 46.7297L23.2512 49.9999H31.3916L36.1639 46.7297L38.4885 44.812L31.8116 47.9795Z" fill="#C0AD9E"/>
  <path d="M31.2903 41.3313L30.285 40.625H24.3801L23.3747 41.3313L22.8105 45.997L23.3366 45.539H31.3328L31.8757 45.997L31.2903 41.3313Z" fill="#2F343B"/>
  <path d="M52.6411 16.6467L54.4185 8.02157L51.7375 0L31.291 15.1057L39.16 21.7276L50.274 24.9593L52.7217 22.1043L51.6569 21.3338L53.3495 19.7928L52.0557 18.7912L53.7482 17.4985L52.6411 16.6467Z" fill="#763E1A"/>
  <path d="M0.248047 8.02157L2.04666 16.6467L0.897075 17.5028L2.61509 18.7912L1.31703 19.7928L3.0096 21.3338L1.94485 22.1043L4.3925 24.9593L15.5066 21.7319L23.3755 15.1057L2.929 0L0.248047 8.02157Z" fill="#763E1A"/>
  <path d="M50.2743 24.9603L39.1602 21.7285L42.5072 26.7709L37.5059 36.5004L44.1192 36.419H53.9988L50.2743 24.9603Z" fill="#F5841F"/>
  <path d="M15.5068 21.7285L4.39273 24.9603L0.689453 36.419H10.5479L17.1612 36.5004L12.1599 26.7709L15.5068 21.7285Z" fill="#F5841F"/>
  <path d="M30.5788 27.3117L31.2914 15.0996L34.5111 6.41455H20.1561L23.3758 15.0996L24.0885 27.3117L24.36 31.1427L24.3812 40.624H30.2861L30.3073 31.1427L30.5788 27.3117Z" fill="#F5841F"/>
</svg>
