<svg width="206" height="39" viewBox="0 0 206 39" fill="none" xmlns="http://www.w3.org/2000/svg">
  <path d="M181.552 19.6518C180.485 18.9139 179.306 18.3898 178.192 17.7354C177.468 17.3113 176.699 16.9341 176.071 16.3932C175.004 15.475 175.222 13.6754 176.337 12.8908C177.938 11.779 180.594 12.4 180.876 14.6737C180.876 14.7238 180.924 14.7572 180.969 14.7572H183.387C183.451 14.7572 183.496 14.7071 183.48 14.6437C183.355 13.0711 182.772 11.7623 181.706 10.9276C180.684 10.1263 179.521 9.69897 178.281 9.69897C171.887 9.69897 171.308 16.7538 174.748 18.9807C175.142 19.2411 178.518 21.0107 179.713 21.7786C180.908 22.5465 181.283 23.9555 180.767 25.0706C180.296 26.0856 179.069 26.7901 177.846 26.7066C176.51 26.6231 175.475 25.8719 175.113 24.6933C175.049 24.4797 175.02 24.0723 175.02 23.892C175.02 23.8419 174.972 23.7952 174.927 23.7952H172.304C172.256 23.7952 172.211 23.8453 172.211 23.892C172.211 25.8719 172.682 26.9704 173.97 27.9687C175.18 28.9169 176.497 29.3108 177.865 29.3108C181.446 29.3108 183.301 27.1974 183.676 25.0038C184.006 22.8604 183.394 20.9272 181.555 19.6518H181.552Z" fill="#161616"/>
  <path d="M141.394 10.053C141.346 10.053 141.314 10.0864 141.301 10.1198L139.148 17.5185C139.116 17.6153 138.991 17.6153 138.959 17.5185L136.807 10.1198C136.791 10.0697 136.759 10.053 136.714 10.053H132.726C132.678 10.053 132.633 10.1031 132.633 10.1498V29.0438C132.633 29.0939 132.681 29.1407 132.726 29.1407H135.349C135.397 29.1407 135.442 29.0906 135.442 29.0438V14.6872C135.442 14.5737 135.599 14.557 135.631 14.6538L137.8 22.1026L137.957 22.6267C137.973 22.6768 138.005 22.6935 138.05 22.6935H140.061C140.109 22.6935 140.141 22.6601 140.154 22.6267L140.311 22.1026L142.48 14.6538C142.512 14.5403 142.669 14.5703 142.669 14.6872V29.0438C142.669 29.0939 142.717 29.1407 142.762 29.1407H145.385C145.433 29.1407 145.478 29.0906 145.478 29.0438V10.1498C145.478 10.0997 145.43 10.053 145.385 10.053H141.397H141.394Z" fill="#161616"/>
  <path d="M107.557 10.053H95.1632C95.1152 10.053 95.0703 10.1031 95.0703 10.1498V12.507C95.0703 12.5571 95.1184 12.6038 95.1632 12.6038H99.9553V29.0405C99.9553 29.0906 100.003 29.1373 100.048 29.1373H102.672C102.72 29.1373 102.765 29.0872 102.765 29.0405V12.6038H107.557C107.605 12.6038 107.65 12.5537 107.65 12.507V10.1498C107.65 10.0997 107.618 10.053 107.557 10.053Z" fill="#161616"/>
  <path d="M116.758 20.7937L118.673 13.4117C118.705 13.3149 118.83 13.3149 118.862 13.4117L120.778 20.7937C120.794 20.8605 120.746 20.9239 120.685 20.9239H116.854C116.79 20.9239 116.745 20.8571 116.761 20.7937H116.758ZM123.023 29.1439H125.41C125.474 29.1439 125.519 29.0771 125.503 29.0137L120.57 10.0562C120.554 10.0062 120.522 9.9895 120.477 9.9895H117.053C117.004 9.9895 116.972 10.0229 116.96 10.0562L112.027 29.0137C112.011 29.0805 112.059 29.1439 112.119 29.1439H114.506C114.554 29.1439 114.586 29.1105 114.599 29.0771L116.027 23.5615C116.043 23.5114 116.076 23.4947 116.12 23.4947H121.399C121.447 23.4947 121.48 23.5281 121.492 23.5615L122.921 29.0771C122.937 29.1105 122.985 29.1439 123.014 29.1439H123.023Z" fill="#161616"/>
  <path d="M157.469 20.7937L159.384 13.4117C159.416 13.3149 159.541 13.3149 159.573 13.4117L161.489 20.7937C161.505 20.8605 161.457 20.9239 161.396 20.9239H157.565C157.501 20.9239 157.456 20.8571 157.472 20.7937H157.469ZM163.734 29.1439H166.121C166.185 29.1439 166.23 29.0771 166.214 29.0137L161.281 10.0562C161.265 10.0062 161.233 9.9895 161.188 9.9895H157.763C157.715 9.9895 157.683 10.0229 157.671 10.0562L152.737 29.0137C152.721 29.0805 152.77 29.1439 152.83 29.1439H155.217C155.265 29.1439 155.297 29.1105 155.31 29.0771L156.738 23.5615C156.754 23.5114 156.786 23.4947 156.831 23.4947H162.11C162.158 23.4947 162.19 23.5281 162.203 23.5615L163.632 29.0771C163.648 29.1105 163.68 29.1439 163.725 29.1439H163.734Z" fill="#161616"/>
  <path d="M79.9453 26.3527V20.4932C79.9453 20.4431 79.9934 20.3964 80.0382 20.3964H87.0278C87.0759 20.3964 87.1207 20.3463 87.1207 20.2995V17.9424C87.1207 17.8923 87.0727 17.8456 87.0278 17.8456H80.0382C79.9902 17.8456 79.9453 17.7955 79.9453 17.7487V12.7406C79.9453 12.6905 79.9934 12.6438 80.0382 12.6438H87.9856C88.0337 12.6438 88.0785 12.5937 88.0785 12.5469V10.1898C88.0785 10.1397 88.0305 10.093 87.9856 10.093H77.2257C77.1777 10.093 77.1328 10.143 77.1328 10.1898V29.0671C77.1328 29.1172 77.1809 29.1639 77.2257 29.1639H88.3155C88.3636 29.1639 88.4084 29.1139 88.4084 29.0671V26.5797C88.4084 26.5297 88.3604 26.4829 88.3155 26.4829H80.0222C79.9741 26.4662 79.9421 26.4328 79.9421 26.3694L79.9453 26.3527Z" fill="#161616"/>
  <path d="M205.516 28.987L196.438 19.2144C196.406 19.181 196.406 19.1176 196.438 19.0842L204.606 10.2432C204.67 10.1764 204.622 10.0796 204.542 10.0796H201.198C201.166 10.0796 201.15 10.0963 201.134 10.113L194.208 17.6118C194.144 17.6786 194.051 17.6285 194.051 17.5451V10.1764C194.051 10.1263 194.003 10.0796 193.959 10.0796H191.335C191.287 10.0796 191.242 10.1297 191.242 10.1764V29.0704C191.242 29.1205 191.29 29.1673 191.335 29.1673H193.959C194.007 29.1673 194.051 29.1172 194.051 29.0704V20.7536C194.051 20.6701 194.16 20.6234 194.208 20.6868L202.063 29.1339C202.063 29.1339 202.111 29.1673 202.127 29.1673H205.471C205.535 29.1506 205.58 29.037 205.519 28.987H205.516Z" fill="#161616"/>
  <path d="M69.1977 10.053H65.2224C65.1743 10.053 65.1423 10.0864 65.1295 10.1198L62.9768 17.5185C62.9448 17.6153 62.8199 17.6153 62.7879 17.5185L60.6352 10.1198C60.6192 10.0697 60.5872 10.053 60.5423 10.053H56.5382C56.4902 10.053 56.4453 10.1031 56.4453 10.1498V29.0438C56.4453 29.0939 56.4934 29.1407 56.5382 29.1407H59.1617C59.2098 29.1407 59.2546 29.0906 59.2546 29.0438V14.6872C59.2546 14.5737 59.4116 14.557 59.4436 14.6538L61.6122 22.1026L61.7692 22.6267C61.7852 22.6768 61.8173 22.6935 61.8621 22.6935H63.8738C63.9218 22.6935 63.9539 22.6601 63.9667 22.6267L64.1236 22.1026L66.2923 14.6538C66.3243 14.5403 66.4813 14.5703 66.4813 14.6872V29.0438C66.4813 29.0939 66.5293 29.1407 66.5742 29.1407H69.1977C69.2457 29.1407 69.2906 29.0906 69.2906 29.0438V10.1498C69.2906 10.0997 69.2425 10.053 69.1977 10.053Z" fill="#161616"/>
  <path d="M38.8843 0L22.9062 12.1865L25.8757 5.00479L38.8843 0Z" fill="#E27625"/>
  <path d="M2.02344 0L17.8606 12.3L15.0321 5.00479L2.02344 0Z" fill="#E27625"/>
  <path d="M33.1258 28.2593L28.875 34.9535L37.9788 37.5377L40.5863 28.4062L33.1258 28.2593Z" fill="#E27625"/>
  <path d="M0.335938 28.4062L2.92741 37.5377L12.0152 34.9535L7.78042 28.2593L0.335938 28.4062Z" fill="#E27625"/>
  <path d="M11.5196 16.9474L8.99219 20.8805L17.9999 21.3045L17.6988 11.3083L11.5196 16.9474Z" fill="#E27625"/>
  <path d="M29.3865 16.9474L23.1113 11.1948L22.9062 21.3045L31.9139 20.8805L29.3865 16.9474Z" fill="#E27625"/>
  <path d="M12.0156 34.9533L17.4676 32.2389L12.7748 28.4695L12.0156 34.9533Z" fill="#E27625"/>
  <path d="M23.4453 32.2389L28.8813 34.9533L28.1382 28.4695L23.4453 32.2389Z" fill="#E27625"/>
  <path d="M28.8813 34.9534L23.4453 32.239L23.8874 35.8783L23.8393 37.4241L28.8813 34.9534Z" fill="#D7C1B3"/>
  <path d="M12.0156 34.9534L17.0736 37.4241L17.0416 35.8783L17.4676 32.239L12.0156 34.9534Z" fill="#D7C1B3"/>
  <path d="M17.1637 26.0657L12.6406 24.7001L15.8343 23.1877L17.1637 26.0657Z" fill="#2F343B"/>
  <path d="M23.7422 26.0657L25.0716 23.1877L28.2781 24.7001L23.7422 26.0657Z" fill="#2F343B"/>
  <path d="M12.016 34.9535L12.8072 28.2593L7.78125 28.4062L12.016 34.9535Z" fill="#CC6228"/>
  <path d="M28.1016 28.2593L28.8768 34.9535L33.1275 28.4062L28.1016 28.2593Z" fill="#CC6228"/>
  <path d="M31.9139 20.8806L22.9062 21.3046L23.7423 26.0657L25.0717 23.1877L28.2814 24.7001L31.9139 20.8806Z" fill="#CC6228"/>
  <path d="M12.6408 24.7001L15.8344 23.1877L17.1638 26.0657L17.9999 21.3046L8.99219 20.8806L12.6408 24.7001Z" fill="#CC6228"/>
  <path d="M8.99219 20.8806L12.7689 28.4696L12.644 24.7001L8.99219 20.8806Z" fill="#E27625"/>
  <path d="M28.277 24.7001L28.1328 28.4696L31.9095 20.8806L28.277 24.7001Z" fill="#E27625"/>
  <path d="M18.0001 21.3047L17.1641 26.0658L18.2212 31.6882L18.4582 24.2762L18.0001 21.3047Z" fill="#E27625"/>
  <path d="M22.903 21.3047L22.4609 24.2595L22.682 31.6882L23.7391 26.0658L22.903 21.3047Z" fill="#E27625"/>
  <path d="M23.7368 26.0658L22.6797 31.6882L23.4389 32.2391L28.1317 28.4697L28.2759 24.7002L23.7368 26.0658Z" fill="#F5841F"/>
  <path d="M12.6406 24.7002L12.7688 28.4697L17.4616 32.2391L18.2208 31.6882L17.1637 26.0658L12.6406 24.7002Z" fill="#F5841F"/>
  <path d="M23.839 37.4241L23.8871 35.8783L23.477 35.521H17.4388L17.0416 35.8783L17.0736 37.4241L12.0156 34.9534L13.7871 36.4492L17.3748 39H23.5219L27.1256 36.4492L28.881 34.9534L23.839 37.4241Z" fill="#C0AD9E"/>
  <path d="M23.4425 32.2389L22.6833 31.688H18.2243L17.4651 32.2389L17.0391 35.8782L17.4363 35.5209H23.4745L23.8845 35.8782L23.4425 32.2389Z" fill="#2F343B"/>
  <path d="M39.5675 12.9844L40.9097 6.25683L38.8852 0L23.4453 11.7825L29.3874 16.9475L37.7801 19.4683L39.6284 17.2413L38.8244 16.6404L40.1025 15.4384L39.1255 14.6571L40.4036 13.6488L39.5675 12.9844Z" fill="#763E1A"/>
  <path d="M0 6.25683L1.3582 12.9844L0.490105 13.6522L1.78744 14.6571L0.807232 15.4384L2.08535 16.6404L1.28132 17.2413L3.12963 19.4683L11.5223 16.9509L17.4644 11.7825L2.02449 0L0 6.25683Z" fill="#763E1A"/>
  <path d="M37.7748 19.4683L29.3821 16.9475L31.9095 20.8806L28.1328 28.4696L33.1268 28.4061H40.5873L37.7748 19.4683Z" fill="#F5841F"/>
  <path d="M11.5251 16.9475L3.13242 19.4683L0.335938 28.4061H7.78042L12.7744 28.4696L8.99767 20.8806L11.5251 16.9475Z" fill="#F5841F"/>
  <path d="M22.9018 21.3047L23.4399 11.7792L25.8712 5.00488H15.0312L17.4626 11.7792L18.0007 21.3047L18.2057 24.2929L18.2217 31.6882H22.6807L22.6968 24.2929L22.9018 21.3047Z" fill="#F5841F"/>
</svg>
