<svg fill="none" height="39" viewBox="0 0 332 39" width="332" xmlns="http://www.w3.org/2000/svg" xmlns:xlink="http://www.w3.org/1999/xlink"><clipPath id="a"><path d="m0 0h332v39h-332z"/></clipPath><g clip-path="url(#a)"><g fill="#000"><path d="m246.796 16.0594c0 .8748-.154 1.6894-.458 2.4373-.308.7479-.737 1.4023-1.288 1.9565-.551.5576-1.227.9916-2.021 1.2988-.798.3105-1.679.4641-2.64.4641h-3.257v7.0915h-2.444v-19.4349h5.698c.964 0 1.842.1603 2.64.4774.797.3206 1.47.7546 2.021 1.3022.551.5475.98 1.1986 1.288 1.9565.307.7579.458 1.5725.458 2.4506zm-2.415 0c0-.5475-.087-1.0484-.263-1.5058s-.432-.858-.775-1.2053c-.343-.3472-.759-.6143-1.246-.8079-.49-.1903-1.061-.2872-1.708-.2872h-3.257v7.6124h3.257c.647 0 1.218-.0968 1.708-.2871s.906-.4608 1.246-.808c.343-.3472.599-.7479.775-1.2053.173-.4574.263-.9582.263-1.5058z"/><path d="m254.189 29.5847c-1 0-1.919-.187-2.758-.5609-.84-.3739-1.567-.8814-2.182-1.5191-.612-.6377-1.089-1.3923-1.432-2.257-.343-.8681-.512-1.7929-.512-2.7779 0-.9849.169-1.9131.512-2.7778.343-.8681.817-1.6193 1.432-2.257s1.339-1.1452 2.182-1.5192c.839-.3739 1.758-.5609 2.758-.5609.999 0 1.89.187 2.732.5609.839.374 1.566.8815 2.181 1.5192.612.6377 1.09 1.3922 1.432 2.257.343.8681.513 1.7929.513 2.7778 0 .985-.17 1.9131-.513 2.7779-.342.868-.82 1.6193-1.432 2.257-.611.6377-1.339 1.1452-2.181 1.5191-.839.3739-1.752.5609-2.732.5609zm0-2.1902c.682 0 1.303-.1269 1.864-.384.56-.2537 1.038-.6076 1.432-1.055s.701-.9683.919-1.5592c.218-.5943.33-1.2354.33-1.9298 0-.6945-.109-1.3155-.33-1.9165-.218-.6009-.525-1.1251-.919-1.5725s-.872-.798-1.432-1.0551c-.561-.257-1.182-.3839-1.864-.3839-.683 0-1.304.1269-1.865.3839-.56.2571-1.041.6077-1.444 1.0551-.404.4474-.715.9716-.933 1.5725-.217.601-.326 1.2421-.326 1.9165s.109 1.3388.326 1.9298c.218.5943.529 1.1118.933 1.5592.403.4474.884.7979 1.444 1.055.561.2571 1.182.384 1.865.384z"/><path d="m262.992 15.622h2.259v2.6544c.121-.4374.313-.8314.576-1.1786.263-.3473.561-.6377.894-.8748.333-.237.685-.4207 1.063-.5475.375-.1269.756-.1903 1.144-.1903.349 0 .692.0367 1.025.1101v2.4373c-.211-.0901-.413-.1502-.605-.1769-.193-.0267-.404-.0401-.632-.0401-.419 0-.836.0968-1.246.2871-.413.1903-.778.4808-1.102.8614-.323.384-.589.8715-.8 1.4657-.212.5943-.314 1.2921-.314 2.0934v6.7911h-2.259v-13.6889z"/><path d="m278.019 29.4478c-.576 0-1.111-.0868-1.601-.2604s-.916-.4274-1.275-.7679c-.359-.3372-.641-.7713-.839-1.2988-.202-.5275-.302-1.1485-.302-1.863v-7.4755h-2.783v-2.1635h2.783v-3.8062h2.259v3.8062h3.783v2.1635h-3.783v7.1717c0 .8747.182 1.4824.551 1.8196.368.3372.909.5075 1.627.5075.279 0 .564-.0234.855-.0701.289-.0468.538-.1136.75-.2071v2.1068c-.282.0902-.586.1703-.919.2337-.334.0635-.702.0968-1.102.0968z"/><path d="m284.041 17.7856h-2.783v-2.1636h2.783v-2.7644c0-.7112.1-1.3322.302-1.8631.201-.5275.48-.9715.839-1.3288.359-.35724.785-.62101 1.275-.79462.49-.17362 1.025-.26042 1.601-.26042.404 0 .772.03338 1.102.09682.334.06344.647.15024.945.26042v2.08c-.211-.0901-.467-.1602-.775-.207-.307-.0467-.592-.0701-.855-.0701-.737 0-1.285.1703-1.64.5075-.359.3372-.538.9449-.538 1.8196v2.5175h3.808v2.1635h-3.808v11.5254h-2.259v-11.5254z"/><path d="m298.064 29.5847c-1 0-1.919-.187-2.758-.5609-.84-.3739-1.567-.8814-2.182-1.5191-.612-.6377-1.089-1.3923-1.432-2.257-.343-.8681-.512-1.7929-.512-2.7779 0-.9849.169-1.9131.512-2.7778.343-.8681.817-1.6193 1.432-2.257s1.339-1.1452 2.182-1.5192c.839-.3739 1.758-.5609 2.758-.5609.999 0 1.89.187 2.732.5609.839.374 1.566.8815 2.181 1.5192.612.6377 1.09 1.3922 1.432 2.257.343.8681.513 1.7929.513 2.7778 0 .985-.17 1.9131-.513 2.7779-.342.868-.82 1.6193-1.432 2.257-.611.6377-1.339 1.1452-2.181 1.5191-.839.3739-1.752.5609-2.732.5609zm0-2.1902c.682 0 1.303-.1269 1.864-.384.56-.2537 1.038-.6076 1.432-1.055s.701-.9683.919-1.5592c.218-.5943.33-1.2354.33-1.9298 0-.6945-.109-1.3155-.33-1.9165-.218-.6009-.525-1.1251-.919-1.5725s-.872-.798-1.432-1.0551c-.561-.257-1.182-.3839-1.864-.3839-.683 0-1.304.1269-1.865.3839-.56.2571-1.041.6077-1.444 1.0551-.404.4474-.715.9716-.933 1.5725-.217.601-.326 1.2421-.326 1.9165s.109 1.3388.326 1.9298c.218.5943.529 1.1118.933 1.5592.403.4474.884.7979 1.444 1.055.561.2571 1.182.384 1.865.384z"/><path d="m307.508 8.77759h2.258v20.53331h-2.258z"/><path d="m314.568 11.9527c-.455 0-.839-.1602-1.156-.4807-.314-.3206-.474-.7145-.474-1.192 0-.47741.156-.84801.474-1.17855.317-.33054.701-.49413 1.156-.49413s.833.16359 1.131.49413c.298.3272.445.72117.445 1.17855 0 .4574-.147.8714-.445 1.192-.298.3205-.676.4807-1.131.4807zm-1.156 3.6693h2.258v13.6889h-2.258z"/><path d="m325.142 29.5847c-1 0-1.919-.187-2.758-.5609-.84-.3739-1.567-.8814-2.182-1.5191-.612-.6377-1.089-1.3923-1.432-2.257-.342-.8681-.512-1.7929-.512-2.7779 0-.9849.17-1.9131.512-2.7778.343-.8681.817-1.6193 1.432-2.257s1.339-1.1452 2.182-1.5192c.839-.3739 1.758-.5609 2.758-.5609.999 0 1.89.187 2.732.5609.839.374 1.567.8815 2.182 1.5192.611.6377 1.089 1.3922 1.431 2.257.343.8681.513 1.7929.513 2.7778 0 .985-.17 1.9131-.513 2.7779-.342.868-.82 1.6193-1.431 2.257-.612.6377-1.339 1.1452-2.182 1.5191-.839.3739-1.752.5609-2.732.5609zm0-2.1902c.682 0 1.303-.1269 1.864-.384.561-.2537 1.038-.6076 1.432-1.055s.701-.9683.919-1.5592c.218-.5943.33-1.2354.33-1.9298 0-.6945-.109-1.3155-.33-1.9165-.218-.6009-.525-1.1251-.919-1.5725s-.871-.798-1.432-1.0551c-.561-.257-1.182-.3839-1.864-.3839-.683 0-1.304.1269-1.865.3839-.56.2571-1.041.6077-1.444 1.0551-.404.4474-.715.9716-.932 1.5725-.218.601-.327 1.2421-.327 1.9165s.109 1.3388.327 1.9298c.217.5943.528 1.1118.932 1.5592.403.4474.884.7979 1.444 1.055.561.2571 1.182.384 1.865.384z"/><path clip-rule="evenodd" d="m219.125 35.7547v-32.36253h2.002v32.36253z" fill-rule="evenodd"/></g><path d="m181.552 19.6519c-1.067-.7379-2.246-1.262-3.36-1.9164-.724-.4241-1.493-.8013-2.121-1.3422-1.067-.9182-.849-2.7178.266-3.5024 1.601-1.1118 4.257-.4908 4.539 1.7829 0 .0501.048.0835.093.0835h2.418c.064 0 .109-.0501.093-.1135-.125-1.5726-.708-2.8814-1.774-3.7161-1.022-.8013-2.185-1.22862-3.425-1.22862-6.394 0-6.973 7.05482-3.533 9.28172.394.2604 3.77 2.03 4.965 2.7979s1.57 2.1769 1.054 3.292c-.471 1.015-1.698 1.7195-2.921 1.636-1.336-.0835-2.371-.8347-2.733-2.0133-.064-.2136-.093-.621-.093-.8013 0-.0501-.048-.0968-.093-.0968h-2.623c-.048 0-.093.0501-.093.0968 0 1.9799.471 3.0784 1.759 4.0767 1.21.9482 2.527 1.3421 3.895 1.3421 3.581 0 5.436-2.1134 5.811-4.307.33-2.1434-.282-4.0766-2.121-5.352z" fill="#161616"/><path d="m141.394 10.053c-.048 0-.08.0334-.093.0668l-2.153 7.3987c-.032.0968-.157.0968-.189 0l-2.152-7.3987c-.016-.0501-.048-.0668-.093-.0668h-3.988c-.048 0-.093.0501-.093.0968v18.894c0 .0501.048.0969.093.0969h2.623c.048 0 .093-.0501.093-.0969v-14.3566c0-.1135.157-.1302.189-.0334l2.169 7.4488.157.5241c.016.0501.048.0668.093.0668h2.011c.048 0 .08-.0334.093-.0668l.157-.5241 2.169-7.4488c.032-.1135.189-.0835.189.0334v14.3566c0 .0501.048.0969.093.0969h2.623c.048 0 .093-.0501.093-.0969v-18.894c0-.0501-.048-.0968-.093-.0968h-3.988z" fill="#161616"/><path d="m107.557 10.053h-12.3938c-.048 0-.0929.0501-.0929.0968v2.3572c0 .0501.0481.0968.0929.0968h4.7921v16.4367c0 .0501.0477.0968.0927.0968h2.624c.048 0 .093-.0501.093-.0968v-16.4367h4.792c.048 0 .093-.0501.093-.0968v-2.3572c0-.0501-.032-.0968-.093-.0968z" fill="#161616"/><path d="m116.758 20.7938 1.915-7.382c.032-.0968.157-.0968.189 0l1.916 7.382c.016.0668-.032.1302-.093.1302h-3.831c-.064 0-.109-.0668-.093-.1302zm6.265 8.3502h2.387c.064 0 .109-.0668.093-.1302l-4.933-18.9575c-.016-.05-.048-.06674-.093-.06674h-3.424c-.049 0-.081.03344-.093.06674l-4.933 18.9575c-.016.0668.032.1302.092.1302h2.387c.048 0 .08-.0334.093-.0668l1.428-5.5156c.016-.0501.049-.0668.093-.0668h5.279c.048 0 .081.0334.093.0668l1.429 5.5156c.016.0334.064.0668.093.0668z" fill="#161616"/><path d="m157.469 20.7938 1.915-7.382c.032-.0968.157-.0968.189 0l1.916 7.382c.016.0668-.032.1302-.093.1302h-3.831c-.064 0-.109-.0668-.093-.1302zm6.265 8.3502h2.387c.064 0 .109-.0668.093-.1302l-4.933-18.9575c-.016-.05-.048-.06674-.093-.06674h-3.425c-.048 0-.08.03344-.092.06674l-4.934 18.9575c-.016.0668.033.1302.093.1302h2.387c.048 0 .08-.0334.093-.0668l1.428-5.5156c.016-.0501.048-.0668.093-.0668h5.279c.048 0 .08.0334.093.0668l1.429 5.5156c.016.0334.048.0668.093.0668z" fill="#161616"/><path d="m79.9453 26.3528v-5.8595c0-.0501.0481-.0968.0929-.0968h6.9896c.0481 0 .0929-.0501.0929-.0969v-2.3571c0-.0501-.048-.0968-.0929-.0968h-6.9896c-.048 0-.0929-.0501-.0929-.0969v-5.0081c0-.0501.0481-.0968.0929-.0968h7.9474c.0481 0 .0929-.0501.0929-.0969v-2.3571c0-.0501-.048-.0968-.0929-.0968h-10.7599c-.048 0-.0929.05-.0929.0968v18.8773c0 .0501.0481.0968.0929.0968h11.0898c.0481 0 .0929-.05.0929-.0968v-2.4874c0-.05-.048-.0968-.0929-.0968h-8.2933c-.0481-.0167-.0801-.0501-.0801-.1135z" fill="#161616"/><path d="m205.516 28.9871-9.078-9.7726c-.032-.0334-.032-.0968 0-.1302l8.168-8.841c.064-.0668.016-.1636-.064-.1636h-3.344c-.032 0-.048.0167-.064.0334l-6.926 7.4988c-.064.0668-.157.0167-.157-.0667v-7.3687c0-.0501-.048-.0968-.092-.0968h-2.624c-.048 0-.093.0501-.093.0968v18.894c0 .0501.048.0969.093.0969h2.624c.048 0 .092-.0501.092-.0969v-8.3168c0-.0835.109-.1302.157-.0668l7.855 8.4471s.048.0334.064.0334h3.344c.064-.0167.109-.1303.048-.1803z" fill="#161616"/><path d="m69.1977 10.053h-3.9753c-.0481 0-.0801.0334-.0929.0668l-2.1527 7.3987c-.032.0968-.1569.0968-.1889 0l-2.1527-7.3987c-.016-.0501-.048-.0668-.0929-.0668h-4.0041c-.048 0-.0929.0501-.0929.0968v18.894c0 .0501.0481.0969.0929.0969h2.6235c.0481 0 .0929-.0501.0929-.0969v-14.3566c0-.1135.157-.1302.189-.0334l2.1686 7.4488.157.5241c.016.0501.0481.0668.0929.0668h2.0117c.048 0 .0801-.0334.0929-.0668l.1569-.5241 2.1687-7.4488c.032-.1135.189-.0835.189.0334v14.3566c0 .0501.048.0969.0929.0969h2.6235c.048 0 .0929-.0501.0929-.0969v-18.894c0-.0501-.0481-.0968-.0929-.0968z" fill="#161616"/><path d="m38.8843 0-15.9781 12.1865 2.9695-7.18171z" fill="#e27625"/><path d="m2.02344 0 15.83716 12.3-2.8285-7.29521z" fill="#e27625"/><path d="m33.1258 28.2592-4.2508 6.6942 9.1038 2.5842 2.6075-9.1315z" fill="#e27625"/><path d="m.335938 28.4061 2.591472 9.1315 9.08779-2.5842-4.23478-6.6942z" fill="#e27625"/><path d="m11.5196 16.9475-2.52741 3.9331 9.00771.424-.3011-9.9962z" fill="#e27625"/><path d="m29.3865 16.9475-6.2752-5.7526-.2051 10.1097 9.0077-.424z" fill="#e27625"/><path d="m12.0156 34.9534 5.452-2.7144-4.6928-3.7694z" fill="#e27625"/><path d="m23.4453 32.239 5.436 2.7144-.7431-6.4838z" fill="#e27625"/><path d="m28.8813 34.9534-5.436-2.7144.4421 3.6393-.0481 1.5458z" fill="#d7c1b3"/><path d="m12.0156 34.9534 5.058 2.4707-.032-1.5458.426-3.6393z" fill="#d7c1b3"/><path d="m17.1637 26.0657-4.5231-1.3656 3.1937-1.5124z" fill="#2f343b"/><path d="m23.7422 26.0657 1.3294-2.878 3.2065 1.5124z" fill="#2f343b"/><path d="m12.016 34.9534.7912-6.6942-5.02595.1469z" fill="#cc6228"/><path d="m28.1016 28.2592.7752 6.6942 4.2507-6.5473z" fill="#cc6228"/><path d="m31.9139 20.8806-9.0077.424.8361 4.7611 1.3294-2.878 3.2097 1.5124z" fill="#cc6228"/><path d="m12.6408 24.7001 3.1936-1.5124 1.3294 2.878.8361-4.7611-9.00771-.424z" fill="#cc6228"/><path d="m8.99219 20.8806 3.77671 7.589-.1249-3.7695z" fill="#e27625"/><path d="m28.277 24.7001-.1442 3.7695 3.7767-7.589z" fill="#e27625"/><path d="m18.0001 21.3046-.836 4.7611 1.0571 5.6224.237-7.412z" fill="#e27625"/><path d="m22.903 21.3046-.4421 2.9548.2211 7.4287 1.0571-5.6224z" fill="#e27625"/><path d="m23.7368 26.0657-1.0571 5.6224.7592.5509 4.6928-3.7694.1442-3.7695z" fill="#f5841f"/><path d="m12.6406 24.7001.1282 3.7695 4.6928 3.7694.7592-.5509-1.0571-5.6224z" fill="#f5841f"/><path d="m23.839 37.4241.0481-1.5458-.4101-.3573h-6.0382l-.3972.3573.032 1.5458-5.058-2.4707 1.7715 1.4958 3.5877 2.5508h6.1471l3.6037-2.5508 1.7554-1.4958z" fill="#c0ad9e"/><path d="m23.4425 32.239-.7592-.5509h-4.459l-.7592.5509-.426 3.6393.3972-.3573h6.0382l.41.3573z" fill="#2f343b"/><path d="m39.5675 12.9844 1.3422-6.72757-2.0245-6.25683-15.4399 11.7825 5.9421 5.165 8.3927 2.5208 1.8483-2.227-.804-.6009 1.2781-1.202-.977-.7813 1.2781-1.0083z" fill="#763e1a"/><path d="m0 6.25683 1.3582 6.72757-.868095.6678 1.297335 1.0049-.980208.7813 1.278118 1.202-.80403.6009 1.84831 2.227 8.39267-2.5174 5.9421-5.1684-15.43991-11.7825z" fill="#763e1a"/><path d="m37.7748 19.4683-8.3927-2.5208 2.5274 3.9331-3.7767 7.589 4.994-.0635h7.4605z" fill="#f5841f"/><path d="m11.5251 16.9475-8.39268 2.5208-2.796482 8.9378h7.444482l4.99398.0635-3.77673-7.589z" fill="#f5841f"/><path d="m22.9018 21.3046.5381-9.5255 2.4313-6.77431h-10.84l2.4314 6.77431.5381 9.5255.205 2.9882.016 7.3953h4.459l.0161-7.3953z" fill="#f5841f"/></g></svg>