<svg width="581" height="414" viewBox="0 0 581 414" fill="none" xmlns="http://www.w3.org/2000/svg">
<path d="M362.333 346.631C362.546 346.583 362.751 346.496 362.938 346.37L398.822 322.2C399.369 321.833 399.667 321.193 399.601 320.539C399.535 319.885 399.111 319.32 398.504 319.071L363.353 304.675C362.808 304.452 362.186 304.511 361.693 304.834C361.201 305.158 360.898 305.703 360.886 306.293L360.152 344.858C360.139 345.524 360.5 346.14 361.084 346.459C361.473 346.668 361.917 346.725 362.333 346.631ZM394.056 321.106L363.793 341.49L364.411 308.967L394.056 321.106Z" fill="url(#paint0_linear)"/>
<path d="M379.487 319.936C379.144 318.902 378.027 318.343 376.991 318.687C372.855 320.062 371.334 322.789 370.112 324.981C368.998 326.98 368.115 328.56 365.44 329.449C362.764 330.337 361.111 329.599 359.022 328.665C356.73 327.641 353.876 326.365 349.739 327.74C345.602 329.115 344.081 331.842 342.859 334.034C341.745 336.033 340.866 337.613 338.187 338.502C335.512 339.39 333.859 338.652 331.769 337.718C329.478 336.694 326.623 335.418 322.489 336.793C318.356 338.167 316.832 340.895 315.61 343.087C314.496 345.086 313.616 346.665 310.938 347.554C309.902 347.898 309.341 349.013 309.685 350.047C310.028 351.08 311.145 351.64 312.181 351.295C316.317 349.921 317.838 347.193 319.06 345.001C320.174 343.003 321.054 341.423 323.732 340.534C326.408 339.646 328.061 340.384 330.15 341.317C332.442 342.342 335.296 343.617 339.43 342.243C343.567 340.868 345.088 338.141 346.31 335.949C347.424 333.95 348.303 332.37 350.982 331.482C353.657 330.593 355.31 331.331 357.4 332.265C359.691 333.289 362.546 334.565 366.683 333.19C370.819 331.815 372.34 329.088 373.562 326.896C374.676 324.897 375.558 323.317 378.234 322.428C379.27 322.087 379.831 320.969 379.487 319.936Z" fill="url(#paint1_linear)"/>
<path d="M484.867 138.221C484.744 139.871 482.809 140.854 481.459 141.353C478.772 142.349 475.93 142.292 473.11 142.166C468.729 141.967 464.376 141.411 460.014 140.96C455.846 140.531 451.435 139.874 447.303 140.866C444.229 141.606 441.449 143.181 438.511 144.303C435.432 145.48 432.172 146.171 428.917 146.647C414.513 148.752 399.721 146.798 385.391 145.016C384.426 144.896 384.553 143.445 385.47 143.468C385.436 143.252 385.444 143.018 385.508 142.77C385.567 142.551 385.653 142.339 385.752 142.131C385.518 141.832 385.489 141.405 385.903 141.137C388.953 139.156 392.567 139.353 396.029 139.843C400.372 140.457 404.562 140.894 408.966 140.77C413.9 140.631 418.795 140.036 423.71 139.658C428.037 139.322 432.274 139.475 436.283 137.521C437.359 136.996 438.324 136.415 438.526 135.166C438.62 134.577 438.558 133.963 438.552 133.371C438.543 132.103 438.921 131.724 440.017 131.017C442.478 129.433 445.448 129.255 448.269 129.735C451.43 130.273 454.405 131.501 457.424 132.524C461.576 133.932 465.811 134.05 470.153 134.039C473.948 134.03 477.918 133.957 481.577 135.104C482.972 135.542 485 136.446 484.867 138.221Z" fill="url(#paint2_linear)"/>
<path d="M339.763 101.173C342.711 99.2436 346.717 98.881 350.099 98.229C356.261 97.0372 362.318 93.4671 368.752 94.6277C369.736 94.8043 369.256 96.2848 368.279 96.1098C368.242 96.1035 368.209 96.0993 368.173 96.093C368.078 96.2016 367.948 96.2861 367.775 96.331C361.95 97.8189 359.076 103.55 354.029 106.314C352.252 107.287 350.312 107.457 348.316 107.512C346.017 107.574 343.561 107.485 341.344 106.816C338.574 105.981 336.871 103.067 339.763 101.173Z" fill="url(#paint3_linear)"/>
<path d="M157.533 188.434C145.559 196.389 133.657 205.403 126.733 217.988C125.377 220.452 124.2 223.229 124.692 225.994C125.845 232.463 134.521 233.996 141.012 232.905C144.668 232.29 149.14 230.156 148.713 226.481C148.349 223.315 144.502 221.786 143.16 218.896C141.561 215.45 143.99 211.529 146.516 208.685C165.338 187.482 194.402 178.983 222.112 172.892C227.771 171.648 234.831 168.791 234.577 163.015C234.409 159.205 230.654 156.353 226.873 155.816C223.092 155.279 219.303 156.467 215.648 157.571C206.003 160.481 195.997 162.912 185.954 162.143C177.293 161.479 170.048 160.365 167.937 169.649C165.814 178.971 166.827 182.261 157.533 188.434Z" fill="url(#paint4_linear)"/>
<path d="M101.527 170.122C76.7128 182.749 53.7787 200.317 38.8896 223.815C35.4964 229.171 32.4995 234.916 31.3767 241.153C30.2568 247.391 31.2079 254.219 35.083 259.231C40.2781 265.949 49.4296 268.128 57.9078 268.781C61.2321 269.037 64.6898 269.11 67.7699 267.831C70.8506 266.554 73.4582 263.594 73.3349 260.268C73.1241 254.643 66.3775 252.209 61.7132 249.047C51.0625 241.835 49.4624 226.016 54.6539 214.252C59.8455 202.488 70.0865 193.836 79.9911 185.619C85.3352 181.186 91.1085 176.563 98.0115 175.8C102.134 175.345 106.296 176.331 110.438 176.092C119.972 175.548 127.802 168.815 135.722 163.479C148.319 154.988 162.873 149.415 177.924 147.324C183.721 146.517 190.438 145.636 194.953 142.466C197.203 140.889 195.79 137.351 193.063 137.687C179.687 139.339 166.309 145.424 153.757 149.447C135.918 155.173 118.247 161.615 101.527 170.122Z" fill="url(#paint5_linear)"/>
<path d="M126.052 127.728C125.636 126.854 124.588 126.482 123.712 126.901C120.215 128.565 119.169 131.138 118.332 133.203C117.568 135.088 116.963 136.577 114.7 137.654C112.437 138.731 110.896 138.259 108.95 137.662C106.815 137.01 104.158 136.195 100.66 137.859C97.1628 139.523 96.12 142.096 95.2802 144.161C94.5164 146.046 93.9109 147.535 91.6478 148.613C89.3848 149.69 87.8445 149.217 85.8976 148.621C83.7631 147.968 81.1057 147.154 77.6076 148.815C74.1102 150.479 73.0674 153.052 72.2276 155.117C71.4637 157.002 70.8583 158.491 68.5952 159.568C67.7186 159.984 67.3456 161.031 67.7641 161.905C68.1799 162.779 69.2282 163.151 70.1041 162.732C73.6015 161.068 74.6444 158.495 75.4842 156.43C76.248 154.545 76.8535 153.056 79.1165 151.979C81.3796 150.902 82.9198 151.374 84.8667 151.971C87.0012 152.623 89.6587 153.437 93.1567 151.776C96.6541 150.112 97.6969 147.539 98.5368 145.474C99.3006 143.589 99.9061 142.101 102.169 141.023C104.432 139.946 105.972 140.419 107.919 141.015C110.054 141.668 112.711 142.482 116.209 140.818C119.706 139.154 120.752 136.58 121.589 134.516C122.353 132.631 122.957 131.139 125.221 130.065C126.095 129.649 126.468 128.603 126.052 127.728Z" fill="#FBC49D"/>
<path d="M487.139 203.823C487.433 203.757 487.728 203.67 488.018 203.564C489.778 202.917 491.183 201.626 491.974 199.927C492.763 198.228 492.843 196.323 492.196 194.567C490.863 190.939 486.82 189.073 483.187 190.407C479.551 191.742 477.678 195.776 479.009 199.404C480.236 202.739 483.753 204.587 487.139 203.823ZM490.172 195.308C490.619 196.527 490.564 197.846 490.019 199.024C489.475 200.202 488.5 201.097 487.277 201.544C484.756 202.47 481.955 201.174 481.032 198.66C480.586 197.441 480.641 196.123 481.185 194.944C481.73 193.766 482.705 192.871 483.927 192.424C486.449 191.498 489.249 192.791 490.172 195.308Z" fill="#86E29B"/>
<path d="M82.6173 115.181C84.9521 114.654 87.0704 113.194 88.3562 110.961C89.5376 108.912 89.8478 106.528 89.2344 104.247C88.6182 101.966 87.1512 100.061 85.0994 98.8833C83.0477 97.7058 80.6583 97.3955 78.373 98.0126C76.0878 98.6297 74.1775 100.096 72.9961 102.145C70.5584 106.376 72.0188 111.792 76.2563 114.225C78.2549 115.373 80.5237 115.653 82.6173 115.181ZM79.2801 100.329C80.8468 99.976 82.4662 100.219 83.8683 101.022C85.3479 101.872 86.4062 103.244 86.8506 104.892C87.2943 106.536 87.0701 108.256 86.2174 109.734C84.4578 112.785 80.5432 113.84 77.4874 112.086C74.4316 110.332 73.3788 106.426 75.1383 103.374C75.9911 101.897 77.3669 100.839 79.0179 100.394C79.1026 100.369 79.1913 100.349 79.2801 100.329Z" fill="#FFB0EB"/>
<path d="M55.7707 287.772C54.3404 288.094 52.9199 287.198 52.598 285.771C52.2761 284.344 53.1748 282.925 54.6051 282.602C56.0355 282.28 57.456 283.176 57.7779 284.603C58.0997 286.03 57.2011 287.449 55.7707 287.772Z" fill="url(#paint6_linear)"/>
<path d="M471.004 228.8C469.573 229.122 468.153 228.227 467.831 226.799C467.509 225.372 468.408 223.953 469.838 223.631C471.268 223.308 472.689 224.204 473.011 225.631C473.333 227.059 472.434 228.477 471.004 228.8Z" fill="url(#paint7_linear)"/>
<path d="M410.995 304.387C409.565 304.709 408.144 303.813 407.822 302.386C407.5 300.959 408.399 299.54 409.829 299.217C411.26 298.895 412.68 299.791 413.002 301.218C413.324 302.645 412.425 304.064 410.995 304.387Z" fill="url(#paint8_linear)"/>
<path d="M149.751 337.15C148.32 337.472 146.9 336.577 146.578 335.149C146.256 333.722 147.155 332.303 148.585 331.981C150.016 331.658 151.436 332.554 151.758 333.981C152.08 335.409 151.181 336.827 149.751 337.15Z" fill="url(#paint9_linear)"/>
<path d="M160.33 108.684C158.899 109.007 157.479 108.111 157.157 106.684C156.835 105.256 157.734 103.838 159.164 103.515C160.594 103.193 162.015 104.088 162.337 105.516C162.659 106.943 161.76 108.362 160.33 108.684Z" fill="url(#paint10_linear)"/>
<path d="M458.532 196.586C457.102 196.908 455.682 196.013 455.36 194.585C455.038 193.158 455.936 191.739 457.367 191.417C458.797 191.094 460.218 191.99 460.54 193.417C460.861 194.845 459.963 196.263 458.532 196.586Z" fill="url(#paint11_linear)"/>
<path d="M471.778 305.08C470.348 305.403 468.928 304.507 468.606 303.08C468.284 301.652 469.182 300.234 470.613 299.911C472.043 299.589 473.464 300.484 473.786 301.912C474.107 303.339 473.209 304.758 471.778 305.08Z" fill="url(#paint12_linear)"/>
<path d="M457.013 50.6045C454.691 51.128 452.385 49.6742 451.863 47.3573C451.34 45.0404 452.799 42.7378 455.121 42.2143C457.442 41.6908 459.748 43.1446 460.27 45.4615C460.793 47.7784 459.334 50.081 457.013 50.6045Z" fill="url(#paint13_linear)"/>
<path d="M505.995 97.5231C506.375 97.4374 506.725 97.2451 507.004 96.9582C507.472 96.4775 507.675 95.7979 507.544 95.1411L503.164 73.3131C503.014 72.5705 502.463 71.9737 501.733 71.763C501.004 71.5524 500.219 71.7644 499.696 72.3155L482.466 90.3827C481.947 90.9242 481.771 91.7083 482.008 92.4198C482.241 93.132 482.851 93.6545 483.589 93.7848L505.199 97.5456C505.465 97.5902 505.737 97.5812 505.995 97.5231ZM499.94 77.9455L502.969 93.0322L488.032 90.4334L499.94 77.9455Z" fill="#FFB0EB"/>
<path d="M92.4034 352.108C92.6308 352.057 92.8391 351.934 92.9903 351.752L107.352 334.701C107.611 334.392 107.676 333.967 107.523 333.598C107.369 333.228 107.02 332.972 106.622 332.937L81.7374 330.781C81.3424 330.748 80.9588 330.934 80.742 331.265C80.5252 331.596 80.5076 332.021 80.6993 332.368L91.2218 351.572C91.391 351.883 91.706 352.091 92.0603 352.124C92.1772 352.139 92.2925 352.133 92.4034 352.108ZM104.37 334.902L92.3573 349.164L83.5539 333.099L104.37 334.902Z" fill="#86E29B"/>
<path d="M493.445 135.26C488.251 129.438 518.584 143.273 517.579 151.145C516.571 159.017 501.599 160.631 504.936 153.743C507.76 147.918 501.739 144.556 493.445 135.26Z" fill="#FBC49D"/>
<path d="M181.944 127.199C181.972 127.192 182.002 127.185 182.033 127.179C185.508 126.346 187.659 122.848 186.828 119.38C186.426 117.7 185.391 116.278 183.917 115.375C182.443 114.472 180.706 114.2 179.019 114.601C177.335 115.004 175.91 116.038 175.004 117.51C174.098 118.982 173.822 120.719 174.224 122.399C174.626 124.08 175.661 125.501 177.135 126.405C178.585 127.29 180.289 127.572 181.944 127.199ZM179.466 116.181C180.702 115.902 181.974 116.113 183.055 116.773C184.157 117.447 184.927 118.509 185.227 119.761C185.848 122.349 184.242 124.959 181.649 125.579C180.391 125.882 179.095 125.675 177.996 125.001C176.894 124.327 176.124 123.265 175.824 122.013C175.524 120.76 175.73 119.463 176.406 118.366C177.082 117.268 178.147 116.496 179.402 116.195C179.421 116.191 179.443 116.186 179.466 116.181Z" fill="#75C4FD"/>
<path d="M381.467 92.54C382.879 92.1633 384.389 92.1515 385.841 92.1555C387.663 92.1604 389.442 92.1024 391.264 91.9766C395.434 91.6907 399.61 91.5254 403.788 91.473C408.15 91.4172 412.546 91.4118 416.891 91.8278C420.78 92.1983 424.626 92.8927 428.466 93.5911C437.633 95.2578 446.919 96.04 456.073 97.791C463.778 99.2669 471.386 101.18 478.926 103.333C481.797 104.021 484.63 105.071 485.745 105.506C486.129 105.655 486.384 106.051 486.304 106.459C486.288 106.544 486.258 106.618 486.209 106.672C484.796 108.198 482.156 107.435 480.458 106.922C479.348 106.585 476.044 106.03 475.418 106.061C474.274 106.118 473.232 106.187 473.689 107.724C474.252 109.613 477.218 111.084 478.921 111.799C481.747 112.988 485.151 113.401 487.83 114.972C490.598 115.628 493.624 116.411 495.699 117.135C503.248 119.769 510.353 123.401 517.097 127.673C520.285 129.69 523.416 131.852 526.161 134.452C528.304 136.484 530.648 138.945 531.656 141.788C532.29 143.579 531.565 145.13 529.478 144.547C526.23 143.646 524.819 140.852 523.034 138.3C518.956 132.465 512.499 128.384 506.083 125.553C502.87 124.137 499.537 123.002 496.152 122.076C492.515 121.081 488.725 120.092 484.936 120.086C480.922 120.078 476.989 120.973 473.01 121.37C469.34 121.736 465.783 121.404 462.215 120.484C458.636 119.561 455.194 118.202 451.716 116.966C449.198 116.071 446.338 115.509 444.038 114.097C442.059 112.879 441.802 111.03 443.944 109.793C447.443 107.772 451.089 109.159 454.697 110.015C454.716 110.02 454.737 110.023 454.756 110.028C457.768 110.739 460.916 110.663 463.917 109.899C464.664 109.71 465.269 109.562 465.553 109.454C466.763 108.99 468.081 107.677 467.477 106.278C466.809 104.737 464.662 103.886 463.223 103.321C460.873 102.397 458.38 101.795 455.892 101.371C455.249 101.26 454.589 101.147 453.923 101.053C452.299 100.983 450.682 100.955 449.074 100.972C444.991 101.008 440.932 101.476 436.853 101.101C433.255 100.77 429.721 99.9937 426.214 99.1473C422.346 98.2135 418.539 97.33 414.547 97.1457C410.516 96.9613 406.414 97.2494 402.441 97.9534C398.72 98.6122 395.075 99.687 391.302 100.04C388.426 100.311 385.648 99.943 382.847 99.3212C381.23 98.9616 378.638 98.4354 377.985 96.6634C377.229 94.6063 379.823 92.9776 381.467 92.54Z" fill="url(#paint14_linear)"/>
<path d="M418.036 258.941C408.21 249.2 377.755 232.545 349.218 238.98L392.93 200.378L418.036 258.941Z" fill="#333333"/>
<path d="M377.132 74.9996C388.848 69.9531 418.045 71.9536 431.5 98.3885C444.955 124.821 439.042 139.987 459.181 149.515C479.32 159.042 485.46 184.905 485.46 184.905C485.46 184.905 480.782 192.174 467.293 196.89C453.805 201.607 443.521 194.574 428.156 204.512C412.791 214.449 344.837 174.891 344.837 174.891C344.837 174.891 353.744 161.486 357.505 141.309C354.876 124.958 348.29 106.049 353.824 93.3616C359.352 80.6724 365.981 74.4056 377.132 74.9996Z" fill="#333333"/>
<path d="M352.893 156.339L386.215 159.137C389.711 159.43 393.098 160.484 396.141 162.22L398.676 163.667C399.381 164.18 400.117 164.732 400.878 165.313L397.975 186.594C396.648 185.413 395.346 184.291 394.09 183.245C395.032 237.603 359.021 261.091 359.021 261.091L302.331 214.183C336.336 207.565 352.893 156.339 352.893 156.339Z" fill="#F66A0A"/>
<path d="M370.795 205.622C362.641 199.996 340.57 197.151 329.743 210.529C329.743 210.529 338.253 208.057 345.075 210.68C351.085 216.554 359.821 220.197 359.821 220.197L370.795 205.622Z" fill="#EDA5AC"/>
<path d="M296.483 202.076C296.64 198.92 298.651 195.614 302.456 192.252C316.043 180.247 344.651 174.09 349.659 174.449C349.653 174.448 349.532 174.44 349.331 174.401L352.893 156.339C345.474 154.944 329.399 159.628 326.285 160.551C308.915 165.695 298.468 172.124 292.763 176.612C283.588 183.828 278.707 192.094 278.252 201.179L296.483 202.076Z" fill="#FFD33D"/>
<path d="M152.838 266.948L130.527 285.626L102.173 290.801L136.245 311.049L165.887 287.304L152.838 266.948Z" fill="#FFD33D"/>
<path d="M180.327 341.945L174.033 357.61L159.674 374.605L202.694 366.251L203.171 349.228L180.327 341.945Z" fill="#FFD33D"/>
<path d="M369.229 153.191C355.332 149.465 347.099 135.196 350.844 121.319L357.804 95.5319C361.549 81.657 375.851 73.4274 389.752 77.1528C403.649 80.8789 411.881 95.1471 408.137 109.025L401.177 134.811C397.431 148.686 383.129 156.916 369.229 153.191Z" fill="#EDA5AC"/>
<path d="M372.424 172.785C367.984 171.809 365.183 167.424 366.166 162.995L372.244 135.584L388.316 139.119L382.238 166.53C381.255 170.959 376.863 173.761 372.424 172.785Z" fill="#EDA5AC"/>
<path d="M371.748 87.7698C371.755 95.0904 376.151 103.303 387.678 110.471C399.205 117.64 403.644 126.177 401.966 132.392L411.372 102.337L408.853 89.9762L397.619 75.9254L378.092 75.7923L364.19 80.2241L354.173 99.9128L354.182 108.946C354.184 108.942 362.667 91.2802 371.748 87.7698Z" fill="#333333"/>
<path d="M371.936 140.963C375.349 140.193 378.804 138.821 381.259 137.093L380.441 135.934C376.01 139.055 367.806 141.001 363.557 139.938L363.209 141.314C365.481 141.88 368.688 141.695 371.936 140.963Z" fill="white"/>
<path d="M232.007 246.997C221.444 249.378 210.955 242.764 208.578 232.224C206.201 221.683 212.837 211.207 223.4 208.826C233.962 206.444 244.451 213.058 246.828 223.599C249.205 234.139 242.569 244.615 232.007 246.997Z" fill="#606060"/>
<path d="M143.396 274.762L216.436 211.917L238.927 243.895L160.033 298.415L143.396 274.762Z" fill="#606060"/>
<path d="M316.282 269.682L223.143 246.893L230.044 208.479L312.147 219.504L316.282 269.682Z" fill="#606060"/>
<path d="M227.737 228.061C227.654 228.079 227.572 228.027 227.554 227.945C227.535 227.862 227.587 227.78 227.67 227.762C227.752 227.743 227.834 227.795 227.853 227.877C227.872 227.96 227.82 228.042 227.737 228.061Z" fill="#606060"/>
<path d="M234.831 278.955C224.268 281.337 213.779 274.722 211.402 264.182C209.025 253.641 215.661 243.165 226.223 240.784C236.786 238.402 247.275 245.016 249.652 255.557C252.029 266.097 245.393 276.573 234.831 278.955Z" fill="#333333"/>
<path d="M180.327 341.945L212.963 251.204L248.047 268.545L209.664 351.466L180.327 341.945Z" fill="#333333"/>
<path d="M326.271 271.18L241.278 273.395L237.221 241.471L326.271 271.18Z" fill="#333333"/>
<path d="M316.282 269.681C334.055 275.837 359.022 261.094 359.022 261.094C359.022 261.094 342.609 223.56 312.147 219.504C281.685 215.448 248.347 245.182 248.347 245.182L316.282 269.681Z" fill="#606060"/>
<path d="M229.121 208.39L343.941 223.926L344.59 219.217L229.785 203.571L229.121 208.39Z" fill="#333333"/>
<path d="M273.909 158.682L279.912 159.501C282.077 159.795 283.934 161.194 284.81 163.191L307.153 214.116L303.124 213.568L273.909 158.682Z" fill="#606060"/>
<path d="M209.123 149.853L275.391 158.886C277.76 159.209 279.791 160.735 280.756 162.919L303.128 213.57L307.156 214.119L229.788 203.573L207.285 152.285C206.734 151.034 207.77 149.669 209.123 149.853Z" fill="#333333"/>
<path d="M303.688 206.22C308.49 206.554 315.255 209.963 317.893 215.574L307.153 214.116L303.688 206.22Z" fill="#EDA5AC"/>
<path d="M367.267 225.267C374.02 229.72 374.451 229.757 382.593 233.327L381.285 235.68L367.267 225.267Z" fill="#F66A0A"/>
<path d="M401.348 137.172C398.724 135.809 397.704 132.579 399.071 129.959L400.98 126.301C402.347 123.681 405.584 122.66 408.208 124.022L409.416 124.648C412.651 126.33 413.293 130.678 410.679 133.221L407.563 136.253C405.907 137.868 403.401 138.239 401.348 137.172Z" fill="#EDA5AC"/>
<path d="M302.541 218.384L339.224 223.294C341.832 223.642 344.233 221.819 344.59 219.217L303.127 213.565L302.541 218.384Z" fill="#333333"/>
<path d="M329.743 210.529L327.582 213.532C327.029 214.299 327.402 215.384 328.31 215.65C328.75 215.778 329.226 215.679 329.579 215.387L336.649 209.498L332.666 208.983L329.743 210.529Z" fill="#EDA5AC"/>
<path d="M336.649 209.498L336.032 210.533C335.118 212.062 335.716 214.044 337.328 214.809L338.878 215.544C341.378 216.731 344.206 217.05 346.908 216.446L351.531 215.416L344.459 207.551L336.174 207.918L336.649 209.498Z" fill="#EDA5AC"/>
<path d="M344.835 174.891C346.037 172.742 347.676 169.144 347.676 169.144C347.676 169.144 340.827 174.798 337.902 176.312" fill="#F66A0A"/>
<path d="M370.795 205.622C385.541 216.68 406.718 224.333 416.809 222.369C417.043 222.322 417.273 222.273 417.5 222.216C419.939 221.599 420.397 220.606 420.616 220.129C422.512 216.014 416.95 207.009 411.611 200.548C407.484 195.555 402.591 190.709 397.975 186.597L400.878 165.316C408.203 170.923 417.972 179.601 425.697 188.944C438.212 204.087 442.082 217.138 437.2 227.733C434.369 233.876 429.104 238.076 421.969 239.88C421.437 240.014 420.899 240.136 420.355 240.241C410.18 242.221 398.371 239.24 390.063 236.295C379.481 232.539 368.458 226.673 359.821 220.2L370.795 205.622Z" fill="#FFD33D"/>
<path d="M250.335 184.243C247.874 184.798 245.43 183.257 244.876 180.801C244.322 178.345 245.868 175.904 248.329 175.349C250.79 174.794 253.234 176.335 253.788 178.791C254.342 181.247 252.796 183.688 250.335 184.243Z" fill="#606060"/>
<path d="M367.957 154.914L358.754 152.223L357.719 156.745L352.893 156.339C352.893 156.339 338.01 190.409 325.783 201.238C325.783 201.238 346.542 188.264 362.764 166.556C365.325 163.129 367.121 159.179 367.944 154.987L367.957 154.914Z" fill="#FFD33D"/>
<path d="M378.852 154.705L381.98 167.443L406.223 240.372L407.104 243.028C411.734 256.954 424.602 266.493 439.299 266.892L443.46 267.007L428.095 239.845L427.068 238.029L397.973 186.6L400.876 165.32C400.876 165.32 397.084 161.813 392.252 160.221L393.27 155.819L378.852 154.705Z" fill="#FFD33D"/>
<path d="M428.098 239.844C423.14 242.786 411.754 244.071 407.104 243.028L406.223 240.372C410.955 241.02 415.818 241.122 420.354 240.238L421.966 239.878C423.794 239.416 425.499 238.799 427.07 238.026L428.098 239.844Z" fill="#F66A0A"/>
<path d="M270.518 294.854C270.553 294.852 270.59 294.85 270.624 294.845C274.15 294.573 277.68 294.426 281.213 294.234C285.091 294.026 288.917 293.497 292.759 292.933C298.527 292.089 304.267 291.016 309.883 289.427C312.773 288.609 315.591 287.567 318.492 286.785C321.294 286.028 324.143 285.47 327.003 284.999C332.438 284.108 338.044 283.719 343.317 282.062C348.757 280.353 353.857 277.682 358.839 274.95C363.947 272.147 369.049 269.676 374.806 268.457C377.139 267.963 379.984 267.478 382.252 268.476C384.041 269.265 385.096 271.385 384.343 273.265C383.456 275.483 380.595 276.701 378.561 277.549C375.527 278.815 372.343 279.71 369.161 280.527C365.823 281.384 362.506 282.309 359.195 283.251C357.63 284.31 356.184 285.584 354.754 286.803C351.921 289.218 349.061 291.381 345.446 292.47C337.458 294.872 328.962 292.909 320.804 293.085C320.114 293.101 319.42 293.121 318.723 293.145C314.69 293.792 310.645 294.358 306.611 295.027C300.502 296.038 294.403 297.151 288.249 297.85C283.169 298.425 272.96 298.834 272.96 298.834L270.302 298.288C268.33 297.889 268.509 295.017 270.518 294.854Z" fill="url(#paint15_linear)"/>
<path d="M540.303 215.45C547.326 207.961 556.635 193.945 554.038 182.431C553.275 173.966 542.612 166.521 531.153 169.303C524.832 170.839 519.491 177.187 523.715 180.361C524.912 181.26 526.61 181.697 528.171 182.247C542.191 187.204 543.351 204.161 530.249 212.62C524.956 216.038 518.342 217.939 512.474 220.748C496.903 228.206 495.837 245.928 479.731 252.628C472.628 255.582 464.734 257.002 457.518 259.763C443.894 264.978 433.607 274.599 419.987 279.82C413.362 282.36 404.037 285.379 395.095 288.125C392.449 288.937 393.418 291.734 396.125 291.101C396.18 291.088 396.233 291.076 396.285 291.061C402.894 289.475 409.495 287.786 415.947 285.758C433.015 280.389 449.85 273.661 465.92 266.54C498.123 252.279 518.666 238.527 540.303 215.45Z" fill="url(#paint16_linear)"/>
<path d="M420.546 296.731C426.507 288.251 438.22 286.735 447.716 285.466C452.759 284.791 457.897 284.316 462.826 282.992C468.843 281.374 474.351 278.111 479.396 274.534C480.901 273.467 483.274 271.662 484.868 270.435C485.931 269.617 486.93 268.723 487.857 267.758C490.115 265.405 494.761 260.693 497.554 258.738C499.664 257.262 505.279 255.414 505.788 259.481C506.162 262.47 503.423 265.856 501.505 267.859C497.805 271.726 493.131 274.798 488.439 277.319C483.478 279.984 478.218 282.063 472.887 283.867C470.237 284.764 467.561 285.589 464.873 286.372C462.91 286.946 460.874 287.385 458.954 288.097C456.3 289.082 453.613 290.502 451.021 291.776C447.558 293.475 444.089 295.177 440.54 296.689C436.855 298.259 432.985 299.806 428.994 300.369C426.111 300.775 422.816 300.686 420.7 298.398C420.306 297.969 420.197 297.226 420.546 296.731Z" fill="url(#paint17_linear)"/>
<path d="M229.798 329.69C272.849 326.046 285.974 318.931 261.624 312.889C237.273 306.847 226.686 314.544 227.776 319.843C228.864 325.144 217.23 326.586 202.656 327.29C188.085 327.994 186.422 331.745 229.798 329.69Z" fill="url(#paint18_linear)"/>
<defs>
<linearGradient id="paint0_linear" x1="394.503" y1="309.876" x2="352.811" y2="330.329" gradientUnits="userSpaceOnUse">
<stop stop-color="#FFE466"/>
<stop offset="1" stop-color="#FFAFEA"/>
</linearGradient>
<linearGradient id="paint1_linear" x1="315.323" y1="372.867" x2="220.585" y2="496.049" gradientUnits="userSpaceOnUse">
<stop stop-color="#75C3FC"/>
<stop offset="0.0929" stop-color="#81C2F6"/>
<stop offset="1" stop-color="#F0B8BD"/>
</linearGradient>
<linearGradient id="paint2_linear" x1="331.024" y1="142.089" x2="698.443" y2="129.462" gradientUnits="userSpaceOnUse">
<stop stop-color="#FFE466"/>
<stop offset="1" stop-color="#FFAFEA"/>
</linearGradient>
<linearGradient id="paint3_linear" x1="321.717" y1="106.985" x2="441.864" y2="86.598" gradientUnits="userSpaceOnUse">
<stop stop-color="#FFE466"/>
<stop offset="1" stop-color="#FFAFEA"/>
</linearGradient>
<linearGradient id="paint4_linear" x1="277.037" y1="138.634" x2="121.766" y2="215.793" gradientUnits="userSpaceOnUse">
<stop stop-color="#FFE466"/>
<stop offset="1" stop-color="#FFAFEA"/>
</linearGradient>
<linearGradient id="paint5_linear" x1="25.9186" y1="231.588" x2="207.477" y2="180.751" gradientUnits="userSpaceOnUse">
<stop stop-color="#75C3FC"/>
<stop offset="0.0929" stop-color="#81C2F6"/>
<stop offset="1" stop-color="#F0B8BD"/>
</linearGradient>
<linearGradient id="paint6_linear" x1="57.7785" y1="284.604" x2="52.5986" y2="285.772" gradientUnits="userSpaceOnUse">
<stop stop-color="#75C3FC"/>
<stop offset="1" stop-color="#75C3FC"/>
</linearGradient>
<linearGradient id="paint7_linear" x1="473.012" y1="225.63" x2="467.832" y2="226.798" gradientUnits="userSpaceOnUse">
<stop stop-color="#75C3FC"/>
<stop offset="1" stop-color="#75C3FC"/>
</linearGradient>
<linearGradient id="paint8_linear" x1="413.002" y1="301.219" x2="407.822" y2="302.387" gradientUnits="userSpaceOnUse">
<stop stop-color="#75C3FC"/>
<stop offset="1" stop-color="#75C3FC"/>
</linearGradient>
<linearGradient id="paint9_linear" x1="151.759" y1="333.982" x2="146.579" y2="335.15" gradientUnits="userSpaceOnUse">
<stop stop-color="#75C3FC"/>
<stop offset="1" stop-color="#75C3FC"/>
</linearGradient>
<linearGradient id="paint10_linear" x1="162.337" y1="105.516" x2="157.158" y2="106.685" gradientUnits="userSpaceOnUse">
<stop stop-color="#75C3FC"/>
<stop offset="1" stop-color="#75C3FC"/>
</linearGradient>
<linearGradient id="paint11_linear" x1="460.539" y1="193.416" x2="455.359" y2="194.584" gradientUnits="userSpaceOnUse">
<stop stop-color="#75C3FC"/>
<stop offset="1" stop-color="#75C3FC"/>
</linearGradient>
<linearGradient id="paint12_linear" x1="473.787" y1="301.911" x2="468.607" y2="303.079" gradientUnits="userSpaceOnUse">
<stop stop-color="#75C3FC"/>
<stop offset="1" stop-color="#75C3FC"/>
</linearGradient>
<linearGradient id="paint13_linear" x1="460.301" y1="45.6102" x2="451.83" y2="47.2061" gradientUnits="userSpaceOnUse">
<stop stop-color="#75C3FC"/>
<stop offset="1" stop-color="#75C3FC"/>
</linearGradient>
<linearGradient id="paint14_linear" x1="369.408" y1="107.869" x2="603.82" y2="131.528" gradientUnits="userSpaceOnUse">
<stop stop-color="#FFE466"/>
<stop offset="1" stop-color="#FFAFEA"/>
</linearGradient>
<linearGradient id="paint15_linear" x1="433.076" y1="248.193" x2="87.2425" y2="374.045" gradientUnits="userSpaceOnUse">
<stop stop-color="#FFE466"/>
<stop offset="1" stop-color="#FFAFEA"/>
</linearGradient>
<linearGradient id="paint16_linear" x1="559.909" y1="208.28" x2="384.08" y2="247.574" gradientUnits="userSpaceOnUse">
<stop stop-color="#75C3FC"/>
<stop offset="0.0929" stop-color="#81C2F6"/>
<stop offset="1" stop-color="#F0B8BD"/>
</linearGradient>
<linearGradient id="paint17_linear" x1="507.99" y1="269.152" x2="418.474" y2="289.337" gradientUnits="userSpaceOnUse">
<stop stop-color="#75C3FC"/>
<stop offset="0.0929" stop-color="#81C2F6"/>
<stop offset="1" stop-color="#F0B8BD"/>
</linearGradient>
<linearGradient id="paint18_linear" x1="272.463" y1="313.217" x2="193.847" y2="330.944" gradientUnits="userSpaceOnUse">
<stop stop-color="#FFE466"/>
<stop offset="1" stop-color="#FFAFEA"/>
</linearGradient>
</defs>
</svg>
