<svg width="468" height="373" viewBox="0 0 468 373" fill="none" xmlns="http://www.w3.org/2000/svg">
<g filter="url(#filter0_d)">
<path d="M24 89.8643C24 88.2899 25.2763 87.0136 26.8507 87.0136H375.584C377.158 87.0136 378.434 88.2899 378.434 89.8643V212.443C378.434 214.018 377.158 215.294 375.584 215.294H26.8507C25.2763 215.294 24 214.018 24 212.443V89.8643Z" fill="white"/>
</g>
<g filter="url(#filter1_d)">
<path d="M62.9592 227.647C62.9592 226.073 64.2355 224.796 65.8099 224.796H147.529C149.104 224.796 150.38 226.073 150.38 227.647V341.674C150.38 343.249 149.104 344.525 147.529 344.525H65.8099C64.2355 344.525 62.9592 343.249 62.9592 341.674V227.647Z" fill="white"/>
</g>
<g filter="url(#filter2_d)">
<path d="M160.833 227.647C160.833 226.073 162.109 224.796 163.683 224.796H245.403C246.977 224.796 248.253 226.073 248.253 227.647V341.674C248.253 343.249 246.977 344.525 245.403 344.525H163.683C162.109 344.525 160.833 343.249 160.833 341.674V227.647Z" fill="white"/>
</g>
<g filter="url(#filter3_d)">
<path d="M258.706 227.647C258.706 226.073 259.982 224.796 261.556 224.796H343.276C344.85 224.796 346.127 226.073 346.127 227.647V341.674C346.127 343.249 344.85 344.525 343.276 344.525H261.556C259.982 344.525 258.706 343.249 258.706 341.674V227.647Z" fill="white"/>
</g>
<g filter="url(#filter4_d)">
<path d="M356.579 227.647C356.579 226.073 357.855 224.796 359.43 224.796H441.149C442.724 224.796 444 226.073 444 227.647V341.674C444 343.249 442.724 344.525 441.149 344.525H359.43C357.855 344.525 356.579 343.249 356.579 341.674V227.647Z" fill="white"/>
</g>
<path d="M42.9855 182.627C42.3071 182.627 41.8738 182.091 41.8738 181.059V180.831C41.8738 179.828 42.2843 179.258 42.9741 179.258C43.664 179.258 44.0631 179.873 44.0631 180.82V181.048C44.0631 182.08 43.6982 182.627 42.9855 182.627ZM42.9855 183.038C43.989 183.038 44.5648 182.24 44.5648 181.054V180.826C44.5648 179.663 43.9776 178.859 42.9741 178.859C41.9764 178.859 41.3663 179.634 41.3663 180.837V181.065C41.3663 182.251 42.0106 183.038 42.9855 183.038Z" fill="#333333"/>
<path d="M39.8474 148.778H40.3434V144.702H39.8816L38.9352 145.386V145.848L39.8474 145.192V148.778Z" fill="#333333"/>
<path d="M42.9855 148.419C42.307 148.419 41.8737 147.883 41.8737 146.851V146.623C41.8737 145.62 42.2842 145.05 42.9741 145.05C43.664 145.05 44.0631 145.665 44.0631 146.612V146.84C44.0631 147.872 43.6982 148.419 42.9855 148.419ZM42.9855 148.83C43.9889 148.83 44.5648 148.031 44.5648 146.846V146.617C44.5648 145.454 43.9775 144.651 42.9741 144.651C41.9764 144.651 41.3663 145.426 41.3663 146.629V146.857C41.3663 148.043 42.0106 148.83 42.9855 148.83Z" fill="#333333"/>
<path d="M38.0035 115.52H40.7345V115.116H38.7675L39.8907 114.021C40.3924 113.531 40.7117 113.04 40.7117 112.539C40.7117 111.837 40.2328 111.393 39.4802 111.393C38.7048 111.393 38.2202 111.9 38.1575 112.698H38.6193C38.6991 112.06 39.007 111.792 39.4802 111.792C39.942 111.792 40.21 112.065 40.21 112.521C40.21 112.938 39.9933 113.308 39.6227 113.702L38.0035 115.406V115.52Z" fill="#333333"/>
<path d="M42.9855 115.161C42.3071 115.161 41.8738 114.625 41.8738 113.593V113.365C41.8738 112.362 42.2843 111.792 42.9741 111.792C43.664 111.792 44.0631 112.407 44.0631 113.354V113.582C44.0631 114.614 43.6982 115.161 42.9855 115.161ZM42.9855 115.572C43.989 115.572 44.5648 114.773 44.5648 113.588V113.36C44.5648 112.196 43.9776 111.393 42.9741 111.393C41.9764 111.393 41.3664 112.168 41.3664 113.371V113.599C41.3664 114.785 42.0106 115.572 42.9855 115.572Z" fill="#333333"/>
<path d="M60.3849 193.439H63.1158V193.034H61.1489L62.272 191.939C62.7738 191.449 63.093 190.959 63.093 190.457C63.093 189.756 62.6141 189.311 61.8615 189.311C61.0862 189.311 60.6015 189.819 60.5388 190.617H61.0006C61.0805 189.978 61.3883 189.71 61.8615 189.71C62.3233 189.71 62.5913 189.984 62.5913 190.44C62.5913 190.856 62.3747 191.227 62.0041 191.62L60.3849 193.325V193.439Z" fill="#333333"/>
<path d="M65.3669 193.08C64.6884 193.08 64.2551 192.544 64.2551 191.512V191.284C64.2551 190.28 64.6656 189.71 65.3555 189.71C66.0454 189.71 66.4445 190.326 66.4445 191.272V191.5C66.4445 192.532 66.0796 193.08 65.3669 193.08ZM65.3669 193.49C66.3703 193.49 66.9462 192.692 66.9462 191.506V191.278C66.9462 190.115 66.3589 189.311 65.3555 189.311C64.3578 189.311 63.7477 190.087 63.7477 191.29V191.518C63.7477 192.703 64.392 193.49 65.3669 193.49Z" fill="#333333"/>
<path d="M67.8063 193.467C68.0058 193.467 68.1712 193.308 68.1712 193.103C68.1712 192.897 68.0058 192.738 67.8063 192.738C67.6067 192.738 67.4414 192.897 67.4414 193.103C67.4414 193.308 67.6067 193.467 67.8063 193.467Z" fill="#333333"/>
<path d="M69.3388 193.439H69.8348V189.362H69.373L68.4266 190.047V190.508L69.3388 189.853V193.439Z" fill="#333333"/>
<path d="M72.4769 193.08C71.7984 193.08 71.3651 192.544 71.3651 191.512V191.284C71.3651 190.28 71.7756 189.71 72.4655 189.71C73.1553 189.71 73.5544 190.326 73.5544 191.272V191.5C73.5544 192.532 73.1896 193.08 72.4769 193.08ZM72.4769 193.49C73.4803 193.49 74.0562 192.692 74.0562 191.506V191.278C74.0562 190.115 73.4689 189.311 72.4655 189.311C71.4677 189.311 70.8577 190.087 70.8577 191.29V191.518C70.8577 192.703 71.502 193.49 72.4769 193.49Z" fill="#333333"/>
<path d="M76.2473 192.093H77.4674V191.649H76.2473V192.093Z" fill="#333333"/>
<path d="M79.4265 193.439H82.1575V193.034H80.1905L81.3137 191.939C81.8154 191.449 82.1347 190.959 82.1347 190.457C82.1347 189.756 81.6558 189.311 80.9032 189.311C80.1278 189.311 79.6432 189.819 79.5805 190.617H80.0423C80.1221 189.978 80.43 189.71 80.9032 189.71C81.365 189.71 81.633 189.984 81.633 190.44C81.633 190.856 81.4163 191.227 81.0457 191.62L79.4265 193.325V193.439Z" fill="#333333"/>
<path d="M84.2268 193.49C85.0877 193.49 85.635 192.943 85.635 192.128C85.635 191.381 85.1105 190.793 84.3009 190.793C83.8277 190.793 83.4457 191.016 83.2518 191.347C83.2746 190.269 83.7079 189.716 84.3237 189.716C84.7798 189.716 84.985 189.921 85.0763 190.297H85.5495C85.4412 189.642 84.9907 189.311 84.3579 189.311C83.4229 189.311 82.7615 190.075 82.7615 191.54V191.637C82.7615 192.658 83.115 193.49 84.2268 193.49ZM84.2268 193.103C83.6794 193.103 83.286 192.749 83.286 192.082C83.286 191.552 83.6737 191.181 84.2211 191.181C84.7741 191.181 85.1276 191.563 85.1276 192.15C85.1276 192.726 84.7627 193.103 84.2268 193.103Z" fill="#333333"/>
<path d="M86.6085 193.467C86.8081 193.467 86.9734 193.308 86.9734 193.103C86.9734 192.897 86.8081 192.738 86.6085 192.738C86.409 192.738 86.2436 192.897 86.2436 193.103C86.2436 193.308 86.409 193.467 86.6085 193.467Z" fill="#333333"/>
<path d="M88.141 193.439H88.637V189.362H88.1752L87.2288 190.047V190.508L88.141 189.853V193.439Z" fill="#333333"/>
<path d="M91.2791 193.08C90.6007 193.08 90.1674 192.544 90.1674 191.512V191.284C90.1674 190.28 90.5779 189.71 91.2677 189.71C91.9576 189.71 92.3567 190.326 92.3567 191.272V191.5C92.3567 192.532 91.9918 193.08 91.2791 193.08ZM91.2791 193.49C92.2826 193.49 92.8584 192.692 92.8584 191.506V191.278C92.8584 190.115 92.2712 189.311 91.2677 189.311C90.27 189.311 89.6599 190.087 89.6599 191.29V191.518C89.6599 192.703 90.3042 193.49 91.2791 193.49Z" fill="#333333"/>
<path d="M133.795 193.439H136.526V193.034H134.559L135.682 191.939C136.183 191.449 136.503 190.959 136.503 190.457C136.503 189.756 136.024 189.311 135.271 189.311C134.496 189.311 134.011 189.819 133.948 190.617H134.41C134.49 189.978 134.798 189.71 135.271 189.71C135.733 189.71 136.001 189.984 136.001 190.44C136.001 190.856 135.784 191.227 135.414 191.62L133.795 193.325V193.439Z" fill="#333333"/>
<path d="M137.62 193.439H138.127L139.655 189.431V189.362H136.97V189.762H139.039L137.62 193.439Z" fill="#333333"/>
<path d="M140.019 193.467C140.218 193.467 140.384 193.308 140.384 193.103C140.384 192.897 140.218 192.738 140.019 192.738C139.819 192.738 139.654 192.897 139.654 193.103C139.654 193.308 139.819 193.467 140.019 193.467Z" fill="#333333"/>
<path d="M141.551 193.439H142.047V189.362H141.586L140.639 190.047V190.508L141.551 189.853V193.439Z" fill="#333333"/>
<path d="M144.689 193.08C144.011 193.08 143.578 192.544 143.578 191.512V191.284C143.578 190.28 143.988 189.71 144.678 189.71C145.368 189.71 145.767 190.326 145.767 191.272V191.5C145.767 192.532 145.402 193.08 144.689 193.08ZM144.689 193.49C145.693 193.49 146.269 192.692 146.269 191.506V191.278C146.269 190.115 145.682 189.311 144.678 189.311C143.68 189.311 143.07 190.087 143.07 191.29V191.518C143.07 192.703 143.715 193.49 144.689 193.49Z" fill="#333333"/>
<path d="M148.46 192.093H149.68V191.649H148.46V192.093Z" fill="#333333"/>
<path d="M151.639 193.439H154.37V193.034H152.403L153.526 191.939C154.028 191.449 154.347 190.959 154.347 190.457C154.347 189.756 153.868 189.311 153.116 189.311C152.34 189.311 151.856 189.819 151.793 190.617H152.255C152.335 189.978 152.643 189.71 153.116 189.71C153.578 189.71 153.846 189.984 153.846 190.44C153.846 190.856 153.629 191.227 153.258 191.62L151.639 193.325V193.439Z" fill="#333333"/>
<path d="M155.436 193.467C155.635 193.467 155.801 193.308 155.801 193.103C155.801 192.897 155.635 192.738 155.436 192.738C155.236 192.738 155.071 192.897 155.071 193.103C155.071 193.308 155.236 193.467 155.436 193.467Z" fill="#333333"/>
<path d="M156.968 193.439H157.464V189.362H157.003L156.056 190.047V190.508L156.968 189.853V193.439Z" fill="#333333"/>
<path d="M159.246 193.439H159.742V189.362H159.28L158.333 190.047V190.508L159.246 189.853V193.439Z" fill="#333333"/>
<path d="M102.597 299.967C104.285 299.967 105.494 299.077 105.494 297.595C105.494 296.466 104.878 295.793 103.92 295.543C104.661 295.235 105.209 294.687 105.209 293.764C105.209 292.635 104.308 291.609 102.757 291.609C101.206 291.609 100.146 292.669 100.089 293.958H100.955C101.058 293.034 101.742 292.418 102.757 292.418C103.749 292.418 104.239 293.011 104.239 293.787C104.239 294.676 103.772 295.178 102.711 295.178H102.141V296.01H102.757C103.909 296.01 104.479 296.546 104.479 297.595C104.479 298.553 103.897 299.169 102.62 299.169C101.332 299.169 100.75 298.428 100.659 297.458H99.7467C99.8037 298.884 100.864 299.967 102.597 299.967Z" fill="#F6851B"/>
<path d="M109.639 299.967C111.018 299.967 112.444 299.157 112.444 297.527C112.444 296.478 111.828 295.771 110.882 295.429C111.634 295.098 112.136 294.528 112.136 293.707C112.136 292.43 110.904 291.609 109.639 291.609C108.384 291.609 107.13 292.407 107.13 293.73C107.13 294.528 107.586 295.144 108.362 295.44C107.495 295.748 106.822 296.455 106.822 297.55C106.822 299.169 108.305 299.967 109.639 299.967ZM109.639 299.157C108.692 299.157 107.837 298.587 107.837 297.515C107.837 296.432 108.692 295.873 109.662 295.873C110.631 295.873 111.429 296.421 111.429 297.493C111.429 298.576 110.642 299.157 109.639 299.157ZM109.673 295.087C108.841 295.087 108.134 294.596 108.134 293.741C108.134 292.897 108.795 292.384 109.639 292.384C110.483 292.384 111.132 292.931 111.132 293.718C111.132 294.585 110.54 295.087 109.673 295.087Z" fill="#F6851B"/>
<path d="M204.11 299.146C202.753 299.146 201.886 298.074 201.886 296.01V295.554C201.886 293.547 202.707 292.407 204.087 292.407C205.467 292.407 206.265 293.638 206.265 295.531V295.987C206.265 298.051 205.535 299.146 204.11 299.146ZM204.11 299.967C206.117 299.967 207.268 298.371 207.268 295.999V295.543C207.268 293.216 206.094 291.609 204.087 291.609C202.091 291.609 200.871 293.159 200.871 295.565V296.022C200.871 298.393 202.16 299.967 204.11 299.967Z" fill="#ECB481"/>
<path d="M300.728 299.864H301.697V298.154H302.826V297.344H301.697V291.711H300.374L296.646 297.835V298.154H300.728V299.864ZM297.9 297.344L300.728 292.464V297.344H297.9Z" fill="#809AEB"/>
<path d="M305.328 299.864H306.32V291.711H305.396L303.503 293.08V294.003L305.328 292.692V299.864Z" fill="#809AEB"/>
<path d="M399.856 299.146C398.499 299.146 397.633 298.074 397.633 296.01V295.554C397.633 293.547 398.454 292.407 399.833 292.407C401.213 292.407 402.011 293.638 402.011 295.531V295.987C402.011 298.051 401.282 299.146 399.856 299.146ZM399.856 299.967C401.863 299.967 403.015 298.371 403.015 295.999V295.543C403.015 293.216 401.84 291.609 399.833 291.609C397.838 291.609 396.618 293.159 396.618 295.565V296.022C396.618 298.393 397.906 299.967 399.856 299.967Z" fill="#2C56DD"/>
<path d="M202.745 193.49C203.589 193.49 204.194 193.046 204.194 192.304C204.194 191.74 203.886 191.404 203.407 191.278C203.777 191.124 204.051 190.85 204.051 190.389C204.051 189.824 203.601 189.311 202.825 189.311C202.05 189.311 201.52 189.841 201.491 190.486H201.924C201.976 190.024 202.318 189.716 202.825 189.716C203.321 189.716 203.566 190.012 203.566 190.4C203.566 190.845 203.333 191.096 202.802 191.096H202.517V191.512H202.825C203.401 191.512 203.686 191.78 203.686 192.304C203.686 192.783 203.395 193.091 202.757 193.091C202.113 193.091 201.822 192.721 201.776 192.236H201.32C201.349 192.949 201.879 193.49 202.745 193.49Z" fill="#333333"/>
<path d="M205.225 193.467C205.425 193.467 205.59 193.308 205.59 193.103C205.59 192.897 205.425 192.738 205.225 192.738C205.026 192.738 204.861 192.897 204.861 193.103C204.861 193.308 205.026 193.467 205.225 193.467Z" fill="#333333"/>
<path d="M206.758 193.439H207.254V189.362H206.792L205.846 190.047V190.508L206.758 189.853V193.439Z" fill="#333333"/>
<path d="M209.035 193.439H209.531V189.362H209.069L208.123 190.047V190.508L209.035 189.853V193.439Z" fill="#333333"/>
<path d="M212.063 192.093H213.283V191.649H212.063V192.093Z" fill="#333333"/>
<path d="M216.787 193.485C217.762 193.485 218.321 192.738 218.321 191.386V191.13C218.321 189.955 217.819 189.305 216.856 189.305C215.995 189.305 215.447 189.853 215.447 190.668C215.447 191.438 215.995 192.002 216.787 192.002C217.255 192.002 217.648 191.791 217.842 191.461C217.831 192.544 217.449 193.08 216.799 193.08C216.274 193.08 216.046 192.835 215.955 192.435H215.476C215.584 193.091 216.035 193.485 216.787 193.485ZM216.861 191.614C216.308 191.614 215.955 191.232 215.955 190.645C215.955 190.069 216.32 189.693 216.856 189.693C217.403 189.693 217.796 190.064 217.796 190.731C217.796 191.261 217.409 191.614 216.861 191.614Z" fill="#333333"/>
<path d="M219.161 193.467C219.361 193.467 219.526 193.308 219.526 193.103C219.526 192.897 219.361 192.738 219.161 192.738C218.962 192.738 218.797 192.897 218.797 193.103C218.797 193.308 218.962 193.467 219.161 193.467Z" fill="#333333"/>
<path d="M220.694 193.439H221.19V189.362H220.728L219.782 190.047V190.508L220.694 189.853V193.439Z" fill="#333333"/>
<path d="M222.971 193.439H223.467V189.362H223.005L222.059 190.047V190.508L222.971 189.853V193.439Z" fill="#333333"/>
<path d="M265.741 193.439H266.237V189.362H265.776L264.829 190.047V190.508L265.741 189.853V193.439Z" fill="#333333"/>
<path d="M268.879 193.08C268.201 193.08 267.768 192.544 267.768 191.512V191.284C267.768 190.28 268.178 189.71 268.868 189.71C269.558 189.71 269.957 190.326 269.957 191.272V191.5C269.957 192.532 269.592 193.08 268.879 193.08ZM268.879 193.49C269.883 193.49 270.459 192.692 270.459 191.506V191.278C270.459 190.115 269.871 189.311 268.868 189.311C267.87 189.311 267.26 190.087 267.26 191.29V191.518C267.26 192.703 267.904 193.49 268.879 193.49Z" fill="#333333"/>
<path d="M271.319 193.467C271.518 193.467 271.684 193.308 271.684 193.103C271.684 192.897 271.518 192.738 271.319 192.738C271.119 192.738 270.954 192.897 270.954 193.103C270.954 193.308 271.119 193.467 271.319 193.467Z" fill="#333333"/>
<path d="M272.851 193.439H273.347V189.362H272.886L271.939 190.047V190.508L272.851 189.853V193.439Z" fill="#333333"/>
<path d="M275.129 193.439H275.625V189.362H275.163L274.216 190.047V190.508L275.129 189.853V193.439Z" fill="#333333"/>
<path d="M278.156 192.093H279.376V191.649H278.156V192.093Z" fill="#333333"/>
<path d="M282.328 193.439H282.824V189.362H282.362L281.415 190.047V190.508L282.328 189.853V193.439Z" fill="#333333"/>
<path d="M285.312 193.49C286.173 193.49 286.72 192.943 286.72 192.128C286.72 191.381 286.195 190.793 285.386 190.793C284.913 190.793 284.531 191.016 284.337 191.347C284.36 190.269 284.793 189.716 285.409 189.716C285.865 189.716 286.07 189.921 286.161 190.297H286.634C286.526 189.642 286.076 189.311 285.443 189.311C284.508 189.311 283.847 190.075 283.847 191.54V191.637C283.847 192.658 284.2 193.49 285.312 193.49ZM285.312 193.103C284.764 193.103 284.371 192.749 284.371 192.082C284.371 191.552 284.759 191.181 285.306 191.181C285.859 191.181 286.213 191.563 286.213 192.15C286.213 192.726 285.848 193.103 285.312 193.103Z" fill="#333333"/>
<path d="M287.694 193.467C287.893 193.467 288.058 193.308 288.058 193.103C288.058 192.897 287.893 192.738 287.694 192.738C287.494 192.738 287.329 192.897 287.329 193.103C287.329 193.308 287.494 193.467 287.694 193.467Z" fill="#333333"/>
<path d="M289.226 193.439H289.722V189.362H289.26L288.314 190.047V190.508L289.226 189.853V193.439Z" fill="#333333"/>
<path d="M291.503 193.439H291.999V189.362H291.537L290.591 190.047V190.508L291.503 189.853V193.439Z" fill="#333333"/>
<path d="M334.301 191.538H334.797V187.462H334.335L333.388 188.146V188.608L334.301 187.952V191.538Z" fill="#333333"/>
<path d="M336.31 191.538H336.817L338.345 187.53V187.462H335.66V187.861H337.73L336.31 191.538Z" fill="#333333"/>
<path d="M338.709 191.567C338.908 191.567 339.074 191.407 339.074 191.202C339.074 190.997 338.908 190.837 338.709 190.837C338.509 190.837 338.344 190.997 338.344 191.202C338.344 191.407 338.509 191.567 338.709 191.567Z" fill="#333333"/>
<path d="M340.241 191.538H340.737V187.462H340.276L339.329 188.146V188.608L340.241 187.952V191.538Z" fill="#333333"/>
<path d="M342.519 191.538H343.015V187.462H342.553L341.606 188.146V188.608L342.519 187.952V191.538Z" fill="#333333"/>
<path d="M345.546 190.193H346.766V189.748H345.546V190.193Z" fill="#333333"/>
<path d="M349.718 191.538H350.214V187.462H349.752L348.805 188.146V188.608L349.718 187.952V191.538Z" fill="#333333"/>
<path d="M352.628 191.59C353.318 191.59 354.03 191.185 354.03 190.37C354.03 189.845 353.722 189.492 353.249 189.321C353.625 189.155 353.876 188.87 353.876 188.46C353.876 187.821 353.261 187.411 352.628 187.411C352.001 187.411 351.373 187.81 351.373 188.471C351.373 188.87 351.602 189.178 351.989 189.326C351.556 189.48 351.22 189.834 351.22 190.381C351.22 191.191 351.961 191.59 352.628 191.59ZM352.628 191.185C352.155 191.185 351.727 190.9 351.727 190.364C351.727 189.822 352.155 189.543 352.639 189.543C353.124 189.543 353.523 189.817 353.523 190.353C353.523 190.894 353.129 191.185 352.628 191.185ZM352.645 189.15C352.229 189.15 351.875 188.904 351.875 188.477C351.875 188.055 352.206 187.798 352.628 187.798C353.05 187.798 353.375 188.072 353.375 188.465C353.375 188.899 353.078 189.15 352.645 189.15Z" fill="#333333"/>
<path d="M355.017 191.567C355.216 191.567 355.382 191.407 355.382 191.202C355.382 190.997 355.216 190.837 355.017 190.837C354.817 190.837 354.652 190.997 354.652 191.202C354.652 191.407 354.817 191.567 355.017 191.567Z" fill="#333333"/>
<path d="M356.549 191.538H357.045V187.462H356.584L355.637 188.146V188.608L356.549 187.952V191.538Z" fill="#333333"/>
<path d="M358.827 191.538H359.323V187.462H358.861L357.914 188.146V188.608L358.827 187.952V191.538Z" fill="#333333"/>
<path fill-rule="evenodd" clip-rule="evenodd" d="M367.032 113.62H51.5565V113.145H367.032V113.62Z" fill="#EEEEEE"/>
<path fill-rule="evenodd" clip-rule="evenodd" d="M367.032 146.878H51.5565V146.403H367.032V146.878Z" fill="#EEEEEE"/>
<path fill-rule="evenodd" clip-rule="evenodd" d="M367.032 181.086H51.5565V180.611H367.032V181.086Z" fill="#EEEEEE"/>
<path d="M60.1086 157.33H68.6607V181.086H60.1086V157.33Z" fill="#2C56DD"/>
<path d="M123.774 153.529H132.326V181.086H123.774V153.529Z" fill="#2C56DD"/>
<path d="M186.489 103.167H195.041V181.086H186.489V103.167Z" fill="#2C56DD"/>
<path d="M84.8145 126.923H93.3665V181.086H84.8145V126.923Z" fill="#F6851B"/>
<path d="M147.529 126.923H156.081V181.086H147.529V126.923Z" fill="#F6851B"/>
<path d="M210.244 150.679H218.796V181.086H210.244V150.679Z" fill="#F6851B"/>
<path d="M366.888 242.851H370.035V242.311H367.55V237.415H366.888V242.851Z" fill="#2C56DD"/>
<path d="M373.151 242.372C372.019 242.372 371.144 241.475 371.144 240.16V240.099C371.144 238.807 371.874 237.879 373.136 237.879C374.39 237.879 375.105 238.867 375.105 240.084V240.144C375.105 241.46 374.36 242.372 373.151 242.372ZM373.151 242.919C374.732 242.919 375.789 241.688 375.789 240.152V240.091C375.789 238.563 374.732 237.347 373.136 237.347C371.54 237.347 370.46 238.563 370.46 240.106V240.167C370.46 241.688 371.547 242.919 373.151 242.919Z" fill="#2C56DD"/>
<path d="M377.683 242.851H378.284L379.553 238.556L380.785 242.851H381.393L382.807 237.415H382.191L381.073 241.817L379.796 237.415H379.325L378.048 241.802L376.946 237.415H376.269L377.683 242.851Z" fill="#2C56DD"/>
<path d="M269.085 242.851H269.693V238.274L271.556 242.851H271.761L273.563 238.274V242.851H274.224V237.415H273.312L271.685 241.65L270.005 237.415H269.085V242.851Z" fill="#809AEB"/>
<path d="M275.596 242.851H278.903V242.311H276.257V240.342H278.279V239.802H276.257V237.955H278.766V237.415H275.596V242.851Z" fill="#809AEB"/>
<path d="M280.563 242.311V237.948H281.3C282.798 237.948 283.406 238.829 283.406 240.084V240.144C283.406 241.475 282.707 242.311 281.308 242.311H280.563ZM279.901 242.851H281.323C283.223 242.851 284.09 241.657 284.09 240.152V240.084C284.09 238.571 283.208 237.415 281.338 237.415H279.901V242.851Z" fill="#809AEB"/>
<path d="M285.233 242.851H285.894V237.415H285.233V242.851Z" fill="#809AEB"/>
<path d="M289.211 242.919C290.61 242.919 291.271 242.106 291.271 240.783V237.415H290.61V240.692C290.61 242.022 290.093 242.372 289.226 242.372C288.321 242.372 287.919 241.931 287.919 240.791V237.415H287.257V240.867C287.257 242.189 287.964 242.919 289.211 242.919Z" fill="#809AEB"/>
<path d="M292.596 242.851H293.204V238.274L295.066 242.851H295.272L297.073 238.274V242.851H297.735V237.415H296.822L295.196 241.65L293.516 237.415H292.596V242.851Z" fill="#809AEB"/>
<path d="M171.476 242.851H172.137V240.433H174.995V242.851H175.657V237.415H174.995V239.878H172.137V237.415H171.476V242.851Z" fill="#ECB481"/>
<path d="M177.066 242.851H177.728V237.415H177.066V242.851Z" fill="#ECB481"/>
<path d="M181.501 242.919C182.892 242.919 183.858 242.083 183.858 240.509V240.106H181.623V240.654H183.211C183.189 241.619 182.679 242.387 181.501 242.387C180.224 242.387 179.555 241.505 179.555 240.16V240.099C179.555 238.769 180.269 237.856 181.516 237.856C182.307 237.856 182.9 238.191 183.052 239.057H183.713C183.546 237.833 182.58 237.332 181.501 237.332C179.943 237.332 178.871 238.518 178.871 240.106V240.167C178.871 241.756 179.829 242.919 181.501 242.919Z" fill="#ECB481"/>
<path d="M184.964 242.851H185.626V240.433H188.484V242.851H189.145V237.415H188.484V239.878H185.626V237.415H184.964V242.851Z" fill="#ECB481"/>
<path d="M75.3395 242.919C76.7383 242.919 77.3996 242.106 77.3996 240.783V237.415H76.7383V240.692C76.7383 242.022 76.2213 242.372 75.3547 242.372C74.4501 242.372 74.0472 241.931 74.0472 240.791V237.415H73.3859V240.867C73.3859 242.189 74.0928 242.919 75.3395 242.919Z" fill="#F6851B"/>
<path d="M78.7245 242.851H79.3555V238.191L82.0997 242.851H82.8599V237.415H82.229V241.908L79.5835 237.415H78.7245V242.851Z" fill="#F6851B"/>
<path d="M83.815 242.851H84.4383L84.9628 241.285H87.2054L87.7375 242.851H88.3912L86.5516 237.415H85.685L83.815 242.851ZM86.0879 237.963L87.0305 240.76H85.1453L86.0879 237.963Z" fill="#F6851B"/>
<path d="M91.3163 242.919C92.5326 242.919 93.3992 242.303 93.5893 241.049H92.9735C92.8367 241.931 92.221 242.379 91.3315 242.379C90.1609 242.379 89.4615 241.543 89.4615 240.16V240.099C89.4615 238.731 90.2141 237.856 91.3391 237.856C92.2666 237.856 92.7455 238.282 92.8823 239.111H93.5361C93.422 237.932 92.4642 237.332 91.3315 237.332C89.8568 237.332 88.7773 238.495 88.7773 240.106V240.167C88.7773 241.84 89.7428 242.919 91.3163 242.919Z" fill="#F6851B"/>
<path d="M96.8692 242.919C98.0855 242.919 98.9521 242.303 99.1422 241.049H98.5264C98.3896 241.931 97.7738 242.379 96.8844 242.379C95.7137 242.379 95.0144 241.543 95.0144 240.16V240.099C95.0144 238.731 95.767 237.856 96.892 237.856C97.8194 237.856 98.2984 238.282 98.4352 239.111H99.0889C98.9749 237.932 98.0171 237.332 96.8844 237.332C95.4097 237.332 94.3302 238.495 94.3302 240.106V240.167C94.3302 241.84 95.2956 242.919 96.8692 242.919Z" fill="#F6851B"/>
<path d="M100.149 242.851H103.456V242.311H100.811V240.342H102.833V239.802H100.811V237.955H103.319V237.415H100.149V242.851Z" fill="#F6851B"/>
<path d="M104.455 242.851H105.116V240.639H105.998C107.032 240.639 107.898 240.19 107.898 239.035V239.004C107.898 237.872 107.039 237.415 105.998 237.415H104.455V242.851ZM105.116 240.114V237.948H106.044C106.781 237.948 107.237 238.236 107.237 239.004V239.035C107.237 239.734 106.819 240.114 106.044 240.114H105.116Z" fill="#F6851B"/>
<path d="M109.989 242.851H110.651V237.955H112.232V237.415H108.408V237.955H109.989V242.851Z" fill="#F6851B"/>
<path d="M112.188 242.851H112.811L113.336 241.285H115.579L116.111 242.851H116.764L114.925 237.415H114.058L112.188 242.851ZM114.461 237.963L115.404 240.76H113.518L114.461 237.963Z" fill="#F6851B"/>
<path d="M117.721 242.851H119.583C120.67 242.851 121.37 242.357 121.37 241.33V241.3C121.37 240.593 121.073 240.19 120.283 240C120.906 239.787 121.104 239.346 121.104 238.852V238.822C121.104 237.75 120.366 237.415 119.355 237.415H117.721V242.851ZM118.367 242.334V240.304H119.477C120.351 240.304 120.724 240.623 120.724 241.292V241.323C120.724 241.984 120.359 242.334 119.568 242.334H118.367ZM118.367 239.787V237.932H119.34C120.1 237.932 120.458 238.183 120.458 238.799V238.829C120.458 239.498 120.154 239.787 119.355 239.787H118.367Z" fill="#F6851B"/>
<path d="M122.45 242.851H125.597V242.311H123.111V237.415H122.45V242.851Z" fill="#F6851B"/>
<path d="M126.518 242.851H129.825V242.311H127.179V240.342H129.201V239.802H127.179V237.955H129.688V237.415H126.518V242.851Z" fill="#F6851B"/>
<g filter="url(#filter5_d)">
<path d="M285.312 32.8507C285.312 31.2763 286.589 30 288.163 30H415.493C417.068 30 418.344 31.2763 418.344 32.8507V160.181C418.344 161.755 417.068 163.032 415.493 163.032H288.163C286.589 163.032 285.312 161.755 285.312 160.181V32.8507Z" fill="#FCFCFC"/>
</g>
<path d="M380.335 81.3122C380.335 97.0561 367.572 109.819 351.828 109.819C336.084 109.819 323.321 97.0561 323.321 81.3122C323.321 65.5683 336.084 52.8054 351.828 52.8054C367.572 52.8054 380.335 65.5683 380.335 81.3122Z" fill="url(#paint0_linear)"/>
<path d="M316.876 137.504C319.157 137.504 320.782 136.349 321.138 133.998H319.983C319.727 135.651 318.572 136.492 316.905 136.492C314.71 136.492 313.398 134.924 313.398 132.33V132.216C313.398 129.65 314.809 128.011 316.919 128.011C318.658 128.011 319.556 128.809 319.812 130.363H321.038C320.824 128.154 319.028 127.028 316.905 127.028C314.139 127.028 312.115 129.208 312.115 132.23V132.344C312.115 135.48 313.926 137.504 316.876 137.504Z" fill="#2C56DD"/>
<path d="M327.573 136.478C325.449 136.478 323.81 134.796 323.81 132.33V132.216C323.81 129.793 325.178 128.054 327.544 128.054C329.896 128.054 331.236 129.907 331.236 132.187V132.301C331.236 134.767 329.839 136.478 327.573 136.478ZM327.573 137.504C330.538 137.504 332.519 135.195 332.519 132.316V132.202C332.519 129.337 330.538 127.056 327.544 127.056C324.551 127.056 322.527 129.337 322.527 132.23V132.344C322.527 135.195 324.565 137.504 327.573 137.504Z" fill="#2C56DD"/>
<path d="M334.579 137.376H335.719V128.795L339.211 137.376H339.596L342.974 128.795V137.376H344.214V127.184H342.504L339.454 135.124L336.304 127.184H334.579V137.376Z" fill="#2C56DD"/>
<path d="M346.786 137.376H348.026V133.228H349.68C351.618 133.228 353.243 132.387 353.243 130.22V130.163C353.243 128.04 351.632 127.184 349.68 127.184H346.786V137.376ZM348.026 132.244V128.182H349.765C351.148 128.182 352.003 128.724 352.003 130.163V130.22C352.003 131.532 351.219 132.244 349.765 132.244H348.026Z" fill="#2C56DD"/>
<path d="M355.068 137.376H360.969V136.364H356.308V127.184H355.068V137.376Z" fill="#2C56DD"/>
<path d="M362.767 137.376H364.007V127.184H362.767V137.376Z" fill="#2C56DD"/>
<path d="M365.88 137.376H367.048L368.032 134.439H372.237L373.234 137.376H374.46L371.011 127.184H369.386L365.88 137.376ZM370.141 128.211L371.909 133.456H368.374L370.141 128.211Z" fill="#2C56DD"/>
<path d="M376.254 137.376H377.437V128.638L382.582 137.376H384.007V127.184H382.824V135.608L377.864 127.184H376.254V137.376Z" fill="#2C56DD"/>
<path d="M388.663 137.376H389.903V128.196H392.868V127.184H385.698V128.196H388.663V137.376Z" fill="#2C56DD"/>
<path d="M345.176 98.8914L331.873 85.5882L335.199 82.2624L345.176 92.2398L367.032 70.3846L370.357 73.7104L345.176 98.8914Z" fill="#FCFCFC"/>
<path fill-rule="evenodd" clip-rule="evenodd" d="M190.587 312.87C189.742 313.715 188.381 313.782 187.54 312.933C183.366 308.726 180.787 302.933 180.787 296.538C180.787 283.681 191.21 273.258 204.068 273.258C216.925 273.258 227.348 283.681 227.348 296.538C227.348 303.201 224.55 309.209 220.064 313.453C219.218 314.254 217.898 314.17 217.074 313.346C216.086 312.357 216.214 310.727 217.205 309.74C220.594 306.368 222.692 301.698 222.692 296.538C222.692 286.252 214.354 277.914 204.068 277.914C193.782 277.914 185.443 286.252 185.443 296.538C185.443 301.485 187.372 305.981 190.518 309.316C191.458 310.313 191.555 311.902 190.587 312.87Z" fill="#F1F1F1"/>
<path fill-rule="evenodd" clip-rule="evenodd" d="M288.46 312.87C287.615 313.715 286.254 313.782 285.413 312.933C281.239 308.726 278.661 302.933 278.661 296.538C278.661 283.681 289.084 273.258 301.941 273.258C314.799 273.258 325.222 283.681 325.222 296.538C325.222 303.201 322.423 309.209 317.938 313.453C317.091 314.254 315.771 314.17 314.948 313.346C313.959 312.357 314.087 310.727 315.078 309.74C318.468 306.368 320.566 301.698 320.566 296.538C320.566 286.252 312.227 277.914 301.941 277.914C291.655 277.914 283.317 286.252 283.317 296.538C283.317 301.485 285.245 305.981 288.391 309.316C289.331 310.313 289.429 311.902 288.46 312.87Z" fill="#F1F1F1"/>
<path fill-rule="evenodd" clip-rule="evenodd" d="M302.807 273.274C304.049 273.319 304.934 274.438 304.821 275.676C304.7 276.996 303.496 277.931 302.171 277.915C302.094 277.914 302.018 277.914 301.941 277.914C291.655 277.914 283.317 286.252 283.317 296.538C283.317 301.485 285.245 305.981 288.391 309.316C289.331 310.313 289.429 311.902 288.46 312.87C287.615 313.715 286.254 313.782 285.413 312.933C281.239 308.726 278.661 302.933 278.661 296.538C278.661 283.681 289.084 273.258 301.941 273.258C302.231 273.258 302.52 273.263 302.807 273.274Z" fill="#809AEB"/>
<path fill-rule="evenodd" clip-rule="evenodd" d="M386.333 312.87C385.488 313.715 384.128 313.782 383.286 312.933C379.112 308.726 376.534 302.933 376.534 296.538C376.534 283.681 386.957 273.258 399.814 273.258C412.672 273.258 423.095 283.681 423.095 296.538C423.095 303.201 420.297 309.209 415.811 313.453C414.965 314.254 413.645 314.17 412.821 313.346C411.832 312.357 411.96 310.727 412.951 309.74C416.341 306.368 418.439 301.698 418.439 296.538C418.439 286.252 410.1 277.914 399.814 277.914C389.528 277.914 381.19 286.252 381.19 296.538C381.19 301.485 383.119 305.981 386.265 309.316C387.205 310.313 387.302 311.902 386.333 312.87Z" fill="#F1F1F1"/>
<path fill-rule="evenodd" clip-rule="evenodd" d="M92.7133 312.87C91.8683 313.715 90.5078 313.782 89.6662 312.933C85.4924 308.726 82.9141 302.933 82.9141 296.538C82.9141 283.681 93.3371 273.258 106.195 273.258C119.052 273.258 129.475 283.681 129.475 296.538C129.475 303.201 126.677 309.209 122.191 313.453C121.345 314.254 120.025 314.17 119.201 313.346C118.212 312.357 118.34 310.727 119.332 309.74C122.721 306.368 124.819 301.698 124.819 296.538C124.819 286.252 116.481 277.914 106.195 277.914C95.9086 277.914 87.5702 286.252 87.5702 296.538C87.5702 301.485 89.4986 305.981 92.6448 309.316C93.5848 310.313 93.6819 311.902 92.7133 312.87Z" fill="#F1F1F1"/>
<path fill-rule="evenodd" clip-rule="evenodd" d="M101.698 273.691C102.893 273.457 103.994 274.309 104.194 275.509C104.416 276.84 103.449 278.065 102.132 278.358C93.7995 280.211 87.5702 287.647 87.5702 296.538C87.5702 301.484 89.4986 305.98 92.6448 309.315C93.5848 310.312 93.6819 311.901 92.7133 312.87C91.8683 313.715 90.5078 313.781 89.6662 312.933C85.4924 308.725 82.9141 302.932 82.9141 296.538C82.9141 285.218 90.9923 275.786 101.698 273.691Z" fill="#F6851B"/>
<defs>
<filter id="filter0_d" x="0" y="67.0136" width="402.434" height="176.281" filterUnits="userSpaceOnUse" color-interpolation-filters="sRGB">
<feFlood flood-opacity="0" result="BackgroundImageFix"/>
<feColorMatrix in="SourceAlpha" type="matrix" values="0 0 0 0 0 0 0 0 0 0 0 0 0 0 0 0 0 0 127 0"/>
<feOffset dy="4"/>
<feGaussianBlur stdDeviation="12"/>
<feColorMatrix type="matrix" values="0 0 0 0 0 0 0 0 0 0 0 0 0 0 0 0 0 0 0.08 0"/>
<feBlend mode="normal" in2="BackgroundImageFix" result="effect1_dropShadow"/>
<feBlend mode="normal" in="SourceGraphic" in2="effect1_dropShadow" result="shape"/>
</filter>
<filter id="filter1_d" x="38.9592" y="204.796" width="135.421" height="167.729" filterUnits="userSpaceOnUse" color-interpolation-filters="sRGB">
<feFlood flood-opacity="0" result="BackgroundImageFix"/>
<feColorMatrix in="SourceAlpha" type="matrix" values="0 0 0 0 0 0 0 0 0 0 0 0 0 0 0 0 0 0 127 0"/>
<feOffset dy="4"/>
<feGaussianBlur stdDeviation="12"/>
<feColorMatrix type="matrix" values="0 0 0 0 0 0 0 0 0 0 0 0 0 0 0 0 0 0 0.08 0"/>
<feBlend mode="normal" in2="BackgroundImageFix" result="effect1_dropShadow"/>
<feBlend mode="normal" in="SourceGraphic" in2="effect1_dropShadow" result="shape"/>
</filter>
<filter id="filter2_d" x="136.833" y="204.796" width="135.421" height="167.729" filterUnits="userSpaceOnUse" color-interpolation-filters="sRGB">
<feFlood flood-opacity="0" result="BackgroundImageFix"/>
<feColorMatrix in="SourceAlpha" type="matrix" values="0 0 0 0 0 0 0 0 0 0 0 0 0 0 0 0 0 0 127 0"/>
<feOffset dy="4"/>
<feGaussianBlur stdDeviation="12"/>
<feColorMatrix type="matrix" values="0 0 0 0 0 0 0 0 0 0 0 0 0 0 0 0 0 0 0.08 0"/>
<feBlend mode="normal" in2="BackgroundImageFix" result="effect1_dropShadow"/>
<feBlend mode="normal" in="SourceGraphic" in2="effect1_dropShadow" result="shape"/>
</filter>
<filter id="filter3_d" x="234.706" y="204.796" width="135.421" height="167.729" filterUnits="userSpaceOnUse" color-interpolation-filters="sRGB">
<feFlood flood-opacity="0" result="BackgroundImageFix"/>
<feColorMatrix in="SourceAlpha" type="matrix" values="0 0 0 0 0 0 0 0 0 0 0 0 0 0 0 0 0 0 127 0"/>
<feOffset dy="4"/>
<feGaussianBlur stdDeviation="12"/>
<feColorMatrix type="matrix" values="0 0 0 0 0 0 0 0 0 0 0 0 0 0 0 0 0 0 0.08 0"/>
<feBlend mode="normal" in2="BackgroundImageFix" result="effect1_dropShadow"/>
<feBlend mode="normal" in="SourceGraphic" in2="effect1_dropShadow" result="shape"/>
</filter>
<filter id="filter4_d" x="332.579" y="204.796" width="135.421" height="167.729" filterUnits="userSpaceOnUse" color-interpolation-filters="sRGB">
<feFlood flood-opacity="0" result="BackgroundImageFix"/>
<feColorMatrix in="SourceAlpha" type="matrix" values="0 0 0 0 0 0 0 0 0 0 0 0 0 0 0 0 0 0 127 0"/>
<feOffset dy="4"/>
<feGaussianBlur stdDeviation="12"/>
<feColorMatrix type="matrix" values="0 0 0 0 0 0 0 0 0 0 0 0 0 0 0 0 0 0 0.08 0"/>
<feBlend mode="normal" in2="BackgroundImageFix" result="effect1_dropShadow"/>
<feBlend mode="normal" in="SourceGraphic" in2="effect1_dropShadow" result="shape"/>
</filter>
<filter id="filter5_d" x="255.312" y="0" width="193.032" height="193.032" filterUnits="userSpaceOnUse" color-interpolation-filters="sRGB">
<feFlood flood-opacity="0" result="BackgroundImageFix"/>
<feColorMatrix in="SourceAlpha" type="matrix" values="0 0 0 0 0 0 0 0 0 0 0 0 0 0 0 0 0 0 127 0"/>
<feOffset/>
<feGaussianBlur stdDeviation="15"/>
<feColorMatrix type="matrix" values="0 0 0 0 0 0 0 0 0 0 0 0 0 0 0 0 0 0 0.1 0"/>
<feBlend mode="normal" in2="BackgroundImageFix" result="effect1_dropShadow"/>
<feBlend mode="normal" in="SourceGraphic" in2="effect1_dropShadow" result="shape"/>
</filter>
<linearGradient id="paint0_linear" x1="312" y1="110" x2="407.416" y2="52.8054" gradientUnits="userSpaceOnUse">
<stop stop-color="white"/>
<stop offset="0.166667" stop-color="#F5841F"/>
<stop offset="0.8125" stop-color="#2C56DD"/>
</linearGradient>
</defs>
</svg>
