<svg width="167" height="88" viewBox="0 0 167 88" fill="none" xmlns="http://www.w3.org/2000/svg">
<g filter="url(#filter0_d)">
<circle cx="123.039" cy="37.683" r="28.6829" fill="white"/>
</g>
<path d="M109.198 33.4062C109.198 32.7539 109.62 32.1764 110.241 31.9776L130.144 25.6088C131.111 25.2991 132.101 26.0212 132.101 27.0375V41.9596C132.101 42.6119 131.679 43.1894 131.058 43.3882L111.155 49.757C110.188 50.0668 109.198 49.3446 109.198 48.3284V33.4062Z" fill="white" stroke="black"/>
<rect x="109.198" y="32.4464" width="26.7269" height="18.122" rx="1.5" fill="white" stroke="black"/>
<path d="M125.451 40.6829C125.451 39.3022 126.571 38.1829 127.951 38.1829H136.381C136.657 38.1829 136.881 38.4068 136.881 38.6829V44.3317C136.881 44.6079 136.657 44.8317 136.381 44.8317H127.951C126.571 44.8317 125.451 43.7124 125.451 42.3317V40.6829Z" fill="white" stroke="black"/>
<circle cx="128.776" cy="41.5073" r="0.956098" fill="black"/>
<g filter="url(#filter1_d)">
<circle cx="43.6829" cy="37.6829" r="28.6829" fill="white"/>
</g>
<path d="M56.9053 23.4812L45.2415 32.1458L47.4104 27.0395L56.9053 23.4812Z" fill="#E17726"/>
<path fill-rule="evenodd" clip-rule="evenodd" d="M57.0275 23.4145C57.0605 23.4758 57.0436 23.5522 56.9879 23.5936L45.324 32.2583C45.2735 32.2958 45.2043 32.2946 45.1551 32.2555C45.1059 32.2163 45.0888 32.1489 45.1135 32.0909L47.2824 26.9845C47.2974 26.9493 47.3261 26.9218 47.3618 26.9084L56.8567 23.3501C56.9216 23.3258 56.9945 23.3532 57.0275 23.4145ZM47.5148 27.1495L45.5702 31.7276L56.0274 23.9594L47.5148 27.1495Z" fill="#E17726"/>
<path d="M30.0012 23.4812L41.5612 32.2267L39.4961 27.0395L30.0012 23.4812Z" fill="#E27625"/>
<path fill-rule="evenodd" clip-rule="evenodd" d="M29.8792 23.4139C29.9123 23.353 29.985 23.3258 30.0497 23.35L39.5446 26.9083C39.5813 26.9221 39.6106 26.9508 39.6251 26.9874L41.6903 32.1746C41.7134 32.2329 41.6952 32.2995 41.6457 32.3377C41.5961 32.3758 41.5274 32.3761 41.4776 32.3384L29.9175 23.5929C29.8623 23.5511 29.846 23.4749 29.8792 23.4139ZM30.8505 23.9486L41.2471 31.814L39.3898 27.1488L30.8505 23.9486Z" fill="#E27625"/>
<path d="M52.706 43.5715L49.6025 48.3312L56.2478 50.1681L58.1514 43.6754L52.706 43.5715Z" fill="#E27625"/>
<path fill-rule="evenodd" clip-rule="evenodd" d="M52.5893 43.4949C52.6156 43.4547 52.6605 43.4308 52.7083 43.4318L58.1537 43.5357C58.1971 43.5366 58.2376 43.5577 58.2632 43.5929C58.2889 43.6281 58.2967 43.6733 58.2845 43.7151L56.3809 50.2078C56.3594 50.2809 56.2837 50.3233 56.2106 50.3031L49.5653 48.4662C49.5225 48.4544 49.4878 48.4226 49.4721 48.3808C49.4564 48.3389 49.4615 48.2921 49.4859 48.2547L52.5893 43.4949ZM52.7798 43.7129L49.8232 48.2474L56.1527 49.997L57.9661 43.8119L52.7798 43.7129Z" fill="#E27625"/>
<path d="M28.7671 43.6754L30.6591 50.1681L37.2929 48.3312L34.201 43.5715L28.7671 43.6754Z" fill="#E27625"/>
<path fill-rule="evenodd" clip-rule="evenodd" d="M34.198 43.4318C34.2459 43.4308 34.2909 43.4548 34.3171 43.4951L37.409 48.2549C37.4333 48.2923 37.4383 48.3391 37.4226 48.3809C37.4069 48.4226 37.3723 48.4543 37.3295 48.4662L30.6957 50.3031C30.6225 50.3234 30.5467 50.2809 30.5254 50.2076L28.6333 43.7149C28.6211 43.6731 28.629 43.6279 28.6547 43.5928C28.6803 43.5577 28.7208 43.5366 28.7641 43.5357L34.198 43.4318ZM28.9514 43.8119L30.7538 49.9969L37.0719 48.2474L34.1263 43.7129L28.9514 43.8119Z" fill="#E27625"/>
<path d="M36.9348 35.5307L35.0889 38.3265L41.6649 38.6269L41.4457 31.5219L36.9348 35.5307Z" fill="#E27625"/>
<path fill-rule="evenodd" clip-rule="evenodd" d="M41.5011 31.3934C41.5505 31.415 41.5832 31.4633 41.5849 31.5175L41.8041 38.6225C41.8053 38.6614 41.7903 38.6991 41.7627 38.7264C41.7351 38.7538 41.6975 38.7683 41.6588 38.7665L35.0827 38.4662C35.0326 38.4639 34.9877 38.4347 34.965 38.3897C34.9423 38.3448 34.9454 38.2911 34.9732 38.2491L36.8191 35.4533C36.8258 35.4431 36.8338 35.4339 36.8428 35.4259L41.3538 31.417C41.3942 31.3811 41.4516 31.3719 41.5011 31.3934ZM37.0407 35.6233L35.3408 38.198L41.5214 38.4803L41.3161 31.8238L37.0407 35.6233Z" fill="#E27625"/>
<path d="M49.9716 35.5308L45.3914 31.4411L45.2415 38.627L51.8175 38.3266L49.9716 35.5308Z" fill="#E27625"/>
<path fill-rule="evenodd" clip-rule="evenodd" d="M45.3354 31.3128C45.3851 31.291 45.4429 31.3002 45.4834 31.3364L50.0636 35.4261C50.0726 35.4341 50.0805 35.4433 50.0871 35.4534L51.933 38.2491C51.9607 38.2911 51.9639 38.3449 51.9412 38.3898C51.9185 38.4347 51.8735 38.4639 51.8235 38.4662L45.2474 38.7666C45.209 38.7684 45.1715 38.754 45.144 38.727C45.1164 38.6999 45.1013 38.6626 45.1021 38.6239L45.2521 31.4381C45.2532 31.3836 45.2857 31.3347 45.3354 31.3128ZM45.5238 31.7465L45.3833 38.4804L51.5654 38.198L49.8654 35.6232L45.5238 31.7465Z" fill="#E27625"/>
<path d="M37.2925 48.3313L41.2727 46.402L37.8463 43.7217L37.2925 48.3313Z" fill="#E27625"/>
<path fill-rule="evenodd" clip-rule="evenodd" d="M37.7927 43.5926C37.8389 43.5733 37.892 43.5804 37.9315 43.6113L41.358 46.2916C41.396 46.3213 41.416 46.3687 41.4109 46.4168C41.4058 46.4649 41.3764 46.507 41.333 46.528L37.3528 48.4573C37.307 48.4795 37.2528 48.4748 37.2115 48.4451C37.1701 48.4153 37.1482 48.3653 37.1543 48.3146L37.7081 43.705C37.7141 43.6549 37.7464 43.612 37.7927 43.5926ZM37.9547 43.9839L37.4609 48.0944L41.0102 46.3739L37.9547 43.9839Z" fill="#E27625"/>
<path d="M45.6338 46.402L49.6025 48.3313L49.0603 43.7217L45.6338 46.402Z" fill="#E27625"/>
<path fill-rule="evenodd" clip-rule="evenodd" d="M49.1141 43.5927C49.1603 43.6122 49.1926 43.6552 49.1985 43.7053L49.7407 48.3149C49.7467 48.3656 49.7247 48.4156 49.6834 48.4452C49.642 48.4749 49.5879 48.4795 49.5421 48.4572L45.5734 46.5279C45.5301 46.5069 45.5007 46.4648 45.4956 46.4167C45.4906 46.3686 45.5106 46.3213 45.5486 46.2916L48.975 43.6113C49.0146 43.5804 49.0678 43.5732 49.1141 43.5927ZM45.8961 46.3741L49.4347 48.0944L48.9513 43.9843L45.8961 46.3741Z" fill="#E27625"/>
<path d="M49.6023 48.3315L45.6335 46.4022L45.9566 48.99L45.922 50.0875L49.6023 48.3315Z" fill="#D5BFB2"/>
<path fill-rule="evenodd" clip-rule="evenodd" d="M45.5526 46.2885C45.594 46.2586 45.6483 46.2538 45.6942 46.2761L49.6629 48.2055C49.7111 48.2289 49.7417 48.2781 49.7415 48.3319C49.7413 48.3857 49.7104 48.4347 49.662 48.4578L45.9817 50.2138C45.9379 50.2347 45.8865 50.2311 45.8459 50.2044C45.8054 50.1777 45.7816 50.1317 45.7831 50.083L45.8174 48.9964L45.4957 46.4195C45.4894 46.3686 45.5112 46.3184 45.5526 46.2885ZM45.8035 46.64L46.0947 48.9725C46.0956 48.9797 46.096 48.987 46.0957 48.9943L46.0683 49.8629L49.2804 48.3302L45.8035 46.64Z" fill="#D5BFB2"/>
<path d="M37.2915 48.3308L40.9833 50.0868L40.9603 48.9893L41.2718 46.4015L37.2915 48.3308Z" fill="#D5BFB2"/>
<path fill-rule="evenodd" clip-rule="evenodd" d="M41.3533 46.289C41.3946 46.3188 41.4166 46.3688 41.4104 46.4196L41.1001 48.9976L41.123 50.0852C41.124 50.1336 41.1 50.1791 41.0596 50.2055C41.0192 50.2318 40.9681 50.2353 40.9245 50.2146L37.2327 48.4585C37.1842 48.4355 37.1533 48.3865 37.1531 48.3326C37.1529 48.2787 37.1835 48.2295 37.2318 48.2061L41.212 46.2768C41.2578 46.2546 41.312 46.2593 41.3533 46.289ZM37.6149 48.3309L40.8402 49.865L40.8219 48.9936C40.8217 48.987 40.822 48.9804 40.8228 48.9738L41.1038 46.6397L37.6149 48.3309Z" fill="#D5BFB2"/>
<path d="M41.0537 42.012L37.7542 41.0416L40.0846 39.9672L41.0537 42.012Z" fill="#233447"/>
<path fill-rule="evenodd" clip-rule="evenodd" d="M40.0263 39.84C40.0954 39.8081 40.1771 39.8379 40.2098 39.9069L41.1789 41.9518C41.2025 42.0016 41.1948 42.0606 41.1593 42.1026C41.1237 42.1446 41.067 42.1617 41.0143 42.1462L37.7148 41.1757C37.6591 41.1594 37.6193 41.1099 37.6151 41.0517C37.6109 40.9934 37.6431 40.9387 37.6959 40.9144L40.0263 39.84ZM38.1505 41.0125L40.7941 41.79L40.0177 40.1516L38.1505 41.0125Z" fill="#233447"/>
<path d="M45.8523 42.012L46.8214 39.9672L49.1634 41.0416L45.8523 42.012Z" fill="#233447"/>
<path fill-rule="evenodd" clip-rule="evenodd" d="M46.6963 39.9069C46.7289 39.838 46.8105 39.8082 46.8795 39.8399L49.2215 40.9143C49.2744 40.9385 49.3067 40.9933 49.3025 41.0516C49.2983 41.1099 49.2585 41.1594 49.2027 41.1758L45.8916 42.1462C45.839 42.1616 45.7823 42.1445 45.7468 42.1026C45.7113 42.0606 45.7036 42.0015 45.7272 41.9518L46.6963 39.9069ZM46.8885 40.1514L46.1118 41.7903L48.7656 41.0125L46.8885 40.1514Z" fill="#233447"/>
<path d="M37.2926 48.3313L37.8694 43.5716L34.2007 43.6755L37.2926 48.3313Z" fill="#CC6228"/>
<path fill-rule="evenodd" clip-rule="evenodd" d="M37.9721 43.4774C37.9994 43.5075 38.0123 43.5481 38.0074 43.5885L37.4305 48.3483C37.4235 48.4063 37.3813 48.4539 37.3247 48.4674C37.2681 48.481 37.2091 48.4577 37.1768 48.409L34.0849 43.7532C34.0568 43.7109 34.0538 43.6566 34.077 43.6114C34.1003 43.5662 34.1461 43.5372 34.1967 43.5358L37.8654 43.4318C37.9059 43.4306 37.9449 43.4473 37.9721 43.4774ZM34.4559 43.8082L37.1998 47.94L37.7117 43.716L34.4559 43.8082Z" fill="#CC6228"/>
<path d="M49.0369 43.5716L49.6022 48.3313L52.7056 43.6755L49.0369 43.5716Z" fill="#CC6228"/>
<path fill-rule="evenodd" clip-rule="evenodd" d="M48.9343 43.4773C48.9616 43.4472 49.0005 43.4306 49.0409 43.4318L52.7097 43.5358C52.7603 43.5372 52.8062 43.5662 52.8294 43.6115C52.8526 43.6567 52.8495 43.7111 52.8213 43.7534L49.7178 48.4092C49.6854 48.4578 49.6264 48.481 49.5698 48.4674C49.5133 48.4537 49.4711 48.406 49.4642 48.348L48.8989 43.5882C48.8941 43.5478 48.9071 43.5073 48.9343 43.4773ZM49.1942 43.716L49.6959 47.9399L52.4499 43.8082L49.1942 43.716Z" fill="#CC6228"/>
<path d="M51.8173 38.3266L45.2412 38.627L45.8527 42.012L46.8218 39.9671L49.1638 41.0415L51.8173 38.3266Z" fill="#CC6228"/>
<path fill-rule="evenodd" clip-rule="evenodd" d="M51.9444 38.2695C51.9677 38.3221 51.9567 38.3836 51.9166 38.4246L49.2631 41.1395C49.2221 41.1814 49.1594 41.1931 49.1062 41.1687L46.8886 40.1514L45.9784 42.0721C45.9524 42.1269 45.8943 42.1585 45.8344 42.1505C45.7746 42.1425 45.7268 42.0966 45.716 42.0369L45.1045 38.6519C45.0974 38.6122 45.1076 38.5713 45.1326 38.5397C45.1576 38.5082 45.195 38.489 45.2351 38.4872L51.8111 38.1868C51.8682 38.1842 51.9211 38.217 51.9444 38.2695ZM45.4066 38.7594L45.9126 41.5606L46.6964 39.9069C46.729 39.838 46.8106 39.8081 46.8796 39.8398L49.133 40.8736L51.4701 38.4824L45.4066 38.7594Z" fill="#CC6228"/>
<path d="M37.7537 41.0415L40.0841 39.9671L41.0532 42.012L41.6647 38.627L35.0886 38.3266L37.7537 41.0415Z" fill="#CC6228"/>
<path fill-rule="evenodd" clip-rule="evenodd" d="M34.962 38.2697C34.9852 38.2171 35.0382 38.1842 35.0953 38.1868L41.6714 38.4872C41.7115 38.489 41.7488 38.5082 41.7738 38.5397C41.7988 38.5713 41.8091 38.6122 41.8019 38.6519L41.1904 42.0369C41.1797 42.0966 41.1318 42.1425 41.072 42.1505C41.0122 42.1585 40.9541 42.1269 40.9281 42.0721L40.0179 40.1516L37.812 41.1686C37.7589 41.1931 37.6962 41.1815 37.6551 41.1397L34.9901 38.4248C34.9498 38.3838 34.9387 38.3223 34.962 38.2697ZM35.4375 38.4824L37.7846 40.8735L40.0266 39.8399C40.0956 39.8081 40.1774 39.8379 40.2101 39.9069L40.9938 41.5606L41.4998 38.7594L35.4375 38.4824Z" fill="#CC6228"/>
<path d="M35.0886 38.3262L37.846 43.7214L37.7537 41.0411L35.0886 38.3262Z" fill="#E27525"/>
<path fill-rule="evenodd" clip-rule="evenodd" d="M35.0075 38.2138C35.0631 38.1733 35.1398 38.1797 35.188 38.2288L37.853 40.9437C37.8776 40.9687 37.8918 41.002 37.893 41.0371L37.9853 43.7174C37.9876 43.7828 37.9444 43.8411 37.8814 43.8576C37.8184 43.8741 37.7524 43.8444 37.7227 43.7862L34.9653 38.391C34.934 38.3296 34.9518 38.2543 35.0075 38.2138ZM35.6274 39.0746L37.6859 43.1023L37.617 41.1014L35.6274 39.0746Z" fill="#E27525"/>
<path d="M49.1644 41.0415L49.0605 43.7218L51.8179 38.3266L49.1644 41.0415Z" fill="#E27525"/>
<path fill-rule="evenodd" clip-rule="evenodd" d="M51.8987 38.2132C51.9544 38.2537 51.9724 38.329 51.941 38.3905L49.1836 43.7857C49.1538 43.844 49.0877 43.8736 49.0246 43.857C48.9616 43.8403 48.9185 43.7818 48.921 43.7163L49.0248 41.036C49.0262 41.0012 49.0404 40.9682 49.0646 40.9434L51.7181 38.2285C51.7663 38.1792 51.843 38.1727 51.8987 38.2132ZM49.3007 41.1009L49.2234 43.096L51.2758 39.08L49.3007 41.1009Z" fill="#E27525"/>
<path d="M41.6652 38.627L41.0537 42.0119L41.8267 46.0092L41.9997 40.7411L41.6652 38.627Z" fill="#E27525"/>
<path fill-rule="evenodd" clip-rule="evenodd" d="M41.6666 38.4871C41.7344 38.4879 41.7918 38.5377 41.8024 38.605L42.137 40.7192C42.1384 40.728 42.1389 40.7369 42.1386 40.7458L41.9656 46.0139C41.9632 46.085 41.9082 46.143 41.8376 46.1487C41.7671 46.1543 41.7036 46.1058 41.6901 46.036L40.9171 42.0387C40.9138 42.0216 40.9137 42.0041 40.9168 41.987L41.5282 38.602C41.5404 38.5349 41.5988 38.4864 41.6666 38.4871ZM41.1951 42.0111L41.7282 44.768L41.8602 40.7499L41.656 39.4596L41.1951 42.0111Z" fill="#E27525"/>
<path d="M45.2412 38.627L44.9182 40.7296L45.0797 46.0092L45.8527 42.0119L45.2412 38.627Z" fill="#E27525"/>
<path fill-rule="evenodd" clip-rule="evenodd" d="M45.2396 38.4871C45.3075 38.4862 45.3661 38.5348 45.3782 38.602L45.9897 41.987C45.9928 42.0041 45.9927 42.0216 45.9894 42.0387L45.2164 46.036C45.2029 46.1059 45.1393 46.1544 45.0687 46.1487C44.9981 46.1429 44.9431 46.0847 44.9409 46.0136L44.7794 40.7339C44.7791 40.7253 44.7796 40.7167 44.7809 40.7082L45.104 38.6056C45.1143 38.5381 45.1717 38.488 45.2396 38.4871ZM45.2525 39.4708L45.0578 40.7382L45.1807 44.7555L45.7114 42.0111L45.2525 39.4708Z" fill="#E27525"/>
<path d="M45.8531 42.012L45.0801 46.0093L45.6339 46.4021L49.0603 43.7218L49.1642 41.0416L45.8531 42.012Z" fill="#F5841F"/>
<path fill-rule="evenodd" clip-rule="evenodd" d="M49.2497 40.9313C49.2849 40.959 49.3048 41.0021 49.303 41.047L49.1992 43.7273C49.1976 43.7685 49.178 43.8069 49.1456 43.8322L45.7191 46.5125C45.6708 46.5503 45.6036 46.5519 45.5536 46.5164L44.9998 46.1236C44.9551 46.0918 44.933 46.0366 44.9435 45.9826L45.7165 41.9853C45.7264 41.9339 45.7641 41.8924 45.8141 41.8777L49.1252 40.9073C49.1681 40.8947 49.2144 40.9037 49.2497 40.9313ZM45.9733 42.1224L45.2337 45.9472L45.6297 46.2281L48.9238 43.6514L49.0176 41.2302L45.9733 42.1224Z" fill="#F5841F"/>
<path d="M37.7542 41.0416L37.8464 43.7218L41.2729 46.4021L41.8267 46.0093L41.0537 42.012L37.7542 41.0416Z" fill="#F5841F"/>
<path fill-rule="evenodd" clip-rule="evenodd" d="M37.6685 40.9311C37.7037 40.9036 37.75 40.8947 37.7928 40.9073L41.0924 41.8778C41.1423 41.8925 41.18 41.9339 41.1899 41.9853L41.9629 45.9826C41.9733 46.0366 41.9512 46.0918 41.9065 46.1236L41.3527 46.5164C41.3027 46.5519 41.2355 46.5503 41.1872 46.5125L37.7607 43.8322C37.7282 43.8068 37.7086 43.7681 37.7071 43.7267L37.6148 41.0464C37.6133 41.0015 37.6332 40.9587 37.6685 40.9311ZM37.8995 41.2301L37.9828 43.6516L41.2766 46.2281L41.6727 45.9472L40.933 42.1223L37.8995 41.2301Z" fill="#F5841F"/>
<path d="M45.9221 50.0875L45.9567 48.99L45.6568 48.7358H41.2497L40.9612 48.99L40.9843 50.0875L37.2925 48.3315L38.5846 49.3943L41.2035 51.2081H45.6914L48.3218 49.3943L49.6024 48.3315L45.9221 50.0875Z" fill="#C0AC9D"/>
<path fill-rule="evenodd" clip-rule="evenodd" d="M37.1746 48.2567C37.2121 48.197 37.2881 48.1748 37.3516 48.205L40.8402 49.8644L40.8219 48.9929C40.821 48.9516 40.8383 48.912 40.8692 48.8848L41.1577 48.6306C41.183 48.6082 41.2156 48.5959 41.2493 48.5959H45.6564C45.6892 48.5959 45.721 48.6076 45.746 48.6288L46.046 48.883C46.0785 48.9106 46.0967 48.9516 46.0954 48.9944L46.068 49.8629L49.5425 48.2051C49.6059 48.1748 49.6817 48.1968 49.7194 48.2564C49.7571 48.3159 49.7447 48.3944 49.6906 48.4393L48.41 49.5022C48.4068 49.5048 48.4035 49.5073 48.4001 49.5096L45.7697 51.3234C45.7465 51.3394 45.7191 51.348 45.691 51.348H41.2032C41.175 51.348 41.1475 51.3393 41.1243 51.3233L38.5054 49.5095C38.5023 49.5073 38.4992 49.505 38.4962 49.5026L37.2041 48.4397C37.1497 48.395 37.1371 48.3164 37.1746 48.2567ZM38.2589 48.946L38.6679 49.2824L41.2464 51.0682H45.6479L48.2377 49.2825L48.6494 48.9408L45.9814 50.2138C45.9376 50.2347 45.8862 50.2312 45.8456 50.2045C45.8051 50.1778 45.7813 50.1318 45.7828 50.083L45.8153 49.0532L45.6057 48.8756H41.3016L41.1013 49.0522L41.123 50.0845C41.124 50.133 41.1 50.1785 41.0596 50.2048C41.0192 50.2312 40.9681 50.2346 40.9245 50.2139L38.2589 48.946Z" fill="#C0AC9D"/>
<path d="M45.6336 46.4021L45.0799 46.0093H41.8265L41.2727 46.4021L40.9612 48.9899L41.2496 48.7358H45.6567L45.9567 48.9899L45.6336 46.4021Z" fill="#161616"/>
<path fill-rule="evenodd" clip-rule="evenodd" d="M41.7465 45.8951C41.7699 45.8784 41.7979 45.8695 41.8266 45.8695H45.08C45.1087 45.8695 45.1367 45.8784 45.1602 45.8951L45.7139 46.2879C45.7459 46.3105 45.7669 46.3457 45.7718 46.3847L46.0948 48.9726C46.1019 49.0297 46.0735 49.0854 46.0232 49.1129C45.9729 49.1404 45.911 49.1341 45.8672 49.097L45.6061 48.8757H41.3021L41.053 49.0952C41.0096 49.1334 40.9474 49.1407 40.8964 49.1137C40.8454 49.0866 40.8164 49.0307 40.8233 48.9732L41.1348 46.3854C41.1395 46.3461 41.1605 46.3107 41.1927 46.2879L41.7465 45.8951ZM41.8707 46.1492L41.4035 46.4806L41.1431 48.6439L41.1581 48.6307C41.1835 48.6083 41.216 48.596 41.2498 48.596H45.6569C45.6897 48.596 45.7214 48.6076 45.7465 48.6289L45.7746 48.6527L45.5035 46.4809L45.0359 46.1492H41.8707Z" fill="#161616"/>
<path d="M57.4015 32.7121L58.3821 27.9292L56.9054 23.4814L45.6338 31.8572L49.9717 35.531L56.0978 37.3217L57.4476 35.7389L56.8592 35.3115L57.7937 34.4566L57.0784 33.902L58.0129 33.1858L57.4015 32.7121Z" fill="#763E1A"/>
<path fill-rule="evenodd" clip-rule="evenodd" d="M56.9472 23.3479C56.9896 23.3614 57.0231 23.3945 57.0372 23.4369L58.5139 27.8848C58.5217 27.9082 58.5232 27.9332 58.5182 27.9573L57.5551 32.6545L58.0977 33.0748C58.132 33.1014 58.152 33.1425 58.1519 33.186C58.1518 33.2295 58.1315 33.2705 58.0971 33.2969L57.3069 33.9025L57.8785 34.3457C57.9111 34.3709 57.9309 34.4094 57.9326 34.4508C57.9343 34.4921 57.9176 34.5321 57.8872 34.5599L57.0794 35.2989L57.529 35.6254C57.5605 35.6483 57.581 35.6835 57.5856 35.7223C57.5902 35.7612 57.5784 35.8002 57.5531 35.8299L56.2033 37.4126C56.1677 37.4543 56.1113 37.4712 56.0589 37.4559L49.9328 35.6652C49.9141 35.6597 49.8968 35.6504 49.882 35.6378L45.5441 31.964C45.5116 31.9365 45.4933 31.8954 45.4947 31.8526C45.4961 31.8098 45.5168 31.77 45.5511 31.7446L56.8226 23.3687C56.8584 23.3421 56.9048 23.3344 56.9472 23.3479ZM45.8581 31.8642L50.0387 35.4048L56.0505 37.1621L57.2436 35.7632L56.7777 35.4247C56.7437 35.4 56.7227 35.3613 56.7203 35.3192C56.7179 35.2772 56.7346 35.2363 56.7656 35.2079L57.5773 34.4653L56.9934 34.0127C56.9592 33.9861 56.9392 33.945 56.9393 33.9015C56.9394 33.858 56.9596 33.817 56.994 33.7907L57.7842 33.185L57.3165 32.8228C57.2744 32.7901 57.2544 32.7361 57.2652 32.6837L58.2383 27.9377L56.834 23.7081L45.8581 31.8642Z" fill="#763E1A"/>
<path d="M28.5244 27.9295L29.5166 32.7124L28.8821 33.1861L29.8281 33.9023L29.1128 34.4569L30.0473 35.3118L29.4589 35.7392L30.8087 37.322L36.9348 35.5313L41.2727 31.8575L30.0011 23.4817L28.5244 27.9295Z" fill="#763E1A"/>
<path fill-rule="evenodd" clip-rule="evenodd" d="M29.9594 23.349C30.0018 23.3355 30.0481 23.3433 30.0839 23.3699L41.3555 31.7457C41.3898 31.7712 41.4105 31.811 41.4119 31.8538C41.4132 31.8966 41.395 31.9376 41.3625 31.9652L37.0246 35.639C37.0097 35.6516 36.9924 35.6609 36.9738 35.6663L30.8477 37.457C30.7953 37.4723 30.7388 37.4554 30.7033 37.4138L29.3535 35.831C29.3282 35.8013 29.3164 35.7623 29.321 35.7235C29.3255 35.6846 29.3461 35.6495 29.3776 35.6266L29.8271 35.3L29.0194 34.5611C28.9889 34.5332 28.9723 34.4933 28.974 34.4519C28.9757 34.4106 28.9955 34.3721 29.028 34.3468L29.5988 33.9044L28.7986 33.2985C28.7635 33.272 28.743 33.2304 28.7431 33.1863C28.7433 33.1422 28.7641 33.1008 28.7993 33.0745L29.3624 32.6541L28.3884 27.9588C28.3834 27.9346 28.3849 27.9094 28.3927 27.8859L29.8694 23.4381C29.8835 23.3956 29.9169 23.3625 29.9594 23.349ZM30.0726 23.7093L28.6684 27.9387L29.6529 32.6846C29.6639 32.7379 29.6432 32.7929 29.5996 32.8254L29.1145 33.1876L29.9119 33.7913C29.9466 33.8176 29.9671 33.8586 29.9673 33.9023C29.9675 33.9459 29.9475 33.9872 29.9131 34.0138L29.3293 34.4665L30.141 35.2091C30.172 35.2374 30.1886 35.2783 30.1863 35.3204C30.1839 35.3624 30.1628 35.4012 30.1289 35.4259L29.663 35.7643L30.8561 37.1633L36.8679 35.406L41.0485 31.8654L30.0726 23.7093Z" fill="#763E1A"/>
<path d="M56.0981 37.3215L49.972 35.5308L51.8179 38.3266L49.0605 43.7218L52.7062 43.6756H58.1517L56.0981 37.3215Z" fill="#F5841F"/>
<path fill-rule="evenodd" clip-rule="evenodd" d="M49.8593 35.448C49.8939 35.4007 49.9541 35.3801 50.0102 35.3965L56.1363 37.1872C56.1805 37.2001 56.2155 37.2342 56.2298 37.2783L58.2833 43.6324C58.2971 43.6749 58.2897 43.7216 58.2636 43.7578C58.2374 43.794 58.1956 43.8154 58.1511 43.8154H52.7065L49.0617 43.8616C49.0129 43.8623 48.9674 43.8371 48.9417 43.7954C48.916 43.7537 48.914 43.7015 48.9363 43.6579L51.6563 38.3356L49.8555 35.6082C49.8232 35.5593 49.8248 35.4953 49.8593 35.448ZM50.2974 35.7718L51.9331 38.2493C51.961 38.2914 51.964 38.3455 51.941 38.3905L49.2893 43.579L52.7056 43.5357L57.9596 43.5357L55.988 37.4352L50.2974 35.7718Z" fill="#F5841F"/>
<path d="M36.935 35.5308L30.8089 37.3215L28.7668 43.6756H34.2007L37.8464 43.7218L35.0891 38.3266L36.935 35.5308Z" fill="#F5841F"/>
<path fill-rule="evenodd" clip-rule="evenodd" d="M37.0472 35.448C37.0818 35.4953 37.0833 35.5593 37.051 35.6082L35.2502 38.3356L37.9703 43.6579C37.9926 43.7015 37.9905 43.7537 37.9648 43.7954C37.9391 43.8371 37.8936 43.8623 37.8448 43.8616L34.2009 43.8154H28.767C28.7225 43.8154 28.6807 43.794 28.6546 43.7579C28.6284 43.7217 28.621 43.6751 28.6347 43.6326L30.6767 37.2785C30.6909 37.2344 30.7259 37.2002 30.7702 37.1872L36.8963 35.3965C36.9524 35.3801 37.0126 35.4007 37.0472 35.448ZM30.9187 37.4351L28.9581 43.5357H34.2027L37.6172 43.579L34.9656 38.3905C34.9425 38.3455 34.9455 38.2914 34.9734 38.2493L36.6091 35.7718L30.9187 37.4351Z" fill="#F5841F"/>
<path d="M45.241 38.6271L45.6333 31.8572L47.41 27.0396H39.4956L41.2723 31.8572L41.6646 38.6271L41.8145 40.7529L41.8261 46.0094H45.0795L45.091 40.7529L45.241 38.6271Z" fill="#F5841F"/>
<path fill-rule="evenodd" clip-rule="evenodd" d="M39.3818 26.9597C39.4078 26.9222 39.4505 26.8997 39.496 26.8997H47.4103C47.4559 26.8997 47.4985 26.9222 47.5245 26.9597C47.5505 26.9973 47.5566 27.0453 47.5407 27.0882L45.7713 31.8862L45.3801 38.637L45.2305 40.758L45.2189 46.0097C45.2188 46.0868 45.1566 46.1493 45.0799 46.1493H41.8265C41.7498 46.1493 41.6876 46.0868 41.6874 46.0097L41.6759 40.758L41.5261 38.6353L41.1351 31.8862L39.3656 27.0882C39.3498 27.0453 39.3558 26.9973 39.3818 26.9597ZM39.6959 27.1795L41.4031 31.8085C41.4079 31.8215 41.4107 31.8352 41.4115 31.849L41.8037 38.6172L41.8038 38.619L41.9536 40.7429C41.9539 40.7461 41.954 40.7493 41.954 40.7525L41.9652 45.8695H44.9411L44.9524 40.7525C44.9524 40.751 44.9524 40.7495 44.9524 40.748C44.9525 40.7463 44.9526 40.7446 44.9527 40.7429L45.1026 38.619L45.1027 38.6172L45.4948 31.849C45.4956 31.8352 45.4985 31.8215 45.5033 31.8085L47.2104 27.1795H39.6959Z" fill="#F5841F"/>
<path d="M72.6802 37.8402H94.3103" stroke="#2C56DD" stroke-width="2" stroke-linecap="round" stroke-linejoin="round" stroke-dasharray="1 5"/>
<defs>
<filter id="filter0_d" x="79.356" y="3.05176e-05" width="87.3659" height="87.3659" filterUnits="userSpaceOnUse" color-interpolation-filters="sRGB">
<feFlood flood-opacity="0" result="BackgroundImageFix"/>
<feColorMatrix in="SourceAlpha" type="matrix" values="0 0 0 0 0 0 0 0 0 0 0 0 0 0 0 0 0 0 127 0"/>
<feOffset dy="6"/>
<feGaussianBlur stdDeviation="7.5"/>
<feColorMatrix type="matrix" values="0 0 0 0 0 0 0 0 0 0 0 0 0 0 0 0 0 0 0.07 0"/>
<feBlend mode="normal" in2="BackgroundImageFix" result="effect1_dropShadow"/>
<feBlend mode="normal" in="SourceGraphic" in2="effect1_dropShadow" result="shape"/>
</filter>
<filter id="filter1_d" x="0" y="0" width="87.3659" height="87.3659" filterUnits="userSpaceOnUse" color-interpolation-filters="sRGB">
<feFlood flood-opacity="0" result="BackgroundImageFix"/>
<feColorMatrix in="SourceAlpha" type="matrix" values="0 0 0 0 0 0 0 0 0 0 0 0 0 0 0 0 0 0 127 0"/>
<feOffset dy="6"/>
<feGaussianBlur stdDeviation="7.5"/>
<feColorMatrix type="matrix" values="0 0 0 0 0 0 0 0 0 0 0 0 0 0 0 0 0 0 0.07 0"/>
<feBlend mode="normal" in2="BackgroundImageFix" result="effect1_dropShadow"/>
<feBlend mode="normal" in="SourceGraphic" in2="effect1_dropShadow" result="shape"/>
</filter>
</defs>
</svg>
