<svg width="385" height="198" viewBox="0 0 385 198" fill="none" xmlns="http://www.w3.org/2000/svg">
<path d="M5 137.5L37.8431 170.343C40.9673 173.467 46.0327 173.467 49.1569 170.343L182.343 37.1568C185.467 34.0327 190.533 34.0327 193.657 37.1569L208.343 51.8431C211.467 54.9673 216.533 54.9673 219.657 51.8431L266.5 5" stroke="url(#paint0_linear)" stroke-width="10" stroke-linecap="round" stroke-linejoin="round"/>
<path d="M235 5H266" stroke="#4F5EBD" stroke-width="10" stroke-linecap="round" stroke-linejoin="round"/>
<path d="M267 36V5" stroke="#4F5EBD" stroke-width="10" stroke-linecap="round" stroke-linejoin="round"/>
<g filter="url(#filter0_d)">
<rect x="93" y="80" width="262" height="88" rx="33" fill="#FDFDFD"/>
</g>
<path d="M304.496 124.449C303.405 123.749 302.202 123.252 301.064 122.63C300.326 122.226 299.54 121.869 298.898 121.356C297.808 120.486 298.032 118.776 299.171 118.03C300.807 116.974 303.517 117.564 303.806 119.724C303.806 119.771 303.854 119.802 303.902 119.802H306.372C306.436 119.802 306.485 119.755 306.468 119.693C306.34 118.201 305.747 116.958 304.656 116.166C303.614 115.404 302.427 115 301.16 115C294.632 115 294.039 121.698 297.551 123.811C297.952 124.06 301.4 125.738 302.619 126.469C303.838 127.199 304.223 128.536 303.694 129.592C303.213 130.556 301.962 131.224 300.711 131.146C299.348 131.069 298.289 130.354 297.92 129.235C297.856 129.033 297.824 128.644 297.824 128.473C297.824 128.427 297.776 128.38 297.728 128.38H295.049C295.001 128.38 294.953 128.427 294.953 128.473C294.953 130.354 295.434 131.395 296.749 132.343C297.984 133.244 299.332 133.617 300.727 133.617C304.384 133.617 306.276 131.613 306.661 129.53C306.998 127.494 306.372 125.661 304.496 124.449Z" fill="#161616"/>
<path d="M188.204 115.342H187.017H185.718C185.67 115.342 185.638 115.373 185.622 115.404L183.425 122.428C183.393 122.521 183.264 122.521 183.232 122.428L181.035 115.404C181.019 115.357 180.987 115.342 180.939 115.342H179.64H178.453H176.849C176.801 115.342 176.753 115.388 176.753 115.435V133.369C176.753 133.415 176.801 133.462 176.849 133.462H179.528C179.576 133.462 179.624 133.415 179.624 133.369V119.74C179.624 119.631 179.784 119.615 179.816 119.709L182.029 126.78L182.19 127.277C182.206 127.323 182.238 127.339 182.286 127.339H184.339C184.387 127.339 184.419 127.308 184.435 127.277L184.596 126.78L186.809 119.709C186.841 119.6 187.001 119.631 187.001 119.74V133.369C187.001 133.415 187.049 133.462 187.097 133.462H189.776C189.824 133.462 189.872 133.415 189.872 133.369V115.435C189.872 115.388 189.824 115.342 189.776 115.342H188.204Z" fill="#161616"/>
<path d="M263.487 115.342C263.438 115.342 263.406 115.373 263.39 115.404L261.193 122.428C261.161 122.521 261.033 122.521 261.001 122.428L258.803 115.404C258.787 115.357 258.755 115.342 258.707 115.342H254.634C254.585 115.342 254.537 115.388 254.537 115.435V133.369C254.537 133.415 254.585 133.462 254.634 133.462H257.312C257.36 133.462 257.408 133.415 257.408 133.369V119.74C257.408 119.631 257.569 119.615 257.601 119.709L259.814 126.78L259.974 127.277C259.99 127.323 260.022 127.339 260.07 127.339H262.123C262.171 127.339 262.204 127.308 262.22 127.277L262.38 126.78L264.593 119.709C264.625 119.6 264.786 119.631 264.786 119.74V133.369C264.786 133.415 264.834 133.462 264.882 133.462H267.56C267.608 133.462 267.656 133.415 267.656 133.369V115.435C267.656 115.388 267.608 115.342 267.56 115.342H263.487Z" fill="#161616"/>
<path d="M228.941 115.342H223.953H221.274H216.287C216.239 115.342 216.19 115.388 216.19 115.435V117.673C216.19 117.72 216.239 117.766 216.287 117.766H221.178V133.369C221.178 133.415 221.226 133.462 221.274 133.462H223.953C224.001 133.462 224.049 133.415 224.049 133.369V117.766H228.941C228.989 117.766 229.037 117.72 229.037 117.673V115.435C229.037 115.388 229.005 115.342 228.941 115.342Z" fill="#161616"/>
<path d="M244.738 133.462H247.176C247.24 133.462 247.288 133.4 247.272 133.338L242.236 115.342C242.22 115.295 242.188 115.28 242.14 115.28H241.21H239.574H238.644C238.595 115.28 238.563 115.311 238.547 115.342L233.511 133.338C233.495 133.4 233.543 133.462 233.608 133.462H236.045C236.094 133.462 236.126 133.431 236.142 133.4L237.601 128.163C237.617 128.116 237.649 128.1 237.697 128.1H243.086C243.134 128.1 243.166 128.132 243.182 128.163L244.642 133.4C244.658 133.431 244.706 133.462 244.738 133.462ZM238.339 125.536L240.295 118.528C240.328 118.434 240.456 118.434 240.488 118.528L242.445 125.536C242.461 125.598 242.412 125.661 242.348 125.661H238.435C238.371 125.661 238.323 125.598 238.339 125.536Z" fill="#161616"/>
<path d="M286.309 133.462H288.746C288.81 133.462 288.859 133.4 288.843 133.338L283.807 115.342C283.791 115.295 283.759 115.28 283.71 115.28H282.78H281.144H280.214C280.166 115.28 280.134 115.311 280.118 115.342L275.082 133.338C275.066 133.4 275.114 133.462 275.178 133.462H277.616C277.664 133.462 277.696 133.431 277.712 133.4L279.172 128.163C279.188 128.116 279.22 128.1 279.268 128.1H284.657C284.705 128.1 284.737 128.132 284.753 128.163L286.212 133.4C286.228 133.431 286.26 133.462 286.309 133.462ZM279.909 125.536L281.866 118.528C281.898 118.434 282.026 118.434 282.058 118.528L284.015 125.536C284.031 125.598 283.983 125.661 283.919 125.661H280.006C279.941 125.661 279.893 125.598 279.909 125.536Z" fill="#161616"/>
<path d="M200.746 130.805V125.241C200.746 125.195 200.794 125.148 200.842 125.148H207.979C208.027 125.148 208.075 125.101 208.075 125.055V122.817C208.075 122.77 208.027 122.724 207.979 122.724H200.842C200.794 122.724 200.746 122.677 200.746 122.63V117.875C200.746 117.828 200.794 117.782 200.842 117.782H208.957C209.005 117.782 209.054 117.735 209.054 117.689V115.451C209.054 115.404 209.005 115.357 208.957 115.357H200.746H197.971C197.923 115.357 197.875 115.404 197.875 115.451V117.782V122.739V125.163V130.913V133.369C197.875 133.415 197.923 133.462 197.971 133.462H200.746H209.294C209.342 133.462 209.39 133.415 209.39 133.369V131.007C209.39 130.96 209.342 130.913 209.294 130.913H200.826C200.778 130.898 200.746 130.867 200.746 130.805Z" fill="#161616"/>
<path d="M328.97 133.307L319.7 124.029C319.668 123.998 319.668 123.936 319.7 123.905L328.039 115.513C328.104 115.451 328.055 115.357 327.975 115.357H324.559C324.527 115.357 324.511 115.373 324.495 115.389L317.422 122.506C317.358 122.568 317.262 122.522 317.262 122.444V115.451C317.262 115.404 317.214 115.357 317.166 115.357H314.487C314.439 115.357 314.391 115.404 314.391 115.451V133.384C314.391 133.431 314.439 133.478 314.487 133.478H317.166C317.214 133.478 317.262 133.431 317.262 133.384V125.49C317.262 125.412 317.374 125.365 317.422 125.428L325.441 133.446C325.457 133.462 325.489 133.478 325.505 133.478H328.922C328.986 133.462 329.034 133.353 328.97 133.307Z" fill="#161616"/>
<path d="M158.609 105L142.331 117.024L145.358 109.938L158.609 105Z" fill="#6D95F9"/>
<path d="M121.061 105L137.194 117.136L134.312 109.938L121.061 105Z" fill="#6D95F9"/>
<path d="M152.748 132.88L148.417 139.485L157.691 142.035L160.348 133.024L152.748 132.88Z" fill="#6D95F9"/>
<path d="M119.338 133.024L121.979 142.035L131.237 139.485L126.922 132.88L119.338 133.024Z" fill="#6D95F9"/>
<path d="M130.738 121.721L128.161 125.601L137.339 126.018L137.033 116.158L130.738 121.721Z" fill="#6D95F9"/>
<path d="M148.932 121.721L142.54 116.046L142.33 126.018L151.508 125.601L148.932 121.721Z" fill="#6D95F9"/>
<path d="M131.237 139.485L136.791 136.808L132.009 133.088L131.237 139.485Z" fill="#6D95F9"/>
<path d="M142.878 136.808L148.417 139.485L147.66 133.088L142.878 136.808Z" fill="#6D95F9"/>
<path d="M148.417 139.485L142.878 136.808L143.329 140.399L143.28 141.922L148.417 139.485Z" fill="#D7C1B3"/>
<path d="M131.237 139.486L136.389 141.923L136.357 140.4L136.792 136.809L131.237 139.486Z" fill="#D7C1B3"/>
<path d="M136.486 130.715L131.881 129.369L135.133 127.878L136.486 130.715Z" fill="#2F343B"/>
<path d="M143.184 130.715L144.536 127.878L147.805 129.369L143.184 130.715Z" fill="#2F343B"/>
<path d="M131.237 139.485L132.042 132.88L126.922 133.024L131.237 139.485Z" fill="#497BF8"/>
<path d="M147.628 132.88L148.417 139.485L152.748 133.024L147.628 132.88Z" fill="#497BF8"/>
<path d="M151.508 125.601L142.331 126.018L143.184 130.716L144.537 127.878L147.805 129.369L151.508 125.601Z" fill="#497BF8"/>
<path d="M131.881 129.369L135.134 127.878L136.486 130.716L137.34 126.018L128.162 125.601L131.881 129.369Z" fill="#497BF8"/>
<path d="M128.162 125.603L132.01 133.09L131.881 129.37L128.162 125.603Z" fill="#6D95F9"/>
<path d="M147.805 129.369L147.66 133.088L151.508 125.601L147.805 129.369Z" fill="#6D95F9"/>
<path d="M137.339 126.018L136.486 130.715L137.565 136.263L137.806 128.952L137.339 126.018Z" fill="#6D95F9"/>
<path d="M142.331 126.018L141.88 128.936L142.105 136.263L143.184 130.715L142.331 126.018Z" fill="#6D95F9"/>
<path d="M143.184 130.716L142.105 136.263L142.878 136.808L147.66 133.089L147.805 129.369L143.184 130.716Z" fill="#B6CAFC"/>
<path d="M131.881 129.369L132.01 133.089L136.792 136.808L137.565 136.263L136.486 130.716L131.881 129.369Z" fill="#B6CAFC"/>
<path d="M143.281 141.922L143.329 140.399L142.91 140.046H136.76L136.357 140.399L136.389 141.922L131.237 139.485L133.04 140.96L136.695 143.477H142.959L146.63 140.96L148.417 139.485L143.281 141.922Z" fill="#C0AD9E"/>
<path d="M142.878 136.808L142.105 136.263H137.565L136.792 136.808L136.357 140.399L136.76 140.046H142.91L143.329 140.399L142.878 136.808Z" fill="#2F343B"/>
<path d="M159.301 117.81L160.67 111.172L158.609 105L142.878 116.623L148.932 121.722L157.482 124.207L159.366 122.01L158.545 121.417L159.849 120.231L158.85 119.461L160.155 118.467L159.301 117.81Z" fill="#2C56DD"/>
<path d="M119 111.174L120.385 117.811L119.499 118.469L120.819 119.463L119.821 120.232L121.125 121.419L120.304 122.012L122.188 124.208L130.738 121.723L136.792 116.625L121.061 105.002L119 111.174Z" fill="#2C56DD"/>
<path d="M157.482 124.207L148.932 121.722L151.508 125.602L147.66 133.089L152.748 133.024H160.348L157.482 124.207Z" fill="#B6CAFC"/>
<path d="M130.738 121.722L122.188 124.207L119.338 133.024H126.922L132.01 133.089L128.162 125.602L130.738 121.722Z" fill="#B6CAFC"/>
<path d="M142.331 126.018L142.878 116.623L145.358 109.938H134.312L136.792 116.623L137.339 126.018L137.549 128.968L137.565 136.263H142.105L142.121 128.968L142.331 126.018Z" fill="#B6CAFC"/>
<defs>
<filter id="filter0_d" x="63" y="50" width="322" height="148" filterUnits="userSpaceOnUse" color-interpolation-filters="sRGB">
<feFlood flood-opacity="0" result="BackgroundImageFix"/>
<feColorMatrix in="SourceAlpha" type="matrix" values="0 0 0 0 0 0 0 0 0 0 0 0 0 0 0 0 0 0 127 0"/>
<feOffset/>
<feGaussianBlur stdDeviation="15"/>
<feColorMatrix type="matrix" values="0 0 0 0 0 0 0 0 0 0 0 0 0 0 0 0 0 0 0.1 0"/>
<feBlend mode="normal" in2="BackgroundImageFix" result="effect1_dropShadow"/>
<feBlend mode="normal" in="SourceGraphic" in2="effect1_dropShadow" result="shape"/>
</filter>
<linearGradient id="paint0_linear" x1="-53" y1="117" x2="323" y2="39" gradientUnits="userSpaceOnUse">
<stop stop-color="white"/>
<stop offset="0.166667" stop-color="#F5841F"/>
<stop offset="1" stop-color="#2C56DD"/>
</linearGradient>
</defs>
</svg>
