<svg width="167" height="88" viewBox="0 0 167 88" fill="none" xmlns="http://www.w3.org/2000/svg">
<g filter="url(#filter0_d)">
<circle cx="123.039" cy="37.6829" r="28.6829" fill="white"/>
</g>
<path d="M112.523 39.1168L119.853 46.2875L134.513 31.946" stroke="black" stroke-linecap="round" stroke-linejoin="round"/>
<g filter="url(#filter1_d)">
<circle cx="43.6829" cy="37.6829" r="28.6829" fill="white"/>
</g>
<path d="M56.9056 23.4812L45.2417 32.1458L47.4106 27.0395L56.9056 23.4812Z" fill="#E17726"/>
<path fill-rule="evenodd" clip-rule="evenodd" d="M57.0277 23.4146C57.0608 23.4759 57.0439 23.5523 56.9881 23.5937L45.3242 32.2584C45.2738 32.2959 45.2046 32.2947 45.1553 32.2556C45.1061 32.2164 45.0891 32.149 45.1137 32.091L47.2827 26.9846C47.2976 26.9494 47.3263 26.9218 47.362 26.9085L56.8569 23.3502C56.9219 23.3259 56.9947 23.3533 57.0277 23.4146ZM47.515 27.1496L45.5704 31.7277L56.0277 23.9595L47.515 27.1496Z" fill="#E17726"/>
<path d="M30.0012 23.4813L41.5612 32.2268L39.4961 27.0395L30.0012 23.4813Z" fill="#E27625"/>
<path fill-rule="evenodd" clip-rule="evenodd" d="M29.8792 23.4142C29.9123 23.3532 29.985 23.326 30.0497 23.3503L39.5446 26.9085C39.5813 26.9223 39.6106 26.951 39.6251 26.9876L41.6903 32.1748C41.7134 32.2331 41.6952 32.2997 41.6457 32.3379C41.5961 32.376 41.5274 32.3763 41.4776 32.3386L29.9175 23.5931C29.8623 23.5513 29.846 23.4751 29.8792 23.4142ZM30.8505 23.9489L41.2471 31.8142L39.3898 27.149L30.8505 23.9489Z" fill="#E27625"/>
<path d="M52.7062 43.5717L49.6028 48.3314L56.2481 50.1683L58.1517 43.6756L52.7062 43.5717Z" fill="#E27625"/>
<path fill-rule="evenodd" clip-rule="evenodd" d="M52.5896 43.495C52.6158 43.4548 52.6607 43.4309 52.7085 43.4318L58.154 43.5358C58.1973 43.5367 58.2378 43.5578 58.2635 43.593C58.2891 43.6282 58.297 43.6734 58.2847 43.7152L56.3811 50.2079C56.3597 50.281 56.284 50.3234 56.2109 50.3032L49.5656 48.4663C49.5227 48.4545 49.4881 48.4227 49.4723 48.3809C49.4566 48.339 49.4618 48.2922 49.4862 48.2548L52.5896 43.495ZM52.7801 43.713L49.8235 48.2475L56.1529 49.9971L57.9664 43.812L52.7801 43.713Z" fill="#E27625"/>
<path d="M28.7671 43.6756L30.6591 50.1683L37.2929 48.3314L34.201 43.5717L28.7671 43.6756Z" fill="#E27625"/>
<path fill-rule="evenodd" clip-rule="evenodd" d="M34.198 43.4318C34.2459 43.4309 34.2909 43.4549 34.3171 43.4952L37.409 48.255C37.4333 48.2924 37.4383 48.3392 37.4226 48.3809C37.4069 48.4227 37.3723 48.4544 37.3295 48.4663L30.6957 50.3032C30.6225 50.3235 30.5467 50.281 30.5254 50.2077L28.6333 43.715C28.6211 43.6732 28.629 43.628 28.6547 43.5929C28.6803 43.5578 28.7208 43.5367 28.7641 43.5358L34.198 43.4318ZM28.9514 43.812L30.7538 49.997L37.0719 48.2475L34.1263 43.713L28.9514 43.812Z" fill="#E27625"/>
<path d="M36.9348 35.5309L35.0889 38.3267L41.6649 38.627L41.4457 31.522L36.9348 35.5309Z" fill="#E27625"/>
<path fill-rule="evenodd" clip-rule="evenodd" d="M41.5011 31.3937C41.5505 31.4152 41.5832 31.4635 41.5849 31.5177L41.8041 38.6227C41.8053 38.6617 41.7903 38.6993 41.7627 38.7267C41.7351 38.754 41.6975 38.7685 41.6588 38.7668L35.0827 38.4664C35.0326 38.4641 34.9877 38.4349 34.965 38.39C34.9423 38.345 34.9454 38.2913 34.9732 38.2493L36.8191 35.4535C36.8258 35.4434 36.8338 35.4342 36.8428 35.4261L41.3538 31.4173C41.3942 31.3814 41.4516 31.3722 41.5011 31.3937ZM37.0407 35.6236L35.3408 38.1982L41.5214 38.4805L41.3161 31.8241L37.0407 35.6236Z" fill="#E27625"/>
<path d="M49.9718 35.5309L45.3917 31.4412L45.2417 38.6271L51.8178 38.3267L49.9718 35.5309Z" fill="#E27625"/>
<path fill-rule="evenodd" clip-rule="evenodd" d="M45.3357 31.313C45.3854 31.2912 45.4431 31.3004 45.4837 31.3366L50.0638 35.4263C50.0728 35.4343 50.0807 35.4435 50.0874 35.4535L51.9333 38.2493C51.961 38.2913 51.9641 38.345 51.9414 38.39C51.9188 38.4349 51.8738 38.4641 51.8237 38.4664L45.2477 38.7668C45.2092 38.7685 45.1718 38.7542 45.1442 38.7272C45.1167 38.7001 45.1015 38.6628 45.1023 38.6241L45.2523 31.4383C45.2534 31.3837 45.286 31.3349 45.3357 31.313ZM45.5241 31.7467L45.3835 38.4806L51.5657 38.1982L49.8657 35.6234L45.5241 31.7467Z" fill="#E27625"/>
<path d="M37.2927 48.3314L41.273 46.4021L37.8465 43.7218L37.2927 48.3314Z" fill="#E27625"/>
<path fill-rule="evenodd" clip-rule="evenodd" d="M37.7929 43.5927C37.8392 43.5733 37.8922 43.5804 37.9318 43.6114L41.3583 46.2916C41.3962 46.3213 41.4163 46.3687 41.4112 46.4168C41.4061 46.4649 41.3766 46.507 41.3333 46.528L37.353 48.4573C37.3072 48.4795 37.2531 48.4748 37.2117 48.4451C37.1704 48.4154 37.1485 48.3653 37.1546 48.3146L37.7083 43.705C37.7144 43.655 37.7467 43.612 37.7929 43.5927ZM37.955 43.9839L37.4612 48.0944L41.0105 46.374L37.955 43.9839Z" fill="#E27625"/>
<path d="M45.6338 46.4021L49.6025 48.3314L49.0603 43.7218L45.6338 46.4021Z" fill="#E27625"/>
<path fill-rule="evenodd" clip-rule="evenodd" d="M49.1143 43.5927C49.1606 43.6122 49.1929 43.6552 49.1988 43.7053L49.741 48.3149C49.747 48.3657 49.725 48.4156 49.6836 48.4453C49.6422 48.4749 49.5881 48.4795 49.5424 48.4573L45.5737 46.5279C45.5304 46.5069 45.5009 46.4648 45.4959 46.4167C45.4908 46.3686 45.5108 46.3213 45.5488 46.2916L48.9753 43.6114C49.0149 43.5804 49.068 43.5733 49.1143 43.5927ZM45.8963 46.3741L49.435 48.0944L48.9515 43.9843L45.8963 46.3741Z" fill="#E27625"/>
<path d="M49.6025 48.3314L45.6338 46.4021L45.9568 48.9899L45.9222 50.0875L49.6025 48.3314Z" fill="#D5BFB2"/>
<path fill-rule="evenodd" clip-rule="evenodd" d="M45.5526 46.2885C45.594 46.2586 45.6483 46.2539 45.6942 46.2762L49.6629 48.2055C49.7111 48.229 49.7417 48.2781 49.7415 48.332C49.7413 48.3858 49.7104 48.4347 49.662 48.4578L45.9817 50.2138C45.9379 50.2347 45.8865 50.2312 45.8459 50.2045C45.8054 50.1778 45.7816 50.1318 45.7831 50.0831L45.8174 48.9965L45.4957 46.4195C45.4894 46.3687 45.5112 46.3184 45.5526 46.2885ZM45.8035 46.64L46.0947 48.9725C46.0956 48.9798 46.096 48.9871 46.0957 48.9944L46.0683 49.8629L49.2804 48.3303L45.8035 46.64Z" fill="#D5BFB2"/>
<path d="M37.2925 48.3316L40.9843 50.0877L40.9612 48.9901L41.2727 46.4023L37.2925 48.3316Z" fill="#D5BFB2"/>
<path fill-rule="evenodd" clip-rule="evenodd" d="M41.3538 46.2884C41.3951 46.3181 41.417 46.3682 41.4109 46.4189L41.1006 48.9969L41.1235 50.0845C41.1245 50.133 41.1005 50.1785 41.0601 50.2049C41.0197 50.2312 40.9685 50.2346 40.925 50.2139L37.2332 48.4579C37.1847 48.4348 37.1538 48.3859 37.1536 48.332C37.1534 48.2781 37.184 48.2289 37.2322 48.2055L41.2125 46.2761C41.2583 46.2539 41.3125 46.2586 41.3538 46.2884ZM37.6154 48.3303L40.8407 49.8644L40.8223 48.9929C40.8222 48.9863 40.8225 48.9797 40.8233 48.9732L41.1043 46.6391L37.6154 48.3303Z" fill="#D5BFB2"/>
<path d="M41.0537 42.0119L37.7542 41.0415L40.0846 39.967L41.0537 42.0119Z" fill="#233447"/>
<path fill-rule="evenodd" clip-rule="evenodd" d="M40.0263 39.84C40.0954 39.8081 40.1771 39.8379 40.2098 39.9069L41.1789 41.9518C41.2025 42.0016 41.1948 42.0606 41.1593 42.1026C41.1237 42.1446 41.067 42.1617 41.0143 42.1462L37.7148 41.1757C37.6591 41.1594 37.6193 41.1099 37.6151 41.0517C37.6109 40.9934 37.6431 40.9387 37.6959 40.9144L40.0263 39.84ZM38.1505 41.0125L40.7941 41.79L40.0177 40.1516L38.1505 41.0125Z" fill="#233447"/>
<path d="M45.8528 42.0119L46.8219 39.967L49.1639 41.0415L45.8528 42.0119Z" fill="#233447"/>
<path fill-rule="evenodd" clip-rule="evenodd" d="M46.6965 39.9069C46.7292 39.838 46.8107 39.8082 46.8798 39.8399L49.2218 40.9143C49.2746 40.9385 49.3069 40.9933 49.3027 41.0516C49.2985 41.1099 49.2587 41.1594 49.2029 41.1758L45.8918 42.1462C45.8392 42.1616 45.7825 42.1445 45.747 42.1026C45.7115 42.0606 45.7038 42.0015 45.7274 41.9518L46.6965 39.9069ZM46.8887 40.1514L46.112 41.7903L48.7658 41.0125L46.8887 40.1514Z" fill="#233447"/>
<path d="M37.2931 48.3314L37.8699 43.5717L34.2012 43.6756L37.2931 48.3314Z" fill="#CC6228"/>
<path fill-rule="evenodd" clip-rule="evenodd" d="M37.9721 43.4775C37.9994 43.5076 38.0123 43.5482 38.0074 43.5886L37.4305 48.3484C37.4235 48.4064 37.3813 48.454 37.3247 48.4675C37.2681 48.4811 37.2091 48.4578 37.1768 48.4091L34.0849 43.7533C34.0568 43.711 34.0538 43.6567 34.077 43.6115C34.1003 43.5662 34.1461 43.5373 34.1967 43.5359L37.8654 43.4319C37.9059 43.4307 37.9449 43.4474 37.9721 43.4775ZM34.4559 43.8083L37.1998 47.9401L37.7117 43.7161L34.4559 43.8083Z" fill="#CC6228"/>
<path d="M49.0374 43.5717L49.6027 48.3314L52.7061 43.6756L49.0374 43.5717Z" fill="#CC6228"/>
<path fill-rule="evenodd" clip-rule="evenodd" d="M48.9348 43.4774C48.9621 43.4473 49.001 43.4307 49.0414 43.4319L52.7102 43.5359C52.7608 43.5373 52.8066 43.5663 52.8299 43.6116C52.8531 43.6568 52.85 43.7112 52.8218 43.7535L49.7183 48.4093C49.6859 48.4579 49.6269 48.4811 49.5703 48.4674C49.5138 48.4538 49.4716 48.4061 49.4647 48.348L48.8994 43.5883C48.8946 43.5479 48.9075 43.5074 48.9348 43.4774ZM49.1947 43.716L49.6964 47.9399L52.4504 43.8083L49.1947 43.716Z" fill="#CC6228"/>
<path d="M51.8175 38.3267L45.2415 38.627L45.8529 42.012L46.822 39.9672L49.164 41.0416L51.8175 38.3267Z" fill="#CC6228"/>
<path fill-rule="evenodd" clip-rule="evenodd" d="M51.9447 38.2697C51.968 38.3222 51.9569 38.3837 51.9168 38.4247L49.2633 41.1396C49.2224 41.1816 49.1597 41.1933 49.1065 41.1688L46.8889 40.1515L45.9786 42.0722C45.9526 42.127 45.8945 42.1587 45.8347 42.1507C45.7749 42.1427 45.727 42.0968 45.7162 42.037L45.1048 38.6521C45.0976 38.6123 45.1078 38.5715 45.1328 38.5399C45.1579 38.5083 45.1952 38.4892 45.2353 38.4873L51.8114 38.187C51.8685 38.1844 51.9214 38.2172 51.9447 38.2697ZM45.4069 38.7595L45.9129 41.5608L46.6966 39.907C46.7293 39.8381 46.8108 39.8083 46.8799 39.8399L49.1333 40.8737L51.4703 38.4826L45.4069 38.7595Z" fill="#CC6228"/>
<path d="M37.7539 41.0416L40.0844 39.9672L41.0535 42.012L41.6649 38.627L35.0889 38.3267L37.7539 41.0416Z" fill="#CC6228"/>
<path fill-rule="evenodd" clip-rule="evenodd" d="M34.9622 38.2698C34.9855 38.2172 35.0384 38.1844 35.0956 38.187L41.6716 38.4873C41.7117 38.4892 41.7491 38.5083 41.7741 38.5399C41.7991 38.5715 41.8093 38.6123 41.8021 38.6521L41.1907 42.037C41.1799 42.0968 41.1321 42.1427 41.0722 42.1507C41.0124 42.1587 40.9543 42.127 40.9283 42.0722L40.0182 40.1517L37.8123 41.1687C37.7591 41.1932 37.6964 41.1817 37.6553 41.1399L34.9903 38.4249C34.9501 38.384 34.9389 38.3224 34.9622 38.2698ZM35.4377 38.4826L37.7849 40.8737L40.0268 39.8401C40.0959 39.8082 40.1776 39.838 40.2103 39.907L40.994 41.5608L41.5001 38.7595L35.4377 38.4826Z" fill="#CC6228"/>
<path d="M35.0891 38.326L37.8464 43.7212L37.7541 41.0409L35.0891 38.326Z" fill="#E27525"/>
<path fill-rule="evenodd" clip-rule="evenodd" d="M35.0077 38.2134C35.0633 38.1729 35.14 38.1792 35.1882 38.2284L37.8533 40.9433C37.8778 40.9683 37.8921 41.0016 37.8933 41.0367L37.9856 43.717C37.9878 43.7824 37.9446 43.8407 37.8816 43.8572C37.8186 43.8737 37.7527 43.844 37.7229 43.7857L34.9656 38.3906C34.9342 38.3291 34.9521 38.2539 35.0077 38.2134ZM35.6277 39.0742L37.6861 43.1018L37.6172 41.1009L35.6277 39.0742Z" fill="#E27525"/>
<path d="M49.1646 41.0416L49.0608 43.7218L51.8181 38.3267L49.1646 41.0416Z" fill="#E27525"/>
<path fill-rule="evenodd" clip-rule="evenodd" d="M51.8992 38.2133C51.9549 38.2538 51.9729 38.3291 51.9415 38.3906L49.1841 43.7858C49.1543 43.8441 49.0882 43.8738 49.0251 43.8571C48.962 43.8405 48.919 43.782 48.9215 43.7164L49.0253 41.0362C49.0267 41.0014 49.0409 40.9684 49.0651 40.9436L51.7186 38.2286C51.7668 38.1794 51.8435 38.1728 51.8992 38.2133ZM49.3012 41.1011L49.2239 43.0962L51.2763 39.0802L49.3012 41.1011Z" fill="#E27525"/>
<path d="M41.6649 38.6273L41.0535 42.0122L41.8264 46.0095L41.9995 40.7414L41.6649 38.6273Z" fill="#E27525"/>
<path fill-rule="evenodd" clip-rule="evenodd" d="M41.6668 38.4874C41.7346 38.4881 41.792 38.5379 41.8027 38.6052L42.1372 40.7194C42.1386 40.7282 42.1392 40.7371 42.1389 40.746L41.9658 46.0141C41.9635 46.0852 41.9084 46.1433 41.8379 46.1489C41.7673 46.1546 41.7038 46.1061 41.6903 46.0362L40.9174 42.0389C40.9141 42.0218 40.9139 42.0043 40.917 41.9872L41.5285 38.6022C41.5406 38.5351 41.5991 38.4866 41.6668 38.4874ZM41.1954 42.0113L41.7285 44.7682L41.8605 40.7502L41.6563 39.4598L41.1954 42.0113Z" fill="#E27525"/>
<path d="M45.2417 38.6273L44.9187 40.7299L45.0802 46.0095L45.8532 42.0122L45.2417 38.6273Z" fill="#E27525"/>
<path fill-rule="evenodd" clip-rule="evenodd" d="M45.24 38.4874C45.3079 38.4865 45.3666 38.535 45.3787 38.6022L45.9902 41.9872C45.9933 42.0043 45.9931 42.0218 45.9898 42.0389L45.2169 46.0362C45.2034 46.1061 45.1398 46.1546 45.0692 46.1489C44.9986 46.1432 44.9435 46.085 44.9414 46.0138L44.7799 40.7341C44.7796 40.7256 44.7801 40.717 44.7814 40.7085L45.1044 38.6059C45.1148 38.5384 45.1721 38.4883 45.24 38.4874ZM45.253 39.471L45.0582 40.7384L45.1811 44.7557L45.7118 42.0113L45.253 39.471Z" fill="#E27525"/>
<path d="M45.8533 42.0121L45.0803 46.0094L45.6341 46.4021L49.0606 43.7219L49.1644 41.0416L45.8533 42.0121Z" fill="#F5841F"/>
<path fill-rule="evenodd" clip-rule="evenodd" d="M49.2499 40.9314C49.2852 40.9591 49.305 41.0021 49.3033 41.047L49.1994 43.7273C49.1978 43.7685 49.1782 43.8069 49.1459 43.8322L45.7194 46.5125C45.6711 46.5503 45.6039 46.5519 45.5539 46.5164L45.0001 46.1236C44.9553 46.0919 44.9333 46.0367 44.9437 45.9826L45.7167 41.9853C45.7266 41.9339 45.7643 41.8924 45.8143 41.8778L49.1254 40.9073C49.1683 40.8947 49.2147 40.9037 49.2499 40.9314ZM45.9735 42.1224L45.2339 45.9472L45.63 46.2281L48.924 43.6514L49.0178 41.2302L45.9735 42.1224Z" fill="#F5841F"/>
<path d="M37.7542 41.0416L37.8464 43.7219L41.2729 46.4021L41.8267 46.0094L41.0537 42.0121L37.7542 41.0416Z" fill="#F5841F"/>
<path fill-rule="evenodd" clip-rule="evenodd" d="M37.6685 40.9311C37.7037 40.9036 37.75 40.8948 37.7928 40.9074L41.0924 41.8778C41.1423 41.8925 41.18 41.934 41.1899 41.9853L41.9629 45.9826C41.9733 46.0367 41.9512 46.0919 41.9065 46.1236L41.3527 46.5164C41.3027 46.5519 41.2355 46.5503 41.1872 46.5125L37.7607 43.8322C37.7282 43.8068 37.7086 43.7681 37.7071 43.7267L37.6148 41.0464C37.6133 41.0016 37.6332 40.9587 37.6685 40.9311ZM37.8995 41.2301L37.9828 43.6516L41.2766 46.2281L41.6727 45.9472L40.933 42.1224L37.8995 41.2301Z" fill="#F5841F"/>
<path d="M45.9224 50.0875L45.957 48.9899L45.657 48.7358H41.2499L40.9615 48.9899L40.9845 50.0875L37.2927 48.3314L38.5849 49.3943L41.2038 51.2081H45.6916L48.322 49.3943L49.6026 48.3314L45.9224 50.0875Z" fill="#C0AC9D"/>
<path fill-rule="evenodd" clip-rule="evenodd" d="M37.1751 48.2566C37.2126 48.1969 37.2886 48.1747 37.3521 48.2049L40.8407 49.8643L40.8224 48.9928C40.8215 48.9515 40.8388 48.9119 40.8697 48.8847L41.1582 48.6305C41.1835 48.6082 41.2161 48.5958 41.2498 48.5958H45.6569C45.6897 48.5958 45.7214 48.6075 45.7465 48.6287L46.0465 48.8829C46.079 48.9105 46.0972 48.9515 46.0959 48.9943L46.0685 49.8628L49.5429 48.205C49.6064 48.1747 49.6822 48.1967 49.7199 48.2563C49.7576 48.3158 49.7452 48.3943 49.6911 48.4392L48.4105 49.5021C48.4073 49.5047 48.404 49.5072 48.4006 49.5096L45.7702 51.3234C45.747 51.3393 45.7196 51.3479 45.6915 51.3479H41.2037C41.1755 51.3479 41.148 51.3393 41.1248 51.3232L38.5059 49.5094C38.5027 49.5072 38.4997 49.5049 38.4967 49.5025L37.2046 48.4396C37.1502 48.3949 37.1375 48.3163 37.1751 48.2566ZM38.2594 48.9459L38.6684 49.2823L41.2469 51.0681H45.6484L48.2382 49.2824L48.6499 48.9407L45.9819 50.2137C45.9381 50.2346 45.8866 50.2311 45.8461 50.2044C45.8055 50.1777 45.7817 50.1317 45.7833 50.0829L45.8158 49.0531L45.6061 48.8755H41.3021L41.1018 49.0521L41.1235 50.0844C41.1245 50.1329 41.1005 50.1784 41.0601 50.2047C41.0197 50.2311 40.9686 50.2345 40.925 50.2138L38.2594 48.9459Z" fill="#C0AC9D"/>
<path d="M45.6339 46.402L45.0801 46.0092H41.8267L41.2729 46.402L40.9614 48.9899L41.2498 48.7357H45.657L45.9569 48.9899L45.6339 46.402Z" fill="#161616"/>
<path fill-rule="evenodd" clip-rule="evenodd" d="M41.7465 45.8951C41.7699 45.8785 41.7979 45.8696 41.8266 45.8696H45.08C45.1087 45.8696 45.1367 45.8785 45.1602 45.8951L45.7139 46.2879C45.7459 46.3106 45.7669 46.3458 45.7718 46.3848L46.0948 48.9726C46.1019 49.0298 46.0735 49.0855 46.0232 49.1129C45.9729 49.1404 45.911 49.1341 45.8672 49.097L45.6061 48.8758H41.3021L41.053 49.0953C41.0096 49.1334 40.9474 49.1408 40.8964 49.1137C40.8454 49.0867 40.8164 49.0308 40.8233 48.9733L41.1348 46.3854C41.1395 46.3461 41.1605 46.3107 41.1927 46.2879L41.7465 45.8951ZM41.8707 46.1493L41.4035 46.4807L41.1431 48.644L41.1581 48.6307C41.1835 48.6084 41.216 48.596 41.2498 48.596H45.6569C45.6897 48.596 45.7214 48.6077 45.7465 48.6289L45.7746 48.6528L45.5035 46.4809L45.0359 46.1493H41.8707Z" fill="#161616"/>
<path d="M57.4017 32.712L58.3824 27.9291L56.9056 23.4813L45.634 31.8571L49.9719 35.5309L56.098 37.3216L57.4479 35.7388L56.8595 35.3114L57.794 34.4565L57.0787 33.9019L58.0132 33.1857L57.4017 32.712Z" fill="#763E1A"/>
<path fill-rule="evenodd" clip-rule="evenodd" d="M56.9472 23.3479C56.9896 23.3614 57.0231 23.3945 57.0372 23.437L58.5139 27.8848C58.5217 27.9082 58.5232 27.9332 58.5182 27.9574L57.5551 32.6546L58.0977 33.0749C58.132 33.1014 58.152 33.1425 58.1519 33.186C58.1518 33.2296 58.1315 33.2705 58.0971 33.2969L57.3069 33.9026L57.8785 34.3457C57.9111 34.371 57.9309 34.4095 57.9326 34.4508C57.9343 34.4922 57.9176 34.5321 57.8872 34.56L57.0794 35.2989L57.529 35.6255C57.5605 35.6484 57.581 35.6835 57.5856 35.7224C57.5902 35.7612 57.5784 35.8002 57.5531 35.8299L56.2033 37.4127C56.1677 37.4543 56.1113 37.4712 56.0589 37.4559L49.9328 35.6652C49.9141 35.6598 49.8968 35.6505 49.882 35.6379L45.5441 31.9641C45.5116 31.9365 45.4933 31.8955 45.4947 31.8527C45.4961 31.8099 45.5168 31.7701 45.5511 31.7446L56.8226 23.3688C56.8584 23.3422 56.9048 23.3344 56.9472 23.3479ZM45.8581 31.8643L50.0387 35.4049L56.0505 37.1622L57.2436 35.7632L56.7777 35.4248C56.7437 35.4001 56.7227 35.3614 56.7203 35.3193C56.7179 35.2772 56.7346 35.2363 56.7656 35.208L57.5773 34.4654L56.9934 34.0127C56.9592 33.9862 56.9392 33.9451 56.9393 33.9016C56.9394 33.8581 56.9596 33.8171 56.994 33.7907L57.7842 33.1851L57.3165 32.8228C57.2744 32.7902 57.2544 32.7362 57.2652 32.6838L58.2383 27.9377L56.834 23.7082L45.8581 31.8643Z" fill="#763E1A"/>
<path d="M28.5244 27.9287L29.5166 32.7116L28.8821 33.1852L29.8281 33.9015L29.1128 34.4561L30.0473 35.311L29.4589 35.7384L30.8087 37.3212L36.9348 35.5305L41.2727 31.8567L30.0011 23.4808L28.5244 27.9287Z" fill="#763E1A"/>
<path fill-rule="evenodd" clip-rule="evenodd" d="M29.9594 23.3479C30.0018 23.3344 30.0481 23.3422 30.0839 23.3688L41.3555 31.7446C41.3898 31.7701 41.4105 31.8099 41.4119 31.8527C41.4132 31.8955 41.395 31.9365 41.3625 31.9641L37.0246 35.6379C37.0097 35.6505 36.9924 35.6598 36.9738 35.6652L30.8477 37.4559C30.7953 37.4712 30.7388 37.4543 30.7033 37.4127L29.3535 35.8299C29.3282 35.8002 29.3164 35.7612 29.321 35.7224C29.3255 35.6835 29.3461 35.6484 29.3776 35.6255L29.8271 35.2989L29.0194 34.56C28.9889 34.5321 28.9723 34.4922 28.974 34.4508C28.9757 34.4095 28.9955 34.371 29.028 34.3457L29.5988 33.9033L28.7986 33.2974C28.7635 33.2709 28.743 33.2293 28.7431 33.1852C28.7433 33.1411 28.7641 33.0997 28.7993 33.0734L29.3624 32.653L28.3884 27.9577C28.3834 27.9335 28.3849 27.9083 28.3927 27.8848L29.8694 23.437C29.8835 23.3945 29.9169 23.3614 29.9594 23.3479ZM30.0726 23.7082L28.6684 27.9376L29.6529 32.6835C29.6639 32.7368 29.6432 32.7918 29.5996 32.8243L29.1145 33.1865L29.9119 33.7902C29.9466 33.8165 29.9671 33.8575 29.9673 33.9012C29.9675 33.9448 29.9475 33.9861 29.9131 34.0127L29.3293 34.4654L30.141 35.208C30.172 35.2363 30.1886 35.2772 30.1863 35.3193C30.1839 35.3614 30.1628 35.4001 30.1289 35.4248L29.663 35.7632L30.8561 37.1622L36.8679 35.4049L41.0485 31.8643L30.0726 23.7082Z" fill="#763E1A"/>
<path d="M56.0983 37.3215L49.9722 35.5308L51.8181 38.3266L49.0608 43.7217L52.7065 43.6755H58.1519L56.0983 37.3215Z" fill="#F5841F"/>
<path fill-rule="evenodd" clip-rule="evenodd" d="M49.8598 35.4479C49.8944 35.4006 49.9546 35.38 50.0107 35.3964L56.1368 37.1871C56.181 37.2 56.216 37.2341 56.2302 37.2781L58.2838 43.6322C58.2976 43.6748 58.2902 43.7214 58.2641 43.7576C58.2379 43.7939 58.1961 43.8153 58.1516 43.8153H52.707L49.0622 43.8615C49.0134 43.8621 48.9679 43.837 48.9422 43.7953C48.9165 43.7535 48.9145 43.7013 48.9368 43.6577L51.6568 38.3355L49.856 35.608C49.8237 35.5591 49.8252 35.4952 49.8598 35.4479ZM50.2979 35.7716L51.9336 38.2491C51.9615 38.2913 51.9645 38.3453 51.9415 38.3904L49.2898 43.5789L52.7061 43.5356L57.9601 43.5356L55.9885 37.435L50.2979 35.7716Z" fill="#F5841F"/>
<path d="M36.9352 35.5308L30.8091 37.3215L28.7671 43.6755H34.201L37.8467 43.7217L35.0893 38.3266L36.9352 35.5308Z" fill="#F5841F"/>
<path fill-rule="evenodd" clip-rule="evenodd" d="M37.0472 35.4479C37.0818 35.4952 37.0833 35.5591 37.051 35.608L35.2502 38.3355L37.9703 43.6577C37.9926 43.7013 37.9905 43.7535 37.9648 43.7953C37.9391 43.837 37.8936 43.8621 37.8448 43.8615L34.2009 43.8153H28.767C28.7225 43.8153 28.6807 43.7939 28.6546 43.7577C28.6284 43.7216 28.621 43.675 28.6347 43.6324L30.6767 37.2784C30.6909 37.2342 30.7259 37.2 30.7702 37.1871L36.8963 35.3964C36.9524 35.38 37.0126 35.4006 37.0472 35.4479ZM30.9187 37.435L28.9581 43.5356H34.2027L37.6172 43.5789L34.9656 38.3904C34.9425 38.3453 34.9455 38.2913 34.9734 38.2491L36.6091 35.7716L30.9187 37.435Z" fill="#F5841F"/>
<path d="M45.2415 38.6269L45.6338 31.857L47.4104 27.0394H39.4961L41.2728 31.857L41.665 38.6269L41.815 40.7527L41.8266 46.0092H45.08L45.0915 40.7527L45.2415 38.6269Z" fill="#F5841F"/>
<path fill-rule="evenodd" clip-rule="evenodd" d="M39.3821 26.9596C39.4081 26.9221 39.4507 26.8997 39.4962 26.8997H47.4106C47.4561 26.8997 47.4987 26.9221 47.5247 26.9596C47.5507 26.9972 47.5568 27.0452 47.541 27.0881L45.7715 31.8861L45.3804 38.6369L45.2307 40.7579L45.2192 46.0096C45.219 46.0867 45.1568 46.1492 45.0801 46.1492H41.8267C41.75 46.1492 41.6878 46.0867 41.6876 46.0096L41.6761 40.7579L41.5263 38.6352L41.1353 31.8861L39.3659 27.0881C39.35 27.0452 39.3561 26.9972 39.3821 26.9596ZM39.6961 27.1794L41.4033 31.8084C41.4081 31.8214 41.411 31.8351 41.4118 31.8489L41.8039 38.6171L41.804 38.6189L41.9539 40.7429C41.9541 40.746 41.9542 40.7492 41.9542 40.7524L41.9655 45.8695H44.9414L44.9526 40.7524C44.9526 40.7509 44.9526 40.7494 44.9527 40.7479C44.9527 40.7462 44.9528 40.7445 44.9529 40.7429L45.1028 38.6189L45.1029 38.6171L45.4951 31.8489C45.4959 31.8351 45.4987 31.8214 45.5035 31.8084L47.2107 27.1794H39.6961Z" fill="#F5841F"/>
<path d="M73.3359 37.8401H93.6552" stroke="#2C56DD" stroke-width="2" stroke-linecap="round" stroke-linejoin="round" stroke-dasharray="1 5"/>
<defs>
<filter id="filter0_d" x="79.3562" y="-6.10352e-05" width="87.3659" height="87.3659" filterUnits="userSpaceOnUse" color-interpolation-filters="sRGB">
<feFlood flood-opacity="0" result="BackgroundImageFix"/>
<feColorMatrix in="SourceAlpha" type="matrix" values="0 0 0 0 0 0 0 0 0 0 0 0 0 0 0 0 0 0 127 0"/>
<feOffset dy="6"/>
<feGaussianBlur stdDeviation="7.5"/>
<feColorMatrix type="matrix" values="0 0 0 0 0 0 0 0 0 0 0 0 0 0 0 0 0 0 0.07 0"/>
<feBlend mode="normal" in2="BackgroundImageFix" result="effect1_dropShadow"/>
<feBlend mode="normal" in="SourceGraphic" in2="effect1_dropShadow" result="shape"/>
</filter>
<filter id="filter1_d" x="0" y="0" width="87.3659" height="87.3659" filterUnits="userSpaceOnUse" color-interpolation-filters="sRGB">
<feFlood flood-opacity="0" result="BackgroundImageFix"/>
<feColorMatrix in="SourceAlpha" type="matrix" values="0 0 0 0 0 0 0 0 0 0 0 0 0 0 0 0 0 0 127 0"/>
<feOffset dy="6"/>
<feGaussianBlur stdDeviation="7.5"/>
<feColorMatrix type="matrix" values="0 0 0 0 0 0 0 0 0 0 0 0 0 0 0 0 0 0 0.07 0"/>
<feBlend mode="normal" in2="BackgroundImageFix" result="effect1_dropShadow"/>
<feBlend mode="normal" in="SourceGraphic" in2="effect1_dropShadow" result="shape"/>
</filter>
</defs>
</svg>
