<svg width="646" height="69" viewBox="0 0 646 69" fill="none" xmlns="http://www.w3.org/2000/svg">
<g clip-path="url(#clip0)">
<path d="M401.773 4.45166H403.773V64.5484H401.773V4.45166Z" fill="#161616"/>
<path d="M428.895 18.2316H432.621V46.6774H428.895V18.2316Z" fill="black"/>
<path d="M439.564 26.6452H443.01V29.7302C443.704 28.5282 444.612 27.6468 445.734 27.0859C446.856 26.525 448.071 26.2445 449.38 26.2445C450.502 26.2445 451.53 26.4315 452.465 26.8054C453.4 27.1794 454.188 27.7269 454.829 28.4481C455.496 29.1425 456.017 29.9973 456.391 31.0122C456.765 32.0005 456.952 33.1089 456.952 34.3376V46.6774H453.547V34.8584C453.547 33.1757 453.106 31.8536 452.225 30.892C451.37 29.9038 450.235 29.4096 448.819 29.4096C448.018 29.4096 447.257 29.5699 446.535 29.8904C445.841 30.2109 445.227 30.6917 444.692 31.3327C444.185 31.9471 443.771 32.7083 443.45 33.6164C443.157 34.5245 443.01 35.5662 443.01 36.7414V46.6774H439.564V26.6452Z" fill="black"/>
<path d="M469.207 47.0781C467.417 47.0781 465.814 46.7042 464.399 45.9563C462.983 45.1817 461.968 44.0065 461.354 42.4306L464.158 40.8681C464.532 41.8831 465.187 42.671 466.122 43.2319C467.083 43.7661 468.125 44.0332 469.247 44.0332C470.208 44.0332 471.023 43.8062 471.691 43.3521C472.385 42.8713 472.732 42.2036 472.732 41.3489C472.732 40.6277 472.478 40.0267 471.971 39.546C471.464 39.0652 470.555 38.6245 469.247 38.2238L467.243 37.5828C465.587 37.102 464.332 36.3675 463.477 35.3793C462.649 34.3643 462.235 33.149 462.235 31.7334C462.235 30.8787 462.409 30.1174 462.756 29.4497C463.13 28.7553 463.624 28.181 464.239 27.7269C464.88 27.2462 465.614 26.8856 466.442 26.6452C467.27 26.3781 468.165 26.2445 469.126 26.2445C470.622 26.2445 471.931 26.5517 473.053 27.166C474.175 27.7536 475.069 28.6083 475.737 29.7302L473.173 31.493C472.719 30.852 472.145 30.3178 471.45 29.8904C470.782 29.4363 469.968 29.2093 469.006 29.2093C468.152 29.2093 467.377 29.423 466.682 29.8503C466.015 30.2777 465.681 30.8653 465.681 31.6132C465.681 32.2275 465.868 32.7751 466.242 33.2558C466.642 33.7366 467.404 34.1506 468.525 34.4978L470.729 35.1789C472.465 35.7131 473.801 36.4476 474.735 37.3825C475.697 38.3173 476.178 39.546 476.178 41.0684C476.178 42.03 476.004 42.8847 475.657 43.6325C475.31 44.3804 474.816 45.0081 474.175 45.5156C473.56 46.0231 472.826 46.4103 471.971 46.6774C471.116 46.9445 470.195 47.0781 469.207 47.0781Z" fill="black"/>
<path d="M488.771 46.8778C487.889 46.8778 487.074 46.7576 486.327 46.5172C485.579 46.2501 484.924 45.8762 484.363 45.3954C483.829 44.8879 483.402 44.2469 483.081 43.4723C482.788 42.6977 482.641 41.7896 482.641 40.7479V29.8103H478.394V26.6452H482.641V21.0762H486.086V26.6452H491.856V29.8103H486.086V40.3072C486.086 41.5893 486.367 42.484 486.928 42.9915C487.488 43.4723 488.316 43.7127 489.412 43.7127C489.839 43.7127 490.266 43.686 490.694 43.6325C491.148 43.5524 491.535 43.4456 491.856 43.312V46.397C491.428 46.5305 490.961 46.6374 490.453 46.7175C489.946 46.8244 489.385 46.8778 488.771 46.8778Z" fill="black"/>
<path d="M498.02 21.2765C497.325 21.2765 496.738 21.0495 496.257 20.5954C495.776 20.1147 495.536 19.5271 495.536 18.8326C495.536 18.1649 495.776 17.5906 496.257 17.1098C496.738 16.6291 497.325 16.3887 498.02 16.3887C498.714 16.3887 499.289 16.6291 499.743 17.1098C500.197 17.5906 500.424 18.1649 500.424 18.8326C500.424 19.5271 500.197 20.1147 499.743 20.5954C499.289 21.0495 498.714 21.2765 498.02 21.2765ZM496.257 26.6452H499.703V46.6774H496.257V26.6452Z" fill="black"/>
<path d="M514.007 46.8778C513.125 46.8778 512.31 46.7576 511.563 46.5172C510.815 46.2501 510.16 45.8762 509.599 45.3954C509.065 44.8879 508.638 44.2469 508.317 43.4723C508.024 42.6977 507.877 41.7896 507.877 40.7479V29.8103H503.63V26.6452H507.877V21.0762H511.322V26.6452H517.091V29.8103H511.322V40.3072C511.322 41.5893 511.603 42.484 512.164 42.9915C512.724 43.4723 513.552 43.7127 514.648 43.7127C515.075 43.7127 515.502 43.686 515.93 43.6325C516.384 43.5524 516.771 43.4456 517.091 43.312V46.397C516.664 46.5305 516.197 46.6374 515.689 46.7175C515.182 46.8244 514.621 46.8778 514.007 46.8778Z" fill="black"/>
<path d="M528.584 47.0781C527.489 47.0781 526.488 46.8911 525.58 46.5172C524.671 46.1165 523.897 45.569 523.256 44.8745C522.615 44.1801 522.107 43.3387 521.733 42.3505C521.386 41.3355 521.212 40.2003 521.212 38.945V26.6452H524.658V38.4242C524.658 40.1069 525.059 41.4424 525.86 42.4306C526.688 43.4189 527.796 43.913 529.185 43.913C529.96 43.913 530.681 43.7527 531.349 43.4322C532.043 43.085 532.631 42.6042 533.112 41.9899C533.619 41.3489 534.02 40.5743 534.314 39.6662C534.607 38.758 534.754 37.7297 534.754 36.5812V26.6452H538.2V46.6774H534.754V43.5925C534.087 44.7677 533.205 45.6491 532.11 46.2367C531.042 46.7976 529.866 47.0781 528.584 47.0781Z" fill="black"/>
<path d="M552.467 46.8778C551.585 46.8778 550.771 46.7576 550.023 46.5172C549.275 46.2501 548.621 45.8762 548.06 45.3954C547.526 44.8879 547.098 44.2469 546.778 43.4723C546.484 42.6977 546.337 41.7896 546.337 40.7479V29.8103H542.09V26.6452H546.337V21.0762H549.783V26.6452H555.552V29.8103H549.783V40.3072C549.783 41.5893 550.063 42.484 550.624 42.9915C551.185 43.4723 552.013 43.7127 553.108 43.7127C553.535 43.7127 553.963 43.686 554.39 43.6325C554.844 43.5524 555.231 43.4456 555.552 43.312V46.397C555.124 46.5305 554.657 46.6374 554.15 46.7175C553.642 46.8244 553.081 46.8778 552.467 46.8778Z" fill="black"/>
<path d="M561.716 21.2765C561.022 21.2765 560.434 21.0495 559.953 20.5954C559.473 20.1147 559.232 19.5271 559.232 18.8326C559.232 18.1649 559.473 17.5906 559.953 17.1098C560.434 16.6291 561.022 16.3887 561.716 16.3887C562.411 16.3887 562.985 16.6291 563.439 17.1098C563.893 17.5906 564.12 18.1649 564.12 18.8326C564.12 19.5271 563.893 20.1147 563.439 20.5954C562.985 21.0495 562.411 21.2765 561.716 21.2765ZM559.953 26.6452H563.399V46.6774H559.953V26.6452Z" fill="black"/>
<path d="M578.825 47.0781C577.302 47.0781 575.9 46.811 574.618 46.2768C573.336 45.7159 572.227 44.968 571.292 44.0332C570.358 43.0984 569.623 42.0033 569.089 40.7479C568.581 39.4658 568.328 38.1036 568.328 36.6613C568.328 35.219 568.581 33.8702 569.089 32.6148C569.623 31.3327 570.358 30.2243 571.292 29.2894C572.227 28.3546 573.336 27.6201 574.618 27.0859C575.9 26.525 577.302 26.2445 578.825 26.2445C580.32 26.2445 581.709 26.525 582.991 27.0859C584.273 27.6201 585.382 28.3546 586.317 29.2894C587.252 30.2243 587.973 31.3327 588.48 32.6148C589.014 33.8702 589.281 35.219 589.281 36.6613C589.281 38.1036 589.014 39.4658 588.48 40.7479C587.973 42.0033 587.252 43.0984 586.317 44.0332C585.382 44.968 584.273 45.7159 582.991 46.2768C581.709 46.811 580.32 47.0781 578.825 47.0781ZM578.825 43.8729C579.866 43.8729 580.814 43.686 581.669 43.312C582.524 42.9381 583.245 42.4306 583.833 41.7896C584.447 41.1218 584.914 40.3606 585.235 39.5059C585.582 38.6245 585.756 37.6763 585.756 36.6613C585.756 35.6731 585.582 34.7382 585.235 33.8568C584.914 32.9754 584.447 32.2142 583.833 31.5731C583.245 30.9054 582.524 30.3845 581.669 30.0106C580.814 29.6367 579.866 29.4497 578.825 29.4497C577.783 29.4497 576.835 29.6367 575.98 30.0106C575.125 30.3845 574.391 30.9054 573.776 31.5731C573.162 32.2142 572.681 32.9754 572.334 33.8568C572.014 34.7382 571.853 35.6731 571.853 36.6613C571.853 37.6763 572.014 38.6245 572.334 39.5059C572.681 40.3606 573.162 41.1218 573.776 41.7896C574.391 42.4306 575.125 42.9381 575.98 43.312C576.835 43.686 577.783 43.8729 578.825 43.8729Z" fill="black"/>
<path d="M594.227 26.6452H597.673V29.7302C598.367 28.5282 599.275 27.6468 600.397 27.0859C601.519 26.525 602.734 26.2445 604.043 26.2445C605.165 26.2445 606.193 26.4315 607.128 26.8054C608.063 27.1794 608.851 27.7269 609.492 28.4481C610.16 29.1425 610.68 29.9973 611.054 31.0122C611.428 32.0005 611.615 33.1089 611.615 34.3376V46.6774H608.21V34.8584C608.21 33.1757 607.769 31.8536 606.888 30.892C606.033 29.9038 604.898 29.4096 603.482 29.4096C602.681 29.4096 601.92 29.5699 601.198 29.8904C600.504 30.2109 599.89 30.6917 599.355 31.3327C598.848 31.9471 598.434 32.7083 598.113 33.6164C597.82 34.5245 597.673 35.5662 597.673 36.7414V46.6774H594.227V26.6452Z" fill="black"/>
<path d="M626.073 47.0781C624.658 47.0781 623.349 46.811 622.147 46.2768C620.972 45.7159 619.943 44.968 619.062 44.0332C618.181 43.0716 617.486 41.9632 616.979 40.7078C616.498 39.4525 616.257 38.1036 616.257 36.6613C616.257 35.219 616.498 33.8702 616.979 32.6148C617.486 31.3594 618.181 30.2643 619.062 29.3295C619.943 28.368 620.972 27.6201 622.147 27.0859C623.349 26.525 624.658 26.2445 626.073 26.2445C627.596 26.2445 628.985 26.5918 630.24 27.2862C631.495 27.954 632.457 28.7686 633.125 29.7302V26.6452H636.57V46.6774H633.125V43.5925C632.457 44.554 631.495 45.382 630.24 46.0765C628.985 46.7442 627.596 47.0781 626.073 47.0781ZM626.594 43.913C627.609 43.913 628.531 43.726 629.359 43.3521C630.187 42.9782 630.894 42.4707 631.482 41.8296C632.096 41.1619 632.564 40.3873 632.884 39.5059C633.231 38.6245 633.405 37.6763 633.405 36.6613C633.405 35.6463 633.231 34.6982 632.884 33.8167C632.564 32.9353 632.096 32.1741 631.482 31.5331C630.894 30.8653 630.187 30.3445 629.359 29.9705C628.531 29.5966 627.609 29.4096 626.594 29.4096C625.579 29.4096 624.644 29.5966 623.79 29.9705C622.962 30.3445 622.24 30.8653 621.626 31.5331C621.038 32.1741 620.571 32.9353 620.224 33.8167C619.903 34.6982 619.743 35.6463 619.743 36.6613C619.743 37.6763 619.903 38.6245 620.224 39.5059C620.571 40.3873 621.038 41.1619 621.626 41.8296C622.24 42.4707 622.962 42.9782 623.79 43.3521C624.644 43.726 625.579 43.913 626.594 43.913Z" fill="black"/>
<path d="M643.056 16.6291H646.501V46.6774H643.056V16.6291Z" fill="black"/>
<g clip-path="url(#clip1)">
<path d="M334.525 34.9258C332.557 33.6232 330.386 32.6968 328.33 31.539C326.999 30.7863 325.58 30.1206 324.423 29.1653C322.454 27.5443 322.859 24.3601 324.915 22.9707C327.867 21.0023 332.759 22.1023 333.28 26.1259C333.28 26.2128 333.367 26.2706 333.454 26.2706H337.912C338.028 26.2706 338.114 26.1838 338.085 26.0681C337.854 23.2892 336.783 20.9734 334.814 19.4971C332.933 18.0787 330.791 17.326 328.504 17.326C316.723 17.326 315.652 29.8022 321.991 33.7389C322.715 34.2021 328.938 37.3284 331.138 38.6888C333.338 40.0494 334.033 42.5388 333.078 44.5072C332.209 46.3019 329.951 47.5466 327.694 47.4019C325.233 47.2572 323.323 45.9256 322.657 43.8414C322.541 43.4651 322.483 42.7414 322.483 42.423C322.483 42.3361 322.396 42.2493 322.309 42.2493H317.475C317.388 42.2493 317.302 42.3361 317.302 42.423C317.302 45.9256 318.17 47.865 320.544 49.6308C322.773 51.3097 325.204 52.0044 327.722 52.0044C334.322 52.0044 337.738 48.2703 338.433 44.3914C339.041 40.5993 337.912 37.1836 334.525 34.9258V34.9258Z" fill="#161616"/>
<path d="M127.461 17.9514H120.137C120.05 17.9514 119.992 18.0093 119.964 18.0672L115.998 31.1512C115.94 31.3249 115.708 31.3249 115.65 31.1512L111.685 18.0672C111.656 17.9804 111.598 17.9514 111.511 17.9514H104.13C104.043 17.9514 103.956 18.0383 103.956 18.1251V51.5298C103.956 51.6166 104.043 51.7035 104.13 51.7035H108.964C109.051 51.7035 109.137 51.6166 109.137 51.5298V26.1434C109.137 25.9408 109.427 25.9118 109.485 26.0855L113.479 39.2563L113.769 40.1826C113.798 40.2695 113.856 40.2984 113.943 40.2984H117.648C117.735 40.2984 117.793 40.2405 117.821 40.1826L118.111 39.2563L122.106 26.0855C122.163 25.8829 122.453 25.9408 122.453 26.1434V51.5298C122.453 51.6166 122.54 51.7035 122.627 51.7035H127.461C127.548 51.7035 127.634 51.6166 127.634 51.5298V18.1251C127.634 18.0383 127.548 17.9514 127.461 17.9514V17.9514Z" fill="#161616"/>
<path d="M260.509 17.9514C260.422 17.9514 260.364 18.0093 260.335 18.0672L256.369 31.1512C256.311 31.3249 256.08 31.3249 256.022 31.1512L252.056 18.0672C252.027 17.9804 251.969 17.9514 251.883 17.9514H244.53C244.443 17.9514 244.356 18.0383 244.356 18.1251V51.5298C244.356 51.6166 244.443 51.7035 244.53 51.7035H249.364C249.451 51.7035 249.538 51.6166 249.538 51.5298V26.1434C249.538 25.9408 249.827 25.9118 249.885 26.0855L253.88 39.2563L254.169 40.1826C254.198 40.2695 254.256 40.2984 254.343 40.2984H258.048C258.135 40.2984 258.193 40.2405 258.222 40.1826L258.511 39.2563L262.506 26.0855C262.564 25.8829 262.853 25.9408 262.853 26.1434V51.5298C262.853 51.6166 262.94 51.7035 263.027 51.7035H267.861C267.948 51.7035 268.035 51.6166 268.035 51.5298V18.1251C268.035 18.0383 267.948 17.9514 267.861 17.9514H260.509Z" fill="#161616"/>
<path d="M198.153 17.9514H175.314C175.227 17.9514 175.141 18.0383 175.141 18.1251V22.2934C175.141 22.3803 175.227 22.4671 175.314 22.4671H184.143V51.5298C184.143 51.6166 184.23 51.7035 184.317 51.7035H189.151C189.238 51.7035 189.325 51.6166 189.325 51.5298V22.4671H198.153C198.24 22.4671 198.327 22.3803 198.327 22.2934V18.1251C198.327 18.0383 198.269 17.9514 198.153 17.9514V17.9514Z" fill="#161616"/>
<path d="M226.658 51.7034H231.058C231.174 51.7034 231.261 51.5877 231.232 51.4718L222.142 17.9514C222.113 17.8645 222.056 17.8356 221.969 17.8356H215.658C215.571 17.8356 215.514 17.8935 215.485 17.9514L206.395 51.4718C206.366 51.5877 206.453 51.7034 206.569 51.7034H210.969C211.056 51.7034 211.114 51.6455 211.143 51.5877L213.777 41.8325C213.806 41.7457 213.864 41.7167 213.95 41.7167H223.677C223.763 41.7167 223.821 41.7747 223.85 41.8325L226.484 51.5877C226.513 51.6455 226.6 51.7034 226.658 51.7034ZM215.108 36.9405L218.64 23.8855C218.698 23.7118 218.929 23.7118 218.987 23.8855L222.519 36.9405C222.548 37.0563 222.461 37.1721 222.345 37.1721H215.282C215.166 37.1721 215.079 37.0563 215.108 36.9405Z" fill="#161616"/>
<path d="M301.688 51.7034H306.088C306.204 51.7034 306.291 51.5877 306.262 51.4718L297.172 17.9514C297.143 17.8645 297.086 17.8356 296.999 17.8356H290.688C290.601 17.8356 290.544 17.8935 290.515 17.9514L281.425 51.4718C281.396 51.5877 281.483 51.7034 281.599 51.7034H285.999C286.086 51.7034 286.144 51.6455 286.173 51.5877L288.807 41.8325C288.836 41.7457 288.894 41.7167 288.98 41.7167H298.707C298.793 41.7167 298.851 41.7747 298.88 41.8325L301.514 51.5877C301.543 51.6455 301.601 51.7034 301.688 51.7034V51.7034ZM290.138 36.9405L293.67 23.8855C293.728 23.7118 293.959 23.7118 294.017 23.8855L297.549 36.9405C297.578 37.0563 297.491 37.1721 297.375 37.1721H290.312C290.196 37.1721 290.109 37.0563 290.138 36.9405V36.9405Z" fill="#161616"/>
<path d="M147.266 46.7709V36.408C147.266 36.3212 147.353 36.2343 147.44 36.2343H160.321C160.408 36.2343 160.495 36.1475 160.495 36.0606V31.8923C160.495 31.8055 160.408 31.7186 160.321 31.7186H147.44C147.353 31.7186 147.266 31.6318 147.266 31.5449V22.6872C147.266 22.6004 147.353 22.5135 147.44 22.5135H162.087C162.174 22.5135 162.261 22.4267 162.261 22.3398V18.1715C162.261 18.0846 162.174 17.9978 162.087 17.9978H142.259C142.172 17.9978 142.085 18.0846 142.085 18.1715V51.5472C142.085 51.634 142.172 51.7209 142.259 51.7209H162.695C162.782 51.7209 162.869 51.634 162.869 51.5472V47.1473C162.869 47.0604 162.782 46.9736 162.695 46.9736H147.411C147.324 46.9446 147.266 46.8867 147.266 46.7709V46.7709Z" fill="#161616"/>
<path d="M378.685 51.4314L361.954 34.1502C361.896 34.0922 361.896 33.9765 361.954 33.9185L377.007 18.2872C377.122 18.1715 377.035 17.9978 376.891 17.9978H370.725C370.667 17.9978 370.638 18.0267 370.609 18.0557L357.844 31.3133C357.728 31.4291 357.554 31.3423 357.554 31.1976V18.1715C357.554 18.0846 357.467 17.9978 357.381 17.9978H352.546C352.46 17.9978 352.373 18.0846 352.373 18.1715V51.5762C352.373 51.663 352.46 51.7498 352.546 51.7498H357.381C357.467 51.7498 357.554 51.663 357.554 51.5762V36.8711C357.554 36.7264 357.757 36.6396 357.844 36.7554L372.317 51.692C372.346 51.7209 372.404 51.7498 372.433 51.7498H378.599C378.714 51.7209 378.801 51.5183 378.685 51.4314Z" fill="#161616"/>
<path d="M71.6127 0L42.1816 21.5626L47.6544 8.85503L71.6127 0Z" fill="#6D95F9"/>
<path d="M3.7265 0.00012207L32.8956 21.7639L27.6848 8.85515L3.7265 0.00012207Z" fill="#6D95F9"/>
<path d="M61.0166 49.9969L53.1858 61.842L69.9537 66.4132L74.757 50.2557L61.0166 49.9969Z" fill="#6D95F9"/>
<path d="M0.611328 50.2557L5.38552 66.4132L22.1243 61.842L14.3226 49.9969L0.611328 50.2557Z" fill="#6D95F9"/>
<path d="M21.222 29.9863L16.5643 36.9438L33.1575 37.6913L32.6044 20.01L21.222 29.9863Z" fill="#6D95F9"/>
<path d="M54.1172 29.9859L42.5601 19.8083L42.1817 37.6909L58.7749 36.9434L54.1172 29.9859Z" fill="#6D95F9"/>
<path d="M22.1241 61.8414L32.1674 57.0401L23.5214 50.3701L22.1241 61.8414Z" fill="#6D95F9"/>
<path d="M43.1716 57.0401L53.1858 61.8414L51.8176 50.3701L43.1716 57.0401Z" fill="#6D95F9"/>
<path d="M53.1858 61.8414L43.1716 57.0402L43.9867 63.4802L43.8994 66.2114L53.1858 61.8414Z" fill="#D7C1B3"/>
<path d="M22.1245 61.8427L31.4399 66.2127L31.3817 63.4814L32.1677 57.0414L22.1245 61.8427Z" fill="#D7C1B3"/>
<path d="M31.6145 46.1146L23.2888 43.6996L29.1692 41.0259L31.6145 46.1146Z" fill="#2F343B"/>
<path d="M43.7243 46.1146L46.1696 41.0259L52.0791 43.6996L43.7243 46.1146Z" fill="#2F343B"/>
<path d="M22.1244 61.8416L23.5799 49.9966L14.3226 50.2553L22.1244 61.8416Z" fill="#497BF8"/>
<path d="M51.7592 49.9966L53.1856 61.8416L61.0164 50.2553L51.7592 49.9966Z" fill="#497BF8"/>
<path d="M58.7749 36.9437L42.1816 37.6912L43.7245 46.115L46.1698 41.0262L52.0794 43.7L58.7749 36.9437Z" fill="#497BF8"/>
<path d="M23.2889 43.7L29.1693 41.0262L31.6146 46.115L33.1575 37.6912L16.5643 36.9437L23.2889 43.7Z" fill="#497BF8"/>
<path d="M16.5643 36.9456L23.5218 50.3718L23.289 43.7018L16.5643 36.9456Z" fill="#6D95F9"/>
<path d="M52.0797 43.7L51.8177 50.37L58.7752 36.9437L52.0797 43.7Z" fill="#6D95F9"/>
<path d="M33.1574 37.6909L31.6146 46.1147L33.565 56.0622L34.0017 42.9522L33.1574 37.6909Z" fill="#6D95F9"/>
<path d="M42.1818 37.6909L41.3667 42.9234L41.7742 56.0622L43.7247 46.1147L42.1818 37.6909Z" fill="#6D95F9"/>
<path d="M43.7247 46.1157L41.7743 56.0632L43.1716 57.0407L51.8176 50.3707L52.0796 43.7007L43.7247 46.1157Z" fill="#B6CAFC"/>
<path d="M23.2888 43.7007L23.5216 50.3707L32.1676 57.0407L33.5649 56.0632L31.6145 46.1157L23.2888 43.7007Z" fill="#B6CAFC"/>
<path d="M43.8994 66.2112L43.9868 63.4799L43.2299 62.8474H32.1095L31.3817 63.4799L31.4399 66.2112L22.1245 61.8412L25.3849 64.4862L31.9931 69H43.3172L49.9545 64.4862L53.1858 61.8412L43.8994 66.2112Z" fill="#C0AD9E"/>
<path d="M43.1716 57.04L41.7743 56.0625H33.565L32.1676 57.04L31.3817 63.48L32.1094 62.8475H43.2298L43.9867 63.48L43.1716 57.04Z" fill="#2F343B"/>
<path d="M72.8648 22.9713L75.3392 11.0688L71.613 0L43.1716 20.8438L54.1173 29.9864L69.5752 34.4426L72.9812 30.5039L71.4966 29.4401L73.8545 27.3126L72.0497 25.9326L74.4077 24.1501L72.8648 22.9713Z" fill="#2C56DD"/>
<path d="M0 11.0706L2.50354 22.9732L0.902439 24.1519L3.28953 25.9344L1.48466 27.3144L3.84264 29.4419L2.35798 30.5057L5.76396 34.4445L21.2219 29.9882L32.1676 20.8457L3.7262 0.00183105L0 11.0706Z" fill="#2C56DD"/>
<path d="M69.575 34.4428L54.1171 29.9866L58.7749 36.9441L51.8174 50.3704L61.0164 50.2554H74.7568L69.575 34.4428Z" fill="#B6CAFC"/>
<path d="M21.2219 29.9866L5.76396 34.4428L0.611328 50.2554H14.3226L23.5216 50.3704L16.5641 36.9441L21.2219 29.9866Z" fill="#B6CAFC"/>
<path d="M42.1816 37.691L43.1713 20.8434L47.6544 8.85461H27.6843L32.1674 20.8434L33.1572 37.691L33.5356 42.981L33.5647 56.0623H41.774L41.8031 42.981L42.1816 37.691Z" fill="#B6CAFC"/>
</g>
</g>
<defs>
<clipPath id="clip0">
<rect width="645.484" height="69" fill="white"/>
</clipPath>
<clipPath id="clip1">
<rect width="378.74" height="69.304" fill="white"/>
</clipPath>
</defs>
</svg>
