<svg width="88" height="88" viewBox="0 0 88 88" fill="none" xmlns="http://www.w3.org/2000/svg">
<g filter="url(#filter0_d)">
<circle cx="43.6829" cy="37.6829" r="28.6829" fill="white"/>
</g>
<path fill-rule="evenodd" clip-rule="evenodd" d="M48.0175 46.1426C48.0175 46.4953 47.8331 46.7967 47.5732 47.0364C47.3129 47.2764 46.9522 47.4792 46.5304 47.6437C45.6846 47.9735 44.535 48.1716 43.2789 48.1716C42.0228 48.1716 40.8731 47.9735 40.0274 47.6437C39.6056 47.4792 39.2449 47.2764 38.9846 47.0364C38.7246 46.7967 38.5403 46.4953 38.5403 46.1426V22.9537C38.5403 22.6009 38.7246 22.2995 38.9846 22.0598C39.2449 21.8198 39.6056 21.617 40.0274 21.4525C40.8731 21.1227 42.0228 20.9246 43.2789 20.9246C44.535 20.9246 45.6846 21.1227 46.5304 21.4525C46.9522 21.617 47.3129 21.8198 47.5732 22.0598C47.8331 22.2995 48.0175 22.6009 48.0175 22.9537V46.1426Z" fill="white"/>
<path d="M38.5403 22.7015V46.3945M48.0175 22.7015V46.3945" stroke="black"/>
<path d="M48.0175 22.7016C48.0175 21.7202 45.8959 20.9246 43.2789 20.9246C40.6618 20.9246 38.5403 21.7202 38.5403 22.7016" stroke="black"/>
<path d="M48.0175 22.7015C48.0175 23.6829 45.8959 24.4785 43.2789 24.4785C40.6618 24.4785 38.5403 23.6829 38.5403 22.7015" stroke="black"/>
<path d="M48.0175 25.6632C48.0175 26.6446 45.8959 27.4402 43.2789 27.4402C40.6618 27.4402 38.5403 26.6446 38.5403 25.6632" stroke="black"/>
<path d="M48.0175 28.6248C48.0175 29.6062 45.8959 30.4017 43.2789 30.4017C40.6618 30.4017 38.5403 29.6062 38.5403 28.6248" stroke="black"/>
<path d="M48.0175 31.5863C48.0175 32.5677 45.8959 33.3633 43.2789 33.3633C40.6618 33.3633 38.5403 32.5677 38.5403 31.5863" stroke="black"/>
<path d="M48.0175 34.548C48.0175 35.5294 45.8959 36.325 43.2789 36.325C40.6618 36.325 38.5403 35.5294 38.5403 34.548" stroke="black"/>
<path d="M48.0175 37.5096C48.0175 38.491 45.8959 39.2866 43.2789 39.2866C40.6618 39.2866 38.5403 38.491 38.5403 37.5096" stroke="black"/>
<path d="M48.0175 40.4714C48.0175 41.4528 45.8959 42.2484 43.2789 42.2484C40.6618 42.2484 38.5403 41.4528 38.5403 40.4714" stroke="black"/>
<path d="M48.0175 43.4331C48.0175 44.4145 45.8959 45.2101 43.2789 45.2101C40.6618 45.2101 38.5403 44.4145 38.5403 43.4331" stroke="black"/>
<path d="M48.0175 46.3947C48.0175 47.3761 45.8959 48.1717 43.2789 48.1717C40.6618 48.1717 38.5403 47.3761 38.5403 46.3947" stroke="black"/>
<path fill-rule="evenodd" clip-rule="evenodd" d="M40.3178 52.9478C40.3178 53.1473 40.1334 53.3176 39.8735 53.4531C39.6132 53.5887 39.2525 54.2957 38.8306 54.3887C37.9849 54.5751 36.8353 54.687 35.5792 54.687C34.323 54.687 33.1734 54.5751 32.3277 54.3887C31.9059 54.2957 31.5452 53.5887 31.2849 53.4531C31.0249 53.3176 30.8406 53.1473 30.8406 52.9478V40.7674C30.8406 40.568 31.1729 40.3105 31.4329 40.175C31.6932 40.0394 31.9059 39.6779 32.3277 39.5849C33.1734 39.3985 34.323 39.2866 35.5792 39.2866C36.8353 39.2866 37.9849 39.3985 38.8306 39.5849C39.2525 39.6779 39.7255 40.4712 39.8735 40.5205C40.1334 41.2483 40.3178 40.8263 40.3178 41.0257V52.9478Z" fill="white"/>
<path d="M30.8406 41.0635V52.91M40.3178 41.0635V52.91" stroke="black"/>
<path d="M40.3178 41.0635C40.3178 40.0821 38.1962 39.2866 35.5792 39.2866C32.9621 39.2866 30.8406 40.0821 30.8406 41.0635" stroke="black"/>
<path d="M40.3178 41.0635C40.3178 42.0449 38.1962 42.8405 35.5792 42.8405C32.9621 42.8405 30.8406 42.0449 30.8406 41.0635" stroke="black"/>
<path d="M40.3178 44.0252C40.3178 45.0066 38.1962 45.8022 35.5792 45.8022C32.9621 45.8022 30.8406 45.0066 30.8406 44.0252" stroke="black"/>
<path d="M40.3178 46.9868C40.3178 47.9682 38.1962 48.7637 35.5792 48.7637C32.9621 48.7637 30.8406 47.9682 30.8406 46.9868" stroke="black"/>
<path d="M40.3178 49.9484C40.3178 50.9298 38.1962 51.7253 35.5792 51.7253C32.9621 51.7253 30.8406 50.9298 30.8406 49.9484" stroke="black"/>
<path d="M40.3178 52.91C40.3178 53.8914 38.1962 54.687 35.5792 54.687C32.9621 54.687 30.8406 53.8914 30.8406 52.91" stroke="black"/>
<path fill-rule="evenodd" clip-rule="evenodd" d="M55.1256 53.4709C55.1256 53.7854 54.9413 54.054 54.6813 54.2676C54.4211 54.4815 54.0603 54.6623 53.6385 54.8089C52.7928 55.1029 51.6432 55.2794 50.387 55.2794C49.1309 55.2794 47.9813 55.1029 47.1356 54.8089C46.7137 54.6623 46.353 54.4815 46.0927 54.2676C45.8328 54.054 45.6484 53.7854 45.6484 53.4709V32.8026C45.6484 32.4881 45.8328 32.2195 46.0927 32.0059C46.353 31.792 46.7137 31.6112 47.1356 31.4646C47.9813 31.1706 49.1309 30.9941 50.387 30.9941C51.6432 30.9941 52.7928 31.1706 53.6385 31.4646C54.0603 31.6112 54.4211 31.792 54.6813 32.0059C54.9413 32.2195 55.1256 32.4881 55.1256 32.8026V53.4709Z" fill="white"/>
<path d="M45.6484 32.771V53.5024M55.1256 32.771V53.5024" stroke="black"/>
<path d="M55.1256 32.7711C55.1256 31.7897 53.0041 30.9941 50.387 30.9941C47.77 30.9941 45.6484 31.7897 45.6484 32.7711" stroke="black"/>
<path d="M55.1256 32.771C55.1256 33.7524 53.0041 34.548 50.387 34.548C47.77 34.548 45.6484 33.7524 45.6484 32.771" stroke="black"/>
<path d="M55.1256 35.7327C55.1256 36.7141 53.0041 37.5097 50.387 37.5097C47.77 37.5097 45.6484 36.7141 45.6484 35.7327" stroke="black"/>
<path d="M55.1256 38.6943C55.1256 39.6757 53.0041 40.4713 50.387 40.4713C47.77 40.4713 45.6484 39.6757 45.6484 38.6943" stroke="black"/>
<path d="M55.1256 41.6559C55.1256 42.6373 53.0041 43.4329 50.387 43.4329C47.77 43.4329 45.6484 42.6373 45.6484 41.6559" stroke="black"/>
<path d="M55.1256 44.6176C55.1256 45.599 53.0041 46.3946 50.387 46.3946C47.77 46.3946 45.6484 45.599 45.6484 44.6176" stroke="black"/>
<path d="M55.1256 47.5792C55.1256 48.5606 53.0041 49.3562 50.387 49.3562C47.77 49.3562 45.6484 48.5606 45.6484 47.5792" stroke="black"/>
<path d="M55.1256 50.541C55.1256 51.5224 53.0041 52.3179 50.387 52.3179C47.77 52.3179 45.6484 51.5224 45.6484 50.541" stroke="black"/>
<path d="M55.1256 53.5027C55.1256 54.4841 53.0041 55.2797 50.387 55.2797C47.77 55.2797 45.6484 54.4841 45.6484 53.5027" stroke="black"/>
<defs>
<filter id="filter0_d" x="0" y="0" width="87.3659" height="87.3659" filterUnits="userSpaceOnUse" color-interpolation-filters="sRGB">
<feFlood flood-opacity="0" result="BackgroundImageFix"/>
<feColorMatrix in="SourceAlpha" type="matrix" values="0 0 0 0 0 0 0 0 0 0 0 0 0 0 0 0 0 0 127 0"/>
<feOffset dy="6"/>
<feGaussianBlur stdDeviation="7.5"/>
<feColorMatrix type="matrix" values="0 0 0 0 0 0 0 0 0 0 0 0 0 0 0 0 0 0 0.07 0"/>
<feBlend mode="normal" in2="BackgroundImageFix" result="effect1_dropShadow"/>
<feBlend mode="normal" in="SourceGraphic" in2="effect1_dropShadow" result="shape"/>
</filter>
</defs>
</svg>
