<svg width="16" height="16" viewBox="0 0 16 16" fill="none" xmlns="http://www.w3.org/2000/svg">
<path d="M9.46875 8L12.8438 4.65625C13.0312 4.46875 13.0312 4.125 12.8438 3.9375L12.0625 3.15625C11.875 2.96875 11.5312 2.96875 11.3438 3.15625L8 6.53125L4.625 3.15625C4.4375 2.96875 4.09375 2.96875 3.90625 3.15625L3.125 3.9375C2.9375 4.125 2.9375 4.46875 3.125 4.65625L6.5 8L3.125 11.375C2.9375 11.5625 2.9375 11.9062 3.125 12.0938L3.90625 12.875C4.09375 13.0625 4.4375 13.0625 4.625 12.875L8 9.5L11.3438 12.875C11.5312 13.0625 11.875 13.0625 12.0625 12.875L12.8438 12.0938C13.0312 11.9062 13.0312 11.5625 12.8438 11.375L9.46875 8Z" fill="#24292E"/>
</svg>
