<svg width="226" height="174" viewBox="0 0 226 174" fill="none" xmlns="http://www.w3.org/2000/svg">
<path d="M149.894 0L117.881 23.8425L123.834 9.79133L149.894 0Z" fill="#6D95F9"/>
<path d="M76.0533 0L107.781 24.065L102.113 9.79133L76.0533 0Z" fill="#6D95F9"/>
<path d="M138.369 55.2833L129.851 68.3808L148.089 73.4354L153.314 55.5694L138.369 55.2833Z" fill="#6D95F9"/>
<path d="M72.6649 55.5694L77.8579 73.4354L96.0648 68.3808L87.5788 55.2833L72.6649 55.5694Z" fill="#6D95F9"/>
<path d="M95.0835 33.1569L90.0172 40.8501L108.066 41.6766L107.464 22.1257L95.0835 33.1569Z" fill="#6D95F9"/>
<path d="M130.864 33.1565L118.293 21.9028L117.881 41.6762L135.93 40.8497L130.864 33.1565Z" fill="#6D95F9"/>
<path d="M96.0647 68.3803L106.989 63.0713L97.5846 55.696L96.0647 68.3803Z" fill="#6D95F9"/>
<path d="M118.958 63.0713L129.851 68.3803L128.363 55.696L118.958 63.0713Z" fill="#6D95F9"/>
<path d="M129.851 68.3804L118.958 63.0714L119.845 70.1924L119.75 73.2124L129.851 68.3804Z" fill="#D7C1B3"/>
<path d="M96.0651 68.3817L106.198 73.2138L106.134 70.1937L106.989 63.0728L96.0651 68.3817Z" fill="#D7C1B3"/>
<path d="M106.387 50.9907L97.3314 48.3204L103.728 45.3639L106.387 50.9907Z" fill="#2F343B"/>
<path d="M119.559 50.9907L122.219 45.3639L128.647 48.3204L119.559 50.9907Z" fill="#2F343B"/>
<path d="M96.065 68.3806L97.6482 55.2831L87.579 55.5692L96.065 68.3806Z" fill="#497BF8"/>
<path d="M128.299 55.2831L129.851 68.3806L138.368 55.5692L128.299 55.2831Z" fill="#497BF8"/>
<path d="M135.93 40.85L117.881 41.6765L119.56 50.991L122.219 45.3642L128.647 48.3206L135.93 40.85Z" fill="#497BF8"/>
<path d="M97.3315 48.3206L103.728 45.3642L106.388 50.991L108.066 41.6765L90.0171 40.85L97.3315 48.3206Z" fill="#497BF8"/>
<path d="M90.0172 40.8521L97.585 55.698L97.3317 48.3227L90.0172 40.8521Z" fill="#6D95F9"/>
<path d="M128.648 48.3206L128.363 55.6959L135.93 40.85L128.648 48.3206Z" fill="#6D95F9"/>
<path d="M108.066 41.6761L106.388 50.9906L108.509 61.99L108.984 47.4937L108.066 41.6761Z" fill="#6D95F9"/>
<path d="M117.882 41.6761L116.995 47.4619L117.438 61.99L119.56 50.9906L117.882 41.6761Z" fill="#6D95F9"/>
<path d="M119.56 50.9918L117.438 61.9911L118.958 63.072L128.363 55.6967L128.648 48.3214L119.56 50.9918Z" fill="#B6CAFC"/>
<path d="M97.3314 48.3214L97.5847 55.6967L106.989 63.072L108.509 61.9911L106.387 50.9918L97.3314 48.3214Z" fill="#B6CAFC"/>
<path d="M119.75 73.2122L119.845 70.1922L119.022 69.4928H106.926L106.134 70.1922L106.198 73.2122L96.0651 68.3801L99.6115 71.3048L106.799 76.2959H119.117L126.336 71.3048L129.851 68.3801L119.75 73.2122Z" fill="#C0AD9E"/>
<path d="M118.958 63.0713L117.438 61.9905H108.509L106.989 63.0713L106.134 70.1923L106.926 69.4929H119.022L119.845 70.1923L118.958 63.0713Z" fill="#2F343B"/>
<path d="M151.256 25.4002L153.947 12.2392L149.894 0L118.958 23.0478L130.864 33.157L147.678 38.0845L151.383 33.7292L149.768 32.553L152.333 30.2005L150.369 28.6746L152.934 26.7036L151.256 25.4002Z" fill="#2C56DD"/>
<path d="M72 12.2412L74.7231 25.4023L72.9816 26.7057L75.5781 28.6767L73.6149 30.2026L76.1797 32.5551L74.5648 33.7313L78.2695 38.0866L95.0833 33.1591L106.989 23.0499L76.053 0.0020752L72 12.2412Z" fill="#2C56DD"/>
<path d="M147.678 38.0847L130.864 33.1572L135.93 40.8504L128.362 55.6964L138.368 55.5692H153.314L147.678 38.0847Z" fill="#B6CAFC"/>
<path d="M95.0832 33.1572L78.2695 38.0847L72.6649 55.5692H87.5788L97.5847 55.6964L90.017 40.8504L95.0832 33.1572Z" fill="#B6CAFC"/>
<path d="M117.881 41.6763L118.958 23.0473L123.834 9.79089H102.113L106.989 23.0473L108.065 41.6763L108.477 47.5257L108.509 61.9901H117.438L117.47 47.5257L117.881 41.6763Z" fill="#B6CAFC"/>
<path d="M189.243 116.672C187.628 115.603 185.846 114.843 184.159 113.892C183.066 113.275 181.902 112.728 180.951 111.944C179.336 110.614 179.668 108 181.355 106.86C183.779 105.244 187.794 106.147 188.221 109.449C188.221 109.521 188.293 109.568 188.364 109.568H192.023C192.118 109.568 192.189 109.497 192.165 109.402C191.975 107.121 191.096 105.22 189.481 104.009C187.936 102.845 186.178 102.227 184.301 102.227C174.632 102.227 173.752 112.467 178.956 115.698C179.55 116.078 184.658 118.644 186.463 119.761C188.269 120.877 188.839 122.921 188.055 124.536C187.342 126.009 185.489 127.031 183.636 126.912C181.617 126.793 180.048 125.7 179.502 123.99C179.407 123.681 179.36 123.087 179.36 122.826C179.36 122.754 179.288 122.683 179.217 122.683H175.249C175.178 122.683 175.107 122.754 175.107 122.826C175.107 125.7 175.819 127.292 177.768 128.741C179.597 130.119 181.593 130.69 183.66 130.69C189.077 130.69 191.88 127.625 192.45 124.441C192.949 121.329 192.023 118.525 189.243 116.672Z" fill="#161616"/>
<path d="M19.292 102.74H13.2811C13.2098 102.74 13.1622 102.788 13.1385 102.835L9.88355 113.574C9.83606 113.717 9.64601 113.717 9.59845 113.574L6.34354 102.835C6.31977 102.764 6.27227 102.74 6.20099 102.74H0.142552C0.0712758 102.74 0 102.811 0 102.883V130.3C0 130.371 0.0712758 130.443 0.142552 130.443H4.11022C4.18149 130.443 4.25277 130.371 4.25277 130.3V109.464C4.25277 109.297 4.49037 109.274 4.53787 109.416L7.81656 120.226L8.05416 120.987C8.07794 121.058 8.12544 121.082 8.19671 121.082H11.2378C11.3091 121.082 11.3566 121.034 11.3803 120.987L11.6179 120.226L14.8966 109.416C14.9441 109.25 15.1817 109.297 15.1817 109.464V130.3C15.1817 130.371 15.253 130.443 15.3243 130.443H19.292C19.3632 130.443 19.4345 130.371 19.4345 130.3V102.883C19.4345 102.811 19.3632 102.74 19.292 102.74Z" fill="#161616"/>
<path d="M128.493 102.74C128.422 102.74 128.374 102.788 128.35 102.835L125.096 113.574C125.048 113.717 124.858 113.717 124.81 113.574L121.556 102.835C121.532 102.764 121.484 102.74 121.413 102.74H115.378C115.307 102.74 115.236 102.811 115.236 102.883V130.3C115.236 130.371 115.307 130.443 115.378 130.443H119.346C119.417 130.443 119.489 130.371 119.489 130.3V109.464C119.489 109.297 119.726 109.274 119.774 109.416L123.052 120.226L123.29 120.987C123.314 121.058 123.361 121.082 123.432 121.082H126.474C126.545 121.082 126.592 121.034 126.616 120.987L126.854 120.226L130.132 109.416C130.18 109.25 130.417 109.297 130.417 109.464V130.3C130.417 130.371 130.489 130.443 130.56 130.443H134.528C134.599 130.443 134.67 130.371 134.67 130.3V102.883C134.67 102.811 134.599 102.74 134.528 102.74H128.493Z" fill="#161616"/>
<path d="M77.314 102.74H58.5685C58.4972 102.74 58.4259 102.811 58.4259 102.883V106.304C58.4259 106.375 58.4972 106.446 58.5685 106.446H65.8149V130.3C65.8149 130.371 65.8861 130.443 65.9574 130.443H69.9251C69.9964 130.443 70.0676 130.371 70.0676 130.3V106.446H77.314C77.3853 106.446 77.4565 106.375 77.4565 106.304V102.883C77.4565 102.811 77.409 102.74 77.314 102.74Z" fill="#161616"/>
<path d="M100.71 130.443H104.321C104.416 130.443 104.487 130.348 104.463 130.253L97.0033 102.74C96.9795 102.669 96.932 102.645 96.8607 102.645H91.6814C91.6101 102.645 91.5625 102.693 91.5388 102.74L84.0786 130.253C84.0548 130.348 84.1261 130.443 84.2211 130.443H87.8325C87.9037 130.443 87.9512 130.395 87.975 130.348L90.137 122.341C90.1608 122.27 90.2083 122.246 90.2796 122.246H98.2624C98.3337 122.246 98.3813 122.293 98.405 122.341L100.567 130.348C100.591 130.395 100.662 130.443 100.71 130.443ZM91.2299 118.326L94.1285 107.611C94.176 107.468 94.3661 107.468 94.4136 107.611L97.3121 118.326C97.3359 118.421 97.2646 118.516 97.1696 118.516H91.3725C91.2774 118.516 91.2061 118.421 91.2299 118.326Z" fill="#161616"/>
<path d="M162.292 130.443H165.903C165.998 130.443 166.069 130.348 166.045 130.253L158.585 102.74C158.562 102.669 158.514 102.645 158.443 102.645H153.263C153.192 102.645 153.145 102.693 153.121 102.74L145.661 130.253C145.637 130.348 145.708 130.443 145.803 130.443H149.414C149.486 130.443 149.533 130.395 149.557 130.348L151.719 122.341C151.743 122.27 151.79 122.246 151.862 122.246H159.844C159.916 122.246 159.963 122.293 159.987 122.341L162.149 130.348C162.173 130.395 162.22 130.443 162.292 130.443ZM152.812 118.326L155.71 107.611C155.758 107.468 155.948 107.468 155.996 107.611L158.894 118.326C158.918 118.421 158.847 118.516 158.752 118.516H152.955C152.859 118.516 152.788 118.421 152.812 118.326Z" fill="#161616"/>
<path d="M35.5476 126.394V117.889C35.5476 117.817 35.6188 117.746 35.6901 117.746H46.2627C46.334 117.746 46.4053 117.675 46.4053 117.604V114.182C46.4053 114.111 46.334 114.04 46.2627 114.04H35.6901C35.6188 114.04 35.5476 113.968 35.5476 113.897V106.627C35.5476 106.556 35.6188 106.485 35.6901 106.485H47.712C47.7833 106.485 47.8546 106.413 47.8546 106.342V102.921C47.8546 102.849 47.7833 102.778 47.712 102.778H31.4374C31.3661 102.778 31.2948 102.849 31.2948 102.921V130.314C31.2948 130.386 31.3661 130.457 31.4374 130.457H48.2109C48.2822 130.457 48.3535 130.386 48.3535 130.314V126.703C48.3535 126.632 48.2822 126.561 48.2109 126.561H35.6664C35.5951 126.537 35.5476 126.489 35.5476 126.394Z" fill="#161616"/>
<path d="M225.488 130.219L211.756 116.035C211.708 115.988 211.708 115.893 211.756 115.845L224.11 103.016C224.205 102.921 224.134 102.778 224.015 102.778H218.955C218.907 102.778 218.884 102.802 218.86 102.826L208.382 113.707C208.287 113.802 208.145 113.731 208.145 113.612V102.921C208.145 102.849 208.073 102.778 208.002 102.778H204.034C203.963 102.778 203.892 102.849 203.892 102.921V130.338C203.892 130.409 203.963 130.481 204.034 130.481H208.002C208.073 130.481 208.145 130.409 208.145 130.338V118.269C208.145 118.15 208.311 118.079 208.382 118.174L220.262 130.433C220.285 130.457 220.333 130.481 220.357 130.481H225.417C225.512 130.457 225.583 130.291 225.488 130.219Z" fill="#161616"/>
<path d="M31 152.381H33.8081V173.7H31V152.381Z" fill="black"/>
<path d="M39.0408 158.687H41.6375V160.999C42.1609 160.098 42.8453 159.437 43.6908 159.017C44.5362 158.597 45.4521 158.386 46.4385 158.386C47.284 158.386 48.059 158.527 48.7635 158.807C49.4681 159.087 50.0619 159.497 50.545 160.038C51.0482 160.558 51.4408 161.199 51.7226 161.96C52.0044 162.7 52.1453 163.531 52.1453 164.452V173.7H49.5788V164.842C49.5788 163.581 49.2466 162.59 48.5823 161.869C47.9382 161.129 47.0827 160.758 46.0158 160.758C45.4119 160.758 44.8382 160.879 44.2947 161.119C43.7713 161.359 43.3083 161.719 42.9057 162.2C42.5232 162.66 42.2112 163.231 41.9697 163.911C41.7482 164.592 41.6375 165.372 41.6375 166.253V173.7H39.0408V158.687Z" fill="black"/>
<path d="M61.3809 174C60.0322 174 58.8244 173.72 57.7575 173.159C56.6907 172.579 55.9257 171.698 55.4627 170.517L57.5764 169.346C57.8582 170.107 58.3514 170.697 59.0559 171.117C59.7806 171.518 60.5657 171.718 61.4111 171.718C62.1358 171.718 62.7498 171.548 63.253 171.208C63.7764 170.847 64.0381 170.347 64.0381 169.706C64.0381 169.166 63.8468 168.715 63.4644 168.355C63.0819 167.995 62.3975 167.664 61.4111 167.364L59.9014 166.884C58.6533 166.523 57.7072 165.973 57.0631 165.232C56.439 164.472 56.127 163.561 56.127 162.5C56.127 161.859 56.2579 161.289 56.5196 160.789C56.8014 160.268 57.1738 159.838 57.6368 159.497C58.1199 159.137 58.6735 158.867 59.2975 158.687C59.9215 158.487 60.5959 158.386 61.3205 158.386C62.4478 158.386 63.4342 158.617 64.2796 159.077C65.1251 159.517 65.7994 160.158 66.3027 160.999L64.3702 162.32C64.028 161.839 63.5952 161.439 63.0718 161.119C62.5686 160.779 61.9546 160.608 61.23 160.608C60.5858 160.608 60.002 160.768 59.4787 161.089C58.9754 161.409 58.7238 161.849 58.7238 162.41C58.7238 162.87 58.8647 163.281 59.1465 163.641C59.4485 164.001 60.0222 164.312 60.8676 164.572L62.5283 165.082C63.8368 165.483 64.8433 166.033 65.5478 166.734C66.2725 167.434 66.6348 168.355 66.6348 169.496C66.6348 170.217 66.504 170.857 66.2423 171.418C65.9806 171.978 65.6082 172.449 65.1251 172.829C64.6621 173.209 64.1085 173.5 63.4644 173.7C62.8202 173.9 62.1257 174 61.3809 174Z" fill="black"/>
<path d="M76.1254 173.85C75.4611 173.85 74.8472 173.76 74.2835 173.58C73.7199 173.379 73.2267 173.099 72.804 172.739C72.4014 172.359 72.0793 171.878 71.8378 171.298C71.6163 170.717 71.5056 170.037 71.5056 169.256V161.059H68.305V158.687H71.5056V154.513H74.1024V158.687H78.4504V161.059H74.1024V168.926C74.1024 169.886 74.3137 170.557 74.7365 170.937C75.1592 171.298 75.7832 171.478 76.6085 171.478C76.9306 171.478 77.2527 171.458 77.5748 171.418C77.917 171.358 78.2089 171.278 78.4504 171.178V173.49C78.1283 173.59 77.7761 173.67 77.3936 173.73C77.0111 173.81 76.5884 173.85 76.1254 173.85Z" fill="black"/>
<path d="M83.0962 154.663C82.5728 154.663 82.1299 154.493 81.7676 154.153C81.4053 153.792 81.2241 153.352 81.2241 152.832C81.2241 152.331 81.4053 151.901 81.7676 151.54C82.1299 151.18 82.5728 151 83.0962 151C83.6196 151 84.0523 151.18 84.3946 151.54C84.7368 151.901 84.9079 152.331 84.9079 152.832C84.9079 153.352 84.7368 153.792 84.3946 154.153C84.0523 154.493 83.6196 154.663 83.0962 154.663ZM81.7676 158.687H84.3644V173.7H81.7676V158.687Z" fill="black"/>
<path d="M95.1446 173.85C94.4803 173.85 93.8664 173.76 93.3027 173.58C92.7391 173.379 92.2459 173.099 91.8232 172.739C91.4206 172.359 91.0985 171.878 90.8569 171.298C90.6355 170.717 90.5248 170.037 90.5248 169.256V161.059H87.3242V158.687H90.5248V154.513H93.1216V158.687H97.4696V161.059H93.1216V168.926C93.1216 169.886 93.3329 170.557 93.7556 170.937C94.1784 171.298 94.8024 171.478 95.6277 171.478C95.9498 171.478 96.2719 171.458 96.594 171.418C96.9362 171.358 97.2281 171.278 97.4696 171.178V173.49C97.1475 173.59 96.7953 173.67 96.4128 173.73C96.0303 173.81 95.6076 173.85 95.1446 173.85Z" fill="black"/>
<path d="M106.131 174C105.306 174 104.551 173.86 103.867 173.58C103.182 173.279 102.598 172.869 102.115 172.349C101.632 171.828 101.25 171.198 100.968 170.457C100.706 169.696 100.575 168.846 100.575 167.905V158.687H103.172V167.514C103.172 168.775 103.474 169.776 104.078 170.517C104.702 171.258 105.537 171.628 106.584 171.628C107.168 171.628 107.711 171.508 108.215 171.268C108.738 171.007 109.181 170.647 109.543 170.187C109.926 169.706 110.228 169.126 110.449 168.445C110.671 167.765 110.781 166.994 110.781 166.133V158.687H113.378V173.7H110.781V171.388C110.278 172.268 109.614 172.929 108.788 173.369C107.983 173.79 107.098 174 106.131 174Z" fill="black"/>
<path d="M124.13 173.85C123.466 173.85 122.852 173.76 122.289 173.58C121.725 173.379 121.232 173.099 120.809 172.739C120.406 172.359 120.084 171.878 119.843 171.298C119.621 170.717 119.511 170.037 119.511 169.256V161.059H116.31V158.687H119.511V154.513H122.107V158.687H126.455V161.059H122.107V168.926C122.107 169.886 122.319 170.557 122.741 170.937C123.164 171.298 123.788 171.478 124.614 171.478C124.936 171.478 125.258 171.458 125.58 171.418C125.922 171.358 126.214 171.278 126.455 171.178V173.49C126.133 173.59 125.781 173.67 125.399 173.73C125.016 173.81 124.593 173.85 124.13 173.85Z" fill="black"/>
<path d="M131.101 154.663C130.578 154.663 130.135 154.493 129.773 154.153C129.41 153.792 129.229 153.352 129.229 152.832C129.229 152.331 129.41 151.901 129.773 151.54C130.135 151.18 130.578 151 131.101 151C131.625 151 132.057 151.18 132.4 151.54C132.742 151.901 132.913 152.331 132.913 152.832C132.913 153.352 132.742 153.792 132.4 154.153C132.057 154.493 131.625 154.663 131.101 154.663ZM129.773 158.687H132.369V173.7H129.773V158.687Z" fill="black"/>
<path d="M143.995 174C142.848 174 141.791 173.8 140.825 173.399C139.858 172.979 139.023 172.419 138.318 171.718C137.614 171.017 137.06 170.197 136.658 169.256C136.275 168.295 136.084 167.274 136.084 166.193C136.084 165.112 136.275 164.101 136.658 163.161C137.06 162.2 137.614 161.369 138.318 160.668C139.023 159.968 139.858 159.417 140.825 159.017C141.791 158.597 142.848 158.386 143.995 158.386C145.122 158.386 146.169 158.597 147.135 159.017C148.102 159.417 148.937 159.968 149.642 160.668C150.346 161.369 150.89 162.2 151.272 163.161C151.675 164.101 151.876 165.112 151.876 166.193C151.876 167.274 151.675 168.295 151.272 169.256C150.89 170.197 150.346 171.017 149.642 171.718C148.937 172.419 148.102 172.979 147.135 173.399C146.169 173.8 145.122 174 143.995 174ZM143.995 171.598C144.78 171.598 145.495 171.458 146.139 171.178C146.783 170.897 147.327 170.517 147.769 170.037C148.232 169.536 148.585 168.966 148.826 168.325C149.088 167.664 149.219 166.954 149.219 166.193C149.219 165.453 149.088 164.752 148.826 164.091C148.585 163.431 148.232 162.86 147.769 162.38C147.327 161.879 146.783 161.489 146.139 161.209C145.495 160.929 144.78 160.789 143.995 160.789C143.21 160.789 142.495 160.929 141.851 161.209C141.207 161.489 140.654 161.879 140.191 162.38C139.728 162.86 139.365 163.431 139.104 164.091C138.862 164.752 138.741 165.453 138.741 166.193C138.741 166.954 138.862 167.664 139.104 168.325C139.365 168.966 139.728 169.536 140.191 170.037C140.654 170.517 141.207 170.897 141.851 171.178C142.495 171.458 143.21 171.598 143.995 171.598Z" fill="black"/>
<path d="M155.603 158.687H158.2V160.999C158.723 160.098 159.408 159.437 160.253 159.017C161.099 158.597 162.015 158.386 163.001 158.386C163.847 158.386 164.622 158.527 165.326 158.807C166.031 159.087 166.624 159.497 167.108 160.038C167.611 160.558 168.003 161.199 168.285 161.96C168.567 162.7 168.708 163.531 168.708 164.452V173.7H166.141V164.842C166.141 163.581 165.809 162.59 165.145 161.869C164.501 161.129 163.645 160.758 162.578 160.758C161.974 160.758 161.401 160.879 160.857 161.119C160.334 161.359 159.871 161.719 159.468 162.2C159.086 162.66 158.774 163.231 158.532 163.911C158.311 164.592 158.2 165.372 158.2 166.253V173.7H155.603V158.687Z" fill="black"/>
<path d="M179.604 174C178.537 174 177.551 173.8 176.645 173.399C175.759 172.979 174.984 172.419 174.32 171.718C173.656 170.997 173.132 170.167 172.75 169.226C172.388 168.285 172.206 167.274 172.206 166.193C172.206 165.112 172.388 164.101 172.75 163.161C173.132 162.22 173.656 161.399 174.32 160.698C174.984 159.978 175.759 159.417 176.645 159.017C177.551 158.597 178.537 158.386 179.604 158.386C180.752 158.386 181.798 158.647 182.744 159.167C183.691 159.668 184.415 160.278 184.918 160.999V158.687H187.515V173.7H184.918V171.388C184.415 172.108 183.691 172.729 182.744 173.249C181.798 173.75 180.752 174 179.604 174ZM179.997 171.628C180.762 171.628 181.456 171.488 182.08 171.208C182.704 170.927 183.238 170.547 183.68 170.067C184.143 169.566 184.496 168.986 184.737 168.325C184.999 167.664 185.13 166.954 185.13 166.193C185.13 165.433 184.999 164.722 184.737 164.061C184.496 163.401 184.143 162.83 183.68 162.35C183.238 161.849 182.704 161.459 182.08 161.179C181.456 160.899 180.762 160.758 179.997 160.758C179.232 160.758 178.527 160.899 177.883 161.179C177.259 161.459 176.716 161.849 176.253 162.35C175.81 162.83 175.457 163.401 175.196 164.061C174.954 164.722 174.833 165.433 174.833 166.193C174.833 166.954 174.954 167.664 175.196 168.325C175.457 168.986 175.81 169.566 176.253 170.067C176.716 170.547 177.259 170.927 177.883 171.208C178.527 171.488 179.232 171.628 179.997 171.628Z" fill="black"/>
<path d="M192.403 151.18H195V173.7H192.403V151.18Z" fill="black"/>
</svg>
