<svg width="75" height="75" viewBox="0 0 75 75" fill="none" xmlns="http://www.w3.org/2000/svg">
<circle cx="37.5" cy="37.5" r="37.5" fill="white"/>
<g filter="url(#filter0_d)">
<path d="M59.6421 15.0737L41.0176 28.8309L44.4809 20.7234L59.6421 15.0737Z" fill="#6D95F9"/>
<path d="M16.6826 15.0737L35.1413 28.9593L31.8438 20.7234L16.6826 15.0737Z" fill="#6D95F9"/>
<path d="M52.9364 46.9722L47.981 54.5295L58.592 57.446L61.6316 47.1373L52.9364 46.9722Z" fill="#6D95F9"/>
<path d="M14.7112 47.1373L17.7324 57.446L28.3249 54.5295L23.3879 46.9722L14.7112 47.1373Z" fill="#6D95F9"/>
<path d="M27.7539 34.2053L24.8064 38.6443L35.3069 39.1212L34.9568 27.8403L27.7539 34.2053Z" fill="#6D95F9"/>
<path d="M48.5705 34.2053L41.2571 27.7119L41.0176 39.1212L51.518 38.6443L48.5705 34.2053Z" fill="#6D95F9"/>
<path d="M28.325 54.5293L34.6805 51.466L29.2092 47.2104L28.325 54.5293Z" fill="#6D95F9"/>
<path d="M41.644 51.466L47.9812 54.5293L47.1153 47.2104L41.644 51.466Z" fill="#6D95F9"/>
<path d="M47.9809 54.5296L41.6438 51.4663L42.1596 55.5751L42.1043 57.3177L47.9809 54.5296Z" fill="#F5F7F9"/>
<path d="M28.3247 54.5296L34.2197 57.3177L34.1829 55.5751L34.6803 51.4663L28.3247 54.5296Z" fill="#F5F7F9"/>
<path d="M34.3304 44.4957L29.0618 42.9549L32.783 41.249L34.3304 44.4957Z" fill="#2F343B"/>
<path d="M41.9937 44.4957L43.5411 41.249L47.2807 42.9549L41.9937 44.4957Z" fill="#2F343B"/>
<path d="M28.3248 54.5295L29.2458 46.9722L23.3877 47.1373L28.3248 54.5295Z" fill="#497BF8"/>
<path d="M47.0781 46.9722L47.9808 54.5295L52.9363 47.1373L47.0781 46.9722Z" fill="#497BF8"/>
<path d="M51.5178 38.6445L41.0173 39.1214L41.9937 44.4959L43.5411 41.2492L47.2808 42.9551L51.5178 38.6445Z" fill="#497BF8"/>
<path d="M29.0616 42.9551L32.7828 41.2492L34.3303 44.4959L35.3066 39.1214L24.8062 38.6445L29.0616 42.9551Z" fill="#497BF8"/>
<path d="M24.8062 38.6445L29.209 47.2107L29.0616 42.9551L24.8062 38.6445Z" fill="#6D95F9"/>
<path d="M47.2805 42.9551L47.1147 47.2107L51.5176 38.6445L47.2805 42.9551Z" fill="#6D95F9"/>
<path d="M35.3067 39.1216L34.3303 44.4961L35.5646 50.8427L35.8409 42.4783L35.3067 39.1216Z" fill="#6D95F9"/>
<path d="M41.0173 39.1216L40.5015 42.46L40.7594 50.8427L41.9936 44.4961L41.0173 39.1216Z" fill="#6D95F9"/>
<path d="M41.994 44.4959L40.7598 50.8425L41.644 51.4662L47.1153 47.2106L47.2811 42.9551L41.994 44.4959Z" fill="#B6CAFC"/>
<path d="M29.0618 42.9551L29.2091 47.2106L34.6804 51.4662L35.5647 50.8425L34.3304 44.4959L29.0618 42.9551Z" fill="#B6CAFC"/>
<path d="M42.1043 57.3174L42.1595 55.5748L41.6806 55.1713H34.6434L34.1829 55.5748L34.2197 57.3174L28.3247 54.5293L30.388 56.2168L34.5697 59.0967H41.7358L45.936 56.2168L47.9808 54.5293L42.1043 57.3174Z" fill="#DBE5FE"/>
<path d="M41.644 51.4659L40.7597 50.8423H35.5647L34.6805 51.4659L34.1831 55.5748L34.6437 55.1712H41.6808L42.1598 55.5748L41.644 51.4659Z" fill="#2F343B"/>
<path d="M60.4341 29.7297L62 22.1358L59.642 15.0737L41.6438 28.3724L48.5704 34.2054L58.3524 37.0486L60.5078 34.5356L59.5683 33.8569L61.0604 32.4995L59.9183 31.6191L61.4105 30.4818L60.4341 29.7297Z" fill="#2C56DD"/>
<path d="M14.3242 22.1363L15.9085 29.7302L14.8953 30.4823L16.4059 31.6196L15.2637 32.5L16.7559 33.8574L15.8164 34.5361L17.9717 37.0491L27.7538 34.2059L34.6804 28.3729L16.6822 15.0742L14.3242 22.1363Z" fill="#2C56DD"/>
<path d="M58.3526 37.0482L48.5706 34.2051L51.5181 38.6441L47.1152 47.2102L52.9365 47.1368H61.6317L58.3526 37.0482Z" fill="#B6CAFC"/>
<path d="M27.7539 34.2051L17.9719 37.0482L14.7112 47.1368H23.3879L29.2092 47.2102L24.8064 38.6441L27.7539 34.2051Z" fill="#B6CAFC"/>
<path d="M41.0173 39.1211L41.6437 28.3722L44.4807 20.7231H31.8433L34.6802 28.3722L35.3066 39.1211L35.5461 42.4962L35.5645 50.8423H40.7594L40.7779 42.4962L41.0173 39.1211Z" fill="#B6CAFC"/>
</g>
<defs>
<filter id="filter0_d" x="8.32422" y="10.0737" width="59.6757" height="56.023" filterUnits="userSpaceOnUse" color-interpolation-filters="sRGB">
<feFlood flood-opacity="0" result="BackgroundImageFix"/>
<feColorMatrix in="SourceAlpha" type="matrix" values="0 0 0 0 0 0 0 0 0 0 0 0 0 0 0 0 0 0 127 0"/>
<feOffset dy="1"/>
<feGaussianBlur stdDeviation="3"/>
<feColorMatrix type="matrix" values="0 0 0 0 0 0 0 0 0 0 0 0 0 0 0 0 0 0 0.4 0"/>
<feBlend mode="normal" in2="BackgroundImageFix" result="effect1_dropShadow"/>
<feBlend mode="normal" in="SourceGraphic" in2="effect1_dropShadow" result="shape"/>
</filter>
</defs>
</svg>
