<svg width="934" height="223" viewBox="0 0 934 223" fill="none" xmlns="http://www.w3.org/2000/svg">
<path d="M461.009 48.3088C465.14 43.897 467.455 39.1238 467.455 33.9893C467.455 33.8143 467.313 33.6724 467.138 33.6724C466.963 33.6724 466.821 33.8143 466.821 33.9893C466.821 38.9174 464.603 43.5432 460.546 47.8756C456.487 52.2105 450.601 56.2353 443.307 59.9479C428.721 67.3728 408.572 73.5164 386.351 78.4068C341.914 88.1869 289.273 92.9387 256.484 92.9387C223.644 92.9387 175.112 99.0834 134.782 110.977C114.618 116.924 96.4837 124.313 83.3835 133.104C70.2931 141.889 62.157 152.123 62.157 163.773C62.157 163.948 62.2989 164.09 62.474 164.09C62.6491 164.09 62.791 163.948 62.791 163.773" stroke="#BBC0C5" stroke-linecap="round" stroke-linejoin="round" stroke-dasharray="1 5"/>
<path d="M467.455 31.9843C467.455 31.8086 467.313 31.6661 467.138 31.6661C466.963 31.6661 466.821 31.8086 466.821 31.9843C466.821 54.2913 454.88 73.215 435.659 86.5743C416.434 99.9358 389.939 107.718 360.894 107.718C331.76 107.718 296.996 113.811 269.509 123.707C255.766 128.655 243.825 134.561 235.312 141.144C226.808 147.721 221.668 155.023 221.668 162.769C221.668 162.945 221.81 163.087 221.985 163.087C222.16 163.087 222.302 162.945 222.302 162.769" stroke="#BBC0C5" stroke-linecap="round" stroke-linejoin="round" stroke-dasharray="1 5"/>
<path d="M467.455 28.9746C467.455 28.7988 467.312 28.6564 467.136 28.6564C466.96 28.6564 466.817 28.7988 466.817 28.9746C466.817 58.161 464.323 76.3984 458.684 89.0205C453.055 101.618 444.279 108.653 431.607 115.397C420.966 121.061 409.626 127.797 400.944 135.657C392.266 143.512 386.195 152.534 386.195 162.769C386.195 162.944 386.337 163.087 386.513 163.087C386.689 163.087 386.832 162.944 386.832 162.769" stroke="#BBC0C5" stroke-linecap="round" stroke-linejoin="round" stroke-dasharray="1 5"/>
<path d="M466.452 33.9893C466.452 33.8143 466.594 33.6724 466.769 33.6724C466.944 33.6724 467.086 33.8143 467.086 33.9893C467.086 38.9174 469.303 43.5432 473.36 47.8756C477.419 52.2105 483.305 56.2353 490.599 59.9479C505.186 67.3728 525.335 73.5164 547.556 78.4068C591.993 88.1869 644.633 92.9387 677.422 92.9387C710.262 92.9387 758.795 99.0834 799.125 110.977C819.289 116.924 837.423 124.313 850.523 133.104C863.613 141.889 871.75 152.123 871.75 163.773C871.75 163.948 871.608 164.09 871.433 164.09" stroke="#BBC0C5" stroke-linecap="round" stroke-linejoin="round" stroke-dasharray="1 5"/>
<path d="M466.451 31.9843C466.451 31.8086 466.593 31.6661 466.769 31.6661C466.944 31.6661 467.086 31.8086 467.086 31.9843C467.086 54.2913 479.026 73.215 498.247 86.5743C517.472 99.9358 543.967 107.718 573.012 107.718C602.147 107.718 636.91 113.811 664.397 123.707C678.14 128.655 690.082 134.561 698.594 141.144C707.098 147.721 712.239 155.023 712.239 162.769C712.239 162.945 712.097 163.087 711.921 163.087C711.746 163.087 711.604 162.945 711.604 162.769" stroke="#BBC0C5" stroke-linecap="round" stroke-linejoin="round" stroke-dasharray="1 5"/>
<path d="M466.452 28.9746C466.452 28.7988 466.594 28.6564 466.77 28.6564C466.946 28.6564 467.089 28.7988 467.089 28.9746C467.089 58.161 469.583 76.3984 475.223 89.0205C480.851 101.618 489.627 108.653 502.299 115.397C512.941 121.061 524.28 127.797 532.963 135.657C541.641 143.512 547.712 152.534 547.712 162.769C547.712 162.944 547.569 163.087 547.393 163.087C547.217 163.087 547.075 162.944 547.075 162.769" stroke="#BBC0C5" stroke-linecap="round" stroke-linejoin="round" stroke-dasharray="1 5"/>
<path d="M493.167 0.322266L469.611 17.7216L473.992 7.46761L493.167 0.322266Z" fill="#6D95F9"/>
<path d="M438.833 0.322266L462.179 17.884L458.008 7.4676L438.833 0.322266Z" fill="#6D95F9"/>
<path d="M484.686 40.6659L478.418 50.2239L491.838 53.9126L495.683 40.8747L484.686 40.6659Z" fill="#6D95F9"/>
<path d="M436.34 40.8747L440.161 53.9126L453.558 50.2239L447.314 40.6659L436.34 40.8747Z" fill="#6D95F9"/>
<path d="M452.836 24.5189L449.108 30.1331L462.389 30.7362L461.946 16.4688L452.836 24.5189Z" fill="#6D95F9"/>
<path d="M479.164 24.5185L469.914 16.306L469.611 30.7359L482.892 30.1327L479.164 24.5185Z" fill="#6D95F9"/>
<path d="M453.558 50.2235L461.596 46.3492L454.676 40.967L453.558 50.2235Z" fill="#6D95F9"/>
<path d="M470.404 46.3492L478.418 50.2235L477.323 40.967L470.404 46.3492Z" fill="#6D95F9"/>
<path d="M478.418 50.2238L470.404 46.3495L471.056 51.5461L470.986 53.75L478.418 50.2238Z" fill="#D7C1B3"/>
<path d="M453.559 50.2245L461.014 53.7508L460.968 51.5468L461.597 46.3502L453.559 50.2245Z" fill="#D7C1B3"/>
<path d="M461.154 37.5333L454.49 35.5845L459.197 33.427L461.154 37.5333Z" fill="#2F343B"/>
<path d="M470.846 37.5333L472.803 33.427L477.533 35.5845L470.846 37.5333Z" fill="#2F343B"/>
<path d="M453.558 50.2238L454.723 40.6658L447.314 40.8746L453.558 50.2238Z" fill="#497BF8"/>
<path d="M477.277 40.6658L478.418 50.2238L484.686 40.8746L477.277 40.6658Z" fill="#497BF8"/>
<path d="M482.892 30.1331L469.611 30.7362L470.846 37.5336L472.803 33.4273L477.533 35.5849L482.892 30.1331Z" fill="#497BF8"/>
<path d="M454.49 35.5849L459.197 33.4273L461.154 37.5336L462.389 30.7362L449.108 30.1331L454.49 35.5849Z" fill="#497BF8"/>
<path d="M449.108 30.1344L454.677 40.9684L454.49 35.5862L449.108 30.1344Z" fill="#6D95F9"/>
<path d="M477.533 35.5849L477.323 40.9671L482.892 30.1331L477.533 35.5849Z" fill="#6D95F9"/>
<path d="M462.389 30.7358L461.154 37.5332L462.715 45.5601L463.065 34.9813L462.389 30.7358Z" fill="#6D95F9"/>
<path d="M469.611 30.7358L468.959 34.9581L469.285 45.5601L470.846 37.5332L469.611 30.7358Z" fill="#6D95F9"/>
<path d="M470.846 37.5341L469.285 45.561L470.404 46.3497L477.323 40.9675L477.533 35.5853L470.846 37.5341Z" fill="#B6CAFC"/>
<path d="M454.49 35.5853L454.677 40.9675L461.596 46.3497L462.715 45.561L461.154 37.5341L454.49 35.5853Z" fill="#B6CAFC"/>
<path d="M470.986 53.7497L471.056 51.5457L470.45 51.0354H461.55L460.968 51.5457L461.014 53.7497L453.559 50.2234L456.168 52.3577L461.457 56H470.52L475.832 52.3577L478.419 50.2234L470.986 53.7497Z" fill="#C0AD9E"/>
<path d="M470.404 46.3492L469.285 45.5604H462.715L461.597 46.3492L460.968 51.5458L461.55 51.0354H470.45L471.056 51.5458L470.404 46.3492Z" fill="#2F343B"/>
<path d="M494.169 18.8584L496.149 9.25394L493.167 0.322266L470.404 17.1417L479.164 24.519L491.536 28.1149L494.262 24.9366L493.073 24.0782L494.961 22.3615L493.516 21.2479L495.403 19.8096L494.169 18.8584Z" fill="#2C56DD"/>
<path d="M435.851 9.25565L437.855 18.8601L436.573 19.8113L438.484 21.2496L437.039 22.3632L438.927 24.0799L437.738 24.9383L440.464 28.1166L452.836 24.5207L461.596 17.1434L438.833 0.323975L435.851 9.25565Z" fill="#2C56DD"/>
<path d="M491.536 28.115L479.164 24.5192L482.892 30.1334L477.323 40.9674L484.686 40.8746H495.683L491.536 28.115Z" fill="#B6CAFC"/>
<path d="M452.836 24.5192L440.464 28.115L436.34 40.8746H447.314L454.677 40.9674L449.108 30.1334L452.836 24.5192Z" fill="#B6CAFC"/>
<path d="M469.611 30.7359L470.403 17.1412L473.991 7.46716H458.008L461.596 17.1412L462.389 30.7359L462.691 35.0046L462.715 45.5602H469.285L469.308 35.0046L469.611 30.7359Z" fill="#B6CAFC"/>
<rect y="161" width="124" height="62" rx="4" fill="#2C56DD"/>
<rect x="162" y="161" width="124" height="62" rx="4" fill="#75C3FC"/>
<rect x="324" y="161" width="124" height="62" rx="4" fill="#333333"/>
<rect x="486" y="161" width="124" height="62" rx="4" fill="#86E29B"/>
<rect x="648" y="161" width="124" height="62" rx="4" fill="#FFB0EB"/>
<rect x="810" y="161" width="124" height="62" rx="4" fill="#F6851B"/>
<path d="M32.1994 188.06H36.1194C36.5861 188.06 37.0107 188.139 37.3934 188.298C37.7761 188.457 38.0981 188.671 38.3594 188.942C38.6301 189.213 38.8354 189.53 38.9754 189.894C39.1247 190.258 39.1994 190.645 39.1994 191.056C39.1994 191.7 39.0314 192.232 38.6954 192.652C38.3687 193.072 37.8881 193.394 37.2534 193.618L40.7674 198H38.0934L34.7754 193.898H34.4254V198H32.1994V188.06ZM35.8534 192.008C36.1801 192.008 36.4507 191.924 36.6654 191.756C36.8801 191.579 36.9874 191.345 36.9874 191.056C36.9874 190.757 36.8801 190.524 36.6654 190.356C36.4507 190.188 36.1801 190.104 35.8534 190.104H34.4254V192.008H35.8534ZM44.2218 198.154C43.7085 198.154 43.2231 198.07 42.7658 197.902C42.3178 197.734 41.9258 197.491 41.5898 197.174C41.2538 196.857 40.9878 196.474 40.7918 196.026C40.5958 195.569 40.4978 195.06 40.4978 194.5C40.4978 193.977 40.5865 193.497 40.7638 193.058C40.9505 192.61 41.2071 192.223 41.5338 191.896C41.8698 191.569 42.2618 191.313 42.7098 191.126C43.1578 190.939 43.6478 190.846 44.1798 190.846C44.6371 190.846 45.0758 190.921 45.4958 191.07C45.9251 191.21 46.2985 191.425 46.6158 191.714C46.9331 191.994 47.1851 192.349 47.3718 192.778C47.5678 193.198 47.6658 193.693 47.6658 194.262C47.6658 194.355 47.6611 194.463 47.6518 194.584C47.6518 194.696 47.6425 194.836 47.6238 195.004H42.5418C42.6071 195.424 42.8078 195.737 43.1438 195.942C43.4798 196.138 43.8485 196.236 44.2498 196.236C44.6605 196.236 45.0105 196.157 45.2998 195.998C45.5985 195.83 45.8131 195.643 45.9438 195.438L47.5118 196.614C47.1851 197.081 46.7371 197.454 46.1678 197.734C45.6078 198.014 44.9591 198.154 44.2218 198.154ZM45.5658 193.618C45.4725 193.245 45.2858 192.979 45.0058 192.82C44.7258 192.652 44.4318 192.568 44.1238 192.568C43.9651 192.568 43.8065 192.587 43.6478 192.624C43.4891 192.661 43.3398 192.722 43.1998 192.806C43.0598 192.89 42.9338 192.997 42.8218 193.128C42.7191 193.259 42.6445 193.422 42.5978 193.618H45.5658ZM51.4059 198.154C50.7899 198.154 50.2299 198.051 49.7259 197.846C49.2312 197.641 48.8205 197.323 48.4939 196.894L49.8939 195.62C50.0525 195.853 50.2625 196.035 50.5239 196.166C50.7852 196.287 51.0792 196.348 51.4059 196.348C51.5645 196.348 51.7092 196.32 51.8399 196.264C51.9799 196.199 52.0499 196.096 52.0499 195.956C52.0499 195.835 51.9985 195.737 51.8959 195.662C51.7932 195.587 51.5599 195.503 51.1959 195.41L50.7339 195.298C50.0619 195.139 49.5579 194.859 49.2219 194.458C48.8859 194.047 48.7272 193.562 48.7459 193.002C48.7552 192.675 48.8252 192.381 48.9559 192.12C49.0959 191.849 49.2825 191.621 49.5159 191.434C49.7585 191.247 50.0432 191.103 50.3699 191C50.6965 190.897 51.0512 190.846 51.4339 190.846C52.5165 190.846 53.3379 191.233 53.8979 192.008L52.5259 193.142C52.3672 192.937 52.1945 192.792 52.0079 192.708C51.8212 192.624 51.6252 192.582 51.4199 192.582C51.2892 192.582 51.1585 192.61 51.0279 192.666C50.9065 192.722 50.8459 192.815 50.8459 192.946C50.8459 193.021 50.8739 193.105 50.9299 193.198C50.9952 193.291 51.1632 193.375 51.4339 193.45L52.0779 193.618C52.7125 193.786 53.2119 194.043 53.5759 194.388C53.9492 194.724 54.1359 195.205 54.1359 195.83C54.1359 196.166 54.0659 196.479 53.9259 196.768C53.7859 197.048 53.5899 197.291 53.3379 197.496C53.0952 197.701 52.8059 197.865 52.4699 197.986C52.1432 198.098 51.7885 198.154 51.4059 198.154ZM58.755 198.154C58.2417 198.154 57.7563 198.07 57.299 197.902C56.851 197.734 56.459 197.491 56.123 197.174C55.787 196.857 55.521 196.474 55.325 196.026C55.129 195.569 55.031 195.06 55.031 194.5C55.031 193.977 55.1197 193.497 55.297 193.058C55.4837 192.61 55.7403 192.223 56.067 191.896C56.403 191.569 56.795 191.313 57.243 191.126C57.691 190.939 58.181 190.846 58.713 190.846C59.1703 190.846 59.609 190.921 60.029 191.07C60.4583 191.21 60.8317 191.425 61.149 191.714C61.4663 191.994 61.7183 192.349 61.905 192.778C62.101 193.198 62.199 193.693 62.199 194.262C62.199 194.355 62.1943 194.463 62.185 194.584C62.185 194.696 62.1757 194.836 62.157 195.004H57.075C57.1403 195.424 57.341 195.737 57.677 195.942C58.013 196.138 58.3817 196.236 58.783 196.236C59.1937 196.236 59.5437 196.157 59.833 195.998C60.1317 195.83 60.3463 195.643 60.477 195.438L62.045 196.614C61.7183 197.081 61.2703 197.454 60.701 197.734C60.141 198.014 59.4923 198.154 58.755 198.154ZM60.099 193.618C60.0057 193.245 59.819 192.979 59.539 192.82C59.259 192.652 58.965 192.568 58.657 192.568C58.4983 192.568 58.3397 192.587 58.181 192.624C58.0223 192.661 57.873 192.722 57.733 192.806C57.593 192.89 57.467 192.997 57.355 193.128C57.2523 193.259 57.1777 193.422 57.131 193.618H60.099ZM66.3591 198.154C65.9018 198.154 65.4724 198.056 65.0711 197.86C64.6791 197.664 64.3384 197.403 64.0491 197.076C63.7598 196.74 63.5311 196.353 63.3631 195.914C63.1951 195.466 63.1111 194.995 63.1111 194.5C63.1111 194.005 63.1951 193.539 63.3631 193.1C63.5311 192.652 63.7598 192.265 64.0491 191.938C64.3384 191.602 64.6791 191.336 65.0711 191.14C65.4724 190.944 65.9018 190.846 66.3591 190.846C66.5924 190.846 66.8071 190.874 67.0031 190.93C67.2084 190.977 67.3904 191.042 67.5491 191.126C67.7171 191.21 67.8571 191.303 67.9691 191.406C68.0904 191.509 68.1884 191.607 68.2631 191.7V191H70.3771V198H68.2631V197.3C68.1884 197.393 68.0904 197.491 67.9691 197.594C67.8571 197.697 67.7171 197.79 67.5491 197.874C67.3904 197.958 67.2084 198.023 67.0031 198.07C66.8071 198.126 66.5924 198.154 66.3591 198.154ZM66.8351 196.236C67.3111 196.236 67.6938 196.073 67.9831 195.746C68.2818 195.419 68.4311 195.004 68.4311 194.5C68.4311 193.996 68.2818 193.581 67.9831 193.254C67.6938 192.927 67.3111 192.764 66.8351 192.764C66.3591 192.764 65.9718 192.927 65.6731 193.254C65.3838 193.581 65.2391 193.996 65.2391 194.5C65.2391 195.004 65.3838 195.419 65.6731 195.746C65.9718 196.073 66.3591 196.236 66.8351 196.236ZM72.117 191H74.231V192.05C74.343 191.742 74.5484 191.476 74.847 191.252C75.155 191.028 75.505 190.916 75.897 190.916C75.9997 190.916 76.107 190.921 76.219 190.93C76.331 190.939 76.4524 190.963 76.583 191V193.142C76.4244 193.086 76.2704 193.044 76.121 193.016C75.9717 192.988 75.813 192.974 75.645 192.974C75.1877 192.974 74.8377 193.133 74.595 193.45C74.3524 193.767 74.231 194.178 74.231 194.682V198H72.117V191ZM80.8214 198.154C80.3081 198.154 79.8227 198.065 79.3654 197.888C78.9174 197.701 78.5254 197.449 78.1894 197.132C77.8534 196.805 77.5874 196.418 77.3914 195.97C77.1954 195.522 77.0974 195.032 77.0974 194.5C77.0974 193.968 77.1954 193.478 77.3914 193.03C77.5874 192.582 77.8534 192.199 78.1894 191.882C78.5254 191.555 78.9174 191.303 79.3654 191.126C79.8227 190.939 80.3081 190.846 80.8214 190.846C81.1854 190.846 81.5354 190.897 81.8714 191C82.2074 191.093 82.5201 191.233 82.8094 191.42C83.0987 191.597 83.3601 191.812 83.5934 192.064C83.8267 192.307 84.0181 192.582 84.1674 192.89L82.3194 193.87C82.1887 193.571 81.9927 193.324 81.7314 193.128C81.4794 192.923 81.1761 192.82 80.8214 192.82C80.5974 192.82 80.3874 192.862 80.1914 192.946C80.0047 193.03 79.8367 193.147 79.6874 193.296C79.5474 193.436 79.4354 193.609 79.3514 193.814C79.2674 194.019 79.2254 194.248 79.2254 194.5C79.2254 194.752 79.2674 194.981 79.3514 195.186C79.4354 195.391 79.5474 195.569 79.6874 195.718C79.8367 195.858 80.0047 195.97 80.1914 196.054C80.3874 196.138 80.5974 196.18 80.8214 196.18C81.1761 196.18 81.4794 196.082 81.7314 195.886C81.9927 195.681 82.1887 195.429 82.3194 195.13L84.1674 196.11C84.0181 196.418 83.8267 196.698 83.5934 196.95C83.3601 197.193 83.0987 197.407 82.8094 197.594C82.5201 197.771 82.2074 197.907 81.8714 198C81.5354 198.103 81.1854 198.154 80.8214 198.154ZM85.2967 198V187.5H87.4107V191.714C87.5787 191.471 87.8307 191.266 88.1667 191.098C88.5027 190.93 88.8994 190.846 89.3567 190.846C89.786 190.846 90.1687 190.925 90.5047 191.084C90.8407 191.233 91.1254 191.443 91.3587 191.714C91.592 191.985 91.7694 192.311 91.8907 192.694C92.012 193.077 92.0727 193.497 92.0727 193.954V198H89.9587V194.318C89.9587 193.833 89.8654 193.455 89.6787 193.184C89.492 192.904 89.2074 192.764 88.8247 192.764C88.4234 192.764 88.0874 192.913 87.8167 193.212C87.546 193.501 87.4107 193.963 87.4107 194.598V198H85.2967Z" fill="white"/>
<path d="M372.832 180.06H376.57C376.972 180.06 377.35 180.139 377.704 180.298C378.068 180.447 378.386 180.657 378.656 180.928C378.927 181.189 379.137 181.502 379.286 181.866C379.445 182.221 379.524 182.603 379.524 183.014C379.524 183.369 379.459 183.691 379.328 183.98C379.198 184.26 379.025 184.507 378.81 184.722C379.23 184.937 379.571 185.249 379.832 185.66C380.094 186.071 380.224 186.542 380.224 187.074C380.224 187.485 380.145 187.867 379.986 188.222C379.837 188.577 379.627 188.889 379.356 189.16C379.086 189.421 378.764 189.627 378.39 189.776C378.026 189.925 377.63 190 377.2 190H372.832V180.06ZM377.018 187.956C377.317 187.956 377.564 187.863 377.76 187.676C377.956 187.48 378.054 187.242 378.054 186.962C378.054 186.691 377.952 186.458 377.746 186.262C377.55 186.066 377.303 185.968 377.004 185.968H375.058V187.956H377.018ZM376.318 184.078C376.617 184.078 376.864 183.985 377.06 183.798C377.256 183.602 377.354 183.369 377.354 183.098C377.354 182.827 377.256 182.594 377.06 182.398C376.864 182.193 376.617 182.09 376.318 182.09H375.058V184.078H376.318ZM384.841 190.154C384.328 190.154 383.842 190.07 383.385 189.902C382.937 189.734 382.545 189.491 382.209 189.174C381.873 188.857 381.607 188.474 381.411 188.026C381.215 187.569 381.117 187.06 381.117 186.5C381.117 185.977 381.206 185.497 381.383 185.058C381.57 184.61 381.826 184.223 382.153 183.896C382.489 183.569 382.881 183.313 383.329 183.126C383.777 182.939 384.267 182.846 384.799 182.846C385.256 182.846 385.695 182.921 386.115 183.07C386.544 183.21 386.918 183.425 387.235 183.714C387.552 183.994 387.804 184.349 387.991 184.778C388.187 185.198 388.285 185.693 388.285 186.262C388.285 186.355 388.28 186.463 388.271 186.584C388.271 186.696 388.262 186.836 388.243 187.004H383.161C383.226 187.424 383.427 187.737 383.763 187.942C384.099 188.138 384.468 188.236 384.869 188.236C385.28 188.236 385.63 188.157 385.919 187.998C386.218 187.83 386.432 187.643 386.563 187.438L388.131 188.614C387.804 189.081 387.356 189.454 386.787 189.734C386.227 190.014 385.578 190.154 384.841 190.154ZM386.185 185.618C386.092 185.245 385.905 184.979 385.625 184.82C385.345 184.652 385.051 184.568 384.743 184.568C384.584 184.568 384.426 184.587 384.267 184.624C384.108 184.661 383.959 184.722 383.819 184.806C383.679 184.89 383.553 184.997 383.441 185.128C383.338 185.259 383.264 185.422 383.217 185.618H386.185ZM392.025 190.154C391.409 190.154 390.849 190.051 390.345 189.846C389.85 189.641 389.44 189.323 389.113 188.894L390.513 187.62C390.672 187.853 390.882 188.035 391.143 188.166C391.404 188.287 391.698 188.348 392.025 188.348C392.184 188.348 392.328 188.32 392.459 188.264C392.599 188.199 392.669 188.096 392.669 187.956C392.669 187.835 392.618 187.737 392.515 187.662C392.412 187.587 392.179 187.503 391.815 187.41L391.353 187.298C390.681 187.139 390.177 186.859 389.841 186.458C389.505 186.047 389.346 185.562 389.365 185.002C389.374 184.675 389.444 184.381 389.575 184.12C389.715 183.849 389.902 183.621 390.135 183.434C390.378 183.247 390.662 183.103 390.989 183C391.316 182.897 391.67 182.846 392.053 182.846C393.136 182.846 393.957 183.233 394.517 184.008L393.145 185.142C392.986 184.937 392.814 184.792 392.627 184.708C392.44 184.624 392.244 184.582 392.039 184.582C391.908 184.582 391.778 184.61 391.647 184.666C391.526 184.722 391.465 184.815 391.465 184.946C391.465 185.021 391.493 185.105 391.549 185.198C391.614 185.291 391.782 185.375 392.053 185.45L392.697 185.618C393.332 185.786 393.831 186.043 394.195 186.388C394.568 186.724 394.755 187.205 394.755 187.83C394.755 188.166 394.685 188.479 394.545 188.768C394.405 189.048 394.209 189.291 393.957 189.496C393.714 189.701 393.425 189.865 393.089 189.986C392.762 190.098 392.408 190.154 392.025 190.154ZM399.49 190.084C399.098 190.084 398.729 190.033 398.384 189.93C398.048 189.818 397.754 189.655 397.502 189.44C397.25 189.216 397.049 188.941 396.9 188.614C396.75 188.278 396.676 187.886 396.676 187.438V184.834H395.276V183H396.676V181.054H398.79V183H400.75V184.834H398.79V187.004C398.79 187.424 398.883 187.727 399.07 187.914C399.256 188.101 399.56 188.194 399.98 188.194C400.138 188.194 400.278 188.185 400.4 188.166C400.521 188.147 400.638 188.115 400.75 188.068V189.944C400.591 189.991 400.409 190.023 400.204 190.042C400.008 190.07 399.77 190.084 399.49 190.084ZM357.6 205.154C357.086 205.154 356.601 205.07 356.144 204.902C355.696 204.734 355.304 204.491 354.968 204.174C354.632 203.857 354.366 203.474 354.17 203.026C353.974 202.569 353.876 202.06 353.876 201.5C353.876 200.977 353.964 200.497 354.142 200.058C354.328 199.61 354.585 199.223 354.912 198.896C355.248 198.569 355.64 198.313 356.088 198.126C356.536 197.939 357.026 197.846 357.558 197.846C358.015 197.846 358.454 197.921 358.874 198.07C359.303 198.21 359.676 198.425 359.994 198.714C360.311 198.994 360.563 199.349 360.75 199.778C360.946 200.198 361.044 200.693 361.044 201.262C361.044 201.355 361.039 201.463 361.03 201.584C361.03 201.696 361.02 201.836 361.002 202.004H355.92C355.985 202.424 356.186 202.737 356.522 202.942C356.858 203.138 357.226 203.236 357.628 203.236C358.038 203.236 358.388 203.157 358.678 202.998C358.976 202.83 359.191 202.643 359.322 202.438L360.89 203.614C360.563 204.081 360.115 204.454 359.546 204.734C358.986 205.014 358.337 205.154 357.6 205.154ZM358.944 200.618C358.85 200.245 358.664 199.979 358.384 199.82C358.104 199.652 357.81 199.568 357.502 199.568C357.343 199.568 357.184 199.587 357.026 199.624C356.867 199.661 356.718 199.722 356.578 199.806C356.438 199.89 356.312 199.997 356.2 200.128C356.097 200.259 356.022 200.422 355.976 200.618H358.944ZM365.185 203.096L363.701 205H361.167L363.855 201.612L361.195 198H363.687L365.171 200.044L366.655 198H369.175L366.515 201.612L369.189 205H366.669L365.185 203.096ZM372.94 205.154C372.426 205.154 371.941 205.07 371.484 204.902C371.036 204.734 370.644 204.491 370.308 204.174C369.972 203.857 369.706 203.474 369.51 203.026C369.314 202.569 369.216 202.06 369.216 201.5C369.216 200.977 369.304 200.497 369.482 200.058C369.668 199.61 369.925 199.223 370.252 198.896C370.588 198.569 370.98 198.313 371.428 198.126C371.876 197.939 372.366 197.846 372.898 197.846C373.355 197.846 373.794 197.921 374.214 198.07C374.643 198.21 375.016 198.425 375.334 198.714C375.651 198.994 375.903 199.349 376.09 199.778C376.286 200.198 376.384 200.693 376.384 201.262C376.384 201.355 376.379 201.463 376.37 201.584C376.37 201.696 376.36 201.836 376.342 202.004H371.26C371.325 202.424 371.526 202.737 371.862 202.942C372.198 203.138 372.566 203.236 372.968 203.236C373.378 203.236 373.728 203.157 374.018 202.998C374.316 202.83 374.531 202.643 374.662 202.438L376.23 203.614C375.903 204.081 375.455 204.454 374.886 204.734C374.326 205.014 373.677 205.154 372.94 205.154ZM374.284 200.618C374.19 200.245 374.004 199.979 373.724 199.82C373.444 199.652 373.15 199.568 372.842 199.568C372.683 199.568 372.524 199.587 372.366 199.624C372.207 199.661 372.058 199.722 371.918 199.806C371.778 199.89 371.652 199.997 371.54 200.128C371.437 200.259 371.362 200.422 371.316 200.618H374.284ZM381.02 205.154C380.506 205.154 380.021 205.065 379.564 204.888C379.116 204.701 378.724 204.449 378.388 204.132C378.052 203.805 377.786 203.418 377.59 202.97C377.394 202.522 377.296 202.032 377.296 201.5C377.296 200.968 377.394 200.478 377.59 200.03C377.786 199.582 378.052 199.199 378.388 198.882C378.724 198.555 379.116 198.303 379.564 198.126C380.021 197.939 380.506 197.846 381.02 197.846C381.384 197.846 381.734 197.897 382.07 198C382.406 198.093 382.718 198.233 383.008 198.42C383.297 198.597 383.558 198.812 383.792 199.064C384.025 199.307 384.216 199.582 384.366 199.89L382.518 200.87C382.387 200.571 382.191 200.324 381.93 200.128C381.678 199.923 381.374 199.82 381.02 199.82C380.796 199.82 380.586 199.862 380.39 199.946C380.203 200.03 380.035 200.147 379.886 200.296C379.746 200.436 379.634 200.609 379.55 200.814C379.466 201.019 379.424 201.248 379.424 201.5C379.424 201.752 379.466 201.981 379.55 202.186C379.634 202.391 379.746 202.569 379.886 202.718C380.035 202.858 380.203 202.97 380.39 203.054C380.586 203.138 380.796 203.18 381.02 203.18C381.374 203.18 381.678 203.082 381.93 202.886C382.191 202.681 382.387 202.429 382.518 202.13L384.366 203.11C384.216 203.418 384.025 203.698 383.792 203.95C383.558 204.193 383.297 204.407 383.008 204.594C382.718 204.771 382.406 204.907 382.07 205C381.734 205.103 381.384 205.154 381.02 205.154ZM388.057 205.154C387.189 205.154 386.531 204.865 386.083 204.286C385.635 203.707 385.411 202.942 385.411 201.99V198H387.525V201.626C387.525 202.139 387.604 202.536 387.763 202.816C387.931 203.096 388.211 203.236 388.603 203.236C389.004 203.236 389.322 203.091 389.555 202.802C389.798 202.513 389.919 202.046 389.919 201.402V198H392.033V205H389.919V204.286C389.751 204.529 389.513 204.734 389.205 204.902C388.897 205.07 388.514 205.154 388.057 205.154ZM397.336 205.084C396.944 205.084 396.576 205.033 396.23 204.93C395.894 204.818 395.6 204.655 395.348 204.44C395.096 204.216 394.896 203.941 394.746 203.614C394.597 203.278 394.522 202.886 394.522 202.438V199.834H393.122V198H394.522V196.054H396.636V198H398.596V199.834H396.636V202.004C396.636 202.424 396.73 202.727 396.916 202.914C397.103 203.101 397.406 203.194 397.826 203.194C397.985 203.194 398.125 203.185 398.246 203.166C398.368 203.147 398.484 203.115 398.596 203.068V204.944C398.438 204.991 398.256 205.023 398.05 205.042C397.854 205.07 397.616 205.084 397.336 205.084ZM400.982 197.048C400.805 197.048 400.637 197.015 400.478 196.95C400.32 196.875 400.18 196.782 400.058 196.67C399.937 196.549 399.839 196.409 399.764 196.25C399.699 196.091 399.666 195.919 399.666 195.732C399.666 195.555 399.699 195.387 399.764 195.228C399.839 195.06 399.937 194.92 400.058 194.808C400.18 194.687 400.32 194.593 400.478 194.528C400.637 194.453 400.805 194.416 400.982 194.416C401.169 194.416 401.342 194.453 401.5 194.528C401.668 194.593 401.808 194.687 401.92 194.808C402.042 194.92 402.135 195.06 402.2 195.228C402.275 195.387 402.312 195.555 402.312 195.732C402.312 195.919 402.275 196.091 402.2 196.25C402.135 196.409 402.042 196.549 401.92 196.67C401.808 196.782 401.668 196.875 401.5 196.95C401.342 197.015 401.169 197.048 400.982 197.048ZM399.932 198H402.046V205H399.932V198ZM407.036 205.154C406.532 205.154 406.056 205.061 405.608 204.874C405.16 204.687 404.768 204.431 404.432 204.104C404.105 203.768 403.844 203.381 403.648 202.942C403.452 202.494 403.354 202.013 403.354 201.5C403.354 200.987 403.452 200.511 403.648 200.072C403.844 199.624 404.105 199.237 404.432 198.91C404.768 198.574 405.16 198.313 405.608 198.126C406.056 197.939 406.532 197.846 407.036 197.846C407.54 197.846 408.016 197.939 408.464 198.126C408.912 198.313 409.299 198.574 409.626 198.91C409.962 199.237 410.228 199.624 410.424 200.072C410.62 200.511 410.718 200.987 410.718 201.5C410.718 202.013 410.62 202.494 410.424 202.942C410.228 203.381 409.962 203.768 409.626 204.104C409.299 204.431 408.912 204.687 408.464 204.874C408.016 205.061 407.54 205.154 407.036 205.154ZM407.036 203.18C407.484 203.18 407.853 203.026 408.142 202.718C408.441 202.41 408.59 202.004 408.59 201.5C408.59 200.996 408.441 200.59 408.142 200.282C407.853 199.974 407.484 199.82 407.036 199.82C406.588 199.82 406.215 199.974 405.916 200.282C405.627 200.59 405.482 200.996 405.482 201.5C405.482 202.004 405.627 202.41 405.916 202.718C406.215 203.026 406.588 203.18 407.036 203.18ZM412.018 198H414.132V198.714C414.3 198.471 414.552 198.266 414.888 198.098C415.224 197.93 415.621 197.846 416.078 197.846C416.508 197.846 416.89 197.925 417.226 198.084C417.562 198.233 417.847 198.443 418.08 198.714C418.314 198.985 418.491 199.311 418.612 199.694C418.734 200.077 418.794 200.497 418.794 200.954V205H416.68V201.318C416.68 200.833 416.587 200.455 416.4 200.184C416.214 199.904 415.929 199.764 415.546 199.764C415.145 199.764 414.809 199.913 414.538 200.212C414.268 200.501 414.132 200.963 414.132 201.598V205H412.018V198Z" fill="white"/>
<path d="M514.316 188.06L517.41 192.344L520.532 188.06H522.562V198H520.322V191.882L517.424 195.886L514.512 191.868V198H512.286V188.06H514.316ZM527.548 198.154C527.044 198.154 526.568 198.061 526.12 197.874C525.672 197.687 525.28 197.431 524.944 197.104C524.617 196.768 524.356 196.381 524.16 195.942C523.964 195.494 523.866 195.013 523.866 194.5C523.866 193.987 523.964 193.511 524.16 193.072C524.356 192.624 524.617 192.237 524.944 191.91C525.28 191.574 525.672 191.313 526.12 191.126C526.568 190.939 527.044 190.846 527.548 190.846C528.052 190.846 528.528 190.939 528.976 191.126C529.424 191.313 529.811 191.574 530.138 191.91C530.474 192.237 530.74 192.624 530.936 193.072C531.132 193.511 531.23 193.987 531.23 194.5C531.23 195.013 531.132 195.494 530.936 195.942C530.74 196.381 530.474 196.768 530.138 197.104C529.811 197.431 529.424 197.687 528.976 197.874C528.528 198.061 528.052 198.154 527.548 198.154ZM527.548 196.18C527.996 196.18 528.364 196.026 528.654 195.718C528.952 195.41 529.102 195.004 529.102 194.5C529.102 193.996 528.952 193.59 528.654 193.282C528.364 192.974 527.996 192.82 527.548 192.82C527.1 192.82 526.726 192.974 526.428 193.282C526.138 193.59 525.994 193.996 525.994 194.5C525.994 195.004 526.138 195.41 526.428 195.718C526.726 196.026 527.1 196.18 527.548 196.18ZM532.53 191H534.644V191.714C534.812 191.471 535.064 191.266 535.4 191.098C535.736 190.93 536.133 190.846 536.59 190.846C537.019 190.846 537.402 190.925 537.738 191.084C538.074 191.233 538.359 191.443 538.592 191.714C538.825 191.985 539.003 192.311 539.124 192.694C539.245 193.077 539.306 193.497 539.306 193.954V198H537.192V194.318C537.192 193.833 537.099 193.455 536.912 193.184C536.725 192.904 536.441 192.764 536.058 192.764C535.657 192.764 535.321 192.913 535.05 193.212C534.779 193.501 534.644 193.963 534.644 194.598V198H532.53V191ZM542.002 190.048C541.825 190.048 541.657 190.015 541.498 189.95C541.339 189.875 541.199 189.782 541.078 189.67C540.957 189.549 540.859 189.409 540.784 189.25C540.719 189.091 540.686 188.919 540.686 188.732C540.686 188.555 540.719 188.387 540.784 188.228C540.859 188.06 540.957 187.92 541.078 187.808C541.199 187.687 541.339 187.593 541.498 187.528C541.657 187.453 541.825 187.416 542.002 187.416C542.189 187.416 542.361 187.453 542.52 187.528C542.688 187.593 542.828 187.687 542.94 187.808C543.061 187.92 543.155 188.06 543.22 188.228C543.295 188.387 543.332 188.555 543.332 188.732C543.332 188.919 543.295 189.091 543.22 189.25C543.155 189.409 543.061 189.549 542.94 189.67C542.828 189.782 542.688 189.875 542.52 189.95C542.361 190.015 542.189 190.048 542.002 190.048ZM540.952 191H543.066V198H540.952V191ZM548.377 198.084C547.985 198.084 547.617 198.033 547.271 197.93C546.935 197.818 546.641 197.655 546.389 197.44C546.137 197.216 545.937 196.941 545.787 196.614C545.638 196.278 545.563 195.886 545.563 195.438V192.834H544.163V191H545.563V189.054H547.677V191H549.637V192.834H547.677V195.004C547.677 195.424 547.771 195.727 547.957 195.914C548.144 196.101 548.447 196.194 548.867 196.194C549.026 196.194 549.166 196.185 549.287 196.166C549.409 196.147 549.525 196.115 549.637 196.068V197.944C549.479 197.991 549.297 198.023 549.091 198.042C548.895 198.07 548.657 198.084 548.377 198.084ZM554.126 198.154C553.622 198.154 553.146 198.061 552.698 197.874C552.25 197.687 551.858 197.431 551.522 197.104C551.195 196.768 550.934 196.381 550.738 195.942C550.542 195.494 550.444 195.013 550.444 194.5C550.444 193.987 550.542 193.511 550.738 193.072C550.934 192.624 551.195 192.237 551.522 191.91C551.858 191.574 552.25 191.313 552.698 191.126C553.146 190.939 553.622 190.846 554.126 190.846C554.63 190.846 555.106 190.939 555.554 191.126C556.002 191.313 556.389 191.574 556.716 191.91C557.052 192.237 557.318 192.624 557.514 193.072C557.71 193.511 557.808 193.987 557.808 194.5C557.808 195.013 557.71 195.494 557.514 195.942C557.318 196.381 557.052 196.768 556.716 197.104C556.389 197.431 556.002 197.687 555.554 197.874C555.106 198.061 554.63 198.154 554.126 198.154ZM554.126 196.18C554.574 196.18 554.942 196.026 555.232 195.718C555.53 195.41 555.68 195.004 555.68 194.5C555.68 193.996 555.53 193.59 555.232 193.282C554.942 192.974 554.574 192.82 554.126 192.82C553.678 192.82 553.304 192.974 553.006 193.282C552.716 193.59 552.572 193.996 552.572 194.5C552.572 195.004 552.716 195.41 553.006 195.718C553.304 196.026 553.678 196.18 554.126 196.18ZM559.108 191H561.222V192.05C561.334 191.742 561.54 191.476 561.838 191.252C562.146 191.028 562.496 190.916 562.888 190.916C562.991 190.916 563.098 190.921 563.21 190.93C563.322 190.939 563.444 190.963 563.574 191V193.142C563.416 193.086 563.262 193.044 563.112 193.016C562.963 192.988 562.804 192.974 562.636 192.974C562.179 192.974 561.829 193.133 561.586 193.45C561.344 193.767 561.222 194.178 561.222 194.682V198H559.108V191ZM565.805 190.048C565.627 190.048 565.459 190.015 565.301 189.95C565.142 189.875 565.002 189.782 564.881 189.67C564.759 189.549 564.661 189.409 564.587 189.25C564.521 189.091 564.489 188.919 564.489 188.732C564.489 188.555 564.521 188.387 564.587 188.228C564.661 188.06 564.759 187.92 564.881 187.808C565.002 187.687 565.142 187.593 565.301 187.528C565.459 187.453 565.627 187.416 565.805 187.416C565.991 187.416 566.164 187.453 566.323 187.528C566.491 187.593 566.631 187.687 566.743 187.808C566.864 187.92 566.957 188.06 567.023 188.228C567.097 188.387 567.135 188.555 567.135 188.732C567.135 188.919 567.097 189.091 567.023 189.25C566.957 189.409 566.864 189.549 566.743 189.67C566.631 189.782 566.491 189.875 566.323 189.95C566.164 190.015 565.991 190.048 565.805 190.048ZM564.755 191H566.869V198H564.755V191ZM568.61 191H570.724V191.714C570.892 191.471 571.144 191.266 571.48 191.098C571.816 190.93 572.213 190.846 572.67 190.846C573.1 190.846 573.482 190.925 573.818 191.084C574.154 191.233 574.439 191.443 574.672 191.714C574.906 191.985 575.083 192.311 575.204 192.694C575.326 193.077 575.386 193.497 575.386 193.954V198H573.272V194.318C573.272 193.833 573.179 193.455 572.992 193.184C572.806 192.904 572.521 192.764 572.138 192.764C571.737 192.764 571.401 192.913 571.13 193.212C570.86 193.501 570.724 193.963 570.724 194.598V198H568.61V191ZM580.35 195.984C580.565 195.984 580.77 195.947 580.966 195.872C581.162 195.797 581.33 195.69 581.47 195.55C581.619 195.41 581.736 195.242 581.82 195.046C581.913 194.841 581.96 194.617 581.96 194.374C581.96 194.131 581.913 193.912 581.82 193.716C581.736 193.511 581.619 193.338 581.47 193.198C581.33 193.058 581.162 192.951 580.966 192.876C580.77 192.801 580.565 192.764 580.35 192.764C580.135 192.764 579.93 192.801 579.734 192.876C579.538 192.951 579.365 193.058 579.216 193.198C579.076 193.338 578.959 193.511 578.866 193.716C578.782 193.912 578.74 194.131 578.74 194.374C578.74 194.617 578.782 194.841 578.866 195.046C578.959 195.242 579.076 195.41 579.216 195.55C579.365 195.69 579.538 195.797 579.734 195.872C579.93 195.947 580.135 195.984 580.35 195.984ZM580.084 201.066C579.524 201.066 578.95 200.987 578.362 200.828C577.774 200.669 577.265 200.403 576.836 200.03L577.942 198.448C578.259 198.719 578.605 198.915 578.978 199.036C579.351 199.157 579.711 199.218 580.056 199.218C580.336 199.218 580.583 199.171 580.798 199.078C581.013 198.985 581.195 198.859 581.344 198.7C581.493 198.541 581.605 198.35 581.68 198.126C581.755 197.911 581.792 197.683 581.792 197.44V197.048C581.633 197.291 581.381 197.496 581.036 197.664C580.7 197.823 580.317 197.902 579.888 197.902C579.44 197.902 579.015 197.813 578.614 197.636C578.222 197.449 577.877 197.197 577.578 196.88C577.279 196.553 577.041 196.18 576.864 195.76C576.696 195.331 576.612 194.869 576.612 194.374C576.612 193.889 576.696 193.431 576.864 193.002C577.041 192.573 577.279 192.199 577.578 191.882C577.877 191.555 578.222 191.303 578.614 191.126C579.015 190.939 579.44 190.846 579.888 190.846C580.317 190.846 580.7 190.93 581.036 191.098C581.381 191.257 581.633 191.457 581.792 191.7V191H583.906V197.412C583.906 198.056 583.808 198.607 583.612 199.064C583.425 199.531 583.159 199.909 582.814 200.198C582.469 200.497 582.063 200.716 581.596 200.856C581.129 200.996 580.625 201.066 580.084 201.066Z" fill="white"/>
<path d="M678.307 188.06H682.227C682.694 188.06 683.118 188.139 683.501 188.298C683.884 188.457 684.206 188.671 684.467 188.942C684.738 189.213 684.943 189.53 685.083 189.894C685.232 190.258 685.307 190.645 685.307 191.056C685.307 191.7 685.139 192.232 684.803 192.652C684.476 193.072 683.996 193.394 683.361 193.618L686.875 198H684.201L680.883 193.898H680.533V198H678.307V188.06ZM681.961 192.008C682.288 192.008 682.558 191.924 682.773 191.756C682.988 191.579 683.095 191.345 683.095 191.056C683.095 190.757 682.988 190.524 682.773 190.356C682.558 190.188 682.288 190.104 681.961 190.104H680.533V192.008H681.961ZM690.329 198.154C689.816 198.154 689.331 198.07 688.873 197.902C688.425 197.734 688.033 197.491 687.697 197.174C687.361 196.857 687.095 196.474 686.899 196.026C686.703 195.569 686.605 195.06 686.605 194.5C686.605 193.977 686.694 193.497 686.871 193.058C687.058 192.61 687.315 192.223 687.641 191.896C687.977 191.569 688.369 191.313 688.817 191.126C689.265 190.939 689.755 190.846 690.287 190.846C690.745 190.846 691.183 190.921 691.603 191.07C692.033 191.21 692.406 191.425 692.723 191.714C693.041 191.994 693.293 192.349 693.479 192.778C693.675 193.198 693.773 193.693 693.773 194.262C693.773 194.355 693.769 194.463 693.759 194.584C693.759 194.696 693.75 194.836 693.731 195.004H688.649C688.715 195.424 688.915 195.737 689.251 195.942C689.587 196.138 689.956 196.236 690.357 196.236C690.768 196.236 691.118 196.157 691.407 195.998C691.706 195.83 691.921 195.643 692.051 195.438L693.619 196.614C693.293 197.081 692.845 197.454 692.275 197.734C691.715 198.014 691.067 198.154 690.329 198.154ZM691.673 193.618C691.58 193.245 691.393 192.979 691.113 192.82C690.833 192.652 690.539 192.568 690.231 192.568C690.073 192.568 689.914 192.587 689.755 192.624C689.597 192.661 689.447 192.722 689.307 192.806C689.167 192.89 689.041 192.997 688.929 193.128C688.827 193.259 688.752 193.422 688.705 193.618H691.673ZM695.105 200.926V191H697.219V191.7C697.285 191.607 697.378 191.509 697.499 191.406C697.621 191.303 697.761 191.21 697.919 191.126C698.087 191.042 698.269 190.977 698.465 190.93C698.671 190.874 698.89 190.846 699.123 190.846C699.581 190.846 700.005 190.944 700.397 191.14C700.799 191.336 701.144 191.602 701.433 191.938C701.723 192.265 701.951 192.652 702.119 193.1C702.287 193.539 702.371 194.005 702.371 194.5C702.371 194.995 702.287 195.466 702.119 195.914C701.951 196.353 701.723 196.74 701.433 197.076C701.144 197.403 700.799 197.664 700.397 197.86C700.005 198.056 699.581 198.154 699.123 198.154C698.89 198.154 698.671 198.126 698.465 198.07C698.269 198.023 698.087 197.958 697.919 197.874C697.761 197.79 697.621 197.697 697.499 197.594C697.378 197.491 697.285 197.393 697.219 197.3V200.926H695.105ZM698.647 196.236C699.123 196.236 699.506 196.073 699.795 195.746C700.094 195.419 700.243 195.004 700.243 194.5C700.243 193.996 700.094 193.581 699.795 193.254C699.506 192.927 699.123 192.764 698.647 192.764C698.171 192.764 697.784 192.927 697.485 193.254C697.196 193.581 697.051 193.996 697.051 194.5C697.051 195.004 697.196 195.419 697.485 195.746C697.784 196.073 698.171 196.236 698.647 196.236ZM706.939 198.154C706.435 198.154 705.959 198.061 705.511 197.874C705.063 197.687 704.671 197.431 704.335 197.104C704.009 196.768 703.747 196.381 703.551 195.942C703.355 195.494 703.257 195.013 703.257 194.5C703.257 193.987 703.355 193.511 703.551 193.072C703.747 192.624 704.009 192.237 704.335 191.91C704.671 191.574 705.063 191.313 705.511 191.126C705.959 190.939 706.435 190.846 706.939 190.846C707.443 190.846 707.919 190.939 708.367 191.126C708.815 191.313 709.203 191.574 709.529 191.91C709.865 192.237 710.131 192.624 710.327 193.072C710.523 193.511 710.621 193.987 710.621 194.5C710.621 195.013 710.523 195.494 710.327 195.942C710.131 196.381 709.865 196.768 709.529 197.104C709.203 197.431 708.815 197.687 708.367 197.874C707.919 198.061 707.443 198.154 706.939 198.154ZM706.939 196.18C707.387 196.18 707.756 196.026 708.045 195.718C708.344 195.41 708.493 195.004 708.493 194.5C708.493 193.996 708.344 193.59 708.045 193.282C707.756 192.974 707.387 192.82 706.939 192.82C706.491 192.82 706.118 192.974 705.819 193.282C705.53 193.59 705.385 193.996 705.385 194.5C705.385 195.004 705.53 195.41 705.819 195.718C706.118 196.026 706.491 196.18 706.939 196.18ZM711.922 191H714.036V192.05C714.148 191.742 714.353 191.476 714.652 191.252C714.96 191.028 715.31 190.916 715.702 190.916C715.804 190.916 715.912 190.921 716.024 190.93C716.136 190.939 716.257 190.963 716.388 191V193.142C716.229 193.086 716.075 193.044 715.926 193.016C715.776 192.988 715.618 192.974 715.45 192.974C714.992 192.974 714.642 193.133 714.4 193.45C714.157 193.767 714.036 194.178 714.036 194.682V198H711.922V191ZM721.138 198.084C720.746 198.084 720.378 198.033 720.032 197.93C719.696 197.818 719.402 197.655 719.15 197.44C718.898 197.216 718.698 196.941 718.548 196.614C718.399 196.278 718.324 195.886 718.324 195.438V192.834H716.924V191H718.324V189.054H720.438V191H722.398V192.834H720.438V195.004C720.438 195.424 720.532 195.727 720.718 195.914C720.905 196.101 721.208 196.194 721.628 196.194C721.787 196.194 721.927 196.185 722.048 196.166C722.17 196.147 722.286 196.115 722.398 196.068V197.944C722.24 197.991 722.058 198.023 721.852 198.042C721.656 198.07 721.418 198.084 721.138 198.084ZM724.784 190.048C724.607 190.048 724.439 190.015 724.28 189.95C724.122 189.875 723.982 189.782 723.86 189.67C723.739 189.549 723.641 189.409 723.566 189.25C723.501 189.091 723.468 188.919 723.468 188.732C723.468 188.555 723.501 188.387 723.566 188.228C723.641 188.06 723.739 187.92 723.86 187.808C723.982 187.687 724.122 187.593 724.28 187.528C724.439 187.453 724.607 187.416 724.784 187.416C724.971 187.416 725.144 187.453 725.302 187.528C725.47 187.593 725.61 187.687 725.722 187.808C725.844 187.92 725.937 188.06 726.002 188.228C726.077 188.387 726.114 188.555 726.114 188.732C726.114 188.919 726.077 189.091 726.002 189.25C725.937 189.409 725.844 189.549 725.722 189.67C725.61 189.782 725.47 189.875 725.302 189.95C725.144 190.015 724.971 190.048 724.784 190.048ZM723.734 191H725.848V198H723.734V191ZM727.59 191H729.704V191.714C729.872 191.471 730.124 191.266 730.46 191.098C730.796 190.93 731.192 190.846 731.65 190.846C732.079 190.846 732.462 190.925 732.798 191.084C733.134 191.233 733.418 191.443 733.652 191.714C733.885 191.985 734.062 192.311 734.184 192.694C734.305 193.077 734.366 193.497 734.366 193.954V198H732.252V194.318C732.252 193.833 732.158 193.455 731.972 193.184C731.785 192.904 731.5 192.764 731.118 192.764C730.716 192.764 730.38 192.913 730.11 193.212C729.839 193.501 729.704 193.963 729.704 194.598V198H727.59V191ZM739.33 195.984C739.544 195.984 739.75 195.947 739.946 195.872C740.142 195.797 740.31 195.69 740.45 195.55C740.599 195.41 740.716 195.242 740.8 195.046C740.893 194.841 740.94 194.617 740.94 194.374C740.94 194.131 740.893 193.912 740.8 193.716C740.716 193.511 740.599 193.338 740.45 193.198C740.31 193.058 740.142 192.951 739.946 192.876C739.75 192.801 739.544 192.764 739.33 192.764C739.115 192.764 738.91 192.801 738.714 192.876C738.518 192.951 738.345 193.058 738.196 193.198C738.056 193.338 737.939 193.511 737.846 193.716C737.762 193.912 737.72 194.131 737.72 194.374C737.72 194.617 737.762 194.841 737.846 195.046C737.939 195.242 738.056 195.41 738.196 195.55C738.345 195.69 738.518 195.797 738.714 195.872C738.91 195.947 739.115 195.984 739.33 195.984ZM739.064 201.066C738.504 201.066 737.93 200.987 737.342 200.828C736.754 200.669 736.245 200.403 735.816 200.03L736.922 198.448C737.239 198.719 737.584 198.915 737.958 199.036C738.331 199.157 738.69 199.218 739.036 199.218C739.316 199.218 739.563 199.171 739.778 199.078C739.992 198.985 740.174 198.859 740.324 198.7C740.473 198.541 740.585 198.35 740.66 198.126C740.734 197.911 740.772 197.683 740.772 197.44V197.048C740.613 197.291 740.361 197.496 740.016 197.664C739.68 197.823 739.297 197.902 738.868 197.902C738.42 197.902 737.995 197.813 737.594 197.636C737.202 197.449 736.856 197.197 736.558 196.88C736.259 196.553 736.021 196.18 735.844 195.76C735.676 195.331 735.592 194.869 735.592 194.374C735.592 193.889 735.676 193.431 735.844 193.002C736.021 192.573 736.259 192.199 736.558 191.882C736.856 191.555 737.202 191.303 737.594 191.126C737.995 190.939 738.42 190.846 738.868 190.846C739.297 190.846 739.68 190.93 740.016 191.098C740.361 191.257 740.613 191.457 740.772 191.7V191H742.886V197.412C742.886 198.056 742.788 198.607 742.592 199.064C742.405 199.531 742.139 199.909 741.794 200.198C741.448 200.497 741.042 200.716 740.576 200.856C740.109 200.996 739.605 201.066 739.064 201.066Z" fill="white"/>
<path d="M199.87 183.462C199.87 183.938 199.782 184.386 199.604 184.806C199.427 185.217 199.18 185.576 198.862 185.884C198.554 186.183 198.186 186.421 197.756 186.598C197.336 186.766 196.874 186.85 196.37 186.85H195.222V190H192.996V180.06H196.37C196.874 180.06 197.336 180.149 197.756 180.326C198.186 180.494 198.554 180.732 198.862 181.04C199.18 181.348 199.427 181.712 199.604 182.132C199.782 182.543 199.87 182.986 199.87 183.462ZM197.714 183.462C197.714 183.089 197.584 182.781 197.322 182.538C197.07 182.286 196.744 182.16 196.342 182.16H195.222V184.764H196.342C196.744 184.764 197.07 184.638 197.322 184.386C197.584 184.134 197.714 183.826 197.714 183.462ZM200.963 183H203.077V184.05C203.189 183.742 203.394 183.476 203.693 183.252C204.001 183.028 204.351 182.916 204.743 182.916C204.845 182.916 204.953 182.921 205.065 182.93C205.177 182.939 205.298 182.963 205.429 183V185.142C205.27 185.086 205.116 185.044 204.967 185.016C204.817 184.988 204.659 184.974 204.491 184.974C204.033 184.974 203.683 185.133 203.441 185.45C203.198 185.767 203.077 186.178 203.077 186.682V190H200.963V183ZM209.667 190.154C209.154 190.154 208.668 190.07 208.211 189.902C207.763 189.734 207.371 189.491 207.035 189.174C206.699 188.857 206.433 188.474 206.237 188.026C206.041 187.569 205.943 187.06 205.943 186.5C205.943 185.977 206.032 185.497 206.209 185.058C206.396 184.61 206.652 184.223 206.979 183.896C207.315 183.569 207.707 183.313 208.155 183.126C208.603 182.939 209.093 182.846 209.625 182.846C210.082 182.846 210.521 182.921 210.941 183.07C211.37 183.21 211.744 183.425 212.061 183.714C212.378 183.994 212.63 184.349 212.817 184.778C213.013 185.198 213.111 185.693 213.111 186.262C213.111 186.355 213.106 186.463 213.097 186.584C213.097 186.696 213.088 186.836 213.069 187.004H207.987C208.052 187.424 208.253 187.737 208.589 187.942C208.925 188.138 209.294 188.236 209.695 188.236C210.106 188.236 210.456 188.157 210.745 187.998C211.044 187.83 211.258 187.643 211.389 187.438L212.957 188.614C212.63 189.081 212.182 189.454 211.613 189.734C211.053 190.014 210.404 190.154 209.667 190.154ZM211.011 185.618C210.918 185.245 210.731 184.979 210.451 184.82C210.171 184.652 209.877 184.568 209.569 184.568C209.41 184.568 209.252 184.587 209.093 184.624C208.934 184.661 208.785 184.722 208.645 184.806C208.505 184.89 208.379 184.997 208.267 185.128C208.164 185.259 208.09 185.422 208.043 185.618H211.011ZM214.345 185.072H218.461V187.088H214.345V185.072ZM223.673 190.084C223.281 190.084 222.913 190.033 222.567 189.93C222.231 189.818 221.937 189.655 221.685 189.44C221.433 189.216 221.233 188.941 221.083 188.614C220.934 188.278 220.859 187.886 220.859 187.438V184.834H219.459V183H220.859V181.054H222.973V183H224.933V184.834H222.973V187.004C222.973 187.424 223.067 187.727 223.253 187.914C223.44 188.101 223.743 188.194 224.163 188.194C224.322 188.194 224.462 188.185 224.583 188.166C224.705 188.147 224.821 188.115 224.933 188.068V189.944C224.775 189.991 224.593 190.023 224.387 190.042C224.191 190.07 223.953 190.084 223.673 190.084ZM226.269 183H228.383V184.05C228.495 183.742 228.701 183.476 228.999 183.252C229.307 183.028 229.657 182.916 230.049 182.916C230.152 182.916 230.259 182.921 230.371 182.93C230.483 182.939 230.605 182.963 230.735 183V185.142C230.577 185.086 230.423 185.044 230.273 185.016C230.124 184.988 229.965 184.974 229.797 184.974C229.34 184.974 228.99 185.133 228.747 185.45C228.505 185.767 228.383 186.178 228.383 186.682V190H226.269V183ZM234.498 190.154C234.04 190.154 233.611 190.056 233.21 189.86C232.818 189.664 232.477 189.403 232.188 189.076C231.898 188.74 231.67 188.353 231.502 187.914C231.334 187.466 231.25 186.995 231.25 186.5C231.25 186.005 231.334 185.539 231.502 185.1C231.67 184.652 231.898 184.265 232.188 183.938C232.477 183.602 232.818 183.336 233.21 183.14C233.611 182.944 234.04 182.846 234.498 182.846C234.731 182.846 234.946 182.874 235.142 182.93C235.347 182.977 235.529 183.042 235.688 183.126C235.856 183.21 235.996 183.303 236.108 183.406C236.229 183.509 236.327 183.607 236.402 183.7V183H238.516V190H236.402V189.3C236.327 189.393 236.229 189.491 236.108 189.594C235.996 189.697 235.856 189.79 235.688 189.874C235.529 189.958 235.347 190.023 235.142 190.07C234.946 190.126 234.731 190.154 234.498 190.154ZM234.974 188.236C235.45 188.236 235.832 188.073 236.122 187.746C236.42 187.419 236.57 187.004 236.57 186.5C236.57 185.996 236.42 185.581 236.122 185.254C235.832 184.927 235.45 184.764 234.974 184.764C234.498 184.764 234.11 184.927 233.812 185.254C233.522 185.581 233.378 185.996 233.378 186.5C233.378 187.004 233.522 187.419 233.812 187.746C234.11 188.073 234.498 188.236 234.974 188.236ZM243.084 190.154C242.626 190.154 242.197 190.056 241.796 189.86C241.404 189.664 241.063 189.403 240.774 189.076C240.484 188.74 240.256 188.353 240.088 187.914C239.92 187.466 239.836 186.995 239.836 186.5C239.836 186.005 239.92 185.539 240.088 185.1C240.256 184.652 240.484 184.265 240.774 183.938C241.063 183.602 241.404 183.336 241.796 183.14C242.197 182.944 242.626 182.846 243.084 182.846C243.317 182.846 243.532 182.874 243.728 182.93C243.933 182.977 244.115 183.042 244.274 183.126C244.442 183.21 244.582 183.303 244.694 183.406C244.815 183.509 244.913 183.607 244.988 183.7V179.5H247.102V190H244.988V189.3C244.913 189.393 244.815 189.491 244.694 189.594C244.582 189.697 244.442 189.79 244.274 189.874C244.115 189.958 243.933 190.023 243.728 190.07C243.532 190.126 243.317 190.154 243.084 190.154ZM243.56 188.236C244.036 188.236 244.418 188.073 244.708 187.746C245.006 187.419 245.156 187.004 245.156 186.5C245.156 185.996 245.006 185.581 244.708 185.254C244.418 184.927 244.036 184.764 243.56 184.764C243.084 184.764 242.696 184.927 242.398 185.254C242.108 185.581 241.964 185.996 241.964 186.5C241.964 187.004 242.108 187.419 242.398 187.746C242.696 188.073 243.084 188.236 243.56 188.236ZM252.146 190.154C251.632 190.154 251.147 190.07 250.69 189.902C250.242 189.734 249.85 189.491 249.514 189.174C249.178 188.857 248.912 188.474 248.716 188.026C248.52 187.569 248.422 187.06 248.422 186.5C248.422 185.977 248.51 185.497 248.688 185.058C248.874 184.61 249.131 184.223 249.458 183.896C249.794 183.569 250.186 183.313 250.634 183.126C251.082 182.939 251.572 182.846 252.104 182.846C252.561 182.846 253 182.921 253.42 183.07C253.849 183.21 254.222 183.425 254.54 183.714C254.857 183.994 255.109 184.349 255.296 184.778C255.492 185.198 255.59 185.693 255.59 186.262C255.59 186.355 255.585 186.463 255.576 186.584C255.576 186.696 255.566 186.836 255.548 187.004H250.466C250.531 187.424 250.732 187.737 251.068 187.942C251.404 188.138 251.772 188.236 252.174 188.236C252.584 188.236 252.934 188.157 253.224 187.998C253.522 187.83 253.737 187.643 253.868 187.438L255.436 188.614C255.109 189.081 254.661 189.454 254.092 189.734C253.532 190.014 252.883 190.154 252.146 190.154ZM253.49 185.618C253.396 185.245 253.21 184.979 252.93 184.82C252.65 184.652 252.356 184.568 252.048 184.568C251.889 184.568 251.73 184.587 251.572 184.624C251.413 184.661 251.264 184.722 251.124 184.806C250.984 184.89 250.858 184.997 250.746 185.128C250.643 185.259 250.568 185.422 250.522 185.618H253.49ZM189.323 205.154C188.81 205.154 188.325 205.065 187.867 204.888C187.419 204.701 187.027 204.449 186.691 204.132C186.355 203.805 186.089 203.418 185.893 202.97C185.697 202.522 185.599 202.032 185.599 201.5C185.599 200.968 185.697 200.478 185.893 200.03C186.089 199.582 186.355 199.199 186.691 198.882C187.027 198.555 187.419 198.303 187.867 198.126C188.325 197.939 188.81 197.846 189.323 197.846C189.687 197.846 190.037 197.897 190.373 198C190.709 198.093 191.022 198.233 191.311 198.42C191.601 198.597 191.862 198.812 192.095 199.064C192.329 199.307 192.52 199.582 192.669 199.89L190.821 200.87C190.691 200.571 190.495 200.324 190.233 200.128C189.981 199.923 189.678 199.82 189.323 199.82C189.099 199.82 188.889 199.862 188.693 199.946C188.507 200.03 188.339 200.147 188.189 200.296C188.049 200.436 187.937 200.609 187.853 200.814C187.769 201.019 187.727 201.248 187.727 201.5C187.727 201.752 187.769 201.981 187.853 202.186C187.937 202.391 188.049 202.569 188.189 202.718C188.339 202.858 188.507 202.97 188.693 203.054C188.889 203.138 189.099 203.18 189.323 203.18C189.678 203.18 189.981 203.082 190.233 202.886C190.495 202.681 190.691 202.429 190.821 202.13L192.669 203.11C192.52 203.418 192.329 203.698 192.095 203.95C191.862 204.193 191.601 204.407 191.311 204.594C191.022 204.771 190.709 204.907 190.373 205C190.037 205.103 189.687 205.154 189.323 205.154ZM197.047 205.154C196.543 205.154 196.067 205.061 195.619 204.874C195.171 204.687 194.779 204.431 194.443 204.104C194.116 203.768 193.855 203.381 193.659 202.942C193.463 202.494 193.365 202.013 193.365 201.5C193.365 200.987 193.463 200.511 193.659 200.072C193.855 199.624 194.116 199.237 194.443 198.91C194.779 198.574 195.171 198.313 195.619 198.126C196.067 197.939 196.543 197.846 197.047 197.846C197.551 197.846 198.027 197.939 198.475 198.126C198.923 198.313 199.31 198.574 199.637 198.91C199.973 199.237 200.239 199.624 200.435 200.072C200.631 200.511 200.729 200.987 200.729 201.5C200.729 202.013 200.631 202.494 200.435 202.942C200.239 203.381 199.973 203.768 199.637 204.104C199.31 204.431 198.923 204.687 198.475 204.874C198.027 205.061 197.551 205.154 197.047 205.154ZM197.047 203.18C197.495 203.18 197.863 203.026 198.153 202.718C198.451 202.41 198.601 202.004 198.601 201.5C198.601 200.996 198.451 200.59 198.153 200.282C197.863 199.974 197.495 199.82 197.047 199.82C196.599 199.82 196.225 199.974 195.927 200.282C195.637 200.59 195.493 200.996 195.493 201.5C195.493 202.004 195.637 202.41 195.927 202.718C196.225 203.026 196.599 203.18 197.047 203.18ZM210.793 201.374C210.793 200.861 210.714 200.464 210.555 200.184C210.396 199.904 210.14 199.764 209.785 199.764C209.421 199.764 209.122 199.904 208.889 200.184C208.665 200.464 208.544 200.907 208.525 201.514V205H206.411V201.374C206.411 200.861 206.332 200.464 206.173 200.184C206.014 199.904 205.758 199.764 205.403 199.764C205.03 199.764 204.726 199.909 204.493 200.198C204.26 200.487 204.143 200.954 204.143 201.598V205H202.029V198H204.143V198.714C204.33 198.471 204.568 198.266 204.857 198.098C205.156 197.93 205.515 197.846 205.935 197.846C206.439 197.846 206.868 197.953 207.223 198.168C207.587 198.383 207.876 198.686 208.091 199.078C208.203 198.863 208.343 198.681 208.511 198.532C208.679 198.373 208.861 198.243 209.057 198.14C209.253 198.037 209.454 197.963 209.659 197.916C209.864 197.869 210.06 197.846 210.247 197.846C211.106 197.846 211.764 198.131 212.221 198.7C212.678 199.26 212.907 200.03 212.907 201.01V205H210.793V201.374ZM214.553 207.926V198H216.667V198.7C216.732 198.607 216.825 198.509 216.947 198.406C217.068 198.303 217.208 198.21 217.367 198.126C217.535 198.042 217.717 197.977 217.913 197.93C218.118 197.874 218.337 197.846 218.571 197.846C219.028 197.846 219.453 197.944 219.845 198.14C220.246 198.336 220.591 198.602 220.881 198.938C221.17 199.265 221.399 199.652 221.567 200.1C221.735 200.539 221.819 201.005 221.819 201.5C221.819 201.995 221.735 202.466 221.567 202.914C221.399 203.353 221.17 203.74 220.881 204.076C220.591 204.403 220.246 204.664 219.845 204.86C219.453 205.056 219.028 205.154 218.571 205.154C218.337 205.154 218.118 205.126 217.913 205.07C217.717 205.023 217.535 204.958 217.367 204.874C217.208 204.79 217.068 204.697 216.947 204.594C216.825 204.491 216.732 204.393 216.667 204.3V207.926H214.553ZM218.095 203.236C218.571 203.236 218.953 203.073 219.243 202.746C219.541 202.419 219.691 202.004 219.691 201.5C219.691 200.996 219.541 200.581 219.243 200.254C218.953 199.927 218.571 199.764 218.095 199.764C217.619 199.764 217.231 199.927 216.933 200.254C216.643 200.581 216.499 200.996 216.499 201.5C216.499 202.004 216.643 202.419 216.933 202.746C217.231 203.073 217.619 203.236 218.095 203.236ZM223.139 194.5H225.253V205H223.139V194.5ZM228.044 197.048C227.867 197.048 227.699 197.015 227.54 196.95C227.381 196.875 227.241 196.782 227.12 196.67C226.999 196.549 226.901 196.409 226.826 196.25C226.761 196.091 226.728 195.919 226.728 195.732C226.728 195.555 226.761 195.387 226.826 195.228C226.901 195.06 226.999 194.92 227.12 194.808C227.241 194.687 227.381 194.593 227.54 194.528C227.699 194.453 227.867 194.416 228.044 194.416C228.231 194.416 228.403 194.453 228.562 194.528C228.73 194.593 228.87 194.687 228.982 194.808C229.103 194.92 229.197 195.06 229.262 195.228C229.337 195.387 229.374 195.555 229.374 195.732C229.374 195.919 229.337 196.091 229.262 196.25C229.197 196.409 229.103 196.549 228.982 196.67C228.87 196.782 228.73 196.875 228.562 196.95C228.403 197.015 228.231 197.048 228.044 197.048ZM226.994 198H229.108V205H226.994V198ZM233.677 205.154C233.22 205.154 232.791 205.056 232.389 204.86C231.997 204.664 231.657 204.403 231.367 204.076C231.078 203.74 230.849 203.353 230.681 202.914C230.513 202.466 230.429 201.995 230.429 201.5C230.429 201.005 230.513 200.539 230.681 200.1C230.849 199.652 231.078 199.265 231.367 198.938C231.657 198.602 231.997 198.336 232.389 198.14C232.791 197.944 233.22 197.846 233.677 197.846C233.911 197.846 234.125 197.874 234.321 197.93C234.527 197.977 234.709 198.042 234.867 198.126C235.035 198.21 235.175 198.303 235.287 198.406C235.409 198.509 235.507 198.607 235.581 198.7V198H237.695V205H235.581V204.3C235.507 204.393 235.409 204.491 235.287 204.594C235.175 204.697 235.035 204.79 234.867 204.874C234.709 204.958 234.527 205.023 234.321 205.07C234.125 205.126 233.911 205.154 233.677 205.154ZM234.153 203.236C234.629 203.236 235.012 203.073 235.301 202.746C235.6 202.419 235.749 202.004 235.749 201.5C235.749 200.996 235.6 200.581 235.301 200.254C235.012 199.927 234.629 199.764 234.153 199.764C233.677 199.764 233.29 199.927 232.991 200.254C232.702 200.581 232.557 200.996 232.557 201.5C232.557 202.004 232.702 202.419 232.991 202.746C233.29 203.073 233.677 203.236 234.153 203.236ZM239.435 198H241.549V198.714C241.717 198.471 241.969 198.266 242.305 198.098C242.641 197.93 243.038 197.846 243.495 197.846C243.925 197.846 244.307 197.925 244.643 198.084C244.979 198.233 245.264 198.443 245.497 198.714C245.731 198.985 245.908 199.311 246.029 199.694C246.151 200.077 246.211 200.497 246.211 200.954V205H244.097V201.318C244.097 200.833 244.004 200.455 243.817 200.184C243.631 199.904 243.346 199.764 242.963 199.764C242.562 199.764 242.226 199.913 241.955 200.212C241.685 200.501 241.549 200.963 241.549 201.598V205H239.435V198ZM251.161 205.154C250.648 205.154 250.163 205.065 249.705 204.888C249.257 204.701 248.865 204.449 248.529 204.132C248.193 203.805 247.927 203.418 247.731 202.97C247.535 202.522 247.437 202.032 247.437 201.5C247.437 200.968 247.535 200.478 247.731 200.03C247.927 199.582 248.193 199.199 248.529 198.882C248.865 198.555 249.257 198.303 249.705 198.126C250.163 197.939 250.648 197.846 251.161 197.846C251.525 197.846 251.875 197.897 252.211 198C252.547 198.093 252.86 198.233 253.149 198.42C253.439 198.597 253.7 198.812 253.933 199.064C254.167 199.307 254.358 199.582 254.507 199.89L252.659 200.87C252.529 200.571 252.333 200.324 252.071 200.128C251.819 199.923 251.516 199.82 251.161 199.82C250.937 199.82 250.727 199.862 250.531 199.946C250.345 200.03 250.177 200.147 250.027 200.296C249.887 200.436 249.775 200.609 249.691 200.814C249.607 201.019 249.565 201.248 249.565 201.5C249.565 201.752 249.607 201.981 249.691 202.186C249.775 202.391 249.887 202.569 250.027 202.718C250.177 202.858 250.345 202.97 250.531 203.054C250.727 203.138 250.937 203.18 251.161 203.18C251.516 203.18 251.819 203.082 252.071 202.886C252.333 202.681 252.529 202.429 252.659 202.13L254.507 203.11C254.358 203.418 254.167 203.698 253.933 203.95C253.7 204.193 253.439 204.407 253.149 204.594C252.86 204.771 252.547 204.907 252.211 205C251.875 205.103 251.525 205.154 251.161 205.154ZM258.941 205.154C258.427 205.154 257.942 205.07 257.485 204.902C257.037 204.734 256.645 204.491 256.309 204.174C255.973 203.857 255.707 203.474 255.511 203.026C255.315 202.569 255.217 202.06 255.217 201.5C255.217 200.977 255.305 200.497 255.483 200.058C255.669 199.61 255.926 199.223 256.253 198.896C256.589 198.569 256.981 198.313 257.429 198.126C257.877 197.939 258.367 197.846 258.899 197.846C259.356 197.846 259.795 197.921 260.215 198.07C260.644 198.21 261.017 198.425 261.335 198.714C261.652 198.994 261.904 199.349 262.091 199.778C262.287 200.198 262.385 200.693 262.385 201.262C262.385 201.355 262.38 201.463 262.371 201.584C262.371 201.696 262.361 201.836 262.343 202.004H257.261C257.326 202.424 257.527 202.737 257.863 202.942C258.199 203.138 258.567 203.236 258.969 203.236C259.379 203.236 259.729 203.157 260.019 202.998C260.317 202.83 260.532 202.643 260.663 202.438L262.231 203.614C261.904 204.081 261.456 204.454 260.887 204.734C260.327 205.014 259.678 205.154 258.941 205.154ZM260.285 200.618C260.191 200.245 260.005 199.979 259.725 199.82C259.445 199.652 259.151 199.568 258.843 199.568C258.684 199.568 258.525 199.587 258.367 199.624C258.208 199.661 258.059 199.722 257.919 199.806C257.779 199.89 257.653 199.997 257.541 200.128C257.438 200.259 257.363 200.422 257.317 200.618H260.285Z" fill="white"/>
<path d="M850.101 198.168C849.391 198.168 848.724 198.033 848.099 197.762C847.473 197.491 846.927 197.123 846.461 196.656C846.003 196.189 845.639 195.648 845.369 195.032C845.098 194.407 844.963 193.739 844.963 193.03C844.963 192.321 845.098 191.658 845.369 191.042C845.639 190.417 846.003 189.871 846.461 189.404C846.927 188.937 847.473 188.569 848.099 188.298C848.724 188.027 849.391 187.892 850.101 187.892C850.614 187.892 851.104 187.957 851.571 188.088C852.047 188.219 852.481 188.405 852.873 188.648C853.274 188.881 853.633 189.166 853.951 189.502C854.268 189.829 854.534 190.197 854.749 190.608L852.789 191.672C852.509 191.168 852.145 190.771 851.697 190.482C851.258 190.193 850.726 190.048 850.101 190.048C849.69 190.048 849.307 190.127 848.953 190.286C848.607 190.445 848.304 190.664 848.043 190.944C847.781 191.215 847.576 191.532 847.427 191.896C847.277 192.251 847.203 192.629 847.203 193.03C847.203 193.431 847.277 193.814 847.427 194.178C847.576 194.533 847.781 194.85 848.043 195.13C848.304 195.401 848.607 195.615 848.953 195.774C849.307 195.933 849.69 196.012 850.101 196.012C850.726 196.012 851.258 195.867 851.697 195.578C852.145 195.289 852.509 194.892 852.789 194.388L854.749 195.452C854.534 195.863 854.268 196.236 853.951 196.572C853.633 196.899 853.274 197.183 852.873 197.426C852.481 197.659 852.047 197.841 851.571 197.972C851.104 198.103 850.614 198.168 850.101 198.168ZM858.43 198.154C857.562 198.154 856.904 197.865 856.456 197.286C856.008 196.707 855.784 195.942 855.784 194.99V191H857.898V194.626C857.898 195.139 857.977 195.536 858.136 195.816C858.304 196.096 858.584 196.236 858.976 196.236C859.377 196.236 859.695 196.091 859.928 195.802C860.171 195.513 860.292 195.046 860.292 194.402V191H862.406V198H860.292V197.286C860.124 197.529 859.886 197.734 859.578 197.902C859.27 198.07 858.887 198.154 858.43 198.154ZM866.547 198.154C865.931 198.154 865.371 198.051 864.867 197.846C864.373 197.641 863.962 197.323 863.635 196.894L865.035 195.62C865.194 195.853 865.404 196.035 865.665 196.166C865.927 196.287 866.221 196.348 866.547 196.348C866.706 196.348 866.851 196.32 866.981 196.264C867.121 196.199 867.191 196.096 867.191 195.956C867.191 195.835 867.14 195.737 867.037 195.662C866.935 195.587 866.701 195.503 866.337 195.41L865.875 195.298C865.203 195.139 864.699 194.859 864.363 194.458C864.027 194.047 863.869 193.562 863.887 193.002C863.897 192.675 863.967 192.381 864.097 192.12C864.237 191.849 864.424 191.621 864.657 191.434C864.9 191.247 865.185 191.103 865.511 191C865.838 190.897 866.193 190.846 866.575 190.846C867.658 190.846 868.479 191.233 869.039 192.008L867.667 193.142C867.509 192.937 867.336 192.792 867.149 192.708C866.963 192.624 866.767 192.582 866.561 192.582C866.431 192.582 866.3 192.61 866.169 192.666C866.048 192.722 865.987 192.815 865.987 192.946C865.987 193.021 866.015 193.105 866.071 193.198C866.137 193.291 866.305 193.375 866.575 193.45L867.219 193.618C867.854 193.786 868.353 194.043 868.717 194.388C869.091 194.724 869.277 195.205 869.277 195.83C869.277 196.166 869.207 196.479 869.067 196.768C868.927 197.048 868.731 197.291 868.479 197.496C868.237 197.701 867.947 197.865 867.611 197.986C867.285 198.098 866.93 198.154 866.547 198.154ZM874.012 198.084C873.62 198.084 873.252 198.033 872.906 197.93C872.57 197.818 872.276 197.655 872.024 197.44C871.772 197.216 871.572 196.941 871.422 196.614C871.273 196.278 871.198 195.886 871.198 195.438V192.834H869.798V191H871.198V189.054H873.312V191H875.272V192.834H873.312V195.004C873.312 195.424 873.406 195.727 873.592 195.914C873.779 196.101 874.082 196.194 874.502 196.194C874.661 196.194 874.801 196.185 874.922 196.166C875.044 196.147 875.16 196.115 875.272 196.068V197.944C875.114 197.991 874.932 198.023 874.726 198.042C874.53 198.07 874.292 198.084 874.012 198.084ZM879.761 198.154C879.257 198.154 878.781 198.061 878.333 197.874C877.885 197.687 877.493 197.431 877.157 197.104C876.83 196.768 876.569 196.381 876.373 195.942C876.177 195.494 876.079 195.013 876.079 194.5C876.079 193.987 876.177 193.511 876.373 193.072C876.569 192.624 876.83 192.237 877.157 191.91C877.493 191.574 877.885 191.313 878.333 191.126C878.781 190.939 879.257 190.846 879.761 190.846C880.265 190.846 880.741 190.939 881.189 191.126C881.637 191.313 882.024 191.574 882.351 191.91C882.687 192.237 882.953 192.624 883.149 193.072C883.345 193.511 883.443 193.987 883.443 194.5C883.443 195.013 883.345 195.494 883.149 195.942C882.953 196.381 882.687 196.768 882.351 197.104C882.024 197.431 881.637 197.687 881.189 197.874C880.741 198.061 880.265 198.154 879.761 198.154ZM879.761 196.18C880.209 196.18 880.577 196.026 880.867 195.718C881.165 195.41 881.315 195.004 881.315 194.5C881.315 193.996 881.165 193.59 880.867 193.282C880.577 192.974 880.209 192.82 879.761 192.82C879.313 192.82 878.939 192.974 878.641 193.282C878.351 193.59 878.207 193.996 878.207 194.5C878.207 195.004 878.351 195.41 878.641 195.718C878.939 196.026 879.313 196.18 879.761 196.18ZM887.571 198.154C887.114 198.154 886.684 198.056 886.283 197.86C885.891 197.664 885.55 197.403 885.261 197.076C884.972 196.74 884.743 196.353 884.575 195.914C884.407 195.466 884.323 194.995 884.323 194.5C884.323 194.005 884.407 193.539 884.575 193.1C884.743 192.652 884.972 192.265 885.261 191.938C885.55 191.602 885.891 191.336 886.283 191.14C886.684 190.944 887.114 190.846 887.571 190.846C887.804 190.846 888.019 190.874 888.215 190.93C888.42 190.977 888.602 191.042 888.761 191.126C888.929 191.21 889.069 191.303 889.181 191.406C889.302 191.509 889.4 191.607 889.475 191.7V187.5H891.589V198H889.475V197.3C889.4 197.393 889.302 197.491 889.181 197.594C889.069 197.697 888.929 197.79 888.761 197.874C888.602 197.958 888.42 198.023 888.215 198.07C888.019 198.126 887.804 198.154 887.571 198.154ZM888.047 196.236C888.523 196.236 888.906 196.073 889.195 195.746C889.494 195.419 889.643 195.004 889.643 194.5C889.643 193.996 889.494 193.581 889.195 193.254C888.906 192.927 888.523 192.764 888.047 192.764C887.571 192.764 887.184 192.927 886.885 193.254C886.596 193.581 886.451 193.996 886.451 194.5C886.451 195.004 886.596 195.419 886.885 195.746C887.184 196.073 887.571 196.236 888.047 196.236ZM893.917 200.926L895.373 197.594L892.461 191H894.771L896.507 195.326L898.229 191H900.553L896.199 200.926H893.917Z" fill="white"/>
</svg>
