<svg width="263" height="319" viewBox="0 0 263 319" fill="none" xmlns="http://www.w3.org/2000/svg">
<path d="M131.775 37.1478C131.775 37.0662 131.715 37 131.642 37C131.569 37 131.51 37.0662 131.51 37.1478C131.51 50.7022 130.473 59.1717 128.129 65.0335C125.79 70.8837 122.142 74.1512 116.875 77.2832C112.452 79.9133 107.739 83.0417 104.13 86.6917C100.523 90.3399 98 94.5296 98 99.2827C98 99.3643 98.0593 99.4305 98.1324 99.4305C98.2056 99.4305 98.2649 99.3643 98.2649 99.2827" stroke="#BBC0C5" stroke-linecap="round" stroke-linejoin="round" stroke-dasharray="1 5"/>
<path d="M165 99.4305C164.927 99.4305 164.868 99.3643 164.868 99.2827C164.868 94.6528 162.409 90.5368 158.824 86.9106C155.241 83.2862 150.551 80.1716 146.133 77.544C140.839 74.396 137.134 71.0879 134.761 65.1539C132.393 59.2315 131.358 50.7081 131.358 37.1478C131.358 37.0662 131.417 37 131.49 37C131.563 37 131.623 37.0662 131.623 37.1478" stroke="#BBC0C5" stroke-linecap="round" stroke-linejoin="round" stroke-dasharray="1 5"/>
<path d="M0 103C0 100.791 1.79086 99 4 99H120C122.209 99 124 100.791 124 103V157C124 159.209 122.209 161 120 161H4C1.79086 161 0 159.209 0 157V103Z" fill="url(#paint0_linear)"/>
<path d="M0 182C0 179.791 1.79086 178 4 178H120C122.209 178 124 179.791 124 182V236C124 238.209 122.209 240 120 240H4C1.79086 240 0 238.209 0 236V182Z" fill="url(#paint1_linear)"/>
<path d="M139 182C139 179.791 140.791 178 143 178H259C261.209 178 263 179.791 263 182V236C263 238.209 261.209 240 259 240H143C140.791 240 139 238.209 139 236V182Z" fill="url(#paint2_linear)"/>
<path d="M0 261C0 258.791 1.79086 257 4 257H120C122.209 257 124 258.791 124 261V315C124 317.209 122.209 319 120 319H4C1.79086 319 0 317.209 0 315V261Z" fill="url(#paint3_linear)"/>
<path d="M139 103C139 100.791 140.791 99 143 99H259C261.209 99 263 100.791 263 103V157C263 159.209 261.209 161 259 161H143C140.791 161 139 159.209 139 157V103Z" fill="url(#paint4_linear)"/>
<path d="M139 261C139 258.791 140.791 257 143 257H259C261.209 257 263 258.791 263 261V315C263 317.209 261.209 319 259 319H143C140.791 319 139 317.209 139 315V261Z" fill="url(#paint5_linear)"/>
<path d="M32.1994 126.06H36.1194C36.5861 126.06 37.0107 126.139 37.3934 126.298C37.7761 126.457 38.0981 126.671 38.3594 126.942C38.6301 127.213 38.8354 127.53 38.9754 127.894C39.1247 128.258 39.1994 128.645 39.1994 129.056C39.1994 129.7 39.0314 130.232 38.6954 130.652C38.3687 131.072 37.8881 131.394 37.2534 131.618L40.7674 136H38.0934L34.7754 131.898H34.4254V136H32.1994V126.06ZM35.8534 130.008C36.1801 130.008 36.4507 129.924 36.6654 129.756C36.8801 129.579 36.9874 129.345 36.9874 129.056C36.9874 128.757 36.8801 128.524 36.6654 128.356C36.4507 128.188 36.1801 128.104 35.8534 128.104H34.4254V130.008H35.8534ZM44.2218 136.154C43.7085 136.154 43.2231 136.07 42.7658 135.902C42.3178 135.734 41.9258 135.491 41.5898 135.174C41.2538 134.857 40.9878 134.474 40.7918 134.026C40.5958 133.569 40.4978 133.06 40.4978 132.5C40.4978 131.977 40.5865 131.497 40.7638 131.058C40.9505 130.61 41.2071 130.223 41.5338 129.896C41.8698 129.569 42.2618 129.313 42.7098 129.126C43.1578 128.939 43.6478 128.846 44.1798 128.846C44.6371 128.846 45.0758 128.921 45.4958 129.07C45.9251 129.21 46.2985 129.425 46.6158 129.714C46.9331 129.994 47.1851 130.349 47.3718 130.778C47.5678 131.198 47.6658 131.693 47.6658 132.262C47.6658 132.355 47.6611 132.463 47.6518 132.584C47.6518 132.696 47.6425 132.836 47.6238 133.004H42.5418C42.6071 133.424 42.8078 133.737 43.1438 133.942C43.4798 134.138 43.8485 134.236 44.2498 134.236C44.6605 134.236 45.0105 134.157 45.2998 133.998C45.5985 133.83 45.8131 133.643 45.9438 133.438L47.5118 134.614C47.1851 135.081 46.7371 135.454 46.1678 135.734C45.6078 136.014 44.9591 136.154 44.2218 136.154ZM45.5658 131.618C45.4725 131.245 45.2858 130.979 45.0058 130.82C44.7258 130.652 44.4318 130.568 44.1238 130.568C43.9651 130.568 43.8065 130.587 43.6478 130.624C43.4891 130.661 43.3398 130.722 43.1998 130.806C43.0598 130.89 42.9338 130.997 42.8218 131.128C42.7191 131.259 42.6445 131.422 42.5978 131.618H45.5658ZM51.4059 136.154C50.7899 136.154 50.2299 136.051 49.7259 135.846C49.2312 135.641 48.8205 135.323 48.4939 134.894L49.8939 133.62C50.0525 133.853 50.2625 134.035 50.5239 134.166C50.7852 134.287 51.0792 134.348 51.4059 134.348C51.5645 134.348 51.7092 134.32 51.8399 134.264C51.9799 134.199 52.0499 134.096 52.0499 133.956C52.0499 133.835 51.9985 133.737 51.8959 133.662C51.7932 133.587 51.5599 133.503 51.1959 133.41L50.7339 133.298C50.0619 133.139 49.5579 132.859 49.2219 132.458C48.8859 132.047 48.7272 131.562 48.7459 131.002C48.7552 130.675 48.8252 130.381 48.9559 130.12C49.0959 129.849 49.2825 129.621 49.5159 129.434C49.7585 129.247 50.0432 129.103 50.3699 129C50.6965 128.897 51.0512 128.846 51.4339 128.846C52.5165 128.846 53.3379 129.233 53.8979 130.008L52.5259 131.142C52.3672 130.937 52.1945 130.792 52.0079 130.708C51.8212 130.624 51.6252 130.582 51.4199 130.582C51.2892 130.582 51.1585 130.61 51.0279 130.666C50.9065 130.722 50.8459 130.815 50.8459 130.946C50.8459 131.021 50.8739 131.105 50.9299 131.198C50.9952 131.291 51.1632 131.375 51.4339 131.45L52.0779 131.618C52.7125 131.786 53.2119 132.043 53.5759 132.388C53.9492 132.724 54.1359 133.205 54.1359 133.83C54.1359 134.166 54.0659 134.479 53.9259 134.768C53.7859 135.048 53.5899 135.291 53.3379 135.496C53.0952 135.701 52.8059 135.865 52.4699 135.986C52.1432 136.098 51.7885 136.154 51.4059 136.154ZM58.755 136.154C58.2417 136.154 57.7563 136.07 57.299 135.902C56.851 135.734 56.459 135.491 56.123 135.174C55.787 134.857 55.521 134.474 55.325 134.026C55.129 133.569 55.031 133.06 55.031 132.5C55.031 131.977 55.1197 131.497 55.297 131.058C55.4837 130.61 55.7403 130.223 56.067 129.896C56.403 129.569 56.795 129.313 57.243 129.126C57.691 128.939 58.181 128.846 58.713 128.846C59.1703 128.846 59.609 128.921 60.029 129.07C60.4583 129.21 60.8317 129.425 61.149 129.714C61.4663 129.994 61.7183 130.349 61.905 130.778C62.101 131.198 62.199 131.693 62.199 132.262C62.199 132.355 62.1943 132.463 62.185 132.584C62.185 132.696 62.1757 132.836 62.157 133.004H57.075C57.1403 133.424 57.341 133.737 57.677 133.942C58.013 134.138 58.3817 134.236 58.783 134.236C59.1937 134.236 59.5437 134.157 59.833 133.998C60.1317 133.83 60.3463 133.643 60.477 133.438L62.045 134.614C61.7183 135.081 61.2703 135.454 60.701 135.734C60.141 136.014 59.4923 136.154 58.755 136.154ZM60.099 131.618C60.0057 131.245 59.819 130.979 59.539 130.82C59.259 130.652 58.965 130.568 58.657 130.568C58.4983 130.568 58.3397 130.587 58.181 130.624C58.0223 130.661 57.873 130.722 57.733 130.806C57.593 130.89 57.467 130.997 57.355 131.128C57.2523 131.259 57.1777 131.422 57.131 131.618H60.099ZM66.3591 136.154C65.9018 136.154 65.4724 136.056 65.0711 135.86C64.6791 135.664 64.3384 135.403 64.0491 135.076C63.7598 134.74 63.5311 134.353 63.3631 133.914C63.1951 133.466 63.1111 132.995 63.1111 132.5C63.1111 132.005 63.1951 131.539 63.3631 131.1C63.5311 130.652 63.7598 130.265 64.0491 129.938C64.3384 129.602 64.6791 129.336 65.0711 129.14C65.4724 128.944 65.9018 128.846 66.3591 128.846C66.5924 128.846 66.8071 128.874 67.0031 128.93C67.2084 128.977 67.3904 129.042 67.5491 129.126C67.7171 129.21 67.8571 129.303 67.9691 129.406C68.0904 129.509 68.1884 129.607 68.2631 129.7V129H70.3771V136H68.2631V135.3C68.1884 135.393 68.0904 135.491 67.9691 135.594C67.8571 135.697 67.7171 135.79 67.5491 135.874C67.3904 135.958 67.2084 136.023 67.0031 136.07C66.8071 136.126 66.5924 136.154 66.3591 136.154ZM66.8351 134.236C67.3111 134.236 67.6938 134.073 67.9831 133.746C68.2818 133.419 68.4311 133.004 68.4311 132.5C68.4311 131.996 68.2818 131.581 67.9831 131.254C67.6938 130.927 67.3111 130.764 66.8351 130.764C66.3591 130.764 65.9718 130.927 65.6731 131.254C65.3838 131.581 65.2391 131.996 65.2391 132.5C65.2391 133.004 65.3838 133.419 65.6731 133.746C65.9718 134.073 66.3591 134.236 66.8351 134.236ZM72.117 129H74.231V130.05C74.343 129.742 74.5484 129.476 74.847 129.252C75.155 129.028 75.505 128.916 75.897 128.916C75.9997 128.916 76.107 128.921 76.219 128.93C76.331 128.939 76.4524 128.963 76.583 129V131.142C76.4244 131.086 76.2704 131.044 76.121 131.016C75.9717 130.988 75.813 130.974 75.645 130.974C75.1877 130.974 74.8377 131.133 74.595 131.45C74.3524 131.767 74.231 132.178 74.231 132.682V136H72.117V129ZM80.8214 136.154C80.3081 136.154 79.8227 136.065 79.3654 135.888C78.9174 135.701 78.5254 135.449 78.1894 135.132C77.8534 134.805 77.5874 134.418 77.3914 133.97C77.1954 133.522 77.0974 133.032 77.0974 132.5C77.0974 131.968 77.1954 131.478 77.3914 131.03C77.5874 130.582 77.8534 130.199 78.1894 129.882C78.5254 129.555 78.9174 129.303 79.3654 129.126C79.8227 128.939 80.3081 128.846 80.8214 128.846C81.1854 128.846 81.5354 128.897 81.8714 129C82.2074 129.093 82.5201 129.233 82.8094 129.42C83.0987 129.597 83.3601 129.812 83.5934 130.064C83.8267 130.307 84.0181 130.582 84.1674 130.89L82.3194 131.87C82.1887 131.571 81.9927 131.324 81.7314 131.128C81.4794 130.923 81.1761 130.82 80.8214 130.82C80.5974 130.82 80.3874 130.862 80.1914 130.946C80.0047 131.03 79.8367 131.147 79.6874 131.296C79.5474 131.436 79.4354 131.609 79.3514 131.814C79.2674 132.019 79.2254 132.248 79.2254 132.5C79.2254 132.752 79.2674 132.981 79.3514 133.186C79.4354 133.391 79.5474 133.569 79.6874 133.718C79.8367 133.858 80.0047 133.97 80.1914 134.054C80.3874 134.138 80.5974 134.18 80.8214 134.18C81.1761 134.18 81.4794 134.082 81.7314 133.886C81.9927 133.681 82.1887 133.429 82.3194 133.13L84.1674 134.11C84.0181 134.418 83.8267 134.698 83.5934 134.95C83.3601 135.193 83.0987 135.407 82.8094 135.594C82.5201 135.771 82.2074 135.907 81.8714 136C81.5354 136.103 81.1854 136.154 80.8214 136.154ZM85.2967 136V125.5H87.4107V129.714C87.5787 129.471 87.8307 129.266 88.1667 129.098C88.5027 128.93 88.8994 128.846 89.3567 128.846C89.786 128.846 90.1687 128.925 90.5047 129.084C90.8407 129.233 91.1254 129.443 91.3587 129.714C91.592 129.985 91.7694 130.311 91.8907 130.694C92.012 131.077 92.0727 131.497 92.0727 131.954V136H89.9587V132.318C89.9587 131.833 89.8654 131.455 89.6787 131.184C89.492 130.904 89.2074 130.764 88.8247 130.764C88.4234 130.764 88.0874 130.913 87.8167 131.212C87.546 131.501 87.4107 131.963 87.4107 132.598V136H85.2967Z" fill="white"/>
<path d="M48.8322 197.06H52.5702C52.9716 197.06 53.3496 197.139 53.7042 197.298C54.0682 197.447 54.3856 197.657 54.6562 197.928C54.9269 198.189 55.1369 198.502 55.2862 198.866C55.4449 199.221 55.5242 199.603 55.5242 200.014C55.5242 200.369 55.4589 200.691 55.3282 200.98C55.1976 201.26 55.0249 201.507 54.8102 201.722C55.2302 201.937 55.5709 202.249 55.8322 202.66C56.0936 203.071 56.2242 203.542 56.2242 204.074C56.2242 204.485 56.1449 204.867 55.9862 205.222C55.8369 205.577 55.6269 205.889 55.3562 206.16C55.0856 206.421 54.7636 206.627 54.3902 206.776C54.0262 206.925 53.6296 207 53.2002 207H48.8322V197.06ZM53.0182 204.956C53.3169 204.956 53.5642 204.863 53.7602 204.676C53.9562 204.48 54.0542 204.242 54.0542 203.962C54.0542 203.691 53.9516 203.458 53.7462 203.262C53.5502 203.066 53.3029 202.968 53.0042 202.968H51.0582V204.956H53.0182ZM52.3182 201.078C52.6169 201.078 52.8642 200.985 53.0602 200.798C53.2562 200.602 53.3542 200.369 53.3542 200.098C53.3542 199.827 53.2562 199.594 53.0602 199.398C52.8642 199.193 52.6169 199.09 52.3182 199.09H51.0582V201.078H52.3182ZM60.8409 207.154C60.3276 207.154 59.8423 207.07 59.3849 206.902C58.9369 206.734 58.5449 206.491 58.2089 206.174C57.8729 205.857 57.6069 205.474 57.4109 205.026C57.2149 204.569 57.1169 204.06 57.1169 203.5C57.1169 202.977 57.2056 202.497 57.3829 202.058C57.5696 201.61 57.8263 201.223 58.1529 200.896C58.4889 200.569 58.8809 200.313 59.3289 200.126C59.7769 199.939 60.2669 199.846 60.7989 199.846C61.2563 199.846 61.6949 199.921 62.1149 200.07C62.5443 200.21 62.9176 200.425 63.2349 200.714C63.5523 200.994 63.8043 201.349 63.9909 201.778C64.1869 202.198 64.2849 202.693 64.2849 203.262C64.2849 203.355 64.2803 203.463 64.2709 203.584C64.2709 203.696 64.2616 203.836 64.2429 204.004H59.1609C59.2263 204.424 59.4269 204.737 59.7629 204.942C60.0989 205.138 60.4676 205.236 60.8689 205.236C61.2796 205.236 61.6296 205.157 61.9189 204.998C62.2176 204.83 62.4323 204.643 62.5629 204.438L64.1309 205.614C63.8043 206.081 63.3563 206.454 62.7869 206.734C62.2269 207.014 61.5783 207.154 60.8409 207.154ZM62.1849 202.618C62.0916 202.245 61.9049 201.979 61.6249 201.82C61.3449 201.652 61.0509 201.568 60.7429 201.568C60.5843 201.568 60.4256 201.587 60.2669 201.624C60.1083 201.661 59.9589 201.722 59.8189 201.806C59.6789 201.89 59.5529 201.997 59.4409 202.128C59.3383 202.259 59.2636 202.422 59.2169 202.618H62.1849ZM68.025 207.154C67.409 207.154 66.849 207.051 66.345 206.846C65.8504 206.641 65.4397 206.323 65.113 205.894L66.513 204.62C66.6717 204.853 66.8817 205.035 67.143 205.166C67.4044 205.287 67.6984 205.348 68.025 205.348C68.1837 205.348 68.3284 205.32 68.459 205.264C68.599 205.199 68.669 205.096 68.669 204.956C68.669 204.835 68.6177 204.737 68.515 204.662C68.4124 204.587 68.179 204.503 67.815 204.41L67.353 204.298C66.681 204.139 66.177 203.859 65.841 203.458C65.505 203.047 65.3464 202.562 65.365 202.002C65.3744 201.675 65.4444 201.381 65.575 201.12C65.715 200.849 65.9017 200.621 66.135 200.434C66.3777 200.247 66.6624 200.103 66.989 200C67.3157 199.897 67.6704 199.846 68.053 199.846C69.1357 199.846 69.957 200.233 70.517 201.008L69.145 202.142C68.9864 201.937 68.8137 201.792 68.627 201.708C68.4404 201.624 68.2444 201.582 68.039 201.582C67.9084 201.582 67.7777 201.61 67.647 201.666C67.5257 201.722 67.465 201.815 67.465 201.946C67.465 202.021 67.493 202.105 67.549 202.198C67.6144 202.291 67.7824 202.375 68.053 202.45L68.697 202.618C69.3317 202.786 69.831 203.043 70.195 203.388C70.5684 203.724 70.755 204.205 70.755 204.83C70.755 205.166 70.685 205.479 70.545 205.768C70.405 206.048 70.209 206.291 69.957 206.496C69.7144 206.701 69.425 206.865 69.089 206.986C68.7624 207.098 68.4077 207.154 68.025 207.154ZM75.4898 207.084C75.0978 207.084 74.7291 207.033 74.3838 206.93C74.0478 206.818 73.7538 206.655 73.5018 206.44C73.2498 206.216 73.0491 205.941 72.8998 205.614C72.7504 205.278 72.6758 204.886 72.6758 204.438V201.834H71.2758V200H72.6758V198.054H74.7898V200H76.7498V201.834H74.7898V204.004C74.7898 204.424 74.8831 204.727 75.0698 204.914C75.2564 205.101 75.5598 205.194 75.9798 205.194C76.1384 205.194 76.2784 205.185 76.3998 205.166C76.5211 205.147 76.6378 205.115 76.7498 205.068V206.944C76.5911 206.991 76.4091 207.023 76.2038 207.042C76.0078 207.07 75.7698 207.084 75.4898 207.084ZM33.5997 222.154C33.0864 222.154 32.6011 222.07 32.1437 221.902C31.6957 221.734 31.3037 221.491 30.9677 221.174C30.6317 220.857 30.3657 220.474 30.1697 220.026C29.9737 219.569 29.8757 219.06 29.8757 218.5C29.8757 217.977 29.9644 217.497 30.1417 217.058C30.3284 216.61 30.5851 216.223 30.9117 215.896C31.2477 215.569 31.6397 215.313 32.0877 215.126C32.5357 214.939 33.0257 214.846 33.5577 214.846C34.0151 214.846 34.4537 214.921 34.8737 215.07C35.3031 215.21 35.6764 215.425 35.9937 215.714C36.3111 215.994 36.5631 216.349 36.7497 216.778C36.9457 217.198 37.0437 217.693 37.0437 218.262C37.0437 218.355 37.0391 218.463 37.0297 218.584C37.0297 218.696 37.0204 218.836 37.0017 219.004H31.9197C31.9851 219.424 32.1857 219.737 32.5217 219.942C32.8577 220.138 33.2264 220.236 33.6277 220.236C34.0384 220.236 34.3884 220.157 34.6777 219.998C34.9764 219.83 35.1911 219.643 35.3217 219.438L36.8897 220.614C36.5631 221.081 36.1151 221.454 35.5457 221.734C34.9857 222.014 34.3371 222.154 33.5997 222.154ZM34.9437 217.618C34.8504 217.245 34.6637 216.979 34.3837 216.82C34.1037 216.652 33.8097 216.568 33.5017 216.568C33.3431 216.568 33.1844 216.587 33.0257 216.624C32.8671 216.661 32.7177 216.722 32.5777 216.806C32.4377 216.89 32.3117 216.997 32.1997 217.128C32.0971 217.259 32.0224 217.422 31.9757 217.618H34.9437ZM41.1847 220.096L39.7007 222H37.1667L39.8547 218.612L37.1947 215H39.6867L41.1707 217.044L42.6547 215H45.1747L42.5147 218.612L45.1887 222H42.6687L41.1847 220.096ZM48.9396 222.154C48.4262 222.154 47.9409 222.07 47.4836 221.902C47.0356 221.734 46.6436 221.491 46.3076 221.174C45.9716 220.857 45.7056 220.474 45.5096 220.026C45.3136 219.569 45.2156 219.06 45.2156 218.5C45.2156 217.977 45.3042 217.497 45.4816 217.058C45.6682 216.61 45.9249 216.223 46.2516 215.896C46.5876 215.569 46.9796 215.313 47.4276 215.126C47.8756 214.939 48.3656 214.846 48.8976 214.846C49.3549 214.846 49.7936 214.921 50.2136 215.07C50.6429 215.21 51.0162 215.425 51.3336 215.714C51.6509 215.994 51.9029 216.349 52.0896 216.778C52.2856 217.198 52.3836 217.693 52.3836 218.262C52.3836 218.355 52.3789 218.463 52.3696 218.584C52.3696 218.696 52.3602 218.836 52.3416 219.004H47.2596C47.3249 219.424 47.5256 219.737 47.8616 219.942C48.1976 220.138 48.5662 220.236 48.9676 220.236C49.3782 220.236 49.7282 220.157 50.0176 219.998C50.3162 219.83 50.5309 219.643 50.6616 219.438L52.2296 220.614C51.9029 221.081 51.4549 221.454 50.8856 221.734C50.3256 222.014 49.6769 222.154 48.9396 222.154ZM50.2836 217.618C50.1902 217.245 50.0036 216.979 49.7236 216.82C49.4436 216.652 49.1496 216.568 48.8416 216.568C48.6829 216.568 48.5242 216.587 48.3656 216.624C48.2069 216.661 48.0576 216.722 47.9176 216.806C47.7776 216.89 47.6516 216.997 47.5396 217.128C47.4369 217.259 47.3622 217.422 47.3156 217.618H50.2836ZM57.0197 222.154C56.5063 222.154 56.021 222.065 55.5637 221.888C55.1157 221.701 54.7237 221.449 54.3877 221.132C54.0517 220.805 53.7857 220.418 53.5897 219.97C53.3937 219.522 53.2957 219.032 53.2957 218.5C53.2957 217.968 53.3937 217.478 53.5897 217.03C53.7857 216.582 54.0517 216.199 54.3877 215.882C54.7237 215.555 55.1157 215.303 55.5637 215.126C56.021 214.939 56.5063 214.846 57.0197 214.846C57.3837 214.846 57.7337 214.897 58.0697 215C58.4057 215.093 58.7183 215.233 59.0077 215.42C59.297 215.597 59.5583 215.812 59.7917 216.064C60.025 216.307 60.2163 216.582 60.3657 216.89L58.5177 217.87C58.387 217.571 58.191 217.324 57.9297 217.128C57.6777 216.923 57.3743 216.82 57.0197 216.82C56.7957 216.82 56.5857 216.862 56.3897 216.946C56.203 217.03 56.035 217.147 55.8857 217.296C55.7457 217.436 55.6337 217.609 55.5497 217.814C55.4657 218.019 55.4237 218.248 55.4237 218.5C55.4237 218.752 55.4657 218.981 55.5497 219.186C55.6337 219.391 55.7457 219.569 55.8857 219.718C56.035 219.858 56.203 219.97 56.3897 220.054C56.5857 220.138 56.7957 220.18 57.0197 220.18C57.3743 220.18 57.6777 220.082 57.9297 219.886C58.191 219.681 58.387 219.429 58.5177 219.13L60.3657 220.11C60.2163 220.418 60.025 220.698 59.7917 220.95C59.5583 221.193 59.297 221.407 59.0077 221.594C58.7183 221.771 58.4057 221.907 58.0697 222C57.7337 222.103 57.3837 222.154 57.0197 222.154ZM64.057 222.154C63.189 222.154 62.531 221.865 62.083 221.286C61.635 220.707 61.411 219.942 61.411 218.99V215H63.525V218.626C63.525 219.139 63.6043 219.536 63.763 219.816C63.931 220.096 64.211 220.236 64.603 220.236C65.0043 220.236 65.3216 220.091 65.555 219.802C65.7976 219.513 65.919 219.046 65.919 218.402V215H68.033V222H65.919V221.286C65.751 221.529 65.513 221.734 65.205 221.902C64.897 222.07 64.5143 222.154 64.057 222.154ZM73.3364 222.084C72.9444 222.084 72.5758 222.033 72.2304 221.93C71.8944 221.818 71.6004 221.655 71.3484 221.44C71.0964 221.216 70.8958 220.941 70.7464 220.614C70.5971 220.278 70.5224 219.886 70.5224 219.438V216.834H69.1224V215H70.5224V213.054H72.6364V215H74.5964V216.834H72.6364V219.004C72.6364 219.424 72.7298 219.727 72.9164 219.914C73.1031 220.101 73.4064 220.194 73.8264 220.194C73.9851 220.194 74.1251 220.185 74.2464 220.166C74.3678 220.147 74.4844 220.115 74.5964 220.068V221.944C74.4378 221.991 74.2558 222.023 74.0504 222.042C73.8544 222.07 73.6164 222.084 73.3364 222.084ZM76.9825 214.048C76.8051 214.048 76.6371 214.015 76.4785 213.95C76.3198 213.875 76.1798 213.782 76.0585 213.67C75.9371 213.549 75.8391 213.409 75.7645 213.25C75.6991 213.091 75.6665 212.919 75.6665 212.732C75.6665 212.555 75.6991 212.387 75.7645 212.228C75.8391 212.06 75.9371 211.92 76.0585 211.808C76.1798 211.687 76.3198 211.593 76.4785 211.528C76.6371 211.453 76.8051 211.416 76.9825 211.416C77.1691 211.416 77.3418 211.453 77.5005 211.528C77.6685 211.593 77.8085 211.687 77.9205 211.808C78.0418 211.92 78.1351 212.06 78.2005 212.228C78.2751 212.387 78.3125 212.555 78.3125 212.732C78.3125 212.919 78.2751 213.091 78.2005 213.25C78.1351 213.409 78.0418 213.549 77.9205 213.67C77.8085 213.782 77.6685 213.875 77.5005 213.95C77.3418 214.015 77.1691 214.048 76.9825 214.048ZM75.9325 215H78.0465V222H75.9325V215ZM83.0359 222.154C82.5319 222.154 82.0559 222.061 81.6079 221.874C81.1599 221.687 80.7679 221.431 80.4319 221.104C80.1053 220.768 79.8439 220.381 79.6479 219.942C79.4519 219.494 79.3539 219.013 79.3539 218.5C79.3539 217.987 79.4519 217.511 79.6479 217.072C79.8439 216.624 80.1053 216.237 80.4319 215.91C80.7679 215.574 81.1599 215.313 81.6079 215.126C82.0559 214.939 82.5319 214.846 83.0359 214.846C83.5399 214.846 84.0159 214.939 84.4639 215.126C84.9119 215.313 85.2993 215.574 85.6259 215.91C85.9619 216.237 86.2279 216.624 86.4239 217.072C86.6199 217.511 86.7179 217.987 86.7179 218.5C86.7179 219.013 86.6199 219.494 86.4239 219.942C86.2279 220.381 85.9619 220.768 85.6259 221.104C85.2993 221.431 84.9119 221.687 84.4639 221.874C84.0159 222.061 83.5399 222.154 83.0359 222.154ZM83.0359 220.18C83.4839 220.18 83.8526 220.026 84.1419 219.718C84.4406 219.41 84.5899 219.004 84.5899 218.5C84.5899 217.996 84.4406 217.59 84.1419 217.282C83.8526 216.974 83.4839 216.82 83.0359 216.82C82.5879 216.82 82.2146 216.974 81.9159 217.282C81.6266 217.59 81.4819 217.996 81.4819 218.5C81.4819 219.004 81.6266 219.41 81.9159 219.718C82.2146 220.026 82.5879 220.18 83.0359 220.18ZM88.0184 215H90.1324V215.714C90.3004 215.471 90.5524 215.266 90.8884 215.098C91.2244 214.93 91.6211 214.846 92.0784 214.846C92.5077 214.846 92.8904 214.925 93.2264 215.084C93.5624 215.233 93.8471 215.443 94.0804 215.714C94.3137 215.985 94.4911 216.311 94.6124 216.694C94.7337 217.077 94.7944 217.497 94.7944 217.954V222H92.6804V218.318C92.6804 217.833 92.5871 217.455 92.4004 217.184C92.2137 216.904 91.9291 216.764 91.5464 216.764C91.1451 216.764 90.8091 216.913 90.5384 217.212C90.2677 217.501 90.1324 217.963 90.1324 218.598V222H88.0184V215Z" fill="white"/>
<path d="M167.316 205.06L170.41 209.344L173.532 205.06H175.562V215H173.322V208.882L170.424 212.886L167.512 208.868V215H165.286V205.06H167.316ZM180.548 215.154C180.044 215.154 179.568 215.061 179.12 214.874C178.672 214.687 178.28 214.431 177.944 214.104C177.617 213.768 177.356 213.381 177.16 212.942C176.964 212.494 176.866 212.013 176.866 211.5C176.866 210.987 176.964 210.511 177.16 210.072C177.356 209.624 177.617 209.237 177.944 208.91C178.28 208.574 178.672 208.313 179.12 208.126C179.568 207.939 180.044 207.846 180.548 207.846C181.052 207.846 181.528 207.939 181.976 208.126C182.424 208.313 182.811 208.574 183.138 208.91C183.474 209.237 183.74 209.624 183.936 210.072C184.132 210.511 184.23 210.987 184.23 211.5C184.23 212.013 184.132 212.494 183.936 212.942C183.74 213.381 183.474 213.768 183.138 214.104C182.811 214.431 182.424 214.687 181.976 214.874C181.528 215.061 181.052 215.154 180.548 215.154ZM180.548 213.18C180.996 213.18 181.364 213.026 181.654 212.718C181.952 212.41 182.102 212.004 182.102 211.5C182.102 210.996 181.952 210.59 181.654 210.282C181.364 209.974 180.996 209.82 180.548 209.82C180.1 209.82 179.726 209.974 179.428 210.282C179.138 210.59 178.994 210.996 178.994 211.5C178.994 212.004 179.138 212.41 179.428 212.718C179.726 213.026 180.1 213.18 180.548 213.18ZM185.53 208H187.644V208.714C187.812 208.471 188.064 208.266 188.4 208.098C188.736 207.93 189.133 207.846 189.59 207.846C190.019 207.846 190.402 207.925 190.738 208.084C191.074 208.233 191.359 208.443 191.592 208.714C191.825 208.985 192.003 209.311 192.124 209.694C192.245 210.077 192.306 210.497 192.306 210.954V215H190.192V211.318C190.192 210.833 190.099 210.455 189.912 210.184C189.725 209.904 189.441 209.764 189.058 209.764C188.657 209.764 188.321 209.913 188.05 210.212C187.779 210.501 187.644 210.963 187.644 211.598V215H185.53V208ZM195.002 207.048C194.825 207.048 194.657 207.015 194.498 206.95C194.339 206.875 194.199 206.782 194.078 206.67C193.957 206.549 193.859 206.409 193.784 206.25C193.719 206.091 193.686 205.919 193.686 205.732C193.686 205.555 193.719 205.387 193.784 205.228C193.859 205.06 193.957 204.92 194.078 204.808C194.199 204.687 194.339 204.593 194.498 204.528C194.657 204.453 194.825 204.416 195.002 204.416C195.189 204.416 195.361 204.453 195.52 204.528C195.688 204.593 195.828 204.687 195.94 204.808C196.061 204.92 196.155 205.06 196.22 205.228C196.295 205.387 196.332 205.555 196.332 205.732C196.332 205.919 196.295 206.091 196.22 206.25C196.155 206.409 196.061 206.549 195.94 206.67C195.828 206.782 195.688 206.875 195.52 206.95C195.361 207.015 195.189 207.048 195.002 207.048ZM193.952 208H196.066V215H193.952V208ZM201.377 215.084C200.985 215.084 200.617 215.033 200.271 214.93C199.935 214.818 199.641 214.655 199.389 214.44C199.137 214.216 198.937 213.941 198.787 213.614C198.638 213.278 198.563 212.886 198.563 212.438V209.834H197.163V208H198.563V206.054H200.677V208H202.637V209.834H200.677V212.004C200.677 212.424 200.771 212.727 200.957 212.914C201.144 213.101 201.447 213.194 201.867 213.194C202.026 213.194 202.166 213.185 202.287 213.166C202.409 213.147 202.525 213.115 202.637 213.068V214.944C202.479 214.991 202.297 215.023 202.091 215.042C201.895 215.07 201.657 215.084 201.377 215.084ZM207.126 215.154C206.622 215.154 206.146 215.061 205.698 214.874C205.25 214.687 204.858 214.431 204.522 214.104C204.195 213.768 203.934 213.381 203.738 212.942C203.542 212.494 203.444 212.013 203.444 211.5C203.444 210.987 203.542 210.511 203.738 210.072C203.934 209.624 204.195 209.237 204.522 208.91C204.858 208.574 205.25 208.313 205.698 208.126C206.146 207.939 206.622 207.846 207.126 207.846C207.63 207.846 208.106 207.939 208.554 208.126C209.002 208.313 209.389 208.574 209.716 208.91C210.052 209.237 210.318 209.624 210.514 210.072C210.71 210.511 210.808 210.987 210.808 211.5C210.808 212.013 210.71 212.494 210.514 212.942C210.318 213.381 210.052 213.768 209.716 214.104C209.389 214.431 209.002 214.687 208.554 214.874C208.106 215.061 207.63 215.154 207.126 215.154ZM207.126 213.18C207.574 213.18 207.942 213.026 208.232 212.718C208.53 212.41 208.68 212.004 208.68 211.5C208.68 210.996 208.53 210.59 208.232 210.282C207.942 209.974 207.574 209.82 207.126 209.82C206.678 209.82 206.304 209.974 206.006 210.282C205.716 210.59 205.572 210.996 205.572 211.5C205.572 212.004 205.716 212.41 206.006 212.718C206.304 213.026 206.678 213.18 207.126 213.18ZM212.108 208H214.222V209.05C214.334 208.742 214.54 208.476 214.838 208.252C215.146 208.028 215.496 207.916 215.888 207.916C215.991 207.916 216.098 207.921 216.21 207.93C216.322 207.939 216.444 207.963 216.574 208V210.142C216.416 210.086 216.262 210.044 216.112 210.016C215.963 209.988 215.804 209.974 215.636 209.974C215.179 209.974 214.829 210.133 214.586 210.45C214.344 210.767 214.222 211.178 214.222 211.682V215H212.108V208ZM218.805 207.048C218.627 207.048 218.459 207.015 218.301 206.95C218.142 206.875 218.002 206.782 217.881 206.67C217.759 206.549 217.661 206.409 217.587 206.25C217.521 206.091 217.489 205.919 217.489 205.732C217.489 205.555 217.521 205.387 217.587 205.228C217.661 205.06 217.759 204.92 217.881 204.808C218.002 204.687 218.142 204.593 218.301 204.528C218.459 204.453 218.627 204.416 218.805 204.416C218.991 204.416 219.164 204.453 219.323 204.528C219.491 204.593 219.631 204.687 219.743 204.808C219.864 204.92 219.957 205.06 220.023 205.228C220.097 205.387 220.135 205.555 220.135 205.732C220.135 205.919 220.097 206.091 220.023 206.25C219.957 206.409 219.864 206.549 219.743 206.67C219.631 206.782 219.491 206.875 219.323 206.95C219.164 207.015 218.991 207.048 218.805 207.048ZM217.755 208H219.869V215H217.755V208ZM221.61 208H223.724V208.714C223.892 208.471 224.144 208.266 224.48 208.098C224.816 207.93 225.213 207.846 225.67 207.846C226.1 207.846 226.482 207.925 226.818 208.084C227.154 208.233 227.439 208.443 227.672 208.714C227.906 208.985 228.083 209.311 228.204 209.694C228.326 210.077 228.386 210.497 228.386 210.954V215H226.272V211.318C226.272 210.833 226.179 210.455 225.992 210.184C225.806 209.904 225.521 209.764 225.138 209.764C224.737 209.764 224.401 209.913 224.13 210.212C223.86 210.501 223.724 210.963 223.724 211.598V215H221.61V208ZM233.35 212.984C233.565 212.984 233.77 212.947 233.966 212.872C234.162 212.797 234.33 212.69 234.47 212.55C234.619 212.41 234.736 212.242 234.82 212.046C234.913 211.841 234.96 211.617 234.96 211.374C234.96 211.131 234.913 210.912 234.82 210.716C234.736 210.511 234.619 210.338 234.47 210.198C234.33 210.058 234.162 209.951 233.966 209.876C233.77 209.801 233.565 209.764 233.35 209.764C233.135 209.764 232.93 209.801 232.734 209.876C232.538 209.951 232.365 210.058 232.216 210.198C232.076 210.338 231.959 210.511 231.866 210.716C231.782 210.912 231.74 211.131 231.74 211.374C231.74 211.617 231.782 211.841 231.866 212.046C231.959 212.242 232.076 212.41 232.216 212.55C232.365 212.69 232.538 212.797 232.734 212.872C232.93 212.947 233.135 212.984 233.35 212.984ZM233.084 218.066C232.524 218.066 231.95 217.987 231.362 217.828C230.774 217.669 230.265 217.403 229.836 217.03L230.942 215.448C231.259 215.719 231.605 215.915 231.978 216.036C232.351 216.157 232.711 216.218 233.056 216.218C233.336 216.218 233.583 216.171 233.798 216.078C234.013 215.985 234.195 215.859 234.344 215.7C234.493 215.541 234.605 215.35 234.68 215.126C234.755 214.911 234.792 214.683 234.792 214.44V214.048C234.633 214.291 234.381 214.496 234.036 214.664C233.7 214.823 233.317 214.902 232.888 214.902C232.44 214.902 232.015 214.813 231.614 214.636C231.222 214.449 230.877 214.197 230.578 213.88C230.279 213.553 230.041 213.18 229.864 212.76C229.696 212.331 229.612 211.869 229.612 211.374C229.612 210.889 229.696 210.431 229.864 210.002C230.041 209.573 230.279 209.199 230.578 208.882C230.877 208.555 231.222 208.303 231.614 208.126C232.015 207.939 232.44 207.846 232.888 207.846C233.317 207.846 233.7 207.93 234.036 208.098C234.381 208.257 234.633 208.457 234.792 208.7V208H236.906V214.412C236.906 215.056 236.808 215.607 236.612 216.064C236.425 216.531 236.159 216.909 235.814 217.198C235.469 217.497 235.063 217.716 234.596 217.856C234.129 217.996 233.625 218.066 233.084 218.066Z" fill="white"/>
<path d="M30.3068 284.06H34.2268C34.6935 284.06 35.1182 284.139 35.5008 284.298C35.8835 284.457 36.2055 284.671 36.4668 284.942C36.7375 285.213 36.9428 285.53 37.0828 285.894C37.2322 286.258 37.3068 286.645 37.3068 287.056C37.3068 287.7 37.1388 288.232 36.8028 288.652C36.4762 289.072 35.9955 289.394 35.3608 289.618L38.8748 294H36.2008L32.8828 289.898H32.5328V294H30.3068V284.06ZM33.9608 288.008C34.2875 288.008 34.5582 287.924 34.7728 287.756C34.9875 287.579 35.0948 287.345 35.0948 287.056C35.0948 286.757 34.9875 286.524 34.7728 286.356C34.5582 286.188 34.2875 286.104 33.9608 286.104H32.5328V288.008H33.9608ZM42.3292 294.154C41.8159 294.154 41.3306 294.07 40.8732 293.902C40.4252 293.734 40.0332 293.491 39.6972 293.174C39.3612 292.857 39.0952 292.474 38.8992 292.026C38.7032 291.569 38.6052 291.06 38.6052 290.5C38.6052 289.977 38.6939 289.497 38.8712 289.058C39.0579 288.61 39.3146 288.223 39.6412 287.896C39.9772 287.569 40.3692 287.313 40.8172 287.126C41.2652 286.939 41.7552 286.846 42.2872 286.846C42.7446 286.846 43.1832 286.921 43.6032 287.07C44.0326 287.21 44.4059 287.425 44.7232 287.714C45.0406 287.994 45.2926 288.349 45.4792 288.778C45.6752 289.198 45.7732 289.693 45.7732 290.262C45.7732 290.355 45.7686 290.463 45.7592 290.584C45.7592 290.696 45.7499 290.836 45.7312 291.004H40.6492C40.7146 291.424 40.9152 291.737 41.2512 291.942C41.5872 292.138 41.9559 292.236 42.3572 292.236C42.7679 292.236 43.1179 292.157 43.4072 291.998C43.7059 291.83 43.9206 291.643 44.0512 291.438L45.6192 292.614C45.2926 293.081 44.8446 293.454 44.2752 293.734C43.7152 294.014 43.0666 294.154 42.3292 294.154ZM43.6732 289.618C43.5799 289.245 43.3932 288.979 43.1132 288.82C42.8332 288.652 42.5392 288.568 42.2312 288.568C42.0726 288.568 41.9139 288.587 41.7552 288.624C41.5966 288.661 41.4472 288.722 41.3072 288.806C41.1672 288.89 41.0412 288.997 40.9292 289.128C40.8266 289.259 40.7519 289.422 40.7052 289.618H43.6732ZM47.1053 296.926V287H49.2193V287.7C49.2846 287.607 49.378 287.509 49.4993 287.406C49.6206 287.303 49.7606 287.21 49.9193 287.126C50.0873 287.042 50.2693 286.977 50.4653 286.93C50.6706 286.874 50.89 286.846 51.1233 286.846C51.5806 286.846 52.0053 286.944 52.3973 287.14C52.7986 287.336 53.144 287.602 53.4333 287.938C53.7226 288.265 53.9513 288.652 54.1193 289.1C54.2873 289.539 54.3713 290.005 54.3713 290.5C54.3713 290.995 54.2873 291.466 54.1193 291.914C53.9513 292.353 53.7226 292.74 53.4333 293.076C53.144 293.403 52.7986 293.664 52.3973 293.86C52.0053 294.056 51.5806 294.154 51.1233 294.154C50.89 294.154 50.6706 294.126 50.4653 294.07C50.2693 294.023 50.0873 293.958 49.9193 293.874C49.7606 293.79 49.6206 293.697 49.4993 293.594C49.378 293.491 49.2846 293.393 49.2193 293.3V296.926H47.1053ZM50.6473 292.236C51.1233 292.236 51.506 292.073 51.7953 291.746C52.094 291.419 52.2433 291.004 52.2433 290.5C52.2433 289.996 52.094 289.581 51.7953 289.254C51.506 288.927 51.1233 288.764 50.6473 288.764C50.1713 288.764 49.784 288.927 49.4853 289.254C49.196 289.581 49.0513 289.996 49.0513 290.5C49.0513 291.004 49.196 291.419 49.4853 291.746C49.784 292.073 50.1713 292.236 50.6473 292.236ZM58.9392 294.154C58.4352 294.154 57.9592 294.061 57.5112 293.874C57.0632 293.687 56.6712 293.431 56.3352 293.104C56.0086 292.768 55.7472 292.381 55.5512 291.942C55.3552 291.494 55.2572 291.013 55.2572 290.5C55.2572 289.987 55.3552 289.511 55.5512 289.072C55.7472 288.624 56.0086 288.237 56.3352 287.91C56.6712 287.574 57.0632 287.313 57.5112 287.126C57.9592 286.939 58.4352 286.846 58.9392 286.846C59.4432 286.846 59.9192 286.939 60.3672 287.126C60.8152 287.313 61.2026 287.574 61.5292 287.91C61.8652 288.237 62.1312 288.624 62.3272 289.072C62.5232 289.511 62.6212 289.987 62.6212 290.5C62.6212 291.013 62.5232 291.494 62.3272 291.942C62.1312 292.381 61.8652 292.768 61.5292 293.104C61.2026 293.431 60.8152 293.687 60.3672 293.874C59.9192 294.061 59.4432 294.154 58.9392 294.154ZM58.9392 292.18C59.3872 292.18 59.7559 292.026 60.0452 291.718C60.3439 291.41 60.4932 291.004 60.4932 290.5C60.4932 289.996 60.3439 289.59 60.0452 289.282C59.7559 288.974 59.3872 288.82 58.9392 288.82C58.4912 288.82 58.1179 288.974 57.8192 289.282C57.5299 289.59 57.3852 289.996 57.3852 290.5C57.3852 291.004 57.5299 291.41 57.8192 291.718C58.1179 292.026 58.4912 292.18 58.9392 292.18ZM63.9217 287H66.0357V288.05C66.1477 287.742 66.353 287.476 66.6517 287.252C66.9597 287.028 67.3097 286.916 67.7017 286.916C67.8044 286.916 67.9117 286.921 68.0237 286.93C68.1357 286.939 68.257 286.963 68.3877 287V289.142C68.229 289.086 68.075 289.044 67.9257 289.016C67.7764 288.988 67.6177 288.974 67.4497 288.974C66.9924 288.974 66.6424 289.133 66.3997 289.45C66.157 289.767 66.0357 290.178 66.0357 290.682V294H63.9217V287ZM73.1382 294.084C72.7462 294.084 72.3775 294.033 72.0322 293.93C71.6962 293.818 71.4022 293.655 71.1502 293.44C70.8982 293.216 70.6975 292.941 70.5482 292.614C70.3989 292.278 70.3242 291.886 70.3242 291.438V288.834H68.9242V287H70.3242V285.054H72.4382V287H74.3982V288.834H72.4382V291.004C72.4382 291.424 72.5315 291.727 72.7182 291.914C72.9049 292.101 73.2082 292.194 73.6282 292.194C73.7869 292.194 73.9269 292.185 74.0482 292.166C74.1695 292.147 74.2862 292.115 74.3982 292.068V293.944C74.2395 293.991 74.0575 294.023 73.8522 294.042C73.6562 294.07 73.4182 294.084 73.1382 294.084ZM76.7842 286.048C76.6069 286.048 76.4389 286.015 76.2802 285.95C76.1215 285.875 75.9815 285.782 75.8602 285.67C75.7389 285.549 75.6409 285.409 75.5662 285.25C75.5009 285.091 75.4682 284.919 75.4682 284.732C75.4682 284.555 75.5009 284.387 75.5662 284.228C75.6409 284.06 75.7389 283.92 75.8602 283.808C75.9815 283.687 76.1215 283.593 76.2802 283.528C76.4389 283.453 76.6069 283.416 76.7842 283.416C76.9709 283.416 77.1435 283.453 77.3022 283.528C77.4702 283.593 77.6102 283.687 77.7222 283.808C77.8435 283.92 77.9369 284.06 78.0022 284.228C78.0769 284.387 78.1142 284.555 78.1142 284.732C78.1142 284.919 78.0769 285.091 78.0022 285.25C77.9369 285.409 77.8435 285.549 77.7222 285.67C77.6102 285.782 77.4702 285.875 77.3022 285.95C77.1435 286.015 76.9709 286.048 76.7842 286.048ZM75.7342 287H77.8482V294H75.7342V287ZM79.5897 287H81.7037V287.714C81.8717 287.471 82.1237 287.266 82.4597 287.098C82.7957 286.93 83.1923 286.846 83.6497 286.846C84.079 286.846 84.4617 286.925 84.7977 287.084C85.1337 287.233 85.4183 287.443 85.6517 287.714C85.885 287.985 86.0623 288.311 86.1837 288.694C86.305 289.077 86.3657 289.497 86.3657 289.954V294H84.2517V290.318C84.2517 289.833 84.1583 289.455 83.9717 289.184C83.785 288.904 83.5003 288.764 83.1177 288.764C82.7163 288.764 82.3803 288.913 82.1097 289.212C81.839 289.501 81.7037 289.963 81.7037 290.598V294H79.5897V287ZM91.3296 291.984C91.5442 291.984 91.7496 291.947 91.9456 291.872C92.1416 291.797 92.3096 291.69 92.4496 291.55C92.5989 291.41 92.7156 291.242 92.7996 291.046C92.8929 290.841 92.9396 290.617 92.9396 290.374C92.9396 290.131 92.8929 289.912 92.7996 289.716C92.7156 289.511 92.5989 289.338 92.4496 289.198C92.3096 289.058 92.1416 288.951 91.9456 288.876C91.7496 288.801 91.5442 288.764 91.3296 288.764C91.1149 288.764 90.9096 288.801 90.7136 288.876C90.5176 288.951 90.3449 289.058 90.1956 289.198C90.0556 289.338 89.9389 289.511 89.8456 289.716C89.7616 289.912 89.7196 290.131 89.7196 290.374C89.7196 290.617 89.7616 290.841 89.8456 291.046C89.9389 291.242 90.0556 291.41 90.1956 291.55C90.3449 291.69 90.5176 291.797 90.7136 291.872C90.9096 291.947 91.1149 291.984 91.3296 291.984ZM91.0636 297.066C90.5036 297.066 89.9296 296.987 89.3416 296.828C88.7536 296.669 88.2449 296.403 87.8156 296.03L88.9216 294.448C89.2389 294.719 89.5842 294.915 89.9576 295.036C90.3309 295.157 90.6902 295.218 91.0356 295.218C91.3156 295.218 91.5629 295.171 91.7776 295.078C91.9922 294.985 92.1742 294.859 92.3236 294.7C92.4729 294.541 92.5849 294.35 92.6596 294.126C92.7342 293.911 92.7716 293.683 92.7716 293.44V293.048C92.6129 293.291 92.3609 293.496 92.0156 293.664C91.6796 293.823 91.2969 293.902 90.8676 293.902C90.4196 293.902 89.9949 293.813 89.5936 293.636C89.2016 293.449 88.8562 293.197 88.5576 292.88C88.2589 292.553 88.0209 292.18 87.8436 291.76C87.6756 291.331 87.5916 290.869 87.5916 290.374C87.5916 289.889 87.6756 289.431 87.8436 289.002C88.0209 288.573 88.2589 288.199 88.5576 287.882C88.8562 287.555 89.2016 287.303 89.5936 287.126C89.9949 286.939 90.4196 286.846 90.8676 286.846C91.2969 286.846 91.6796 286.93 92.0156 287.098C92.3609 287.257 92.6129 287.457 92.7716 287.7V287H94.8856V293.412C94.8856 294.056 94.7876 294.607 94.5916 295.064C94.4049 295.531 94.1389 295.909 93.7936 296.198C93.4482 296.497 93.0422 296.716 92.5756 296.856C92.1089 296.996 91.6049 297.066 91.0636 297.066Z" fill="white"/>
<path d="M176.87 121.462C176.87 121.938 176.782 122.386 176.604 122.806C176.427 123.217 176.18 123.576 175.862 123.884C175.554 124.183 175.186 124.421 174.756 124.598C174.336 124.766 173.874 124.85 173.37 124.85H172.222V128H169.996V118.06H173.37C173.874 118.06 174.336 118.149 174.756 118.326C175.186 118.494 175.554 118.732 175.862 119.04C176.18 119.348 176.427 119.712 176.604 120.132C176.782 120.543 176.87 120.986 176.87 121.462ZM174.714 121.462C174.714 121.089 174.584 120.781 174.322 120.538C174.07 120.286 173.744 120.16 173.342 120.16H172.222V122.764H173.342C173.744 122.764 174.07 122.638 174.322 122.386C174.584 122.134 174.714 121.826 174.714 121.462ZM177.963 121H180.077V122.05C180.189 121.742 180.394 121.476 180.693 121.252C181.001 121.028 181.351 120.916 181.743 120.916C181.845 120.916 181.953 120.921 182.065 120.93C182.177 120.939 182.298 120.963 182.429 121V123.142C182.27 123.086 182.116 123.044 181.967 123.016C181.817 122.988 181.659 122.974 181.491 122.974C181.033 122.974 180.683 123.133 180.441 123.45C180.198 123.767 180.077 124.178 180.077 124.682V128H177.963V121ZM186.667 128.154C186.154 128.154 185.668 128.07 185.211 127.902C184.763 127.734 184.371 127.491 184.035 127.174C183.699 126.857 183.433 126.474 183.237 126.026C183.041 125.569 182.943 125.06 182.943 124.5C182.943 123.977 183.032 123.497 183.209 123.058C183.396 122.61 183.652 122.223 183.979 121.896C184.315 121.569 184.707 121.313 185.155 121.126C185.603 120.939 186.093 120.846 186.625 120.846C187.082 120.846 187.521 120.921 187.941 121.07C188.37 121.21 188.744 121.425 189.061 121.714C189.378 121.994 189.63 122.349 189.817 122.778C190.013 123.198 190.111 123.693 190.111 124.262C190.111 124.355 190.106 124.463 190.097 124.584C190.097 124.696 190.088 124.836 190.069 125.004H184.987C185.052 125.424 185.253 125.737 185.589 125.942C185.925 126.138 186.294 126.236 186.695 126.236C187.106 126.236 187.456 126.157 187.745 125.998C188.044 125.83 188.258 125.643 188.389 125.438L189.957 126.614C189.63 127.081 189.182 127.454 188.613 127.734C188.053 128.014 187.404 128.154 186.667 128.154ZM188.011 123.618C187.918 123.245 187.731 122.979 187.451 122.82C187.171 122.652 186.877 122.568 186.569 122.568C186.41 122.568 186.252 122.587 186.093 122.624C185.934 122.661 185.785 122.722 185.645 122.806C185.505 122.89 185.379 122.997 185.267 123.128C185.164 123.259 185.09 123.422 185.043 123.618H188.011ZM191.345 123.072H195.461V125.088H191.345V123.072ZM200.673 128.084C200.281 128.084 199.913 128.033 199.567 127.93C199.231 127.818 198.937 127.655 198.685 127.44C198.433 127.216 198.233 126.941 198.083 126.614C197.934 126.278 197.859 125.886 197.859 125.438V122.834H196.459V121H197.859V119.054H199.973V121H201.933V122.834H199.973V125.004C199.973 125.424 200.067 125.727 200.253 125.914C200.44 126.101 200.743 126.194 201.163 126.194C201.322 126.194 201.462 126.185 201.583 126.166C201.705 126.147 201.821 126.115 201.933 126.068V127.944C201.775 127.991 201.593 128.023 201.387 128.042C201.191 128.07 200.953 128.084 200.673 128.084ZM203.269 121H205.383V122.05C205.495 121.742 205.701 121.476 205.999 121.252C206.307 121.028 206.657 120.916 207.049 120.916C207.152 120.916 207.259 120.921 207.371 120.93C207.483 120.939 207.605 120.963 207.735 121V123.142C207.577 123.086 207.423 123.044 207.273 123.016C207.124 122.988 206.965 122.974 206.797 122.974C206.34 122.974 205.99 123.133 205.747 123.45C205.505 123.767 205.383 124.178 205.383 124.682V128H203.269V121ZM211.498 128.154C211.04 128.154 210.611 128.056 210.21 127.86C209.818 127.664 209.477 127.403 209.188 127.076C208.898 126.74 208.67 126.353 208.502 125.914C208.334 125.466 208.25 124.995 208.25 124.5C208.25 124.005 208.334 123.539 208.502 123.1C208.67 122.652 208.898 122.265 209.188 121.938C209.477 121.602 209.818 121.336 210.21 121.14C210.611 120.944 211.04 120.846 211.498 120.846C211.731 120.846 211.946 120.874 212.142 120.93C212.347 120.977 212.529 121.042 212.688 121.126C212.856 121.21 212.996 121.303 213.108 121.406C213.229 121.509 213.327 121.607 213.402 121.7V121H215.516V128H213.402V127.3C213.327 127.393 213.229 127.491 213.108 127.594C212.996 127.697 212.856 127.79 212.688 127.874C212.529 127.958 212.347 128.023 212.142 128.07C211.946 128.126 211.731 128.154 211.498 128.154ZM211.974 126.236C212.45 126.236 212.832 126.073 213.122 125.746C213.42 125.419 213.57 125.004 213.57 124.5C213.57 123.996 213.42 123.581 213.122 123.254C212.832 122.927 212.45 122.764 211.974 122.764C211.498 122.764 211.11 122.927 210.812 123.254C210.522 123.581 210.378 123.996 210.378 124.5C210.378 125.004 210.522 125.419 210.812 125.746C211.11 126.073 211.498 126.236 211.974 126.236ZM220.084 128.154C219.626 128.154 219.197 128.056 218.796 127.86C218.404 127.664 218.063 127.403 217.774 127.076C217.484 126.74 217.256 126.353 217.088 125.914C216.92 125.466 216.836 124.995 216.836 124.5C216.836 124.005 216.92 123.539 217.088 123.1C217.256 122.652 217.484 122.265 217.774 121.938C218.063 121.602 218.404 121.336 218.796 121.14C219.197 120.944 219.626 120.846 220.084 120.846C220.317 120.846 220.532 120.874 220.728 120.93C220.933 120.977 221.115 121.042 221.274 121.126C221.442 121.21 221.582 121.303 221.694 121.406C221.815 121.509 221.913 121.607 221.988 121.7V117.5H224.102V128H221.988V127.3C221.913 127.393 221.815 127.491 221.694 127.594C221.582 127.697 221.442 127.79 221.274 127.874C221.115 127.958 220.933 128.023 220.728 128.07C220.532 128.126 220.317 128.154 220.084 128.154ZM220.56 126.236C221.036 126.236 221.418 126.073 221.708 125.746C222.006 125.419 222.156 125.004 222.156 124.5C222.156 123.996 222.006 123.581 221.708 123.254C221.418 122.927 221.036 122.764 220.56 122.764C220.084 122.764 219.696 122.927 219.398 123.254C219.108 123.581 218.964 123.996 218.964 124.5C218.964 125.004 219.108 125.419 219.398 125.746C219.696 126.073 220.084 126.236 220.56 126.236ZM229.146 128.154C228.632 128.154 228.147 128.07 227.69 127.902C227.242 127.734 226.85 127.491 226.514 127.174C226.178 126.857 225.912 126.474 225.716 126.026C225.52 125.569 225.422 125.06 225.422 124.5C225.422 123.977 225.51 123.497 225.688 123.058C225.874 122.61 226.131 122.223 226.458 121.896C226.794 121.569 227.186 121.313 227.634 121.126C228.082 120.939 228.572 120.846 229.104 120.846C229.561 120.846 230 120.921 230.42 121.07C230.849 121.21 231.222 121.425 231.54 121.714C231.857 121.994 232.109 122.349 232.296 122.778C232.492 123.198 232.59 123.693 232.59 124.262C232.59 124.355 232.585 124.463 232.576 124.584C232.576 124.696 232.566 124.836 232.548 125.004H227.466C227.531 125.424 227.732 125.737 228.068 125.942C228.404 126.138 228.772 126.236 229.174 126.236C229.584 126.236 229.934 126.157 230.224 125.998C230.522 125.83 230.737 125.643 230.868 125.438L232.436 126.614C232.109 127.081 231.661 127.454 231.092 127.734C230.532 128.014 229.883 128.154 229.146 128.154ZM230.49 123.618C230.396 123.245 230.21 122.979 229.93 122.82C229.65 122.652 229.356 122.568 229.048 122.568C228.889 122.568 228.73 122.587 228.572 122.624C228.413 122.661 228.264 122.722 228.124 122.806C227.984 122.89 227.858 122.997 227.746 123.128C227.643 123.259 227.568 123.422 227.522 123.618H230.49ZM166.323 143.154C165.81 143.154 165.325 143.065 164.867 142.888C164.419 142.701 164.027 142.449 163.691 142.132C163.355 141.805 163.089 141.418 162.893 140.97C162.697 140.522 162.599 140.032 162.599 139.5C162.599 138.968 162.697 138.478 162.893 138.03C163.089 137.582 163.355 137.199 163.691 136.882C164.027 136.555 164.419 136.303 164.867 136.126C165.325 135.939 165.81 135.846 166.323 135.846C166.687 135.846 167.037 135.897 167.373 136C167.709 136.093 168.022 136.233 168.311 136.42C168.601 136.597 168.862 136.812 169.095 137.064C169.329 137.307 169.52 137.582 169.669 137.89L167.821 138.87C167.691 138.571 167.495 138.324 167.233 138.128C166.981 137.923 166.678 137.82 166.323 137.82C166.099 137.82 165.889 137.862 165.693 137.946C165.507 138.03 165.339 138.147 165.189 138.296C165.049 138.436 164.937 138.609 164.853 138.814C164.769 139.019 164.727 139.248 164.727 139.5C164.727 139.752 164.769 139.981 164.853 140.186C164.937 140.391 165.049 140.569 165.189 140.718C165.339 140.858 165.507 140.97 165.693 141.054C165.889 141.138 166.099 141.18 166.323 141.18C166.678 141.18 166.981 141.082 167.233 140.886C167.495 140.681 167.691 140.429 167.821 140.13L169.669 141.11C169.52 141.418 169.329 141.698 169.095 141.95C168.862 142.193 168.601 142.407 168.311 142.594C168.022 142.771 167.709 142.907 167.373 143C167.037 143.103 166.687 143.154 166.323 143.154ZM174.047 143.154C173.543 143.154 173.067 143.061 172.619 142.874C172.171 142.687 171.779 142.431 171.443 142.104C171.116 141.768 170.855 141.381 170.659 140.942C170.463 140.494 170.365 140.013 170.365 139.5C170.365 138.987 170.463 138.511 170.659 138.072C170.855 137.624 171.116 137.237 171.443 136.91C171.779 136.574 172.171 136.313 172.619 136.126C173.067 135.939 173.543 135.846 174.047 135.846C174.551 135.846 175.027 135.939 175.475 136.126C175.923 136.313 176.31 136.574 176.637 136.91C176.973 137.237 177.239 137.624 177.435 138.072C177.631 138.511 177.729 138.987 177.729 139.5C177.729 140.013 177.631 140.494 177.435 140.942C177.239 141.381 176.973 141.768 176.637 142.104C176.31 142.431 175.923 142.687 175.475 142.874C175.027 143.061 174.551 143.154 174.047 143.154ZM174.047 141.18C174.495 141.18 174.863 141.026 175.153 140.718C175.451 140.41 175.601 140.004 175.601 139.5C175.601 138.996 175.451 138.59 175.153 138.282C174.863 137.974 174.495 137.82 174.047 137.82C173.599 137.82 173.225 137.974 172.927 138.282C172.637 138.59 172.493 138.996 172.493 139.5C172.493 140.004 172.637 140.41 172.927 140.718C173.225 141.026 173.599 141.18 174.047 141.18ZM187.793 139.374C187.793 138.861 187.714 138.464 187.555 138.184C187.396 137.904 187.14 137.764 186.785 137.764C186.421 137.764 186.122 137.904 185.889 138.184C185.665 138.464 185.544 138.907 185.525 139.514V143H183.411V139.374C183.411 138.861 183.332 138.464 183.173 138.184C183.014 137.904 182.758 137.764 182.403 137.764C182.03 137.764 181.726 137.909 181.493 138.198C181.26 138.487 181.143 138.954 181.143 139.598V143H179.029V136H181.143V136.714C181.33 136.471 181.568 136.266 181.857 136.098C182.156 135.93 182.515 135.846 182.935 135.846C183.439 135.846 183.868 135.953 184.223 136.168C184.587 136.383 184.876 136.686 185.091 137.078C185.203 136.863 185.343 136.681 185.511 136.532C185.679 136.373 185.861 136.243 186.057 136.14C186.253 136.037 186.454 135.963 186.659 135.916C186.864 135.869 187.06 135.846 187.247 135.846C188.106 135.846 188.764 136.131 189.221 136.7C189.678 137.26 189.907 138.03 189.907 139.01V143H187.793V139.374ZM191.553 145.926V136H193.667V136.7C193.732 136.607 193.825 136.509 193.947 136.406C194.068 136.303 194.208 136.21 194.367 136.126C194.535 136.042 194.717 135.977 194.913 135.93C195.118 135.874 195.337 135.846 195.571 135.846C196.028 135.846 196.453 135.944 196.845 136.14C197.246 136.336 197.591 136.602 197.881 136.938C198.17 137.265 198.399 137.652 198.567 138.1C198.735 138.539 198.819 139.005 198.819 139.5C198.819 139.995 198.735 140.466 198.567 140.914C198.399 141.353 198.17 141.74 197.881 142.076C197.591 142.403 197.246 142.664 196.845 142.86C196.453 143.056 196.028 143.154 195.571 143.154C195.337 143.154 195.118 143.126 194.913 143.07C194.717 143.023 194.535 142.958 194.367 142.874C194.208 142.79 194.068 142.697 193.947 142.594C193.825 142.491 193.732 142.393 193.667 142.3V145.926H191.553ZM195.095 141.236C195.571 141.236 195.953 141.073 196.243 140.746C196.541 140.419 196.691 140.004 196.691 139.5C196.691 138.996 196.541 138.581 196.243 138.254C195.953 137.927 195.571 137.764 195.095 137.764C194.619 137.764 194.231 137.927 193.933 138.254C193.643 138.581 193.499 138.996 193.499 139.5C193.499 140.004 193.643 140.419 193.933 140.746C194.231 141.073 194.619 141.236 195.095 141.236ZM200.139 132.5H202.253V143H200.139V132.5ZM205.044 135.048C204.867 135.048 204.699 135.015 204.54 134.95C204.381 134.875 204.241 134.782 204.12 134.67C203.999 134.549 203.901 134.409 203.826 134.25C203.761 134.091 203.728 133.919 203.728 133.732C203.728 133.555 203.761 133.387 203.826 133.228C203.901 133.06 203.999 132.92 204.12 132.808C204.241 132.687 204.381 132.593 204.54 132.528C204.699 132.453 204.867 132.416 205.044 132.416C205.231 132.416 205.403 132.453 205.562 132.528C205.73 132.593 205.87 132.687 205.982 132.808C206.103 132.92 206.197 133.06 206.262 133.228C206.337 133.387 206.374 133.555 206.374 133.732C206.374 133.919 206.337 134.091 206.262 134.25C206.197 134.409 206.103 134.549 205.982 134.67C205.87 134.782 205.73 134.875 205.562 134.95C205.403 135.015 205.231 135.048 205.044 135.048ZM203.994 136H206.108V143H203.994V136ZM210.677 143.154C210.22 143.154 209.791 143.056 209.389 142.86C208.997 142.664 208.657 142.403 208.367 142.076C208.078 141.74 207.849 141.353 207.681 140.914C207.513 140.466 207.429 139.995 207.429 139.5C207.429 139.005 207.513 138.539 207.681 138.1C207.849 137.652 208.078 137.265 208.367 136.938C208.657 136.602 208.997 136.336 209.389 136.14C209.791 135.944 210.22 135.846 210.677 135.846C210.911 135.846 211.125 135.874 211.321 135.93C211.527 135.977 211.709 136.042 211.867 136.126C212.035 136.21 212.175 136.303 212.287 136.406C212.409 136.509 212.507 136.607 212.581 136.7V136H214.695V143H212.581V142.3C212.507 142.393 212.409 142.491 212.287 142.594C212.175 142.697 212.035 142.79 211.867 142.874C211.709 142.958 211.527 143.023 211.321 143.07C211.125 143.126 210.911 143.154 210.677 143.154ZM211.153 141.236C211.629 141.236 212.012 141.073 212.301 140.746C212.6 140.419 212.749 140.004 212.749 139.5C212.749 138.996 212.6 138.581 212.301 138.254C212.012 137.927 211.629 137.764 211.153 137.764C210.677 137.764 210.29 137.927 209.991 138.254C209.702 138.581 209.557 138.996 209.557 139.5C209.557 140.004 209.702 140.419 209.991 140.746C210.29 141.073 210.677 141.236 211.153 141.236ZM216.435 136H218.549V136.714C218.717 136.471 218.969 136.266 219.305 136.098C219.641 135.93 220.038 135.846 220.495 135.846C220.925 135.846 221.307 135.925 221.643 136.084C221.979 136.233 222.264 136.443 222.497 136.714C222.731 136.985 222.908 137.311 223.029 137.694C223.151 138.077 223.211 138.497 223.211 138.954V143H221.097V139.318C221.097 138.833 221.004 138.455 220.817 138.184C220.631 137.904 220.346 137.764 219.963 137.764C219.562 137.764 219.226 137.913 218.955 138.212C218.685 138.501 218.549 138.963 218.549 139.598V143H216.435V136ZM228.161 143.154C227.648 143.154 227.163 143.065 226.705 142.888C226.257 142.701 225.865 142.449 225.529 142.132C225.193 141.805 224.927 141.418 224.731 140.97C224.535 140.522 224.437 140.032 224.437 139.5C224.437 138.968 224.535 138.478 224.731 138.03C224.927 137.582 225.193 137.199 225.529 136.882C225.865 136.555 226.257 136.303 226.705 136.126C227.163 135.939 227.648 135.846 228.161 135.846C228.525 135.846 228.875 135.897 229.211 136C229.547 136.093 229.86 136.233 230.149 136.42C230.439 136.597 230.7 136.812 230.933 137.064C231.167 137.307 231.358 137.582 231.507 137.89L229.659 138.87C229.529 138.571 229.333 138.324 229.071 138.128C228.819 137.923 228.516 137.82 228.161 137.82C227.937 137.82 227.727 137.862 227.531 137.946C227.345 138.03 227.177 138.147 227.027 138.296C226.887 138.436 226.775 138.609 226.691 138.814C226.607 139.019 226.565 139.248 226.565 139.5C226.565 139.752 226.607 139.981 226.691 140.186C226.775 140.391 226.887 140.569 227.027 140.718C227.177 140.858 227.345 140.97 227.531 141.054C227.727 141.138 227.937 141.18 228.161 141.18C228.516 141.18 228.819 141.082 229.071 140.886C229.333 140.681 229.529 140.429 229.659 140.13L231.507 141.11C231.358 141.418 231.167 141.698 230.933 141.95C230.7 142.193 230.439 142.407 230.149 142.594C229.86 142.771 229.547 142.907 229.211 143C228.875 143.103 228.525 143.154 228.161 143.154ZM235.941 143.154C235.427 143.154 234.942 143.07 234.485 142.902C234.037 142.734 233.645 142.491 233.309 142.174C232.973 141.857 232.707 141.474 232.511 141.026C232.315 140.569 232.217 140.06 232.217 139.5C232.217 138.977 232.305 138.497 232.483 138.058C232.669 137.61 232.926 137.223 233.253 136.896C233.589 136.569 233.981 136.313 234.429 136.126C234.877 135.939 235.367 135.846 235.899 135.846C236.356 135.846 236.795 135.921 237.215 136.07C237.644 136.21 238.017 136.425 238.335 136.714C238.652 136.994 238.904 137.349 239.091 137.778C239.287 138.198 239.385 138.693 239.385 139.262C239.385 139.355 239.38 139.463 239.371 139.584C239.371 139.696 239.361 139.836 239.343 140.004H234.261C234.326 140.424 234.527 140.737 234.863 140.942C235.199 141.138 235.567 141.236 235.969 141.236C236.379 141.236 236.729 141.157 237.019 140.998C237.317 140.83 237.532 140.643 237.663 140.438L239.231 141.614C238.904 142.081 238.456 142.454 237.887 142.734C237.327 143.014 236.678 143.154 235.941 143.154ZM237.285 138.618C237.191 138.245 237.005 137.979 236.725 137.82C236.445 137.652 236.151 137.568 235.843 137.568C235.684 137.568 235.525 137.587 235.367 137.624C235.208 137.661 235.059 137.722 234.919 137.806C234.779 137.89 234.653 137.997 234.541 138.128C234.438 138.259 234.363 138.422 234.317 138.618H237.285Z" fill="white"/>
<path d="M179.101 294.168C178.391 294.168 177.724 294.033 177.099 293.762C176.473 293.491 175.927 293.123 175.461 292.656C175.003 292.189 174.639 291.648 174.369 291.032C174.098 290.407 173.963 289.739 173.963 289.03C173.963 288.321 174.098 287.658 174.369 287.042C174.639 286.417 175.003 285.871 175.461 285.404C175.927 284.937 176.473 284.569 177.099 284.298C177.724 284.027 178.391 283.892 179.101 283.892C179.614 283.892 180.104 283.957 180.571 284.088C181.047 284.219 181.481 284.405 181.873 284.648C182.274 284.881 182.633 285.166 182.951 285.502C183.268 285.829 183.534 286.197 183.749 286.608L181.789 287.672C181.509 287.168 181.145 286.771 180.697 286.482C180.258 286.193 179.726 286.048 179.101 286.048C178.69 286.048 178.307 286.127 177.953 286.286C177.607 286.445 177.304 286.664 177.043 286.944C176.781 287.215 176.576 287.532 176.427 287.896C176.277 288.251 176.203 288.629 176.203 289.03C176.203 289.431 176.277 289.814 176.427 290.178C176.576 290.533 176.781 290.85 177.043 291.13C177.304 291.401 177.607 291.615 177.953 291.774C178.307 291.933 178.69 292.012 179.101 292.012C179.726 292.012 180.258 291.867 180.697 291.578C181.145 291.289 181.509 290.892 181.789 290.388L183.749 291.452C183.534 291.863 183.268 292.236 182.951 292.572C182.633 292.899 182.274 293.183 181.873 293.426C181.481 293.659 181.047 293.841 180.571 293.972C180.104 294.103 179.614 294.168 179.101 294.168ZM187.43 294.154C186.562 294.154 185.904 293.865 185.456 293.286C185.008 292.707 184.784 291.942 184.784 290.99V287H186.898V290.626C186.898 291.139 186.977 291.536 187.136 291.816C187.304 292.096 187.584 292.236 187.976 292.236C188.377 292.236 188.695 292.091 188.928 291.802C189.171 291.513 189.292 291.046 189.292 290.402V287H191.406V294H189.292V293.286C189.124 293.529 188.886 293.734 188.578 293.902C188.27 294.07 187.887 294.154 187.43 294.154ZM195.547 294.154C194.931 294.154 194.371 294.051 193.867 293.846C193.373 293.641 192.962 293.323 192.635 292.894L194.035 291.62C194.194 291.853 194.404 292.035 194.665 292.166C194.927 292.287 195.221 292.348 195.547 292.348C195.706 292.348 195.851 292.32 195.981 292.264C196.121 292.199 196.191 292.096 196.191 291.956C196.191 291.835 196.14 291.737 196.037 291.662C195.935 291.587 195.701 291.503 195.337 291.41L194.875 291.298C194.203 291.139 193.699 290.859 193.363 290.458C193.027 290.047 192.869 289.562 192.887 289.002C192.897 288.675 192.967 288.381 193.097 288.12C193.237 287.849 193.424 287.621 193.657 287.434C193.9 287.247 194.185 287.103 194.511 287C194.838 286.897 195.193 286.846 195.575 286.846C196.658 286.846 197.479 287.233 198.039 288.008L196.667 289.142C196.509 288.937 196.336 288.792 196.149 288.708C195.963 288.624 195.767 288.582 195.561 288.582C195.431 288.582 195.3 288.61 195.169 288.666C195.048 288.722 194.987 288.815 194.987 288.946C194.987 289.021 195.015 289.105 195.071 289.198C195.137 289.291 195.305 289.375 195.575 289.45L196.219 289.618C196.854 289.786 197.353 290.043 197.717 290.388C198.091 290.724 198.277 291.205 198.277 291.83C198.277 292.166 198.207 292.479 198.067 292.768C197.927 293.048 197.731 293.291 197.479 293.496C197.237 293.701 196.947 293.865 196.611 293.986C196.285 294.098 195.93 294.154 195.547 294.154ZM203.012 294.084C202.62 294.084 202.252 294.033 201.906 293.93C201.57 293.818 201.276 293.655 201.024 293.44C200.772 293.216 200.572 292.941 200.422 292.614C200.273 292.278 200.198 291.886 200.198 291.438V288.834H198.798V287H200.198V285.054H202.312V287H204.272V288.834H202.312V291.004C202.312 291.424 202.406 291.727 202.592 291.914C202.779 292.101 203.082 292.194 203.502 292.194C203.661 292.194 203.801 292.185 203.922 292.166C204.044 292.147 204.16 292.115 204.272 292.068V293.944C204.114 293.991 203.932 294.023 203.726 294.042C203.53 294.07 203.292 294.084 203.012 294.084ZM208.761 294.154C208.257 294.154 207.781 294.061 207.333 293.874C206.885 293.687 206.493 293.431 206.157 293.104C205.83 292.768 205.569 292.381 205.373 291.942C205.177 291.494 205.079 291.013 205.079 290.5C205.079 289.987 205.177 289.511 205.373 289.072C205.569 288.624 205.83 288.237 206.157 287.91C206.493 287.574 206.885 287.313 207.333 287.126C207.781 286.939 208.257 286.846 208.761 286.846C209.265 286.846 209.741 286.939 210.189 287.126C210.637 287.313 211.024 287.574 211.351 287.91C211.687 288.237 211.953 288.624 212.149 289.072C212.345 289.511 212.443 289.987 212.443 290.5C212.443 291.013 212.345 291.494 212.149 291.942C211.953 292.381 211.687 292.768 211.351 293.104C211.024 293.431 210.637 293.687 210.189 293.874C209.741 294.061 209.265 294.154 208.761 294.154ZM208.761 292.18C209.209 292.18 209.577 292.026 209.867 291.718C210.165 291.41 210.315 291.004 210.315 290.5C210.315 289.996 210.165 289.59 209.867 289.282C209.577 288.974 209.209 288.82 208.761 288.82C208.313 288.82 207.939 288.974 207.641 289.282C207.351 289.59 207.207 289.996 207.207 290.5C207.207 291.004 207.351 291.41 207.641 291.718C207.939 292.026 208.313 292.18 208.761 292.18ZM216.571 294.154C216.114 294.154 215.684 294.056 215.283 293.86C214.891 293.664 214.55 293.403 214.261 293.076C213.972 292.74 213.743 292.353 213.575 291.914C213.407 291.466 213.323 290.995 213.323 290.5C213.323 290.005 213.407 289.539 213.575 289.1C213.743 288.652 213.972 288.265 214.261 287.938C214.55 287.602 214.891 287.336 215.283 287.14C215.684 286.944 216.114 286.846 216.571 286.846C216.804 286.846 217.019 286.874 217.215 286.93C217.42 286.977 217.602 287.042 217.761 287.126C217.929 287.21 218.069 287.303 218.181 287.406C218.302 287.509 218.4 287.607 218.475 287.7V283.5H220.589V294H218.475V293.3C218.4 293.393 218.302 293.491 218.181 293.594C218.069 293.697 217.929 293.79 217.761 293.874C217.602 293.958 217.42 294.023 217.215 294.07C217.019 294.126 216.804 294.154 216.571 294.154ZM217.047 292.236C217.523 292.236 217.906 292.073 218.195 291.746C218.494 291.419 218.643 291.004 218.643 290.5C218.643 289.996 218.494 289.581 218.195 289.254C217.906 288.927 217.523 288.764 217.047 288.764C216.571 288.764 216.184 288.927 215.885 289.254C215.596 289.581 215.451 289.996 215.451 290.5C215.451 291.004 215.596 291.419 215.885 291.746C216.184 292.073 216.571 292.236 217.047 292.236ZM222.917 296.926L224.373 293.594L221.461 287H223.771L225.507 291.326L227.229 287H229.553L225.199 296.926H222.917Z" fill="white"/>
<path d="M158.316 0L134.76 17.3994L139.14 7.14534L158.316 0Z" fill="#6D95F9"/>
<path d="M103.982 0L127.328 17.5618L123.157 7.14534L103.982 0Z" fill="#6D95F9"/>
<path d="M149.835 40.3436L143.567 49.9017L156.987 53.5903L160.832 40.5524L149.835 40.3436Z" fill="#6D95F9"/>
<path d="M101.489 40.5524L105.31 53.5903L118.707 49.9017L112.463 40.3436L101.489 40.5524Z" fill="#6D95F9"/>
<path d="M117.985 24.1966L114.257 29.8108L127.537 30.414L127.095 16.1465L117.985 24.1966Z" fill="#6D95F9"/>
<path d="M144.313 24.1963L135.063 15.9838L134.76 30.4136L148.04 29.8105L144.313 24.1963Z" fill="#6D95F9"/>
<path d="M118.707 49.9012L126.745 46.027L119.825 40.6448L118.707 49.9012Z" fill="#6D95F9"/>
<path d="M135.552 46.027L143.567 49.9012L142.472 40.6448L135.552 46.027Z" fill="#6D95F9"/>
<path d="M143.567 49.9015L135.552 46.0272L136.205 51.2238L136.135 53.4278L143.567 49.9015Z" fill="#D7C1B3"/>
<path d="M118.708 49.9022L126.163 53.4285L126.117 51.2246L126.746 46.028L118.708 49.9022Z" fill="#D7C1B3"/>
<path d="M126.303 37.211L119.639 35.2623L124.346 33.1047L126.303 37.211Z" fill="#2F343B"/>
<path d="M135.995 37.211L137.952 33.1047L142.682 35.2623L135.995 37.211Z" fill="#2F343B"/>
<path d="M118.707 49.9016L119.872 40.3435L112.463 40.5523L118.707 49.9016Z" fill="#497BF8"/>
<path d="M142.426 40.3435L143.567 49.9016L149.835 40.5523L142.426 40.3435Z" fill="#497BF8"/>
<path d="M148.041 29.8108L134.76 30.414L135.995 37.2113L137.952 33.1051L142.682 35.2626L148.041 29.8108Z" fill="#497BF8"/>
<path d="M119.639 35.2626L124.346 33.1051L126.303 37.2113L127.538 30.414L114.257 29.8108L119.639 35.2626Z" fill="#497BF8"/>
<path d="M114.257 29.8121L119.826 40.6461L119.639 35.2639L114.257 29.8121Z" fill="#6D95F9"/>
<path d="M142.682 35.2626L142.472 40.6448L148.041 29.8108L142.682 35.2626Z" fill="#6D95F9"/>
<path d="M127.538 30.4136L126.303 37.2109L127.864 45.2378L128.213 34.659L127.538 30.4136Z" fill="#6D95F9"/>
<path d="M134.76 30.4136L134.108 34.6358L134.434 45.2378L135.995 37.2109L134.76 30.4136Z" fill="#6D95F9"/>
<path d="M135.995 37.2118L134.434 45.2387L135.552 46.0275L142.472 40.6453L142.682 35.2631L135.995 37.2118Z" fill="#B6CAFC"/>
<path d="M119.639 35.2631L119.826 40.6453L126.745 46.0275L127.864 45.2387L126.303 37.2118L119.639 35.2631Z" fill="#B6CAFC"/>
<path d="M136.135 53.4274L136.205 51.2235L135.599 50.7131H126.699L126.117 51.2235L126.163 53.4274L118.708 49.9011L121.317 52.0354L126.606 55.6777H135.669L140.981 52.0354L143.568 49.9011L136.135 53.4274Z" fill="#C0AD9E"/>
<path d="M135.553 46.0269L134.434 45.2382H127.864L126.746 46.0269L126.116 51.2235L126.699 50.7132H135.599L136.205 51.2235L135.553 46.0269Z" fill="#2F343B"/>
<path d="M159.317 18.5361L161.298 8.93168L158.316 0L135.552 16.8194L144.313 24.1967L156.685 27.7926L159.411 24.6143L158.222 23.7559L160.11 22.0392L158.665 20.9256L160.552 19.4873L159.317 18.5361Z" fill="#2C56DD"/>
<path d="M101 8.93339L103.004 18.5378L101.722 19.489L103.633 20.9274L102.188 22.0409L104.075 23.7577L102.887 24.616L105.613 27.7943L117.985 24.1984L126.745 16.8211L103.982 0.00170898L101 8.93339Z" fill="#2C56DD"/>
<path d="M156.685 27.7928L144.313 24.1969L148.041 29.8111L142.472 40.6451L149.835 40.5523H160.832L156.685 27.7928Z" fill="#B6CAFC"/>
<path d="M117.985 24.1969L105.613 27.7928L101.489 40.5523H112.463L119.826 40.6451L114.257 29.8111L117.985 24.1969Z" fill="#B6CAFC"/>
<path d="M134.76 30.4137L135.552 16.8189L139.14 7.1449H123.157L126.745 16.8189L127.537 30.4137L127.84 34.6823L127.864 45.2379H134.434L134.457 34.6823L134.76 30.4137Z" fill="#B6CAFC"/>
<defs>
<linearGradient id="paint0_linear" x1="-40.5" y1="217.326" x2="350.5" y2="217.326" gradientUnits="userSpaceOnUse">
<stop stop-color="white"/>
<stop offset="0.139396" stop-color="#F5841F"/>
<stop offset="0.8125" stop-color="#2C56DD"/>
</linearGradient>
<linearGradient id="paint1_linear" x1="-40.5" y1="217.326" x2="350.5" y2="217.326" gradientUnits="userSpaceOnUse">
<stop stop-color="white"/>
<stop offset="0.139396" stop-color="#F5841F"/>
<stop offset="0.8125" stop-color="#2C56DD"/>
</linearGradient>
<linearGradient id="paint2_linear" x1="-40.5" y1="217.326" x2="350.5" y2="217.326" gradientUnits="userSpaceOnUse">
<stop stop-color="white"/>
<stop offset="0.139396" stop-color="#F5841F"/>
<stop offset="0.8125" stop-color="#2C56DD"/>
</linearGradient>
<linearGradient id="paint3_linear" x1="-40.5" y1="217.326" x2="350.5" y2="217.326" gradientUnits="userSpaceOnUse">
<stop stop-color="white"/>
<stop offset="0.139396" stop-color="#F5841F"/>
<stop offset="0.8125" stop-color="#2C56DD"/>
</linearGradient>
<linearGradient id="paint4_linear" x1="-40.5" y1="217.326" x2="350.5" y2="217.326" gradientUnits="userSpaceOnUse">
<stop stop-color="white"/>
<stop offset="0.139396" stop-color="#F5841F"/>
<stop offset="0.8125" stop-color="#2C56DD"/>
</linearGradient>
<linearGradient id="paint5_linear" x1="-40.5" y1="217.326" x2="350.5" y2="217.326" gradientUnits="userSpaceOnUse">
<stop stop-color="white"/>
<stop offset="0.139396" stop-color="#F5841F"/>
<stop offset="0.8125" stop-color="#2C56DD"/>
</linearGradient>
</defs>
</svg>
