<svg width="19" height="25" viewBox="0 0 19 25" fill="none" xmlns="http://www.w3.org/2000/svg">
<path d="M10.9375 6.64062V0H1.17188C0.522461 0 0 0.522461 0 1.17188V23.8281C0 24.4775 0.522461 25 1.17188 25H17.5781C18.2275 25 18.75 24.4775 18.75 23.8281V7.8125H12.1094C11.4648 7.8125 10.9375 7.28516 10.9375 6.64062ZM14.0625 18.1641C14.0625 18.4863 13.7988 18.75 13.4766 18.75H5.27344C4.95117 18.75 4.6875 18.4863 4.6875 18.1641V17.7734C4.6875 17.4512 4.95117 17.1875 5.27344 17.1875H13.4766C13.7988 17.1875 14.0625 17.4512 14.0625 17.7734V18.1641ZM14.0625 15.0391C14.0625 15.3613 13.7988 15.625 13.4766 15.625H5.27344C4.95117 15.625 4.6875 15.3613 4.6875 15.0391V14.6484C4.6875 14.3262 4.95117 14.0625 5.27344 14.0625H13.4766C13.7988 14.0625 14.0625 14.3262 14.0625 14.6484V15.0391ZM14.0625 11.5234V11.9141C14.0625 12.2363 13.7988 12.5 13.4766 12.5H5.27344C4.95117 12.5 4.6875 12.2363 4.6875 11.9141V11.5234C4.6875 11.2012 4.95117 10.9375 5.27344 10.9375H13.4766C13.7988 10.9375 14.0625 11.2012 14.0625 11.5234ZM18.75 5.95215V6.25H12.5V0H12.7979C13.1104 0 13.4082 0.12207 13.6279 0.341797L18.4082 5.12695C18.6279 5.34668 18.75 5.64453 18.75 5.95215Z" fill="#A495FF"/>
</svg>
