<svg width="25" height="23" viewBox="0 0 25 23" fill="none" xmlns="http://www.w3.org/2000/svg">
<path d="M22.5452 12.9172C20.7432 12.9172 19.9628 14.2884 18.9837 14.2884C16.3806 14.2884 18.75 6.63892 18.75 6.63892C18.75 6.63892 10.2306 10.1111 10.2306 6.49582C10.2306 4.94083 11.8056 4.48844 11.8056 2.76383C11.8056 1.22294 10.5853 0.388916 9.13798 0.388916C7.6339 0.388916 6.25751 1.20884 6.25751 2.83449C6.25751 4.6298 7.63385 5.40727 7.63385 6.38267C7.6339 9.4045 0 7.62668 0 7.62668V22.0901C0 22.0901 7.75325 23.8716 7.75325 20.8461C7.75325 19.8707 6.01714 19.1053 6.01714 17.31C6.01714 15.6843 7.28668 14.8644 8.77656 14.8644C10.2381 14.8644 11.4583 15.6985 11.4583 17.2393C11.4583 18.9639 9.88333 19.4163 9.88333 20.9713C9.88333 23.6103 15.5116 22.088 17.7492 22.088C17.7492 22.088 16.2421 16.8753 18.8702 16.8753C20.431 16.8753 20.8851 18.4444 22.6162 18.4444C24.1628 18.4445 25 17.2288 25 15.7727C25 14.2884 24.177 12.9172 22.5452 12.9172Z" fill="#A495FF"/>
</svg>
