<svg width="26" height="13" viewBox="0 0 26 13" fill="none" xmlns="http://www.w3.org/2000/svg">
<path d="M18.7536 0.25H6.25089C5.22039 0.249853 4.20585 0.504514 3.29757 0.99131C2.3893 1.47811 1.61549 2.18193 1.04502 3.04013C0.474559 3.89833 0.125148 4.88427 0.027896 5.91017C-0.0693556 6.93607 0.0885702 7.9701 0.487613 8.9202C0.886657 9.87031 1.51443 10.707 2.31506 11.3558C3.11568 12.0046 4.06431 12.4453 5.07648 12.6388C6.08865 12.8323 7.13296 12.7725 8.11644 12.4648C9.09992 12.1571 9.99204 11.6109 10.7134 10.875H14.2884C15.0097 11.6108 15.9017 12.1569 16.885 12.4647C17.8684 12.7725 18.9126 12.8323 19.9246 12.639C20.9367 12.4456 21.8853 12.005 22.6859 11.3564C23.4866 10.7078 24.1144 9.87137 24.5136 8.92146C24.9129 7.97155 25.071 6.93768 24.9741 5.91187C24.8771 4.88606 24.528 3.90013 23.9579 3.04184C23.3878 2.18355 22.6143 1.47953 21.7063 0.992441C20.7983 0.505351 19.784 0.250304 18.7536 0.25ZM9.68839 6.96875C9.68839 7.09307 9.63901 7.2123 9.5511 7.30021C9.46319 7.38811 9.34396 7.4375 9.21964 7.4375H7.18839V9.46875C7.18839 9.59307 7.13901 9.7123 7.0511 9.80021C6.96319 9.88811 6.84396 9.9375 6.71964 9.9375H5.78214C5.65782 9.9375 5.5386 9.88811 5.45069 9.80021C5.36278 9.7123 5.31339 9.59307 5.31339 9.46875V7.4375H3.28214C3.15782 7.4375 3.0386 7.38811 2.95069 7.30021C2.86278 7.2123 2.81339 7.09307 2.81339 6.96875V6.03125C2.81339 5.90693 2.86278 5.7877 2.95069 5.69979C3.0386 5.61189 3.15782 5.5625 3.28214 5.5625H5.31339V3.53125C5.31339 3.40693 5.36278 3.2877 5.45069 3.19979C5.5386 3.11189 5.65782 3.0625 5.78214 3.0625H6.71964C6.84396 3.0625 6.96319 3.11189 7.0511 3.19979C7.13901 3.2877 7.18839 3.40693 7.18839 3.53125V5.5625H9.21964C9.34396 5.5625 9.46319 5.61189 9.5511 5.69979C9.63901 5.7877 9.68839 5.90693 9.68839 6.03125V6.96875ZM18.1259 9.9375C17.8169 9.9375 17.5148 9.84586 17.2578 9.67417C17.0009 9.50248 16.8006 9.25845 16.6823 8.97294C16.5641 8.68743 16.5331 8.37327 16.5934 8.07017C16.6537 7.76708 16.8025 7.48867 17.021 7.27015C17.2396 7.05163 17.518 6.90281 17.8211 6.84252C18.1242 6.78223 18.4383 6.81318 18.7238 6.93144C19.0093 7.0497 19.2534 7.24997 19.4251 7.50692C19.5968 7.76387 19.6884 8.06597 19.6884 8.375C19.6884 8.7894 19.5238 9.18683 19.2307 9.47985C18.9377 9.77288 18.5403 9.9375 18.1259 9.9375ZM20.6259 6.1875C20.3169 6.1875 20.0148 6.09586 19.7578 5.92417C19.5009 5.75248 19.3006 5.50845 19.1823 5.22294C19.0641 4.93743 19.0331 4.62327 19.0934 4.32017C19.1537 4.01708 19.3025 3.73867 19.521 3.52015C19.7396 3.30163 20.018 3.15281 20.3211 3.09252C20.6242 3.03223 20.9383 3.06318 21.2238 3.18144C21.5093 3.2997 21.7534 3.49997 21.9251 3.75692C22.0968 4.01387 22.1884 4.31597 22.1884 4.625C22.1884 5.0394 22.0238 5.43683 21.7307 5.72985C21.4377 6.02288 21.0403 6.1875 20.6259 6.1875Z" fill="#A495FF"/>
</svg>
