<svg width="16" height="17" viewBox="0 0 16 17" fill="none" xmlns="http://www.w3.org/2000/svg">
  <path fill-rule="evenodd" clip-rule="evenodd" d="M0.396 1.28534C0.422808 1.06019 0.502289 0.844368 0.628113 0.655048C0.753937 0.465728 0.922628 0.308146 1.12075 0.194851C1.31887 0.0815572 1.54094 0.0156823 1.76929 0.00247362C1.99763 -0.0107351 2.22593 0.0290874 2.436 0.118769C3.498 0.568744 5.878 1.63818 8.898 3.36573C11.919 5.09427 14.044 6.60376 14.967 7.28864C15.755 7.8744 15.757 9.03601 14.968 9.62375C14.054 10.3047 11.955 11.7943 8.898 13.5447C5.838 15.295 3.486 16.3516 2.434 16.7956C1.528 17.1792 0.514 16.5974 0.396 15.629C0.258 14.4972 0 11.9271 0 8.45619C0 4.98722 0.257 2.4182 0.396 1.28534Z" fill="#1E1F25"/>
</svg>
