<svg width="12" height="12" viewBox="0 0 12 12" fill="none" xmlns="http://www.w3.org/2000/svg">
<path d="M8.04894 4.29119L7.00586 4.51133L7.72032 5.30254L7.60736 6.36257L8.58063 5.92757L9.55389 6.36257L9.44094 5.30254L10.1554 4.51133L9.11232 4.29119L8.58063 3.36719L8.04894 4.29119Z" fill="white"/>
<path d="M11.2088 8.58949L10.5255 8.44525L10.1772 7.83984L9.82882 8.44525L9.14551 8.58949L9.61356 9.10781L9.53958 9.80225L10.1772 9.51726L10.8149 9.80225L10.7408 9.10778L11.2088 8.58949Z" fill="white"/>
<path d="M5.35385 6C5.35385 3.64834 6.70697 1.61306 8.67692 0.629275C7.87102 0.226813 6.96206 0 6 0C2.68629 0 0 2.68629 0 6C0 9.31371 2.68629 12 6 12C6.96206 12 7.87102 11.7732 8.67692 11.3707C6.70697 10.3869 5.35385 8.35166 5.35385 6Z" fill="white"/>
</svg>
