<svg width="12" height="12" viewBox="0 0 12 12" fill="none" xmlns="http://www.w3.org/2000/svg">
<path d="M5.99331 5.22237e-05C5.87991 0.00182491 5.77184 0.0485182 5.69283 0.129884C5.61381 0.21125 5.57031 0.320641 5.57186 0.434048V1.71848C5.57106 1.77521 5.58154 1.83154 5.6027 1.88419C5.62385 1.93683 5.65526 1.98475 5.6951 2.02516C5.73493 2.06556 5.7824 2.09764 5.83475 2.11954C5.88709 2.14144 5.94326 2.15272 6 2.15272C6.05674 2.15272 6.11291 2.14144 6.16525 2.11954C6.2176 2.09764 6.26507 2.06556 6.3049 2.02516C6.34474 1.98475 6.37615 1.93683 6.3973 1.88419C6.41846 1.83154 6.42894 1.77521 6.42814 1.71848V0.434048C6.42892 0.376767 6.4182 0.319912 6.39662 0.266847C6.37503 0.213783 6.34302 0.16559 6.30247 0.125121C6.26193 0.0846528 6.21367 0.0527319 6.16057 0.0312489C6.10746 0.00976588 6.05059 -0.000842428 5.99331 5.22237e-05ZM2.05981 1.63235C1.97471 1.63253 1.8916 1.65808 1.82108 1.70571C1.75056 1.75335 1.69584 1.82092 1.66389 1.8998C1.63195 1.97867 1.62423 2.06528 1.64173 2.14856C1.65922 2.23185 1.70114 2.30803 1.76212 2.36738L2.67024 3.27551C2.70969 3.3166 2.75694 3.34941 2.80923 3.372C2.86152 3.3946 2.91779 3.40654 2.97475 3.40712C3.03171 3.4077 3.08821 3.39691 3.14095 3.37538C3.19368 3.35385 3.24159 3.32201 3.28187 3.28173C3.32215 3.24145 3.35398 3.19354 3.37551 3.1408C3.39705 3.08807 3.40784 3.03156 3.40726 2.9746C3.40668 2.91764 3.39474 2.86137 3.37214 2.80908C3.34954 2.7568 3.31674 2.70954 3.27565 2.67009L2.36753 1.76196C2.32754 1.72085 2.27969 1.68819 2.22683 1.66592C2.17397 1.64366 2.11717 1.63224 2.05981 1.63235ZM9.92681 1.63235C9.81558 1.63566 9.71001 1.68215 9.63247 1.76196L8.72435 2.67009C8.68326 2.70954 8.65046 2.7568 8.62786 2.80908C8.60526 2.86137 8.59332 2.91764 8.59274 2.9746C8.59216 3.03156 8.60296 3.08807 8.62449 3.1408C8.64602 3.19354 8.67785 3.24145 8.71813 3.28173C8.75841 3.32201 8.80632 3.35384 8.85906 3.37537C8.91179 3.39691 8.96829 3.4077 9.02525 3.40712C9.08221 3.40654 9.13848 3.3946 9.19077 3.372C9.24306 3.3494 9.29031 3.3166 9.32976 3.27551L10.2379 2.36738C10.2997 2.30724 10.342 2.22982 10.3591 2.14525C10.3762 2.06068 10.3674 1.97292 10.3337 1.89346C10.3001 1.81401 10.2433 1.74656 10.1707 1.69997C10.098 1.65337 10.013 1.6298 9.92681 1.63235ZM6 3.0029C5.20516 3.0029 4.44287 3.31866 3.88084 3.88071C3.3188 4.44275 3.00305 5.20505 3.00305 5.9999C3.00305 6.79476 3.3188 7.55706 3.88084 8.1191C4.44287 8.68115 5.20516 8.9969 6 8.9969C6.79484 8.9969 7.55713 8.68115 8.11916 8.1191C8.6812 7.55706 8.99695 6.79476 8.99695 5.9999C8.99695 5.20505 8.6812 4.44275 8.11916 3.88071C7.55713 3.31866 6.79484 3.0029 6 3.0029ZM0.434234 5.57176C0.3775 5.57096 0.321174 5.58144 0.268527 5.6026C0.215879 5.62375 0.167962 5.65516 0.127559 5.695C0.0871559 5.73483 0.0550731 5.7823 0.0331749 5.83465C0.0112768 5.88699 0 5.94316 0 5.9999C0 6.05664 0.0112768 6.11282 0.0331749 6.16516C0.0550731 6.2175 0.0871559 6.26497 0.127559 6.30481C0.167962 6.34465 0.215879 6.37606 0.268527 6.39721C0.321174 6.41837 0.3775 6.42885 0.434234 6.42805H1.71864C1.77537 6.42885 1.8317 6.41837 1.88435 6.39721C1.937 6.37606 1.98491 6.34465 2.02532 6.30481C2.06572 6.26497 2.0978 6.2175 2.1197 6.16516C2.1416 6.11282 2.15287 6.05664 2.15287 5.9999C2.15287 5.94316 2.1416 5.88699 2.1197 5.83465C2.0978 5.7823 2.06572 5.73483 2.02532 5.695C1.98491 5.65516 1.937 5.62375 1.88435 5.6026C1.8317 5.58144 1.77537 5.57096 1.71864 5.57176H0.434234ZM10.2814 5.57176C10.2246 5.57096 10.1683 5.58144 10.1157 5.6026C10.063 5.62375 10.0151 5.65516 9.97468 5.695C9.93428 5.73483 9.9022 5.7823 9.8803 5.83465C9.8584 5.88699 9.84713 5.94316 9.84713 5.9999C9.84713 6.05664 9.8584 6.11282 9.8803 6.16516C9.9022 6.2175 9.93428 6.26497 9.97468 6.30481C10.0151 6.34465 10.063 6.37606 10.1157 6.39721C10.1683 6.41837 10.2246 6.42885 10.2814 6.42805H11.5658C11.6225 6.42885 11.6788 6.41837 11.7315 6.39721C11.7841 6.37606 11.832 6.34465 11.8724 6.30481C11.9128 6.26497 11.9449 6.2175 11.9668 6.16516C11.9887 6.11282 12 6.05664 12 5.9999C12 5.94316 11.9887 5.88699 11.9668 5.83465C11.9449 5.7823 11.9128 5.73483 11.8724 5.695C11.832 5.65516 11.7841 5.62375 11.7315 5.6026C11.6788 5.58144 11.6225 5.57096 11.5658 5.57176H10.2814ZM2.96458 8.59468C2.85335 8.598 2.74778 8.64448 2.67024 8.7243L1.76212 9.63243C1.72104 9.67188 1.68823 9.71913 1.66563 9.77142C1.64304 9.82371 1.6311 9.87998 1.63052 9.93694C1.62994 9.9939 1.64073 10.0504 1.66226 10.1031C1.68379 10.1559 1.71563 10.2038 1.75591 10.2441C1.79618 10.2843 1.84409 10.3162 1.89683 10.3377C1.94957 10.3592 2.00607 10.37 2.06303 10.3695C2.11999 10.3689 2.17626 10.3569 2.22854 10.3343C2.28083 10.3117 2.32808 10.2789 2.36753 10.2378L3.27565 9.32972C3.33752 9.26958 3.37977 9.19215 3.39688 9.10759C3.41399 9.02302 3.40515 8.93526 3.37153 8.8558C3.3379 8.77634 3.28105 8.7089 3.20844 8.6623C3.13582 8.61571 3.05082 8.59214 2.96458 8.59468ZM9.02287 8.59468C8.9377 8.59471 8.85447 8.62013 8.78383 8.6677C8.71318 8.71527 8.65833 8.78283 8.62628 8.86175C8.59423 8.94066 8.58644 9.02733 8.60391 9.1107C8.62138 9.19406 8.66331 9.27031 8.72435 9.32972L9.63247 10.2378C9.67192 10.2789 9.71917 10.3117 9.77146 10.3343C9.82374 10.3569 9.88001 10.3689 9.93697 10.3695C9.99393 10.37 10.0504 10.3592 10.1032 10.3377C10.1559 10.3162 10.2038 10.2843 10.2441 10.2441C10.2844 10.2038 10.3162 10.1559 10.3377 10.1031C10.3593 10.0504 10.3701 9.9939 10.3695 9.93694C10.3689 9.87998 10.357 9.82371 10.3344 9.77142C10.3118 9.71913 10.279 9.67188 10.2379 9.63243L9.32976 8.7243C9.28986 8.68328 9.24215 8.65068 9.18944 8.62842C9.13673 8.60616 9.08009 8.59469 9.02287 8.59468ZM5.99331 9.84733C5.87991 9.84911 5.77184 9.8958 5.69283 9.97717C5.61381 10.0585 5.57031 10.1679 5.57186 10.2813V11.5658C5.57106 11.6225 5.58154 11.6788 5.6027 11.7315C5.62385 11.7841 5.65526 11.832 5.6951 11.8724C5.73493 11.9128 5.7824 11.9449 5.83475 11.9668C5.88709 11.9887 5.94326 12 6 12C6.05674 12 6.11291 11.9887 6.16525 11.9668C6.2176 11.9449 6.26507 11.9128 6.3049 11.8724C6.34474 11.832 6.37615 11.7841 6.3973 11.7315C6.41846 11.6788 6.42894 11.6225 6.42814 11.5658V10.2813C6.42892 10.2241 6.4182 10.1672 6.39662 10.1141C6.37503 10.0611 6.34302 10.0129 6.30247 9.9724C6.26193 9.93194 6.21367 9.90001 6.16057 9.87853C6.10746 9.85705 6.05059 9.84644 5.99331 9.84733Z" fill="white"/>
</svg>
