<svg width="18" height="18" viewBox="0 0 18 18" fill="none" xmlns="http://www.w3.org/2000/svg">
  <path d="M1.00434 11.9983C1.26941 11.9983 1.52362 12.1036 1.71106 12.2911C1.89849 12.4785 2.00379 12.7327 2.00379 12.9978V15.9962H5.00216C5.26723 15.9962 5.52144 16.1015 5.70888 16.2889C5.89631 16.4763 6.00161 16.7305 6.00161 16.9956C6.00161 17.2607 5.89631 17.5149 5.70888 17.7023C5.52144 17.8898 5.26723 17.9951 5.00216 17.9951H2.00379C1.47365 17.9951 0.965218 17.7845 0.59035 17.4096C0.215482 17.0347 0.00488291 16.5263 0.00488291 15.9962V12.9978C0.00488291 12.7327 0.110182 12.4785 0.297616 12.2911C0.485051 12.1036 0.739266 11.9983 1.00434 11.9983ZM16.9956 11.9983C17.2404 11.9984 17.4767 12.0882 17.6596 12.2509C17.8426 12.4136 17.9594 12.6377 17.9881 12.8809L17.9951 12.9978V15.9962C17.9952 16.5005 17.8048 16.9862 17.4619 17.356C17.119 17.7257 16.649 17.9523 16.1461 17.9901L15.9962 17.9951H12.9978C12.7431 17.9948 12.498 17.8972 12.3128 17.7224C12.1276 17.5475 12.0161 17.3085 12.0012 17.0542C11.9862 16.7999 12.069 16.5495 12.2325 16.3541C12.396 16.1588 12.6279 16.0332 12.8809 16.0032L12.9978 15.9962H15.9962V12.9978C15.9962 12.7327 16.1015 12.4785 16.2889 12.2911C16.4763 12.1036 16.7305 11.9983 16.9956 11.9983ZM15.9962 0.00488291C16.5005 0.00472332 16.9862 0.195185 17.356 0.538089C17.7257 0.880992 17.9523 1.35099 17.9901 1.85387L17.9951 2.00379V5.00216C17.9948 5.2569 17.8972 5.50192 17.7224 5.68715C17.5475 5.87239 17.3085 5.98386 17.0542 5.99879C16.7999 6.01372 16.5495 5.93098 16.3541 5.76748C16.1588 5.60397 16.0332 5.37205 16.0032 5.11909L15.9962 5.00216V2.00379H12.9978C12.7431 2.00351 12.498 1.90597 12.3128 1.73109C12.1276 1.55622 12.0161 1.31721 12.0012 1.06291C11.9862 0.808608 12.069 0.558202 12.2325 0.362855C12.396 0.167509 12.6279 0.0419663 12.8809 0.0118791L12.9978 0.00488291H15.9962ZM5.00216 0.00488291C5.2569 0.00516547 5.50192 0.102709 5.68715 0.277583C5.87239 0.452456 5.98386 0.691462 5.99879 0.945765C6.01372 1.20007 5.93098 1.45047 5.76748 1.64582C5.60397 1.84117 5.37205 1.96671 5.11909 1.9968L5.00216 2.00379H2.00379V5.00216C2.00351 5.2569 1.90597 5.50192 1.73109 5.68715C1.55622 5.87239 1.31721 5.98386 1.06291 5.99879C0.808608 6.01372 0.558202 5.93098 0.362855 5.76748C0.167509 5.60397 0.0419663 5.37205 0.0118791 5.11909L0.00488291 5.00216V2.00379C0.00472332 1.49949 0.195185 1.01377 0.538089 0.643986C0.880992 0.274207 1.35099 0.0477029 1.85387 0.0098803L2.00379 0.00488291H5.00216Z" fill="#1E1F25"/>
</svg>
