<svg width="9" height="15" viewBox="0 0 9 15" fill="none" xmlns="http://www.w3.org/2000/svg">
<path d="M1.09138e-05 12.8335C-0.00121537 13.1624 0.0995488 13.4841 0.28953 13.7581C0.479511 14.032 0.750153 14.2458 1.06715 14.3723C1.38415 14.4987 1.73322 14.5322 2.07013 14.4685C2.40703 14.4048 2.7166 14.2467 2.95957 14.0144L8.4918 8.71091C8.65365 8.55596 8.78181 8.37181 8.86886 8.16912C8.95591 7.96643 9.00012 7.74923 8.99893 7.53007C8.99893 7.51088 8.99893 7.49317 8.99893 7.47546C9.00727 7.24848 8.96669 7.02229 8.8797 6.811C8.79271 6.59971 8.66119 6.40785 8.49334 6.24738L2.95803 0.957223C2.63015 0.658653 2.19339 0.494621 1.74097 0.500135C1.28854 0.505648 0.856281 0.680271 0.536442 0.986735C0.216603 1.2932 0.034516 1.70723 0.0290424 2.14047C0.0235688 2.5737 0.195142 2.99183 0.507145 3.30562L4.86942 7.48284L0.507145 11.6601C0.346212 11.8141 0.218584 11.9971 0.131565 12.1984C0.044545 12.3998 -0.000158873 12.6156 1.09138e-05 12.8335Z" fill="#037DD6"/>
</svg>
