<svg width="18" height="18" viewBox="0 0 18 18" fill="none" xmlns="http://www.w3.org/2000/svg">
<path d="M12.3332 9.75002V13.25C12.3332 16.1667 11.1665 17.3334 8.24984 17.3334H4.74984C1.83317 17.3334 0.666504 16.1667 0.666504 13.25V9.75002C0.666504 6.83335 1.83317 5.66669 4.74984 5.66669H8.24984C11.1665 5.66669 12.3332 6.83335 12.3332 9.75002Z" fill="#BBC0C5"/>
<path d="M13.2498 0.666687H9.74984C7.1806 0.666687 5.97565 1.57843 5.72462 3.78253C5.6721 4.24364 6.054 4.62502 6.51809 4.62502H8.24984C11.7498 4.62502 13.3748 6.25002 13.3748 9.75002V11.4818C13.3748 11.9459 13.7562 12.3278 14.2173 12.2752C16.4214 12.0242 17.3332 10.8193 17.3332 8.25002V4.75002C17.3332 1.83335 16.1665 0.666687 13.2498 0.666687Z" fill="#BBC0C5"/>
</svg>
