<svg width="18" height="18" viewBox="0 0 18 18" fill="none" xmlns="http://www.w3.org/2000/svg">
<path d="M15.4001 0.599976H2.6001C1.4961 0.599976 0.600098 1.49598 0.600098 2.59998V15.4C0.600098 16.504 1.4961 17.4 2.6001 17.4H15.4001C16.5041 17.4 17.4001 16.504 17.4001 15.4V2.59998C17.4001 1.49598 16.5041 0.599976 15.4001 0.599976ZM5.8001 6.99997V14.6H3.4001V6.99997H5.8001ZM3.4001 4.78798C3.4001 4.22798 3.8801 3.79998 4.6001 3.79998C5.3201 3.79998 5.7721 4.22798 5.8001 4.78798C5.8001 5.34798 5.3521 5.79997 4.6001 5.79997C3.8801 5.79997 3.4001 5.34798 3.4001 4.78798ZM14.6001 14.6H12.2001C12.2001 14.6 12.2001 10.896 12.2001 10.6C12.2001 9.79997 11.8001 8.99997 10.8001 8.98397H10.7681C9.8001 8.98397 9.4001 9.80797 9.4001 10.6C9.4001 10.964 9.4001 14.6 9.4001 14.6H7.0001V6.99997H9.4001V8.02397C9.4001 8.02397 10.1721 6.99997 11.7241 6.99997C13.3121 6.99997 14.6001 8.09197 14.6001 10.304V14.6Z" fill="#BBC0C5"/>
</svg>
