<svg width="25" height="20" viewBox="0 0 25 20" fill="none" xmlns="http://www.w3.org/2000/svg">
<path d="M24.2258 2.33125C23.3349 2.72602 22.3779 2.99275 21.3718 3.11332C22.3982 2.49876 23.1856 1.52358 23.5569 0.362758C22.5966 0.932501 21.5329 1.34647 20.4009 1.56839C19.494 0.603885 18.203 0 16.7733 0C14.0291 0 11.8035 2.22563 11.8035 4.97192C11.8035 5.36028 11.8483 5.73798 11.9315 6.10287C7.7993 5.89482 4.13864 3.91565 1.68682 0.909029C1.26005 1.64521 1.01466 2.49876 1.01466 3.40779C1.01466 5.13196 1.89274 6.65448 3.22535 7.54537C2.41021 7.51869 1.64415 7.2957 0.974112 6.92334V6.98736C0.974112 9.39543 2.68654 11.4045 4.96125 11.8611C4.54301 11.9742 4.1045 12.034 3.65212 12.034C3.33204 12.034 3.01943 12.0041 2.71642 11.9465C3.34911 13.9203 5.18424 15.3585 7.35972 15.3969C5.65796 16.7306 3.51448 17.5255 1.18643 17.5255C0.785264 17.5255 0.389431 17.502 0 17.4561C2.20002 18.8677 4.81188 19.6892 7.61792 19.6892C16.7616 19.6892 21.7601 12.1161 21.7601 5.54806C21.7601 5.33468 21.7548 5.11915 21.7452 4.90577C22.7161 4.20372 23.559 3.3299 24.2237 2.33445L24.2258 2.33125Z" fill="#037DD6"/>
</svg>
