<?xml version="1.0" standalone="no"?>
<!DOCTYPE svg PUBLIC "-//W3C//DTD SVG 20010904//EN"
 "http://www.w3.org/TR/2001/REC-SVG-20010904/DTD/svg10.dtd">
<svg version="1.0" xmlns="http://www.w3.org/2000/svg"
 width="292.000000pt" height="292.000000pt" viewBox="0 0 292.000000 292.000000"
 preserveAspectRatio="xMidYMid meet">
<metadata>
Created by potrace 1.14, written by Peter Selinger 2001-2017
</metadata>
<g transform="translate(0.000000,292.000000) scale(0.100000,-0.100000)"
fill="#000000" stroke="none">
<path d="M111 2783 c-116 -373 -109 -342 -94 -403 7 -30 29 -140 48 -245 l36
-189 -31 -26 -32 -26 46 -38 45 -39 -34 -27 -35 -28 46 -45 47 -45 -27 -17
c-14 -10 -26 -21 -26 -25 0 -4 29 -43 64 -87 l63 -79 -52 -179 c-29 -99 -69
-232 -88 -295 -59 -194 -59 -190 -41 -250 9 -30 17 -61 19 -69 2 -9 9 -36 16
-61 7 -25 14 -49 15 -55 18 -68 117 -431 119 -432 1 -3 113 30 355 102 85 26
178 53 205 62 28 8 57 17 66 19 13 5 90 -49 109 -75 3 -4 68 -55 145 -113
l141 -106 223 0 223 0 142 106 c77 58 143 108 146 112 3 3 24 23 46 43 l41 37
104 -31 c57 -17 111 -32 119 -34 8 -2 105 -31 215 -64 109 -33 201 -58 204
-56 2 3 15 44 28 92 30 109 93 344 131 484 l29 106 -22 64 c-12 35 -22 66 -22
69 -1 3 -7 25 -14 50 -7 25 -13 50 -15 55 -1 6 -27 91 -57 190 -30 99 -57 191
-60 204 -4 18 8 41 59 105 l64 81 -27 22 -28 22 45 46 45 45 -35 30 -34 29 29
23 c16 13 36 28 44 35 14 11 12 16 -16 43 -29 27 -31 33 -22 62 5 18 12 53 15
78 3 25 8 48 10 51 2 3 6 20 9 37 3 18 8 47 11 65 3 17 8 41 10 52 1 11 6 31
9 45 25 104 25 130 -1 212 -14 44 -27 88 -29 97 -13 52 -86 275 -92 282 -4 4
-107 -33 -228 -82 -121 -50 -236 -96 -255 -103 -19 -7 -125 -50 -234 -95
l-199 -81 -386 0 -386 -1 -140 56 c-77 31 -149 60 -160 65 -11 5 -56 23 -100
40 -44 18 -89 36 -100 41 -29 13 -418 169 -421 169 -2 0 -21 -57 -43 -127z"/>
</g>
</svg>
