<svg fill="none" height="1529" viewBox="0 0 1920 1529" width="1920" xmlns="http://www.w3.org/2000/svg" xmlns:xlink="http://www.w3.org/1999/xlink"><linearGradient id="a" gradientUnits="userSpaceOnUse" x1="960.716" x2="960.716" y1="-64.9039" y2="1614.49"><stop offset="0" stop-color="#fff" stop-opacity="0"/><stop offset=".0001" stop-color="#fff" stop-opacity="0"/><stop offset=".0449507" stop-color="#fff" stop-opacity=".179497"/><stop offset=".106477" stop-color="#c2e4fd" stop-opacity=".499861"/><stop offset=".144665" stop-color="#aadafc" stop-opacity=".600784"/><stop offset=".325" stop-color="#85c9fb" stop-opacity=".76"/><stop offset=".406011" stop-color="#85c9fb" stop-opacity=".750741"/><stop offset=".490411" stop-color="#85c9fb" stop-opacity=".746111"/><stop offset=".577722" stop-color="#85c9fb" stop-opacity=".74"/><stop offset=".73488" stop-color="#b6dffd" stop-opacity=".6"/><stop offset="1" stop-color="#fff" stop-opacity="0"/></linearGradient><linearGradient id="b" gradientUnits="userSpaceOnUse" x1="1876.21" x2="1417.35" y1="449.614" y2="1073.76"><stop offset="0" stop-color="#7ec8ff"/><stop offset="1" stop-color="#37a6f8"/></linearGradient><linearGradient id="c" gradientUnits="userSpaceOnUse" x1="338.237" x2="155.088" y1="1196.71" y2="205.702"><stop offset="0" stop-color="#f0f7fc" stop-opacity=".93"/><stop offset="1" stop-color="#fff" stop-opacity="0"/></linearGradient><clipPath id="d"><path d="m0 0h1921v1529h-1921z"/></clipPath><g clip-path="url(#d)"><path d="m-17-173.14h1955.43v1724.08h-1955.43z" fill="url(#a)" opacity=".9"/><path d="m1995.79 934.213c11.94 71.187-86.58 229.487-345.88 186.407-191.87-31.87-324.27-225.492-297.2-386.4 30.33-180.238 339.6-397.913 486.68-426.698 147.07-28.786 268.22 74.463 115.28 227.124-152.95 152.661 29.18 328.378 41.12 399.567z" fill="url(#b)" opacity=".1"/><path d="m-291.381 1170.41c-179.029 271.19 1285.97-289.153 1063.953-693.013-222.017-403.8596-1120.503-556.1459-784.5783-190.984 284.3023 308.59 6.29314 451.122-279.3747 883.997z" fill="url(#c)" opacity=".4"/></g></svg>