<svg fill="none" height="1879" viewBox="0 0 375 1879" width="375" xmlns="http://www.w3.org/2000/svg" xmlns:xlink="http://www.w3.org/1999/xlink"><linearGradient id="a" gradientUnits="userSpaceOnUse" x1="960.716" x2="960.716" y1="-23.3587" y2="1835.17"><stop offset="0" stop-color="#fff" stop-opacity="0"/><stop offset=".0001" stop-color="#fff" stop-opacity="0"/><stop offset=".0449507" stop-color="#fff" stop-opacity=".179497"/><stop offset=".106477" stop-color="#c2e4fd" stop-opacity=".499861"/><stop offset=".144665" stop-color="#aadafc" stop-opacity=".600784"/><stop offset=".325" stop-color="#85c9fb" stop-opacity=".76"/><stop offset=".406011" stop-color="#85c9fb" stop-opacity=".750741"/><stop offset=".490411" stop-color="#85c9fb" stop-opacity=".746111"/><stop offset=".577722" stop-color="#85c9fb" stop-opacity=".74"/><stop offset=".73488" stop-color="#b6dffd" stop-opacity=".6"/><stop offset="1" stop-color="#fff" stop-opacity="0"/></linearGradient><linearGradient id="b" gradientUnits="userSpaceOnUse" x1="495.906" x2="175.432" y1="852.829" y2="1303.71"><stop offset="0" stop-color="#7ec8ff"/><stop offset="1" stop-color="#37a6f8"/></linearGradient><linearGradient id="c" gradientUnits="userSpaceOnUse" x1="155.767" x2="112.056" y1="613.674" y2="178.264"><stop offset="0" stop-color="#f0f7fc" stop-opacity=".93"/><stop offset="1" stop-color="#fff" stop-opacity="0"/></linearGradient><clipPath id="d"><path d="m0 0h375v1879h-375z"/></clipPath><g clip-path="url(#d)"><path d="m-17-143.14h1955.43v1907.98h-1955.43z" fill="url(#a)" opacity=".9"/><path d="m539.742 1163.99c2.86 46.08-70.379 156.89-232.535 145.78-119.987-8.21-191.359-126.9-163.416-234.67 31.3-120.707 242.621-284.643 338.139-313.391 95.517-28.748 165.747 31.178 58.245 141.892-107.503 110.719-3.294 214.299-.433 260.389z" fill="url(#b)" opacity=".1"/><path d="m-66.5155 574.769c-50.9295 107.29 438.8995-66.159 343.1365-247.462-95.763-181.302-418.023-285.5581-283.95955-115.673 113.44155 143.584 22.08215 191.872-59.17695 363.135z" fill="url(#c)" opacity=".4"/></g></svg>