<svg width="15" height="14" viewBox="0 0 15 14" fill="none" xmlns="http://www.w3.org/2000/svg">
<path d="M3.75 4.56592V13.875H0.812988V4.56592H3.75ZM3.94043 1.6875C3.94043 1.90723 3.90381 2.1123 3.83057 2.30273C3.76221 2.49316 3.65967 2.65918 3.52295 2.80078C3.38623 2.9375 3.21777 3.04736 3.01758 3.13037C2.8125 3.2085 2.57812 3.24756 2.31445 3.24756C2.03125 3.28174 1.78467 3.25977 1.57471 3.18164C1.36475 3.10352 1.18896 2.99121 1.04736 2.84473C0.905762 2.69336 0.800781 2.51758 0.732422 2.31738C0.65918 2.11719 0.622559 1.90723 0.622559 1.6875C0.622559 1.46777 0.664062 1.2627 0.74707 1.07227C0.830078 0.881836 0.944824 0.718262 1.09131 0.581543C1.24268 0.439941 1.4209 0.327637 1.62598 0.244629C1.83594 0.166504 2.06543 0.127441 2.31445 0.127441C2.56348 0.127441 2.78809 0.166504 2.98828 0.244629C3.18848 0.327637 3.35938 0.439941 3.50098 0.581543C3.64258 0.718262 3.75 0.881836 3.82324 1.07227C3.90137 1.2627 3.94043 1.46777 3.94043 1.6875ZM14.3774 8.56494V13.875H11.4404V8.87256C11.4404 8.56006 11.4136 8.27686 11.3599 8.02295C11.311 7.76904 11.228 7.5542 11.1108 7.37842C10.9937 7.19775 10.8398 7.05859 10.6494 6.96094C10.4541 6.86328 10.2173 6.81445 9.93896 6.81445C9.49951 6.81445 9.16748 6.93408 8.94287 7.17334C8.71826 7.4126 8.52783 7.68848 8.37158 8.00098C8.37158 8.09375 8.34961 8.19385 8.30566 8.30127C8.2666 8.40381 8.24707 8.5332 8.24707 8.68945V13.875H5.31006C5.31006 11.7656 5.31006 10.0933 5.31006 8.85791C5.31006 7.62744 5.31006 6.69482 5.31006 6.06006C5.31006 5.42041 5.31006 5.01025 5.31006 4.82959C5.31006 4.65381 5.31006 4.56592 5.31006 4.56592H8.24707V5.93555C8.34473 5.79395 8.46191 5.63525 8.59863 5.45947C8.73535 5.27881 8.90625 5.10791 9.11133 4.94678C9.32129 4.78564 9.57031 4.64893 9.8584 4.53662C10.1465 4.4292 10.4858 4.37549 10.8765 4.37549C11.3745 4.37549 11.8384 4.46094 12.2681 4.63184C12.6929 4.80762 13.0615 5.06885 13.374 5.41553C13.6865 5.76221 13.9307 6.19678 14.1064 6.71924C14.2871 7.24658 14.3774 7.86182 14.3774 8.56494Z" fill="#595959"/>
</svg>
