<svg width="15" height="12" viewBox="0 0 15 12" fill="none" xmlns="http://www.w3.org/2000/svg">
<path d="M12.7954 2.06445C13.103 1.87402 13.3618 1.64209 13.5718 1.36865C13.7817 1.09521 13.9453 0.794922 14.0625 0.467773C13.7598 0.633789 13.4546 0.772949 13.147 0.885254C12.8442 0.997559 12.5391 1.07812 12.2314 1.12695C11.9531 0.819336 11.6382 0.594727 11.2866 0.453125C10.9399 0.306641 10.5688 0.233398 10.1733 0.233398C9.77295 0.233398 9.39941 0.304199 9.05273 0.445801C8.70605 0.587402 8.39111 0.797363 8.10791 1.07568C7.82959 1.35889 7.61963 1.67383 7.47803 2.02051C7.33643 2.36719 7.26562 2.74072 7.26562 3.14111C7.26562 3.2583 7.27539 3.37305 7.29492 3.48535C7.31445 3.59766 7.33643 3.70264 7.36084 3.80029C6.75049 3.77588 6.16699 3.69531 5.61035 3.55859C5.05371 3.42188 4.52393 3.229 4.021 2.97998C3.52295 2.73096 3.05176 2.42578 2.60742 2.06445C2.16309 1.69824 1.74805 1.27588 1.3623 0.797363C1.2207 1.03174 1.11328 1.26855 1.04004 1.50781C0.97168 1.74707 0.9375 1.99365 0.9375 2.24756C0.9375 2.50635 0.964355 2.75049 1.01807 2.97998C1.07178 3.20947 1.1499 3.42676 1.25244 3.63184C1.35986 3.83203 1.4917 4.02002 1.64795 4.1958C1.80908 4.37158 1.99463 4.53516 2.20459 4.68652C1.97021 4.66211 1.74072 4.61816 1.51611 4.55469C1.29639 4.48633 1.10352 4.40576 0.9375 4.31299C0.9375 4.68896 0.993652 5.03076 1.10596 5.33838C1.21826 5.646 1.38184 5.9292 1.59668 6.18799C1.80664 6.44678 2.04834 6.6665 2.32178 6.84717C2.6001 7.02295 2.90527 7.14746 3.2373 7.2207C3.12012 7.24512 2.99316 7.26709 2.85645 7.28662C2.72461 7.30615 2.6001 7.31592 2.48291 7.31592C2.36572 7.31592 2.26074 7.31348 2.16797 7.30859C2.08008 7.30371 2.01416 7.28906 1.97021 7.26465C2.06299 7.57227 2.19238 7.8457 2.3584 8.08496C2.5293 8.31934 2.74414 8.53174 3.00293 8.72217C3.2373 8.90771 3.49365 9.04688 3.77197 9.13965C4.05518 9.23242 4.36035 9.27881 4.6875 9.27881C4.42871 9.49365 4.16016 9.67676 3.88184 9.82812C3.59863 9.97949 3.30811 10.1064 3.01025 10.209C2.7124 10.3066 2.40479 10.3799 2.0874 10.4287C1.7749 10.4775 1.45508 10.502 1.12793 10.502C0.961914 10.502 0.820312 10.4995 0.703125 10.4946C0.585938 10.4897 0.493164 10.4751 0.424805 10.4507C0.751953 10.6655 1.09131 10.8535 1.44287 11.0146C1.79443 11.1758 2.15576 11.3125 2.52686 11.4248C2.89795 11.5371 3.27881 11.6226 3.66943 11.6812C4.06494 11.7397 4.46777 11.769 4.87793 11.769C5.29785 11.769 5.70557 11.7422 6.10107 11.6885C6.4917 11.6348 6.87012 11.5542 7.23633 11.4468C7.60742 11.3442 7.96631 11.2124 8.31299 11.0513C8.65967 10.895 8.99902 10.7119 9.33105 10.502C9.64355 10.292 9.94141 10.0674 10.2246 9.82812C10.5029 9.59375 10.7617 9.34717 11.001 9.08838C11.2451 8.82959 11.4648 8.55615 11.6602 8.26807C11.8604 7.97998 12.0361 7.67725 12.1875 7.35986C12.3389 7.05713 12.4731 6.74707 12.5903 6.42969C12.7075 6.1123 12.8052 5.79248 12.8833 5.47021C12.9614 5.14795 13.0225 4.82324 13.0664 4.49609C13.1055 4.16895 13.125 3.8418 13.125 3.51465V3.09717C13.4277 2.86279 13.6987 2.62354 13.938 2.37939C14.1772 2.13525 14.3896 1.87402 14.5752 1.5957C14.248 1.71289 13.9404 1.81543 13.6523 1.90332C13.3643 1.98633 13.0786 2.04004 12.7954 2.06445Z" fill="#595959"/>
</svg>
