<svg width="2497" height="2496" viewBox="0 0 2497 2496" fill="none" xmlns="http://www.w3.org/2000/svg">
	<path fill-rule="evenodd" clip-rule="evenodd" d="M1248.5 0C1937.8 0 2496.5 558.7 2496.5 1248C2496.5 1937.3 1937.8 2496 1248.5 2496C559.2 2496 0.5 1937.3 0.5 1248C0.5 558.7 559.2 0 1248.5 0Z" fill="#F0B90B"/>
	<path d="M686.4 1248L687.3 1578L967.7 1743V1936.2L523.2 1675.5V1151.5L686.4 1248ZM686.4 918V1110.3L523.1 1013.7V821.4L686.4 724.8L850.5 821.4L686.4 918ZM1084.8 821.4L1248.1 724.8L1412.2 821.4L1248.1 918L1084.8 821.4Z" fill="white"/>
	<path d="M804.4 1509.6V1316.4L967.7 1413V1605.3L804.4 1509.6ZM1084.8 1812.2L1248.1 1908.8L1412.2 1812.2V2004.5L1248.1 2101.1L1084.8 2004.5V1812.2ZM1646.4 821.4L1809.7 724.8L1973.8 821.4V1013.7L1809.7 1110.3V918L1646.4 821.4ZM1809.7 1578L1810.6 1248L1973.9 1151.4V1675.4L1529.4 1936.1V1742.9L1809.7 1578Z" fill="white"/>
	<path d="M1692.6 1509.6L1529.3 1605.3V1413L1692.6 1316.4V1509.6Z" fill="white"/>
	<path d="M1692.6 986.4L1693.5 1179.6L1412.3 1344.6V1675.4L1249 1771.1L1085.7 1675.4V1344.6L804.5 1179.6V986.4L968.5 889.8L1248 1055.6L1529.2 889.8L1693.3 986.4H1692.6ZM804.4 656.5L1248.1 394.9L1692.6 656.5L1529.3 753.1L1248.1 587.3L967.7 753.1L804.4 656.5Z" fill="white"/>
</svg>
