<svg width="39" height="34" viewBox="0 0 39 34" fill="none" xmlns="http://www.w3.org/2000/svg">
	<path d="M29 10.2004C28.3 9.80039 27.4 9.80039 26.6 10.2004L21 13.5004L17.2 15.6004L11.7 18.9004C11 19.3004 10.1 19.3004 9.3 18.9004L5 16.3004C4.3 15.9004 3.8 15.1004 3.8 14.2004V9.20039C3.8 8.40039 4.2 7.60039 5 7.10039L9.3 4.60039C10 4.20039 10.9 4.20039 11.7 4.60039L16 7.20039C16.7 7.60039 17.2 8.40039 17.2 9.30039V12.6004L21 10.4004V7.00039C21 6.20039 20.6 5.40039 19.8 4.90039L11.8 0.200391C11.1 -0.199609 10.2 -0.199609 9.4 0.200391L1.2 5.00039C0.4 5.40039 0 6.20039 0 7.00039V16.4004C0 17.2004 0.4 18.0004 1.2 18.5004L9.3 23.2004C10 23.6004 10.9 23.6004 11.7 23.2004L17.2 20.0004L21 17.8004L26.5 14.6004C27.2 14.2004 28.1 14.2004 28.9 14.6004L33.2 17.1004C33.9 17.5004 34.4 18.3004 34.4 19.2004V24.2004C34.4 25.0004 34 25.8004 33.2 26.3004L29 28.8004C28.3 29.2004 27.4 29.2004 26.6 28.8004L22.3 26.3004C21.6 25.9004 21.1 25.1004 21.1 24.2004V21.0004L17.3 23.2004V26.5004C17.3 27.3004 17.7 28.1004 18.5 28.6004L26.6 33.3004C27.3 33.7004 28.2 33.7004 29 33.3004L37.1 28.6004C37.8 28.2004 38.3 27.4004 38.3 26.5004V17.0004C38.3 16.2004 37.9 15.4004 37.1 14.9004L29 10.2004Z" fill="#8247E5"/>
</svg>
